<svg xmlns:xlink="http://www.w3.org/1999/xlink" xmlns="http://www.w3.org/2000/svg" viewBox="0 0 975.89 310.21" width="975.89"  height="310.21" ><defs><style>.cls-1{fill:none;stroke:#858584;stroke-miterlimit:10;stroke-width:0.5px;}.cls-2{fill:#858584;}.cls-3{fill:#98c4ec;}.cls-4{fill:#1a315d;}</style></defs><title>Asset 1</title><g id="Layer_2" data-name="Layer 2"><g id="Layer_1-2" data-name="Layer 1"><line class="cls-1" x1="222.2" y1="52.71" x2="222.2" y2="257.51"/><path class="cls-2" d="M344.4,55.08a60.34,60.34,0,0,0,7,1.78,5.57,5.57,0,0,0,3-.86,4.49,4.49,0,0,0,1.94-2.69h2.31l1,24.73h-2.53a35.64,35.64,0,0,0-5.75-11.88q-6.77-8.49-18.23-8.5a23.15,23.15,0,0,0-18.9,9.14q-7.34,9.14-7.34,25.16,0,14.73,7.71,23.52a24.88,24.88,0,0,0,19.54,8.79,31.39,31.39,0,0,0,15.75-4.08,47.36,47.36,0,0,0,9.09-7l2,2a36.89,36.89,0,0,1-9.09,8.12,36.51,36.51,0,0,1-20.05,5.91q-17.74,0-28.17-11.34-9.62-10.49-9.62-26.18,0-16.07,10.16-27Q315,53.31,332.14,53.31A45.12,45.12,0,0,1,344.4,55.08Z"/><path class="cls-2" d="M362.29,127.45v-2a8.94,8.94,0,0,0,6.37-3.2q2.12-2.72,7.28-14.87l22.94-54h2.19l27.43,62.42q2.74,6.2,4.38,7.67t5.51,2v2h-28v-2a24.77,24.77,0,0,0,6.22-1q1.4-.62,1.4-3a13.29,13.29,0,0,0-.54-2.83,31,31,0,0,0-1.51-4.28l-4.41-10.59h-29q-4.29,10.81-5.12,13.19a12.22,12.22,0,0,0-.83,3.77,3.89,3.89,0,0,0,2.26,3.85,18,18,0,0,0,5.26,1v2Zm47.42-28.28L397.09,68.85,384.41,99.17Z"/><path class="cls-2" d="M435.08,54.6h62.26l.59,18.71h-2.63q-1.94-8.82-4.92-11.48t-12.55-2.66h-6.13v56.34q0,6.36,2,7.89t8.71,2v2h-32.1v-2q7-.53,8.71-2.3t1.72-8.88V59.17h-6.18q-9.14,0-12.45,2.64t-5,11.51h-2.69Z"/><path class="cls-2" d="M551.59,55.08a60.34,60.34,0,0,0,7,1.78,5.57,5.57,0,0,0,3-.86,4.49,4.49,0,0,0,1.94-2.69h2.31l1,24.73h-2.53a35.64,35.64,0,0,0-5.75-11.88q-6.77-8.49-18.23-8.5a23.15,23.15,0,0,0-18.9,9.14q-7.34,9.14-7.34,25.16,0,14.73,7.71,23.52a24.88,24.88,0,0,0,19.54,8.79,31.39,31.39,0,0,0,15.75-4.08,47.36,47.36,0,0,0,9.09-7l2,2a36.89,36.89,0,0,1-9.09,8.12,36.51,36.51,0,0,1-20.05,5.91q-17.74,0-28.17-11.34-9.62-10.49-9.62-26.18,0-16.07,10.16-27,10.7-11.45,27.85-11.45A45.12,45.12,0,0,1,551.59,55.08Z"/><path class="cls-2" d="M572.52,125.41q6.45-.69,8.06-2.38t1.61-8.8V66.53q0-5.91-1.8-7.69t-7.88-2.2v-2h30.54v2q-6,.43-7.86,2.2t-1.82,7.69V88h33.44V66.53q0-5.91-1.77-7.69t-7.9-2.2v-2h30.54v2q-6.08.43-7.88,2.2T638,66.53v49q0,6,1.8,7.67t7.88,2.22v2H617.15v-2q6.5-.64,8.09-2.36t1.59-8.83V92.83H593.39v22.69q0,6,1.82,7.7t7.86,2.19v2H572.52Z"/><path class="cls-2" d="M344.4,182.71a60.61,60.61,0,0,0,7,1.77,5.54,5.54,0,0,0,3-.86,4.49,4.49,0,0,0,1.94-2.69h2.31l1,24.73h-2.53a35.66,35.66,0,0,0-5.75-11.88q-6.77-8.49-18.23-8.5a23.15,23.15,0,0,0-18.9,9.14q-7.34,9.14-7.34,25.16,0,14.73,7.71,23.52a24.87,24.87,0,0,0,19.54,8.79,31.39,31.39,0,0,0,15.75-4.09,47.26,47.26,0,0,0,9.09-7l2,2A36.89,36.89,0,0,1,352,251a36.52,36.52,0,0,1-20.05,5.92q-17.74,0-28.17-11.34-9.62-10.49-9.62-26.18,0-16.08,10.16-27,10.7-11.45,27.85-11.45A45,45,0,0,1,344.4,182.71Z"/><path class="cls-2" d="M365.09,253q6.08-.64,7.88-2.17t1.8-7.73v-49q0-5.86-1.77-7.66t-7.9-2.23v-2h58.5L424,198h-2.8q-1.4-7.28-4.19-9.42t-12.47-2.14h-15q-2.43,0-3,.78a5.33,5.33,0,0,0-.57,2.93V214.7h17q7,0,9-2.08t3.12-8.45h2.58v25.43H415q-1.24-6.4-3.17-8.47t-8.93-2.07H386v27.26q0,3.28,2.07,3.87t12.41.59q11.2,0,16.53-2.45t9.58-11.86h3.06l-5,18.6H365.09Z"/><path class="cls-2" d="M431.56,253q6.34-.59,7.9-2.46t1.56-8.72V194.16q0-5.81-1.75-7.61t-7.72-2.28v-2H462a45,45,0,0,1,15.86,2.42q12,4.56,12,16.8,0,8.22-5.35,12.62t-14.54,5.8l22.69,27.95a15.23,15.23,0,0,0,4.19,3.73,13.7,13.7,0,0,0,5.38,1.49v2H484.58L457,221.15l-4.83.27v21.7q0,6.11,1.85,7.74t8.09,2.17v2H431.56Zm37.64-38.17q8.76-3.59,8.76-13.52,0-9.55-7.85-13A27.58,27.58,0,0,0,459,186.42q-4.68,0-5.72.67t-1,3.14v27.11Q464.09,216.9,469.2,214.86Z"/><path class="cls-2" d="M500.71,182.23H563l.59,18.71h-2.63Q559,192.12,556,189.46t-12.55-2.66h-6.13v56.34q0,6.36,2,7.89t8.71,2v2h-32.1v-2q7-.53,8.71-2.3t1.72-8.88V186.79h-6.18q-9.14,0-12.45,2.64t-5,11.51h-2.69Z"/><path class="cls-2" d="M568,253q6.72-.48,8.71-2t2-7.89v-49q0-6.08-2-7.82T568,184.27v-2H600.6v2q-6.72.32-8.71,2.07t-2,7.82v49q0,6.36,2,7.89t8.71,2v2H568Z"/><path class="cls-2" d="M605.14,253q6.5-.69,8.09-2.38t1.59-8.8V194.16q0-5.86-1.77-7.66t-7.9-2.23v-2H663.8l.38,15.75h-3.06q-1.13-7.54-4.25-9.55t-12.31-2h-15.1q-2.21,0-2.83.75a4.94,4.94,0,0,0-.62,3V214.7h16q7,0,9-2.08t3.12-8.45h2.58v25.43h-2.58q-1.24-6.4-3.17-8.47T642,219.05H626v24.09q0,6,1.85,7.73t8.09,2.17v2H605.14Z"/><path class="cls-2" d="M668.12,253q6.72-.48,8.71-2t2-7.89v-49q0-6.08-2-7.82t-8.71-2.07v-2H700.7v2q-6.72.32-8.71,2.07t-2,7.82v49q0,6.36,2,7.89t8.71,2v2H668.12Z"/><path class="cls-2" d="M752.54,182.71a60.59,60.59,0,0,0,7,1.77,5.55,5.55,0,0,0,3-.86,4.48,4.48,0,0,0,1.93-2.69h2.31l1,24.73h-2.53a35.75,35.75,0,0,0-5.75-11.88q-6.77-8.49-18.23-8.5a23.15,23.15,0,0,0-18.9,9.14q-7.34,9.14-7.34,25.16,0,14.73,7.71,23.52a24.87,24.87,0,0,0,19.54,8.79,31.4,31.4,0,0,0,15.75-4.09,47.33,47.33,0,0,0,9.08-7l2,2a37,37,0,0,1-9.09,8.12,36.51,36.51,0,0,1-20.05,5.92q-17.74,0-28.17-11.34-9.62-10.49-9.62-26.18,0-16.08,10.16-27,10.7-11.45,27.85-11.45A45,45,0,0,1,752.54,182.71Z"/><path class="cls-2" d="M770.43,255.08v-2a8.93,8.93,0,0,0,6.37-3.2q2.12-2.72,7.28-14.87l22.94-54h2.19l27.43,62.42q2.74,6.2,4.38,7.67t5.51,2v2h-28v-2a24.76,24.76,0,0,0,6.22-1q1.4-.62,1.4-3a13.32,13.32,0,0,0-.54-2.83,30.7,30.7,0,0,0-1.51-4.28l-4.41-10.59h-29q-4.29,10.81-5.12,13.19a12.25,12.25,0,0,0-.83,3.77,3.89,3.89,0,0,0,2.26,3.85,17.86,17.86,0,0,0,5.26,1v2Zm47.42-28.28-12.62-30.32L792.55,226.8Z"/><path class="cls-2" d="M843.22,182.23h62.26l.59,18.71h-2.64q-1.93-8.82-4.92-11.48T886,186.79h-6.13v56.34q0,6.36,2,7.89t8.71,2v2h-32.1v-2q7-.53,8.71-2.3t1.72-8.88V186.79h-6.18q-9.14,0-12.45,2.64t-5,11.51h-2.69Z"/><path class="cls-2" d="M910.28,253q6.08-.64,7.88-2.17t1.8-7.73v-49q0-5.86-1.77-7.66t-7.9-2.23v-2h58.49l.38,15.75h-2.8q-1.4-7.28-4.19-9.42t-12.47-2.14h-15q-2.43,0-3,.78a5.34,5.34,0,0,0-.57,2.93V214.7h17q7,0,9-2.08t3.12-8.45h2.58v25.43h-2.58q-1.24-6.4-3.17-8.47t-8.93-2.07h-17v27.26q0,3.28,2.07,3.87t12.41.59q11.2,0,16.53-2.45t9.58-11.86h3.06l-5,18.6H910.28Z"/><path class="cls-3" d="M52.65,155.11a102.52,102.52,0,0,0,102.4,102.4V222.2a67.09,67.09,0,1,1,0-134.18V52.71A102.52,102.52,0,0,0,52.65,155.11Z"/><path class="cls-4" d="M0,155.11c0,85.53,69.58,155.11,155.11,155.11V256.73a101.62,101.62,0,0,1,0-203.24V0C69.58,0,0,69.58,0,155.11Z"/></g></g></svg>