<svg version="1.1" xmlns="http://www.w3.org/2000/svg" xmlns:xlink="http://www.w3.org/1999/xlink" x="0px" y="0px" viewBox="0 0 350 144" style="enable-background:new 0 0 350 144;" xml:space="preserve" width="401"  height="165" >
<style type="text/css">
	.st0{fill-rule:evenodd;clip-rule:evenodd;fill:#F48120;}
	.st1{fill-rule:evenodd;clip-rule:evenodd;fill:#ED2183;}
	.st2{fill-rule:evenodd;clip-rule:evenodd;fill:#95216C;}
	.st3{fill-rule:evenodd;clip-rule:evenodd;fill:#E51E25;}
	.st4{enable-background:new    ;}
</style>
<g>
	<g>
		<g>
			<g>
				<path class="st0" d="M84.8,79.3L98.7,56l-7.3,0.2C90.9,45.4,86.2,35,78.2,27.7c-0.8-0.8-1.7-1.5-2.5-2.2L61.1,37.3      c1.8,0.9,3.4,2.1,4.9,3.5l0.1,0c4.5,4.1,7.1,9.9,7.4,16L67,57L84.8,79.3z"/>
			</g>
			<g>
				<path class="st1" d="M20.1,30.1c-0.7,0.8-1.4,1.6-2.1,2.4L29.9,47c0.9-1.7,2-3.3,3.4-4.8l0-0.1c4.1-4.5,9.9-7.2,15.9-7.5      l0.3,6.5l22.2-17.9L48.4,9.5l0.3,7.3C37.8,17.2,27.5,22,20.1,30.1z"/>
			</g>
			<g>
				<path class="st2" d="M38.6,77.6c-1.3-0.8-2.5-1.7-3.7-2.7l-0.1-0.1c-4.5-4.1-7.3-9.8-7.6-15.9l6.5-0.3l-18-22.1L2.1,60l7.3-0.3      c0.2,4.2,1.1,8.3,2.5,12.2c2.3,6.2,6,11.7,11,16.2c0.4,0.4,0.9,0.8,1.3,1.1L38.6,77.6z"/>
			</g>
			<g>
				<path class="st3" d="M79.8,84.8c0.7-0.8,1.4-1.6,2.1-2.4L70,67.8c-0.9,1.7-2.1,3.3-3.4,4.8l-0.1,0.1c-4.1,4.5-9.9,7.2-15.9,7.5      l-0.3-6.5L28.2,91.6l23.4,13.7L51.3,98C62.2,97.6,72.5,92.8,79.8,84.8z"/>
			</g>
		</g>
	</g>
	<g class="st4">
		<path d="M197.7,56.8v32.3h-85.4v-16h11.3V37.8h-11.3V21.7h84v30.5h-20.1V37.8H148v11.9h5.5v-7.4h16.3v26.1h-16.3v-7.5H148v12.2    h29.3V56.8H197.7z"/>
		<path d="M251.4,89.1h-46.7v-16h11.2V37.8h-11.2V21.7h45.8c21.9,0,43.6,10.4,43.6,33.1C294.1,77.7,273.9,89.1,251.4,89.1z     M247.3,37.8h-7.1v35.3h9.9c11.2,0,16.6-5,16.6-18.4C266.7,42.4,260.5,37.8,247.3,37.8z"/>
		<path d="M347.7,73.1v16h-47v-16h11.3V37.8h-11.3V21.7h47v16.1h-11.3v35.3H347.7z"/>
	</g>
	<g class="st4">
		<path d="M23.9,131h-16v-1.3h2.5v-16.2H7.9v-1.3h15.6v6.1h-2.1v-4.8H13v7.2h3.8v-3.1h1.9v7.4h-1.9v-3H13v7.7h8.8v-5.4h2.1V131z"/>
		<path d="M31.9,131h-6.5v-1.3h2.1v-16.5h-2.1v-1.1l4.4-0.5v18.2h2.1V131z"/>
		<path d="M44.9,127.1c-0.2,2.8-2.3,4.2-5.4,4.2c-3.6,0-6.5-2.3-6.5-6.7c0-4.1,2.7-7,6.2-7c3.9,0,5.7,2.8,5.7,6.6v0.6h-9.5    c0,2.3,1.1,5.2,4.1,5.2c2.3,0,3.8-0.8,3.9-3.1L44.9,127.1z M42.4,123.6v-0.5c0-2.6-1.2-4.2-3.2-4.2s-3.5,1.7-3.8,4.7H42.4z"/>
		<path d="M58.1,126.5c-0.1,2.7-2,4.8-5.5,4.8c-3.4,0-6.3-2.6-6.3-6.6c0-4.2,2.7-7.1,6.8-7.1c3.2,0,4.8,1.6,4.8,3.8    c0,0.6-0.1,1.2-0.2,1.6l-2.2-0.2c0.1-0.4,0.1-0.8,0.1-1.1c0-1.7-0.9-2.7-2.7-2.7c-2.8,0-4.2,2.4-4.2,5.7c0,3.1,1.5,5.2,4,5.2    c2.4,0,3.6-1,3.8-3.6L58.1,126.5z"/>
		<path d="M64.6,131.3c-2.4,0-3.7-1.2-3.7-4.1v-7.8h-1.8v-1.1c2.1-0.3,3.2-3.1,3.3-5h0.8v4.9h4.1v1.3h-4.1v7.7    c0,1.9,0.3,2.8,1.7,2.8c1.2,0,1.5-0.9,1.5-2.5c0-0.7-0.1-1.5-0.2-1.9l1.7-0.2c0.1,0.4,0.2,1.2,0.2,2    C68.1,129.9,67.2,131.3,64.6,131.3z"/>
		<path d="M80.1,122.8l-2.1-0.4c0.1-0.3,0.1-1.1,0.1-1.5c0-0.9-0.5-1.3-1.3-1.3c-1.3,0-2.6,1.7-3.2,4.7v5.4h2.3v1.3h-6.7v-1.3h2.1    v-10.3h-2.1v-1.1l4.2-0.3v3.2h0.1c0.9-2,2.1-3.5,3.8-3.5c1.8,0,3,1,3,3.1C80.3,121.6,80.2,122.4,80.1,122.8z"/>
		<path d="M87.7,131.3c-3.4,0-6.5-2.7-6.5-6.8c0-4,2.8-6.9,6.5-6.9c3.5,0,6.5,2.7,6.5,6.9S91,131.3,87.7,131.3z M87.7,119    c-2.4,0-4,2.2-4,5.6c0,3.1,1.5,5.5,4,5.5c2.4,0,4.1-2.2,4.1-5.5C91.8,121.2,90.2,119,87.7,119z"/>
		<path d="M110.3,131h-6.5v-1.3h2.1v-7.6c0-1.9-0.7-2.7-2.3-2.7c-1.7,0-3.1,1.7-3.8,3.2v7.1h2.1v1.3h-6.5v-1.3h2.1v-10.3h-2.1v-1.1    l4.3-0.3v3h0.1c0.8-1.3,2.2-3.2,4.7-3.2c2.2,0,3.7,1.5,3.7,4v8h2.1V131z"/>
		<path d="M117.5,131H111v-1.3h2.1v-10.3H111v-1.1l4.4-0.3v11.8h2.1V131z M114,114.7c-0.8,0-1.5-0.7-1.5-1.5c0-0.8,0.7-1.5,1.5-1.5    s1.5,0.7,1.5,1.5C115.5,114,114.8,114.7,114,114.7z"/>
		<path d="M130.4,126.5c-0.1,2.7-2,4.8-5.5,4.8c-3.4,0-6.3-2.6-6.3-6.6c0-4.2,2.7-7.1,6.8-7.1c3.2,0,4.8,1.6,4.8,3.8    c0,0.6-0.1,1.2-0.2,1.6l-2.2-0.2c0.1-0.4,0.1-0.8,0.1-1.1c0-1.7-0.9-2.7-2.7-2.7c-2.8,0-4.2,2.4-4.2,5.7c0,3.1,1.5,5.2,4,5.2    c2.4,0,3.6-1,3.8-3.6L130.4,126.5z"/>
		<path d="M147,131h-9.3v-1.3h2.5v-16.2h-2.5v-1.3h9.1c5.6,0,10.2,3.3,10.2,9.3C157,127.5,153.4,131,147,131z M145.9,113.4h-3.1    v16.2h3.9c5.1,0,7.5-2.7,7.5-8.2C154.2,115.6,151.1,113.4,145.9,113.4z"/>
		<path d="M169.8,131.3c-1.9,0-2.7-0.8-2.8-2.3h-0.1c-0.8,1.3-2.2,2.3-4.8,2.3c-2.2,0-3.6-1.2-3.6-3.1c0-2.7,2.1-3.8,5.3-4.9    l3.2-1.1v-0.2c0-2.1-0.8-3.1-3.1-3.1c-1.8,0-2.6,0.8-2.6,2.2c0,0.4,0.1,0.8,0.2,1.1l-2.1,0.5c-0.2-0.3-0.3-0.9-0.3-1.6    c0-1.9,1.7-3.5,5.3-3.5c3.4,0,4.9,1.5,4.9,4.2v6.6c0,1,0.2,1.5,0.9,1.5c0.6,0,0.9-0.5,0.9-2c0-0.5-0.1-1.4-0.1-1.6l1.4-0.1    c0.1,0.4,0.2,1.1,0.2,1.7C172.5,130.2,171.6,131.3,169.8,131.3z M167,123.6l-3.5,1.3c-1.6,0.6-2.5,1.7-2.5,2.9    c0,1.5,0.8,2.1,2.3,2.1c1.6,0,3.7-1.4,3.7-4.5V123.6z"/>
		<path d="M178.5,131.3c-2.4,0-3.7-1.2-3.7-4.1v-7.8H173v-1.1c2.1-0.3,3.2-3.1,3.3-5h0.8v4.9h4.1v1.3h-4.1v7.7    c0,1.9,0.3,2.8,1.7,2.8c1.2,0,1.5-0.9,1.5-2.5c0-0.7-0.1-1.5-0.2-1.9l1.7-0.2c0.1,0.4,0.2,1.2,0.2,2    C182,129.9,181.1,131.3,178.5,131.3z"/>
		<path d="M194.6,131.3c-1.9,0-2.7-0.8-2.8-2.3h-0.1c-0.8,1.3-2.2,2.3-4.8,2.3c-2.2,0-3.6-1.2-3.6-3.1c0-2.7,2.1-3.8,5.3-4.9    l3.2-1.1v-0.2c0-2.1-0.8-3.1-3.1-3.1c-1.8,0-2.6,0.8-2.6,2.2c0,0.4,0.1,0.8,0.2,1.1l-2.1,0.5c-0.2-0.3-0.3-0.9-0.3-1.6    c0-1.9,1.7-3.5,5.3-3.5c3.4,0,4.9,1.5,4.9,4.2v6.6c0,1,0.2,1.5,0.9,1.5c0.6,0,0.9-0.5,0.9-2c0-0.5-0.1-1.4-0.1-1.6l1.4-0.1    c0.1,0.4,0.2,1.1,0.2,1.7C197.3,130.2,196.4,131.3,194.6,131.3z M191.8,123.6l-3.5,1.3c-1.6,0.6-2.5,1.7-2.5,2.9    c0,1.5,0.8,2.1,2.3,2.1c1.6,0,3.7-1.4,3.7-4.5V123.6z"/>
		<path d="M211.6,131H204v-1.3h2.5v-16.2H204v-1.3h7.6v1.3h-2.5v16.2h2.5V131z"/>
		<path d="M227.5,131H221v-1.3h2.1v-7.6c0-1.9-0.7-2.7-2.3-2.7c-1.7,0-3.1,1.7-3.8,3.2v7.1h2.1v1.3h-6.5v-1.3h2.1v-10.3h-2.1v-1.1    l4.3-0.3v3h0.1c0.8-1.3,2.2-3.2,4.7-3.2c2.2,0,3.7,1.5,3.7,4v8h2.1V131z"/>
		<path d="M233.2,131.3c-2.4,0-3.7-1.2-3.7-4.1v-7.8h-1.8v-1.1c2.1-0.3,3.2-3.1,3.3-5h0.8v4.9h4.1v1.3h-4.1v7.7    c0,1.9,0.3,2.8,1.7,2.8c1.2,0,1.5-0.9,1.5-2.5c0-0.7-0.1-1.5-0.2-1.9l1.7-0.2c0.1,0.4,0.2,1.2,0.2,2    C236.7,129.9,235.8,131.3,233.2,131.3z"/>
		<path d="M249.9,127.1c-0.2,2.8-2.3,4.2-5.4,4.2c-3.6,0-6.5-2.3-6.5-6.7c0-4.1,2.7-7,6.2-7c3.9,0,5.7,2.8,5.7,6.6v0.6h-9.5    c0,2.3,1.1,5.2,4.1,5.2c2.3,0,3.8-0.8,3.9-3.1L249.9,127.1z M247.4,123.6v-0.5c0-2.6-1.2-4.2-3.2-4.2s-3.5,1.7-3.8,4.7H247.4z"/>
		<path d="M261.9,122.8l-2.1-0.4c0.1-0.3,0.1-1.1,0.1-1.5c0-0.9-0.5-1.3-1.3-1.3c-1.3,0-2.6,1.7-3.3,4.7v5.4h2.3v1.3H251v-1.3h2.1    v-10.3H251v-1.1l4.2-0.3v3.2h0.1c0.9-2,2.1-3.5,3.8-3.5c1.8,0,3,1,3,3.1C262.2,121.6,262,122.4,261.9,122.8z"/>
		<path d="M274.9,126.5c-0.1,2.7-2,4.8-5.5,4.8c-3.4,0-6.3-2.6-6.3-6.6c0-4.2,2.7-7.1,6.8-7.1c3.2,0,4.8,1.6,4.8,3.8    c0,0.6-0.1,1.2-0.2,1.6l-2.2-0.2c0.1-0.4,0.1-0.8,0.1-1.1c0-1.7-0.9-2.7-2.7-2.7c-2.8,0-4.2,2.4-4.2,5.7c0,3.1,1.5,5.2,4,5.2    c2.4,0,3.6-1,3.8-3.6L274.9,126.5z"/>
		<path d="M291,131h-6.5v-1.3h2.1v-7.3c0-2.1-0.6-3-2.2-3c-1.8,0-3.3,1.7-3.9,3.4v7h2.1v1.3h-6.5v-1.3h2.1v-16.5h-2.1v-1l4.4-0.6    v9.1h0.1c0.9-1.5,2.5-3,4.5-3c2.6,0,3.8,1.8,3.8,4.2v7.8h2.1V131z"/>
		<path d="M303.4,131.3c-1.9,0-2.7-0.8-2.8-2.3h-0.1c-0.8,1.3-2.2,2.3-4.8,2.3c-2.2,0-3.6-1.2-3.6-3.1c0-2.7,2.1-3.8,5.3-4.9    l3.2-1.1v-0.2c0-2.1-0.8-3.1-3.1-3.1c-1.8,0-2.6,0.8-2.6,2.2c0,0.4,0.1,0.8,0.2,1.1l-2.1,0.5c-0.2-0.3-0.3-0.9-0.3-1.6    c0-1.9,1.7-3.5,5.3-3.5c3.4,0,4.9,1.5,4.9,4.2v6.6c0,1,0.2,1.5,0.9,1.5c0.6,0,0.9-0.5,0.9-2c0-0.5-0.1-1.4-0.1-1.6l1.4-0.1    c0.1,0.4,0.2,1.1,0.2,1.7C306.1,130.2,305.2,131.3,303.4,131.3z M300.6,123.6l-3.5,1.3c-1.6,0.6-2.5,1.7-2.5,2.9    c0,1.5,0.8,2.1,2.3,2.1c1.6,0,3.7-1.4,3.7-4.5V123.6z"/>
		<path d="M321.7,131h-6.5v-1.3h2.1v-7.6c0-1.9-0.7-2.7-2.3-2.7c-1.7,0-3.1,1.7-3.8,3.2v7.1h2.1v1.3h-6.5v-1.3h2.1v-10.3h-2.1v-1.1    l4.3-0.3v3h0.1c0.8-1.3,2.2-3.2,4.7-3.2c2.2,0,3.7,1.5,3.7,4v8h2.1V131z"/>
		<path d="M335.7,119c-0.2-0.1-0.5-0.2-0.9-0.2c-0.8,0-1.3,0.2-1.7,1c0.4,0.5,0.8,1.6,0.8,2.6c0,2.2-2.1,4.6-5.5,4.6    c-0.8,0-1.4-0.2-1.6-0.2c-1,0-2.1,0.5-2.1,1c0,0.5,0.4,0.8,2.2,1l3.7,0.4c3.8,0.4,5.1,1.3,5.1,3.4c0,1.9-1.9,3.8-6.8,3.8    c-4.9,0-6.5-1.4-6.5-2.9c0-1.3,0.8-2.3,2.2-2.6v-0.1c-1.2-0.3-1.8-1.2-1.8-2.1c0-1.2,0.9-2.2,2.4-2.6v-0.1    c-1.4-0.6-2.3-2.2-2.3-3.7c0-2.6,1.9-4.7,5.4-4.7c1.9,0,3.1,0.5,3.9,1.3c0.6-1.5,1.2-2.6,3.1-2.6c0.2,0,0.5,0,0.7,0.1L335.7,119z     M329.8,131.4c0,0-2.7-0.3-3.2-0.3c-1.6,0.3-2.2,1-2.2,2.1c0,1.3,1.5,1.9,4.6,1.9c3,0,4.5-0.7,4.5-2    C333.5,132.2,332.4,131.7,329.8,131.4z M328.4,119c-1.8,0-3.1,1.1-3.1,3.4c0,2.3,1.3,3.3,3,3.3c1.8,0,3.2-1,3.2-3.3    C331.5,120.2,330.3,119,328.4,119z"/>
		<path d="M348.5,127.1c-0.2,2.8-2.3,4.2-5.4,4.2c-3.6,0-6.5-2.3-6.5-6.7c0-4.1,2.7-7,6.2-7c3.9,0,5.7,2.8,5.7,6.6v0.6h-9.5    c0,2.3,1.1,5.2,4.1,5.2c2.3,0,3.8-0.8,3.9-3.1L348.5,127.1z M346.1,123.6v-0.5c0-2.6-1.2-4.2-3.2-4.2s-3.5,1.7-3.8,4.7H346.1z"/>
	</g>
</g>
</svg>