<?xml version="1.0" encoding="UTF-8"?>
<svg version="1.1" xmlns="http://www.w3.org/2000/svg" width="1972" height="504">
<path d="M0 0 C1.61841797 0.5259375 1.61841797 0.5259375 3.26953125 1.0625 C20.18648084 7.31677661 32.81789695 19.81035031 42 35 C42.75390625 37.390625 42.75390625 37.390625 43 39 C47.5719405 35.27865308 51.77420911 31.40599715 55.78515625 27.0703125 C69.58090576 12.5783289 86.41303943 2.42963417 106 -2 C106.74813965 -2.17732666 107.4962793 -2.35465332 108.26708984 -2.53735352 C116.14031446 -4.2110655 123.94912677 -4.33879542 131.95947266 -4.31567383 C134.23258975 -4.31252412 136.50438738 -4.33601845 138.77734375 -4.36132812 C161.83391248 -4.46182823 183.56766225 2.03499756 200.34765625 18.3515625 C201.22292969 19.22554687 202.09820313 20.09953125 203 21 C203.59683594 21.58523437 204.19367188 22.17046875 204.80859375 22.7734375 C223.67874156 42.92205061 226.16992809 72.96767293 226.11352539 99.09594727 C226.11324301 100.92976378 226.11340224 102.7635804 226.1139679 104.59739685 C226.1142539 109.55539345 226.10838907 114.51336568 226.10139394 119.47135663 C226.09512754 124.66034142 226.094554 129.84932682 226.09336853 135.03831482 C226.09026489 144.8553266 226.08206456 154.67232719 226.07201904 164.48933405 C226.0587338 177.76147348 226.05335018 191.03361598 226.04751682 204.30576038 C226.03812401 225.20384863 226.01819862 246.10191327 226 267 C192.34 267 158.68 267 124 267 C123.96261719 255.66140625 123.92523437 244.3228125 123.88671875 232.640625 C123.85643604 225.44920662 123.82540714 218.25780422 123.79101562 211.06640625 C123.73658948 199.65675319 123.68517385 188.24714449 123.65356445 176.83740234 C123.63052636 168.52663216 123.5970638 160.21597904 123.55129844 151.90530181 C123.52744433 147.50848793 123.50866453 143.11178943 123.50238609 138.71491241 C123.49629968 134.56818067 123.47617293 130.42174384 123.44572449 126.27512169 C123.43700086 124.7611541 123.43320977 123.24714788 123.43499184 121.7331562 C123.44619695 107.80895576 121.97317176 96.10395637 112.6875 85.3125 C104.8516573 78.5700307 98.7457855 76.61880654 88.453125 76.72265625 C78.12081934 77.55251338 69.5316158 82.63266859 62.8125 90.375 C54.08933869 102.72089497 53.85514992 119.04304434 53.79467773 133.49414062 C53.78508483 134.95343291 53.77507395 136.41272249 53.76467896 137.87200928 C53.7377767 141.81354125 53.71668822 145.75508501 53.69667697 149.69665718 C53.67472624 153.8233057 53.64738224 157.94991847 53.62062073 162.07653809 C53.57081618 169.88193125 53.52583224 177.68734438 53.48259836 185.49277639 C53.42386112 196.04658524 53.35764041 206.60034699 53.29184818 217.15411377 C53.18846507 233.76937739 53.09504868 250.38468177 53 267 C19.34 267 -14.32 267 -49 267 C-49.06058594 256.26210938 -49.12117188 245.52421875 -49.18359375 234.4609375 C-49.22410634 227.64322564 -49.26485129 220.82551646 -49.30664062 214.0078125 C-49.37287314 203.19532622 -49.43817869 192.38284024 -49.49731445 181.5703125 C-49.54039629 173.69392389 -49.58673211 165.81756207 -49.63687855 157.94121516 C-49.66328777 153.77575406 -49.68813332 149.61029762 -49.70907402 145.44480515 C-49.72889048 141.51321333 -49.75310227 137.58167162 -49.78049088 133.6501255 C-49.78973087 132.21761437 -49.79745078 130.78509236 -49.80341911 129.35256386 C-49.19637016 105.68429821 -49.19637016 105.68429821 -58.98046875 84.9765625 C-64.89023021 79.19254065 -72.5931532 76.05999275 -80.81640625 75.96875 C-91.79297009 76.529494 -99.78603046 79.73331664 -107.73828125 87.3984375 C-118.55950809 99.8456518 -119.45219814 116.74113901 -119.43237305 132.47241211 C-119.4414192 133.95244651 -119.45175324 135.4324735 -119.46325684 136.91249084 C-119.49051871 140.87843882 -119.50006873 144.84424352 -119.50611091 148.81027293 C-119.51557603 152.97428466 -119.54178506 157.13819267 -119.56611633 161.30213928 C-119.6095634 169.1639636 -119.63824351 177.02576755 -119.66143972 184.88767487 C-119.69370277 195.52785504 -119.74913956 206.16791388 -119.80318546 216.80800152 C-119.88756492 233.53863128 -119.94129549 250.26921479 -120 267 C-153.99 267 -187.98 267 -223 267 C-223 179.22 -223 91.44 -223 1 C-191.32 1 -159.64 1 -127 1 C-126.505 18.82 -126.505 18.82 -126 37 C-122.37 33.04 -118.74 29.08 -115 25 C-103.31098082 13.75537902 -89.62768863 4.67113331 -74 0 C-73.04335449 -0.29197266 -73.04335449 -0.29197266 -72.06738281 -0.58984375 C-50.36179022 -6.88847944 -21.48249386 -7.3131894 0 0 Z " fill="#35373F" transform="translate(1085,4)"/>
<path d="M0 0 C2.33454811 0.00314531 4.6678061 -0.02032592 7.00219727 -0.0456543 C30.11402272 -0.14353602 50.87783735 5.61672365 68.17602539 21.64379883 C72.94360625 26.75512376 76.75162635 32.54499677 80.66821289 38.31567383 C81.65813364 39.65650741 82.6531328 40.99378496 83.66821289 42.31567383 C84.4790332 41.48165039 85.28985352 40.64762695 86.12524414 39.78833008 C92.96029299 32.81718282 99.89033679 26.24834809 107.66821289 20.31567383 C108.86317383 19.3952832 108.86317383 19.3952832 110.08227539 18.45629883 C129.26019738 4.33834974 150.4119179 -0.12384736 173.79321289 -0.05932617 C174.95574081 -0.05801193 174.95574081 -0.05801193 176.14175415 -0.05667114 C187.69584364 -0.01355831 198.68614313 0.37483385 209.66821289 4.31567383 C210.35318848 4.55705078 211.03816406 4.79842773 211.74389648 5.04711914 C231.39220516 12.23056609 246.3443784 25.63557991 255.35571289 44.56567383 C267.30616229 70.82452355 266.09607218 99.29262542 265.9723947 127.49936438 C265.95341888 132.56947951 265.95186123 137.63960214 265.94831848 142.70974731 C265.93905859 152.27491771 265.91452839 161.8399831 265.88427001 171.40510762 C265.84420623 184.35579573 265.8282221 197.30651331 265.81076336 210.25724792 C265.78270165 230.61013494 265.72289225 250.96280057 265.66821289 271.31567383 C232.00821289 271.31567383 198.34821289 271.31567383 163.66821289 271.31567383 C163.61922852 260.27743164 163.57024414 249.23918945 163.51977539 237.86645508 C163.48437838 230.86189008 163.44849157 223.85733322 163.41040039 216.8527832 C163.35006842 205.74171832 163.29170174 194.63066868 163.24633789 183.51953125 C163.21328471 175.42595126 163.17338099 167.3324382 163.12542284 159.23893231 C163.10028963 154.95780235 163.07847028 150.67671603 163.06486893 146.39553261 C163.05192788 142.35637605 163.02974714 138.31737019 163.0008297 134.27829742 C162.99184709 132.80505961 162.98608582 131.33179759 162.98399925 129.85853386 C162.95971228 115.29986688 162.77871707 100.67276966 152.35571289 89.44067383 C145.30503616 82.89912692 137.64835965 80.92427187 128.21508789 81.05004883 C118.7607466 81.7580832 111.61225916 85.06595414 104.85961914 91.71020508 C94.39831737 104.1481521 93.21636012 120.15961081 93.23583984 135.76635742 C93.22679657 137.25609638 93.21646319 138.74582796 93.20495605 140.23554993 C93.17766057 144.23254765 93.16813944 148.22940318 93.16210198 152.22648191 C93.15264587 156.42119572 93.12643736 160.61580624 93.10209656 164.81045532 C93.05862519 172.73252021 93.02995985 180.65456484 93.00677317 188.57671225 C92.97452722 199.29681021 92.91908633 210.01678752 92.86502743 220.73679352 C92.78061231 237.59638413 92.72690828 254.45592859 92.66821289 271.31567383 C58.67821289 271.31567383 24.68821289 271.31567383 -10.33178711 271.31567383 C-10.38077148 259.65352539 -10.42975586 247.99137695 -10.48022461 235.97583008 C-10.51560922 228.58845286 -10.55148789 221.20108352 -10.58959961 213.8137207 C-10.65000247 202.08774609 -10.70838604 190.36178627 -10.75366211 178.63574219 C-10.78664699 170.095397 -10.826514 161.55511611 -10.87457716 153.01484197 C-10.89977762 148.49462419 -10.92157785 143.97444872 -10.93513107 139.45417976 C-10.94801013 135.19507057 -10.970127 130.93610693 -10.9991703 126.67707825 C-11.00820055 125.11830664 -11.01392561 123.55951163 -11.01600075 122.00071526 C-11.03670706 108.80308467 -12.01725404 99.07352874 -20.51928711 88.62817383 C-27.6037577 82.80316468 -35.11919551 79.88835034 -44.33178711 80.31567383 C-55.2254979 81.88967006 -63.8606114 86.13265787 -70.60522461 94.98754883 C-83.42779286 113.79398227 -80.65915313 139.68029019 -80.73650408 161.41083765 C-80.75233714 165.28653799 -80.77906071 169.16216448 -80.80453491 173.03781128 C-80.85097105 180.34703923 -80.88788305 187.65628165 -80.92120779 194.96557987 C-80.96690121 204.86373505 -81.02764306 214.76179782 -81.08745575 224.65987587 C-81.18104414 240.21176175 -81.25481708 255.76367623 -81.33178711 271.31567383 C-114.99178711 271.31567383 -148.65178711 271.31567383 -183.33178711 271.31567383 C-183.33178711 183.53567383 -183.33178711 95.75567383 -183.33178711 5.31567383 C-151.98178711 5.31567383 -120.63178711 5.31567383 -88.33178711 5.31567383 C-88.00178711 17.52567383 -87.67178711 29.73567383 -87.33178711 42.31567383 C-82.87678711 37.36567383 -82.87678711 37.36567383 -78.33178711 32.31567383 C-64.63531101 17.24955012 -46.17085003 6.6954451 -26.33178711 2.31567383 C-25.59162354 2.13979736 -24.85145996 1.9639209 -24.08886719 1.78271484 C-16.0683241 0.06887148 -8.16358567 -0.02290521 0 0 Z " fill="#35383F" transform="translate(536.331787109375,-0.315673828125)"/>
<path d="M0 0 C3.52482598 0.01133873 7.04934807 0.00465226 10.57416344 -0.00687695 C30.801191 -0.06305203 51.13480418 0.20252259 71.06176758 4.07324219 C71.96354736 4.24500977 72.86532715 4.41677734 73.79443359 4.59375 C96.08438648 9.03466015 117.79392711 18.92920947 130.79614258 38.35058594 C136.1699395 47.20783971 139.98725506 55.84277401 142.87426758 65.76074219 C143.2380249 67.00476807 143.2380249 67.00476807 143.60913086 68.27392578 C146.89736375 80.25796608 147.85825453 92.2467134 147.83300781 104.63134766 C147.83741015 106.00645247 147.84271768 107.38155463 147.84884644 108.75665283 C147.86023036 111.68769831 147.86579718 114.61867264 147.86672783 117.54973984 C147.86869258 122.20120364 147.88687507 126.85252324 147.90748596 131.50393677 C147.9563469 143.05336526 147.98749038 154.60283233 148.00878906 166.15234375 C148.02538932 175.14230967 148.04840134 184.13214949 148.09180981 193.12203133 C148.10986236 196.9811141 148.1222226 200.84002528 148.12051201 204.6991539 C148.03279024 232.52222373 148.03279024 232.52222373 155.74926758 259.07324219 C156.47628988 260.76538341 157.19915361 262.45931926 157.91723633 264.15527344 C158.23329834 264.87561768 158.54936035 265.59596191 158.875 266.33813477 C159.56176758 268.26074219 159.56176758 268.26074219 159.56176758 271.26074219 C127.88176758 271.26074219 96.20176758 271.26074219 63.56176758 271.26074219 C55.50940271 255.15601246 55.50940271 255.15601246 54.12426758 247.88574219 C53.96506836 247.13808594 53.80586914 246.39042969 53.6418457 245.62011719 C53.26468946 243.83719675 52.91041518 242.04945597 52.56176758 240.26074219 C51.94172852 240.86660156 51.32168945 241.47246094 50.68286133 242.09667969 C21.8600905 269.36713244 -14.83308808 277.9881159 -53.75317383 277.24145508 C-81.62248194 276.25860686 -107.55927934 269.52213276 -127.62963867 249.02246094 C-140.84468184 233.63508191 -146.3699201 214.28008249 -145.43823242 194.26074219 C-143.61753811 173.84130976 -136.22059906 157.98997289 -121.12573242 144.07324219 C-113.62729988 138.02008576 -105.33679382 133.99290417 -96.37573242 130.63574219 C-95.67609375 130.37092041 -94.97645508 130.10609863 -94.25561523 129.83325195 C-74.53347833 122.75844331 -53.62597808 119.28305836 -33.14697266 115.14379883 C-18.41990367 112.16272173 -3.78634245 108.98765569 10.73754883 105.12402344 C12.53824577 104.64723396 12.53824577 104.64723396 14.37532043 104.16081238 C25.34245652 101.18092957 35.99102464 97.42081945 46.56176758 93.26074219 C46.24264266 83.97420713 45.48977398 74.64611055 38.49926758 67.82324219 C30.64186499 62.11203923 20.75606396 61.73213556 11.37426758 61.82324219 C10.28436523 61.83009033 9.19446289 61.83693848 8.0715332 61.84399414 C-5.22965602 62.10651761 -19.87751288 64.15939746 -29.56323242 74.19824219 C-33.83388258 79.57254351 -36.51092255 86.10316145 -39.43823242 92.26074219 C-50.4241959 91.61899739 -61.34097882 90.61574878 -72.28198242 89.44824219 C-73.94769066 89.27249115 -75.61342194 89.09695843 -77.2791748 88.92163086 C-80.73830845 88.55694537 -84.19723504 88.19037613 -87.65600586 87.82226562 C-92.07469724 87.35204399 -96.49377003 86.88552855 -100.91298676 86.42027283 C-104.33955114 86.05930527 -107.76596831 85.69695664 -111.19233704 85.33413696 C-112.82209686 85.16161891 -114.45188766 84.98939313 -116.08171082 84.81747437 C-118.35629212 84.57722147 -120.63068356 84.33524488 -122.9050293 84.09277344 C-124.19437378 83.95589111 -125.48371826 83.81900879 -126.81213379 83.67797852 C-130.36744753 83.26888704 -133.89836924 82.7842682 -137.43823242 82.26074219 C-133.0251661 57.48563302 -122.61976409 36.2381041 -101.72338867 21.35449219 C-87.50678443 12.29373134 -72.51797817 7.30150371 -56.06323242 4.07324219 C-55.274729 3.91823242 -54.48622559 3.76322266 -53.67382812 3.60351562 C-50.93487312 3.1016973 -48.19234346 2.67172515 -45.43823242 2.26074219 C-44.26381592 2.07979004 -43.08939941 1.89883789 -41.87939453 1.71240234 C-27.98496443 -0.2242279 -13.99722535 -0.04541053 0 0 Z M39.92504883 147.69433594 C38.97106201 148.00894775 38.0170752 148.32355957 37.03417969 148.64770508 C35.47002319 149.16772095 35.47002319 149.16772095 33.87426758 149.69824219 C24.33888715 152.8273583 14.76479351 155.62407787 5.08358765 158.25500488 C-21.34616697 164.67300784 -21.34616697 164.67300784 -40.52807617 182.42871094 C-43.524128 188.45939037 -43.54754547 195.69402715 -41.56713867 202.06152344 C-38.03978167 209.68292759 -33.32875602 214.22944065 -25.68823242 217.63574219 C-11.87011619 222.19095568 4.32382792 219.90138367 17.17211914 213.69775391 C30.30838602 206.97190641 39.39516359 198.36218556 44.56176758 184.26074219 C48.25710263 171.78401954 47.90950197 159.15723012 47.56176758 146.26074219 C44.55524059 146.26074219 42.74896189 146.74662005 39.92504883 147.69433594 Z " fill="#35383F" transform="translate(1503.438232421875,-0.2607421875)"/>
<path d="M0 0 C3.16360607 0.00314089 6.32625611 -0.02031292 9.48974609 -0.0456543 C50.91796704 -0.17515777 91.54670618 8.90048976 121.88427734 38.56567383 C132.54873907 49.35889116 139.99402117 61.53457936 146.19677734 75.31567383 C146.66857422 76.34821289 147.14037109 77.38075195 147.62646484 78.44458008 C153.76914511 93.07636817 156.67251878 109.57681792 158.19677734 125.31567383 C158.30763672 126.43973633 158.41849609 127.56379883 158.53271484 128.72192383 C159.50768157 140.63232817 159.19677734 152.2826058 159.19677734 164.31567383 C92.20677734 164.31567383 25.21677734 164.31567383 -43.80322266 164.31567383 C-37.69044077 190.54133835 -37.69044077 190.54133835 -19.45947266 208.84692383 C-6.53377454 215.99407455 8.35707901 217.44285597 22.57177734 213.69067383 C32.84368662 210.35609261 44.00331073 204.1368237 49.81498718 194.68347168 C52.19677734 192.31567383 52.19677734 192.31567383 55.88728333 191.9901123 C57.36486866 192.1009888 58.84047085 192.24069834 60.31323242 192.40356445 C61.5065718 192.50376766 61.5065718 192.50376766 62.72401905 192.60599518 C64.39234897 192.74909995 66.05971141 192.90391952 67.72592545 193.06985474 C70.04673609 193.30074659 72.36759161 193.50157697 74.69223022 193.68945312 C79.2425935 194.06245544 83.78780897 194.48369035 88.33349609 194.90942383 C89.99491745 195.06277618 91.65636103 195.21588785 93.31782532 195.36877441 C96.75903186 195.68611867 100.20002767 196.00562645 103.64086914 196.3269043 C108.03591675 196.73719903 112.43136705 197.14297789 116.82696819 197.54729462 C120.24067573 197.861607 123.65421325 198.17773391 127.06769753 198.49446106 C128.68907504 198.64479051 130.31049245 198.79469039 131.93195152 198.94413757 C134.19186268 199.15281288 136.45154606 199.36380347 138.71118164 199.57543945 C139.99147751 199.69455688 141.27177338 199.81367432 142.59086609 199.93640137 C146.14609178 200.31034268 149.66201361 200.78672667 153.19677734 201.31567383 C151.68790375 205.53420001 149.55918556 209.19779075 147.13427734 212.94067383 C146.53873047 213.86154785 146.53873047 213.86154785 145.93115234 214.80102539 C142.0829087 220.64926316 137.78236616 226.02706792 133.19677734 231.31567383 C132.11783203 232.59571289 132.11783203 232.59571289 131.01708984 233.90161133 C106.08155014 262.74164836 70.11135809 273.59609408 33.19677734 276.31567383 C-15.46840614 279.14548316 -67.20997311 277.88277122 -105.40087891 243.89379883 C-131.76313964 219.84401711 -146.08005563 185.8921501 -148.01000977 150.52636719 C-148.1052121 146.72445564 -148.13231094 142.93121815 -148.11572266 139.12817383 C-148.11389984 138.45791168 -148.11207703 137.78764954 -148.11019897 137.09707642 C-148.00308447 113.55107464 -143.77897755 91.26054845 -132.80322266 70.31567383 C-132.5004541 69.72302734 -132.19768555 69.13038086 -131.88574219 68.51977539 C-127.00899188 59.05542038 -121.01331027 51.1249377 -113.80322266 43.31567383 C-112.92666016 42.35661133 -112.05009766 41.39754883 -111.14697266 40.40942383 C-93.92083489 22.37264429 -71.75888718 11.17906657 -47.80322266 5.06567383 C-46.36293701 4.69611572 -46.36293701 4.69611572 -44.89355469 4.3190918 C-29.90879887 0.671835 -15.34792115 -0.03171543 0 0 Z M-28.74462891 75.19458008 C-38.86577553 86.0152444 -42.20502183 99.9318664 -43.80322266 114.31567383 C-11.13322266 114.31567383 21.53677734 114.31567383 55.19677734 114.31567383 C50.86218694 88.97631857 50.86218694 88.97631857 35.19677734 69.31567383 C14.06731158 56.27607909 -10.70099938 57.73183198 -28.74462891 75.19458008 Z " fill="#35383F" transform="translate(147.80322265625,-0.315673828125)"/>
<path d="M0 0 C12.21 0 24.42 0 37 0 C38.93117901 5.14981069 40.60041503 9.86136217 41.97705078 15.11865234 C42.15144684 15.77985077 42.3258429 16.44104919 42.50552368 17.12228394 C43.07260778 19.27585183 43.63391832 21.43088012 44.1953125 23.5859375 C44.59176644 25.09440147 44.98865474 26.60275135 45.38595581 28.11099243 C46.42476711 32.05806224 47.45898392 36.00631934 48.49182129 39.95495605 C50.15079603 46.29564899 51.81520306 52.63491076 53.4826622 58.97337723 C54.06359519 61.1853604 54.64156894 63.39810196 55.2192688 65.6109314 C55.5733214 66.95988648 55.92747246 68.30881574 56.28173828 69.65771484 C56.59023712 70.83715668 56.89873596 72.01659851 57.21658325 73.23178101 C57.88704924 75.92972568 57.88704924 75.92972568 59 78 C59.24834091 77.05230743 59.49668182 76.10461487 59.75254822 75.12820435 C62.0897926 66.21023408 64.4293585 57.29287571 66.77121639 48.3761158 C67.9751985 43.7915783 69.17835302 39.20682689 70.37963867 34.62158203 C71.53832094 30.19907478 72.6991477 25.77713561 73.86148262 21.35558701 C74.30522124 19.6660467 74.74817822 17.97630091 75.19035149 16.28635025 C75.80836398 13.92489406 76.42911659 11.56417456 77.05053711 9.20361328 C77.2339566 8.50014771 77.4173761 7.79668213 77.60635376 7.07189941 C78.88594784 2.22810432 78.88594784 2.22810432 80 0 C92.21 0 104.42 0 117 0 C117 40.26 117 80.52 117 122 C109.41 122 101.82 122 94 122 C93.67 93.62 93.34 65.24 93 36 C86.13267678 63.17998608 86.13267678 63.17998608 79.26782227 90.3605957 C77.93933105 95.61560059 77.93933105 95.61560059 77.31724548 98.07511902 C76.88270579 99.79404849 76.448615 101.51309149 76.01487732 103.23222351 C75.35805847 105.83517771 74.69981908 108.43776889 74.04125977 111.0402832 C73.84812226 111.80706296 73.65498476 112.57384272 73.45599461 113.36385822 C72.71705861 116.27895959 71.95140674 119.14577978 71 122 C62.75 122 54.5 122 46 122 C39.07 94.61 32.14 67.22 25 39 C24.67 66.39 24.34 93.78 24 122 C16.08 122 8.16 122 0 122 C0 81.74 0 41.48 0 0 Z " fill="#35383F" transform="translate(1687,380)"/>
<path d="M0 0 C29.7 0 59.4 0 90 0 C90 7.26 90 14.52 90 22 C68.55 22 47.1 22 25 22 C25 30.25 25 38.5 25 47 C45.13 47 65.26 47 86 47 C86 54.26 86 61.52 86 69 C65.87 69 45.74 69 25 69 C25 79.23 25 89.46 25 100 C47.11 100 69.22 100 92 100 C92 107.26 92 114.52 92 122 C61.64 122 31.28 122 0 122 C0 81.74 0 41.48 0 0 Z " fill="#35373F" transform="translate(1523,380)"/>
<path d="M0 0 C8.14125446 6.90262934 13.0249797 14.36417631 14.33203125 25.0546875 C14.33203125 26.7046875 14.33203125 28.3546875 14.33203125 30.0546875 C5.75203125 30.3846875 -2.82796875 30.7146875 -11.66796875 31.0546875 C-12.98796875 27.4246875 -14.30796875 23.7946875 -15.66796875 20.0546875 C-20.13007741 14.82764593 -26.58445358 14.33500706 -33.10546875 13.7421875 C-39.3543509 14.29033506 -44.71071306 15.60631829 -49.79296875 19.3671875 C-51.86624144 21.94312696 -51.86624144 21.94312696 -52.23046875 25.1171875 C-51.53296396 28.75971254 -50.45861977 29.67149996 -47.66796875 32.0546875 C-40.17085035 35.93414876 -31.78320696 37.9002907 -23.66796875 40.0546875 C5.4878287 47.82776237 5.4878287 47.82776237 13.3359375 60.2109375 C18.37911905 69.54576767 18.98453322 80.79114775 16.640625 91.09375 C12.99327679 100.95227277 6.35160474 108.50402138 -3.015625 113.2421875 C-18.88642769 120.08348438 -38.25258733 120.05639593 -54.66796875 115.0546875 C-66.37614464 110.23109444 -73.00503233 103.07417865 -78.21875 91.71875 C-80.23359032 86.62462541 -81.43745801 81.53892229 -81.66796875 76.0546875 C-79.95881601 74.34553476 -77.66035252 74.70330403 -75.3203125 74.51953125 C-74.24072266 74.43251953 -73.16113281 74.34550781 -72.04882812 74.25585938 C-70.91251953 74.16884766 -69.77621094 74.08183594 -68.60546875 73.9921875 C-66.89520508 73.85586914 -66.89520508 73.85586914 -65.15039062 73.71679688 C-62.32321134 73.49204204 -59.49576411 73.27153039 -56.66796875 73.0546875 C-56.40459717 73.80306885 -56.14122559 74.5514502 -55.86987305 75.32250977 C-55.51836182 76.30791748 -55.16685059 77.2933252 -54.8046875 78.30859375 C-54.45881592 79.2838501 -54.11294434 80.25910645 -53.7565918 81.26391602 C-51.6166532 86.74981825 -49.09653308 90.62255532 -43.85546875 93.4921875 C-35.95420274 96.54946128 -25.26993981 96.55217576 -17.41796875 93.3671875 C-13.94438391 91.46467061 -11.59762846 89.59239698 -9.66796875 86.0546875 C-8.50064545 82.03844231 -8.21156917 79.13563388 -9.85546875 75.2421875 C-12.79931041 71.68927515 -15.64592986 69.82158388 -20.08984375 68.625 C-20.94263916 68.38974609 -21.79543457 68.15449219 -22.67407227 67.91210938 C-23.57955811 67.67041016 -24.48504395 67.42871094 -25.41796875 67.1796875 C-27.31805179 66.65227745 -29.2177887 66.12361895 -31.1171875 65.59375 C-32.05739746 65.33368164 -32.99760742 65.07361328 -33.96630859 64.80566406 C-50.02499514 60.34185421 -64.11357904 56.37592495 -74.04296875 42.07421875 C-78.00053943 34.96982972 -77.86646704 25.93453371 -76.66796875 18.0546875 C-73.702159 8.30215251 -67.76911256 1.80171002 -59.04296875 -3.1953125 C-42.06520617 -10.85842713 -15.46752776 -11.27793386 0 0 Z " fill="#35383F" transform="translate(949.66796875,385.9453125)"/>
<path d="M0 0 C7.68815862 6.21993388 11.89585722 13.35601226 14 23 C14 25.31 14 27.62 14 30 C1.625 30.495 1.625 30.495 -11 31 C-12.32 27.7 -13.64 24.4 -15 21 C-19.01149924 16.62381901 -23.11644567 14.53573828 -29 14 C-36.92221968 13.92067865 -43.27913094 14.6884991 -50 19 C-52.32877362 21.87594836 -52.32877362 21.87594836 -51.9375 25.4375 C-50.79519389 29.77826322 -49.65514306 30.52474516 -46 33 C-42.96641198 34.34360292 -42.96641198 34.34360292 -39.5625 35.375 C-38.92707275 35.58141113 -38.29164551 35.78782227 -37.63696289 36.00048828 C-32.7339133 37.55625806 -27.77559147 38.85073033 -22.79516602 40.13256836 C-7.49657384 44.10719619 5.41676256 48.19181598 14.3671875 62.12890625 C18.79848319 70.91509598 18.21296968 82.62990094 16.41015625 92.09765625 C13.48199493 100.6122636 6.00853392 108.99573304 -2 113 C-20.2223613 119.54681463 -41.38168736 121.03567436 -59.375 112.75 C-70.77367962 106.47979036 -76.15664926 98.18065671 -80.30078125 86.125 C-81 83 -81 83 -81 75 C-69.12 74.01 -69.12 74.01 -57 73 C-56.34 75.000625 -55.68 77.00125 -55 79.0625 C-52.58352743 85.3466978 -49.85678334 89.55794831 -44 93 C-36.29196366 96.19101924 -26.34647639 96.44595326 -18.375 93.875 C-13.91597979 91.39776655 -11.30947133 88.61894266 -9 84 C-8.731849 80.44699918 -8.75911354 77.69054118 -9.9375 74.3125 C-15.61676615 67.94483795 -25.82400235 66.56364946 -33.75 64.5625 C-65.30428684 56.27671758 -65.30428684 56.27671758 -73.84765625 42.171875 C-78.10836386 34.14152439 -78.41416792 23.96420196 -75.9375 15.25 C-72.29202724 6.05193215 -65.86450777 0.11471928 -57 -4 C-39.52226481 -10.65197384 -15.94017656 -10.68213221 0 0 Z " fill="#35383F" transform="translate(1955,386)"/>
<path d="M0 0 C7.84207043 6.02406589 11.81751399 14.44121637 13.73828125 23.9921875 C14 26 14 26 14 30 C5.42 30.33 -3.16 30.66 -12 31 C-13.32 27.37 -14.64 23.74 -16 20 C-22.19064843 14.37213779 -28.77713989 13.65491594 -37 14 C-42.61447023 14.93574504 -48.2525113 16.50301356 -52 21 C-52.61015738 24.79653478 -52.69947301 26.93558454 -50.5625 30.1875 C-43.29577776 35.3273767 -34.76213472 37.28836313 -26.25 39.4375 C4.56519235 47.52920496 4.56519235 47.52920496 12.4375 60 C17.74318672 69.19047728 18.56688561 79.85108441 16.3125 90.13671875 C12.82408844 100.55834829 6.48142761 108.21571715 -3.34765625 113.1875 C-20.09879016 120.40827405 -39.96184794 120.05675173 -57 114 C-67.51430049 109.39386836 -74.62689781 101.44563598 -79.03125 90.92578125 C-80.63847875 86.07169118 -81.64152749 81.1039657 -82 76 C-80.29084726 74.29084726 -77.99238377 74.64861653 -75.65234375 74.46484375 C-74.57275391 74.37783203 -73.49316406 74.29082031 -72.38085938 74.20117188 C-71.24455078 74.11416016 -70.10824219 74.02714844 -68.9375 73.9375 C-67.22723633 73.80118164 -67.22723633 73.80118164 -65.48242188 73.66210938 C-62.65524259 73.43735454 -59.82779536 73.21684289 -57 73 C-56.73010254 73.75490723 -56.46020508 74.50981445 -56.18212891 75.28759766 C-55.82554199 76.27808105 -55.46895508 77.26856445 -55.1015625 78.2890625 C-54.57296631 79.76173584 -54.57296631 79.76173584 -54.03369141 81.26416016 C-51.55785715 87.81687596 -48.4246736 91.19281609 -42.11328125 94.08203125 C-34.4255168 96.34881249 -25.22589564 96.32757196 -17.75 93.3125 C-14.27641516 91.40998311 -11.92965971 89.53770948 -10 86 C-8.8326767 81.98375481 -8.54360042 79.08094638 -10.1875 75.1875 C-13.13134166 71.63458765 -15.97796111 69.76689638 -20.421875 68.5703125 C-21.27467041 68.33505859 -22.12746582 68.09980469 -23.00610352 67.85742188 C-23.91158936 67.61572266 -24.8170752 67.37402344 -25.75 67.125 C-27.65008304 66.59758995 -29.54981995 66.06893145 -31.44921875 65.5390625 C-32.38942871 65.27899414 -33.32963867 65.01892578 -34.29833984 64.75097656 C-50.35702639 60.28716671 -64.44561029 56.32123745 -74.375 42.01953125 C-78.33257068 34.91514222 -78.19849829 25.87984621 -77 18 C-74.03419025 8.24746501 -68.10114381 1.74702252 -59.375 -3.25 C-41.96801098 -11.10685107 -16.15249669 -10.7977528 0 0 Z " fill="#35383E" transform="translate(1279,386)"/>
<path d="M0 0 C9.86461821 -1.555556 20.29641854 -2.95303516 30 0 C36.8343605 5.39554776 40.04324812 13.80609268 43.44726562 21.60351562 C45.83678434 26.83039995 48.84075656 31.62897977 51.875 36.5 C52.85368561 38.13414701 53.83046125 39.76944054 54.8046875 41.40625 C56.21424481 43.85103106 56.21424481 43.85103106 58 46 C58.42708252 45.24605957 58.85416504 44.49211914 59.29418945 43.71533203 C59.89448975 42.65685059 60.49479004 41.59836914 61.11328125 40.5078125 C61.43775238 39.93427032 61.76222351 39.36072815 62.0965271 38.76980591 C63.89737729 35.59278045 65.71590196 32.42795126 67.56762695 29.28027344 C70.86045931 23.66113294 74.0441599 18.18576847 76.4921875 12.1328125 C80.58358086 2.6463152 80.58358086 2.6463152 85 0 C94.48407772 -2.09852075 104.43465821 -1.0983855 114 0 C112.66445339 3.59499327 111.05870421 6.7224982 109.015625 9.96484375 C108.4172583 10.9185083 107.8188916 11.87217285 107.20239258 12.85473633 C106.23595825 14.38070435 106.23595825 14.38070435 105.25 15.9375 C104.58186279 16.99928467 103.91372559 18.06106934 103.2253418 19.1550293 C97.74886026 27.84735549 92.23637172 36.51699964 86.70703125 45.17578125 C86.16224121 46.06241455 85.61745117 46.94904785 85.05615234 47.86254883 C83.43429109 50.33732193 81.76219857 52.61265077 79.94775391 54.94018555 C69.77247895 68.56967146 69.3625902 80.58045686 69.75 97.1875 C69.76200619 99.60609875 69.76855159 102.02473102 69.76953125 104.44335938 C69.77354162 110.30050879 69.88883009 116.14006311 70 122 C61.75 122 53.5 122 45 122 C45.06703125 118.53886719 45.1340625 115.07773437 45.203125 111.51171875 C45.22722716 108.09237055 45.23052051 104.67357485 45.23193359 101.25415039 C45.24380662 98.91019065 45.27670642 96.56622562 45.33251953 94.22290039 C45.70352543 77.86014041 43.72238367 67.13700284 33.57806396 54.10131836 C30.84281716 50.45911851 28.50723563 46.56578533 26.125 42.6875 C22.87677721 37.5390477 19.61841615 32.39730833 16.34375 27.265625 C15.4153833 25.81023315 15.4153833 25.81023315 14.46826172 24.32543945 C13.27839961 22.46121708 12.08740086 20.59771947 10.89501953 18.73510742 C0 1.66560579 0 1.66560579 0 0 Z " fill="#35383F" transform="translate(1026,380)"/>
<path d="M0 0 C32.01 0 64.02 0 97 0 C97 7.26 97 14.52 97 22 C85.12 22 73.24 22 61 22 C61 55 61 88 61 122 C52.75 122 44.5 122 36 122 C36 89 36 56 36 22 C24.12 22 12.24 22 0 22 C0 14.74 0 7.48 0 0 Z " fill="#35373F" transform="translate(1359,380)"/>
</svg>
