<?xml version="1.0" encoding="UTF-8" standalone="no"?>
<!-- Generated by SVGMaker - https://svgmaker.io -->
<!-- Created: 2026-07-03T11:32:07.951Z -->
<svg xmlns="http://www.w3.org/2000/svg" xmlns:xlink="http://www.w3.org/1999/xlink" version="1.1" width="2368" height="925.5999755859375" viewBox="0 0 2368 925.6" xml:space="preserve">
<desc>Created with Fabric.js 7.2.0</desc>
<defs>
</defs>
<rect x="0" y="0" width="100%" height="100%" fill="transparent"></rect>
<g transform="matrix(1 0 0 1 50 50)">
<rect style="stroke: none; stroke-width: 1; stroke-dasharray: none; stroke-linecap: butt; stroke-dashoffset: 0; stroke-linejoin: miter; stroke-miterlimit: 4; fill: rgb(255,255,255); fill-opacity: 0; fill-rule: nonzero; opacity: 1;" x="-50" y="-50" rx="0" ry="0" width="100" height="100"></rect>
</g>
<g transform="matrix(0.5781 0 0 0.5781 1334.0234 462.8)">
<path style="stroke: none; stroke-width: 1; stroke-dasharray: none; stroke-linecap: butt; stroke-dashoffset: 0; stroke-linejoin: miter; stroke-miterlimit: 4; fill: rgb(20,91,255); fill-rule: nonzero; opacity: 1;" transform=" translate(-254.5, -219)" d="M 0 0 C 47.19 0 94.38 0 143 0 C 157.0305 42.0914 157.0305 42.0914 163.5205 62.1709 C 164.0005 63.6546 164.4805 65.1383 164.9606 66.6219 C 165.202 67.3684 165.4435 68.1149 165.6922 68.884 C 166.719 72.0577 167.747 75.2309 168.775 78.4042 C 171.9364 88.1635 175.0945 97.9239 178.2512 107.6847 C 178.979 109.9349 179.7068 112.1852 180.4346 114.4354 C 190.9241 146.8653 201.3917 179.3022 211.8514 211.7417 C 216.1432 225.052 220.4386 238.3612 224.7433 251.6674 C 226.5632 257.2929 228.3826 262.9185 230.202 268.5442 C 230.649 269.9263 231.096 271.3083 231.5431 272.6904 C 238.0919 292.9369 244.5959 313.197 251.0034 333.4888 C 251.4054 334.759 251.4054 334.759 251.8156 336.055 C 252.3079 337.6108 252.7989 339.1671 253.2882 340.724 C 254.4524 344.4371 254.4524 344.4371 256 348 C 256.3747 346.8205 256.7494 345.641 257.1355 344.4258 C 265.4604 318.2404 273.9093 292.0992 282.5 266 C 288.7251 247.0873 294.9013 228.1616 300.9375 209.1875 C 307.4057 188.856 314.0443 168.5832 320.7184 148.3187 C 327.21 128.6071 333.6328 108.8769 339.9224 89.0997 C 349.396 59.3284 359.2304 29.6753 369 0 C 415.2 0 461.4 0 509 0 C 509 144.54 509 289.08 509 438 C 481.94 438 454.88 438 427 438 C 426.505 254.355 426.505 254.355 426 67 C 413.6723 105.1038 401.3493 143.2086 389.0586 181.3242 C 383.737 197.8237 378.4006 214.3183 373.0625 230.8125 C 372.5993 232.2438 372.1361 233.6751 371.6729 235.1064 C 371.329 236.1691 371.329 236.1691 370.9781 237.2532 C 369.8213 240.8277 368.6645 244.4021 367.5078 247.9766 C 367.1645 249.0375 367.1645 249.0375 366.8142 250.1199 C 360.817 268.6524 354.8284 287.1878 348.842 305.7239 C 347.9767 308.4032 347.1114 311.0824 346.2461 313.7617 C 346.032 314.4245 345.818 315.0873 345.5974 315.7702 C 342.4571 325.4934 339.3131 335.2153 336.1669 344.9366 C 334.3352 350.5969 332.5042 356.2573 330.6734 361.9179 C 330.2262 363.3006 329.779 364.6833 329.3317 366.066 C 323.0325 385.5411 316.7772 405.0295 310.6406 424.5566 C 310.2731 425.7235 310.2731 425.7235 309.8981 426.9138 C 309.4504 428.3358 309.004 429.7583 308.5594 431.1813 C 307.8183 433.534 307.1052 435.7897 306 438 C 272.34 438 238.68 438 204 438 C 200.6242 428.9977 200.6242 428.9977 199.261 424.8364 C 198.9518 423.8952 198.6426 422.9539 198.3241 421.9842 C 197.9967 420.9813 197.6693 419.9785 197.332 418.9453 C 196.9807 417.8733 196.6294 416.8013 196.2675 415.6967 C 195.1138 412.1735 193.963 408.6493 192.8125 405.125 C 192.412 403.8997 192.0114 402.6745 191.5987 401.4121 C 185.7864 383.6301 180.0412 365.8273 174.357 348.0038 C 168.2108 328.7342 161.9892 309.4896 155.75 290.25 C 153.7694 284.142 151.7889 278.0339 149.8086 271.9258 C 149.5638 271.1708 149.319 270.4158 149.0668 269.6379 C 143.9675 253.9091 138.8864 238.1745 133.8125 222.4375 C 133.6091 221.8066 133.4057 221.1758 133.1961 220.5258 C 130.9476 213.5523 128.6995 206.5787 126.4517 199.605 C 123.2423 189.649 120.0307 179.6938 116.8191 169.7385 C 105.8787 135.8259 94.9396 101.9129 84 68 C 83.67 190.1 83.34 312.2 83 438 C 55.61 438 28.22 438 0 438 C 0 293.46 0 148.92 0 0 Z" stroke-linecap="round"></path>
</g>
<g transform="matrix(0.5781 0 0 0.5781 764.6823 462.764)">
<path style="stroke: none; stroke-width: 1; stroke-dasharray: none; stroke-linecap: butt; stroke-dashoffset: 0; stroke-linejoin: miter; stroke-miterlimit: 4; fill: rgb(20,91,255); fill-rule: nonzero; opacity: 1;" transform=" translate(-181.6938, -218.9378)" d="M 0 0 C 38.9606 -0.0413 77.9213 -0.0825 118.0625 -0.125 C 130.3306 -0.1432 142.5987 -0.1614 155.2385 -0.1802 C 170.3055 -0.1892 170.3055 -0.1892 177.3757 -0.1909 C 182.2772 -0.1927 187.1787 -0.2002 192.0802 -0.2112 C 198.3591 -0.225 204.6379 -0.229 210.9167 -0.2261 C 213.2044 -0.2267 215.492 -0.2306 217.7797 -0.2384 C 257.0539 -0.3662 295.0381 3.8177 326 30 C 326.7373 30.6226 327.4747 31.2452 328.2344 31.8867 C 339.8727 42.6172 347.1425 57.4646 351.6875 72.375 C 351.8903 73.0342 352.0931 73.6934 352.302 74.3726 C 355.4097 85.1398 356.3693 96.0191 356.3125 107.1875 C 356.3069 108.3637 356.3012 109.5399 356.2954 110.7517 C 355.913 138.4217 347.6027 163.977 328 184 C 315.1957 196.2484 300.0082 204.0198 283.1289 209.1406 C 281.9759 209.4916 280.8229 209.8425 279.635 210.2041 C 278.7655 210.4667 277.8959 210.7294 277 211 C 277.7394 211.2307 278.4787 211.4615 279.2405 211.6992 C 309.4211 221.203 335.5971 233.6202 350.9595 262.8799 C 365.4807 292.4675 366.9839 329.7284 357 361 C 347.4462 388.8395 328.4373 409.919 302.1992 423.0859 C 271.5877 437.5633 237.955 438.1727 204.7998 438.1135 C 202.5146 438.1132 200.2293 438.1134 197.9441 438.1139 C 191.8871 438.1141 185.8302 438.1084 179.7732 438.1013 C 174.0658 438.0955 168.3583 438.0953 162.6509 438.0946 C 146.0172 438.0894 129.3836 438.0754 112.75 438.0625 C 75.5425 438.0419 38.335 438.0213 0 438 C 0 293.46 0 148.92 0 0 Z M 84 66 C 84 104.61 84 143.22 84 183 C 106.8753 183.0602 106.8753 183.0602 129.7506 183.1005 C 137.9377 183.1116 146.1247 183.1255 154.3118 183.1509 C 160.7983 183.171 167.2848 183.1838 173.7714 183.1882 C 177.1987 183.1908 180.6258 183.1967 184.0531 183.2115 C 222.261 183.911 222.261 183.911 255.3789 166.8086 C 270.0431 150.4483 270.1148 129.7415 269 109 C 267.6866 97.5618 262.7143 86.5683 254.2266 78.6602 C 238.7916 67.1516 220.399 65.8304 201.8394 65.8865 C 199.9206 65.8863 199.9206 65.8863 197.9631 65.886 C 194.4865 65.8857 191.0099 65.8916 187.5333 65.8986 C 183.8885 65.9049 180.2437 65.9054 176.5989 65.9066 C 169.7108 65.9097 162.8228 65.9179 155.9347 65.928 C 146.617 65.9413 137.2993 65.9467 127.9816 65.9525 C 113.3211 65.9619 98.6606 65.9818 84 66 Z M 84 242 C 84 284.9 84 327.8 84 372 C 105.285 372.0412 126.57 372.0825 148.5 372.125 C 158.5402 372.1523 158.5402 372.1523 168.7832 372.1802 C 174.841 372.1869 174.841 372.1869 180.8988 372.1909 C 183.574 372.1939 186.249 372.2002 188.9242 372.2112 C 226.4536 372.9512 226.4536 372.9512 258.8125 355.75 C 273.786 339.2828 275.8125 319.4156 275.1792 298.062 C 274.2586 282.3309 267.6713 267.6372 256 257 C 239.958 244.3249 219.8907 241.826 200.1365 241.8865 C 198.8567 241.8864 197.577 241.8862 196.2584 241.8861 C 192.8217 241.8859 189.385 241.8916 185.9483 241.8987 C 182.714 241.9044 179.4796 241.9047 176.2452 241.9054 C 166.8093 241.9106 157.3734 241.9246 147.9375 241.9375 C 116.2884 241.9684 116.2884 241.9684 84 242 Z" stroke-linecap="round"></path>
</g>
<g transform="matrix(0.5781 0 0 0.5781 1921.687 495.8798)">
<path style="stroke: none; stroke-width: 1; stroke-dasharray: none; stroke-linecap: butt; stroke-dashoffset: 0; stroke-linejoin: miter; stroke-miterlimit: 4; fill: rgb(20,91,255); fill-rule: nonzero; opacity: 1;" transform=" translate(-1.3156, -172.3401)" d="M 0 0 C 44.9958 -0.7829 87.1041 10.8366 120.3164 42.1211 C 121.0421 42.7708 121.7679 43.4205 122.5156 44.0898 C 153.3519 72.8778 164.491 118.651 166.0664 159.2461 C 167.0006 188.7526 167.0006 188.7526 164.3164 194.1211 C 82.1464 194.1211 -0.0236 194.1211 -84.6836 194.1211 C -79.0977 230.5231 -79.0977 230.5231 -60.6836 261.1211 C -60.1125 261.7991 -59.5415 262.4772 -58.9531 263.1758 C -46.3203 277.0207 -25.9019 283.6405 -7.6836 285.1211 C 20.0868 286.2966 47.6098 284.7382 69.5664 265.7461 C 78.7937 257.0811 84.3164 247.1211 88.3164 235.1211 C 113.7264 235.1211 139.1364 235.1211 165.3164 235.1211 C 160.578 265.921 145.9546 292.567 121.3164 312.1211 C 94.9784 330.9756 65.1943 339.4408 33.3164 343.1211 C 32.1795 343.2539 31.0425 343.3866 29.8711 343.5234 C -15.7486 347.6967 -68.2112 341.7658 -105.1211 312.3008 C -109.3992 308.6618 -113.5986 304.9765 -117.6836 301.1211 C -118.4325 300.4366 -119.1815 299.7521 -119.9531 299.0469 C -147.8771 272.59 -162.0751 229.4286 -163.7906 191.7722 C -163.8469 189.2995 -163.8744 186.8287 -163.8867 184.3555 C -163.8924 183.4414 -163.8981 182.5273 -163.904 181.5855 C -163.9134 179.656 -163.92 177.7264 -163.9238 175.7969 C -163.9334 172.9203 -163.9645 170.0444 -163.9961 167.168 C -164.09 150.7539 -162.4187 134.5901 -158.4961 118.6211 C -158.2882 117.7706 -158.0802 116.92 -157.866 116.0437 C -148.2352 78.4889 -126.1675 46.0464 -93.4961 24.9961 C -64.5895 7.945 -33.3134 1.0951 0 0 Z M -62.9336 82.4961 C -76.453 98.4859 -81.8266 119.6937 -83.6836 140.1211 C -26.9236 140.1211 29.8364 140.1211 88.3164 140.1211 C 87.5243 129.0389 87.5243 129.0389 85.6289 118.2461 C 85.4559 117.49 85.283 116.7339 85.1047 115.9548 C 80.4224 96.5355 71.1346 79.951 54.1289 68.8086 C 19.4092 48.5418 -35.1081 52.6756 -62.9336 82.4961 Z" stroke-linecap="round"></path>
</g>
<g transform="matrix(0.5781 0 0 0.5781 1595.2575 495.2951)">
<path style="stroke: none; stroke-width: 1; stroke-dasharray: none; stroke-linecap: butt; stroke-dashoffset: 0; stroke-linejoin: miter; stroke-miterlimit: 4; fill: rgb(20,91,255); fill-rule: nonzero; opacity: 1;" transform=" translate(7.8231, -171.5202)" d="M 0 0 C 0.943 0.0018 1.8861 0.0036 2.8577 0.0055 C 17.0229 0.0516 30.8874 0.4876 44.8125 3.3125 C 45.7047 3.4894 46.5969 3.6663 47.5161 3.8486 C 71.479 8.7418 92.1481 17.3524 110.8125 33.3125 C 111.8586 34.2039 111.8586 34.2039 112.9258 35.1133 C 128.4231 49.4706 138.1387 72.8415 138.9456 93.763 C 138.9494 95.039 138.9533 96.315 138.9573 97.6296 C 138.9608 98.3449 138.9643 99.0602 138.9679 99.7972 C 138.9786 102.1842 138.9823 104.5712 138.9861 106.9583 C 138.9924 108.6758 138.9992 110.3934 139.0063 112.111 C 139.021 115.8121 139.0327 119.5131 139.0423 123.2142 C 139.0578 129.111 139.0818 135.0078 139.1072 140.9046 C 139.1781 157.6755 139.2375 174.4465 139.2893 191.2175 C 139.318 200.4797 139.3536 209.7418 139.396 219.0039 C 139.4179 223.8828 139.4366 228.7616 139.4464 233.6405 C 139.4944 256.7102 140.028 279.6839 141.2907 302.7206 C 141.8634 313.2479 142.3338 323.7805 142.8125 334.3125 C 119.0525 334.3125 95.2925 334.3125 70.8125 334.3125 C 67.3582 299.7697 67.3582 299.7697 66.625 284.9375 C 66.543 283.388 66.4603 281.8385 66.377 280.2891 C 66.1815 276.6306 65.9943 272.9717 65.8125 269.3125 C 65.4185 270.2564 65.0246 271.2003 64.6187 272.1729 C 64.0871 273.433 63.5554 274.6931 63.0234 275.9531 C 62.7655 276.5727 62.5077 277.1922 62.2419 277.8306 C 51.2426 303.7857 28.6007 322.8878 2.9995 333.4648 C -31.1507 346.701 -72.7591 346.337 -106.3203 331.6484 C -127.3208 321.8635 -143.693 306.1453 -152.1875 284.3125 C -161.3347 256.721 -160.8166 226.4478 -148.375 199.9375 C -145.3043 194.1417 -141.5374 189.203 -137.1875 184.3125 C -136.3154 183.2993 -136.3154 183.2993 -135.4258 182.2656 C -116.956 162.2333 -88.1974 154.4664 -62.4141 149.543 C -61.7569 149.4165 -61.0997 149.2901 -60.4226 149.1598 C -49.0786 146.9806 -37.705 144.9896 -26.3164 143.0586 C -25.5174 142.9229 -24.7184 142.7872 -23.8951 142.6474 C -16.51 141.3938 -9.1242 140.1445 -1.7351 138.9143 C 2.3742 138.2297 6.4816 137.534 10.5879 136.8316 C 12.1175 136.5721 13.6477 136.3165 15.1786 136.0653 C 39.6851 132.2489 39.6851 132.2489 59.3125 118.4375 C 64.9744 109.9607 64.919 99.3979 63.125 89.625 C 60.6062 80.0189 55.2059 73.5842 47.0469 68.1328 C 26.4694 56.5915 -7.325 57.0993 -29.8633 62.918 C -44.1124 67.2103 -55.903 74.4378 -63.6523 87.3594 C -68.214 96.1344 -69.5483 104.4771 -71.1875 114.3125 C -97.5875 114.3125 -123.9875 114.3125 -151.1875 114.3125 C -150.0166 95.5775 -150.0166 95.5775 -148 87.625 C -147.6701 86.2909 -147.6701 86.2909 -147.3335 84.9299 C -145.4244 77.5656 -142.8347 71.0111 -139.1875 64.3125 C -138.6873 63.3354 -138.1872 62.3583 -137.6719 61.3516 C -122.9281 34.0828 -95.5044 17.3246 -66.5891 8.3792 C -60.8209 6.6799 -55.0146 5.2724 -49.125 4.0625 C -48.3958 3.9114 -47.6666 3.7604 -46.9153 3.6047 C -31.3502 0.6274 -15.8049 -0.0636 0 0 Z M 58.125 166.4375 C 40.6684 177.6115 19.3737 181.321 -0.5352 185.9922 C -1.54 186.2289 -2.5448 186.4655 -3.58 186.7094 C -8.6308 187.8981 -13.6837 189.0748 -18.7424 190.2292 C -38.3243 194.7594 -61.1615 200.137 -72.5625 218.3125 C -78.8352 229.6679 -79.4331 242.5075 -76.3164 254.9883 C -72.6082 265.9076 -65.3931 273.6819 -55.1484 278.8438 C -36.1292 286.8031 -12.1786 286.2256 6.9595 278.439 C 11.7223 276.3194 16.284 273.8894 20.8125 271.3125 C 21.6517 270.8523 22.4909 270.3921 23.3555 269.918 C 44.0187 257.4598 55.4748 235.0178 61.1892 212.3938 C 65.1224 195.9934 65.0504 180.105 64.8125 163.3125 C 61.9005 163.3125 60.5116 164.7893 58.125 166.4375 Z" stroke-linecap="round"></path>
</g>
<g transform="matrix(0.5781 0 0 0.5781 985.125 462.8)">
<path style="stroke: none; stroke-width: 1; stroke-dasharray: none; stroke-linecap: butt; stroke-dashoffset: 0; stroke-linejoin: miter; stroke-miterlimit: 4; fill: rgb(20,91,255); fill-rule: nonzero; opacity: 1;" transform=" translate(-186, -219)" d="M 0 0 C 122.76 0 245.52 0 372 0 C 372 22.44 372 44.88 372 68 C 324.48 68 276.96 68 228 68 C 228 190.1 228 312.2 228 438 C 200.61 438 173.22 438 145 438 C 145 315.9 145 193.8 145 68 C 97.15 68 49.3 68 0 68 C 0 45.56 0 23.12 0 0 Z" stroke-linecap="round"></path>
</g>
<g transform="matrix(0.5781 0 0 0.5781 547.8812 462.833)">
<path style="stroke: none; stroke-width: 1; stroke-dasharray: none; stroke-linecap: butt; stroke-dashoffset: 0; stroke-linejoin: miter; stroke-miterlimit: 4; fill: rgb(20,91,255); fill-rule: nonzero; opacity: 1;" transform=" translate(47.3136, -219.0572)" d="M 0 0 C 21.5897 1.4393 39.8242 6.1172 56 21 C 56.8405 21.7489 57.6809 22.4979 58.5469 23.2695 C 72.5873 36.4377 82.3708 56.1135 83.0947 75.5413 C 83.1348 78.6367 83.1429 81.7307 83.1404 84.8263 C 83.1449 86.608 83.1449 86.608 83.1494 88.4257 C 83.1566 91.7102 83.1593 94.9946 83.16 98.2791 C 83.1619 101.8267 83.1695 105.3743 83.1762 108.9218 C 83.1897 116.6743 83.1958 124.4267 83.2002 132.1791 C 83.203 137.0251 83.2072 141.8712 83.2117 146.7172 C 83.2239 160.1495 83.2342 173.5817 83.2376 187.014 C 83.2378 187.873 83.238 188.732 83.2382 189.6171 C 83.2385 190.4781 83.2387 191.3391 83.2389 192.2262 C 83.2393 193.9708 83.2398 195.7154 83.2402 197.46 C 83.2405 198.3253 83.2407 199.1907 83.2409 200.0823 C 83.2448 214.0912 83.2623 228.1 83.2856 242.1088 C 83.3094 256.5111 83.3218 270.9134 83.3229 285.3157 C 83.3239 293.3941 83.3295 301.4724 83.3478 309.5508 C 83.3632 316.4324 83.3682 323.314 83.36 330.1957 C 83.3561 333.7013 83.3569 337.2068 83.3711 340.7125 C 83.4671 369.3796 79.6842 392.9129 59.0625 414.375 C 37.6712 434.7148 13.3924 438.1765 -14.864 438.1135 C -16.6489 438.1132 -18.4337 438.1134 -20.2186 438.114 C -25.0339 438.1143 -29.8492 438.1084 -34.6645 438.1014 C -39.708 438.0951 -44.7515 438.0946 -49.795 438.0934 C -59.3322 438.0903 -68.8693 438.0821 -78.4065 438.072 C -89.2699 438.0608 -100.1333 438.0553 -110.9967 438.0503 C -133.3311 438.0399 -155.6656 438.0216 -178 438 C -178 414.9 -178 391.8 -178 368 C -119.26 368 -60.52 368 0 368 C 0 246.56 0 125.12 0 0 Z" stroke-linecap="round"></path>
</g>
<g transform="matrix(0.5781 0 0 0.5781 2098.1851 462.8623)">
<path style="stroke: none; stroke-width: 1; stroke-dasharray: none; stroke-linecap: butt; stroke-dashoffset: 0; stroke-linejoin: miter; stroke-miterlimit: 4; fill: rgb(20,91,255); fill-rule: nonzero; opacity: 1;" transform=" translate(-11.2932, -219.1078)" d="M 0 0 C 0 121.44 0 242.88 0 368 C 34.98 368 69.96 368 106 368 C 106 391.1 106 414.2 106 438 C 79.7287 438.0802 79.7287 438.0802 68.4395 438.0977 C 60.768 438.1096 53.0965 438.1236 45.425 438.1509 C 39.2329 438.1728 33.0408 438.1846 26.8486 438.1898 C 24.4986 438.1934 22.1486 438.2006 19.7986 438.2115 C -10.9256 438.348 -37.2954 435.1659 -60.4023 412.6602 C -81.1028 390.8274 -83.4754 365.5776 -83.3922 337.0291 C -83.3853 333.5389 -83.3959 330.0488 -83.4041 326.5586 C -83.4174 319.7428 -83.4146 312.927 -83.4059 306.1112 C -83.3991 300.5663 -83.3982 295.0214 -83.4014 289.4766 C -83.4021 288.2878 -83.4021 288.2878 -83.4028 287.075 C -83.4038 285.4645 -83.4048 283.8539 -83.4058 282.2434 C -83.4143 267.1806 -83.4045 252.1179 -83.3884 237.0551 C -83.375 224.1617 -83.3773 211.2684 -83.3911 198.375 C -83.4072 183.362 -83.4135 168.3491 -83.4043 153.3362 C -83.4033 151.7319 -83.4024 150.1277 -83.4014 148.5234 C -83.401 147.7343 -83.4005 146.9453 -83.4 146.1322 C -83.3975 140.6012 -83.4018 135.0701 -83.4089 129.5391 C -83.4173 122.7883 -83.4149 116.0377 -83.399 109.2869 C -83.3912 105.8499 -83.388 102.4131 -83.398 98.9761 C -83.4621 69.9981 -79.9448 45.5349 -58.9453 23.8555 C -42.9588 8.0015 -22.329 0 0 0 Z" stroke-linecap="round"></path>
</g>
<g transform="matrix(0.5781 0 0 0.5781 360.1096 442.8547)">
<path style="stroke: none; stroke-width: 1; stroke-dasharray: none; stroke-linecap: butt; stroke-dashoffset: 0; stroke-linejoin: miter; stroke-miterlimit: 4; fill: rgb(20,91,255); fill-rule: nonzero; opacity: 1;" transform=" translate(-112.8922, -184.5)" d="M 0 0 C 27.39 0 54.78 0 83 0 C 83 47.19 83 94.38 83 143 C 130.19 143 177.38 143 226 143 C 226 170.39 226 197.78 226 226 C 178.81 226 131.62 226 83 226 C 83 273.19 83 320.38 83 369 C 55.61 369 28.22 369 0 369 C -0.0413 358.4194 -0.0825 347.8388 -0.125 336.9375 C -0.1432 333.6284 -0.1614 330.3193 -0.1802 326.9099 C -0.186 324.2407 -0.1911 321.5715 -0.1953 318.9023 C -0.2005 318.2317 -0.2058 317.561 -0.2112 316.87 C -0.4085 290.1488 6.0718 267.4679 24.9375 247.6875 C 41.1055 232.3136 60.0484 226.4634 82 225 C 82 198.27 82 171.54 82 144 C 78.04 144 74.08 144 70 144 C 54.7477 141.7962 40.5982 135.097 29 125 C 28.4135 124.5553 27.827 124.1105 27.2227 123.6523 C 11.8645 111.7071 3.1521 91.0411 0.4629 72.2461 C -0.2764 65.34 -0.1237 58.4007 -0.0977 51.4648 C -0.0966 50.1568 -0.0956 48.8488 -0.0946 47.5011 C -0.0894 42.6466 -0.0754 37.792 -0.0625 32.9375 C -0.0419 22.0681 -0.0213 11.1988 0 0 Z" stroke-linecap="round"></path>
</g>
<g transform="matrix(0.5781 0 0 0.5781 1767.7673 495.7201)">
<path style="stroke: none; stroke-width: 1; stroke-dasharray: none; stroke-linecap: butt; stroke-dashoffset: 0; stroke-linejoin: miter; stroke-miterlimit: 4; fill: rgb(20,91,255); fill-rule: nonzero; opacity: 1;" transform=" translate(-16.4469, -162.0564)" d="M 0 0 C 1.201 -0.0001 2.402 -0.0003 3.6394 -0.0004 C 6.9053 0.0001 10.1712 0.0051 13.4371 0.0121 C 16.8603 0.0184 20.2836 0.019 23.7069 0.0202 C 30.1771 0.0233 36.6473 0.0314 43.1175 0.0415 C 51.213 0.0538 59.3085 0.0593 67.4041 0.0647 C 81.8318 0.0744 96.2595 0.0944 110.6873 0.1135 C 110.6873 23.2135 110.6873 46.3135 110.6873 70.1135 C 73.3973 70.1135 36.1073 70.1135 -2.3127 70.1135 C -2.3127 153.9335 -2.3127 237.7535 -2.3127 324.1135 C -27.0627 324.1135 -51.8127 324.1135 -77.3127 324.1135 C -77.401 290.3376 -77.4748 256.5618 -77.517 222.7858 C -77.522 218.7931 -77.5272 214.8005 -77.5325 210.8079 C -77.534 209.6156 -77.534 209.6156 -77.5357 208.3993 C -77.553 195.55 -77.5846 182.7008 -77.6214 169.8516 C -77.6588 156.6553 -77.681 143.459 -77.6891 130.2626 C -77.6946 122.1276 -77.7118 113.9928 -77.7444 105.8579 C -77.7656 100.2703 -77.7719 94.6828 -77.7667 89.0952 C -77.7642 85.8772 -77.7702 82.6596 -77.7896 79.4416 C -77.9216 56.3954 -74.7501 37.5726 -58.3127 20.1135 C -42.2629 4.4685 -21.6996 -0.0698 0 0 Z" stroke-linecap="round"></path>
</g>
<g transform="matrix(0.5781 0 0 0.5781 253.7969 442.8547)">
<path style="stroke: none; stroke-width: 1; stroke-dasharray: none; stroke-linecap: butt; stroke-dashoffset: 0; stroke-linejoin: miter; stroke-miterlimit: 4; fill: rgb(20,91,255); fill-rule: nonzero; opacity: 1;" transform=" translate(-72, -41.5)" d="M 0 0 C 47.52 0 95.04 0 144 0 C 144 27.39 144 54.78 144 83 C 96.48 83 48.96 83 0 83 C 0 55.61 0 28.22 0 0 Z" stroke-linecap="round"></path>
</g>
</svg>