<?xml version="1.0" encoding="UTF-8"?>
<svg version="1.1" xmlns="http://www.w3.org/2000/svg" width="500" height="500">
<path d="M0 0 C5.4556335 0.63437599 9.09695233 2.09695233 13 6 C13.495 6.99 13.495 6.99 14 8 C14.53625 8.12375 15.0725 8.2475 15.625 8.375 C19.13221145 9.29795038 21.88885516 11.14527904 25 13 C25 13.66 25 14.32 25 15 C25.598125 15.12375 26.19625 15.2475 26.8125 15.375 C29 16 29 16 32 18 C32.75925781 17.4225 33.51851562 16.845 34.30078125 16.25 C35.79158203 15.13625 35.79158203 15.13625 37.3125 14 C38.79169922 12.88625 38.79169922 12.88625 40.30078125 11.75 C43 10 43 10 46 10 C46 9.34 46 8.68 46 8 C47.546875 7.13375 47.546875 7.13375 49.125 6.25 C51.62279947 4.84781478 53.75689345 3.42846821 56.0625 1.6875 C59 0 59 0 61.8125 -0.0625 C66.2079397 1.40264657 70.04148217 3.6160926 74 6 C74 6.66 74 7.32 74 8 C74.66 8.061875 75.32 8.12375 76 8.1875 C80.19379031 9.32331821 83.44304274 11.55326598 87 14 C88.03673859 14.47842094 88.03673859 14.47842094 89.09442139 14.96650696 C92.28757973 18.37401019 91.52123639 22.39802135 91.45410156 26.88745117 C91.45468567 27.90226059 91.45526978 28.91707001 91.45587158 29.96263123 C91.45308077 33.32308948 91.42194078 36.6826651 91.390625 40.04296875 C91.38316618 42.37038183 91.37747156 44.69780118 91.37347412 47.02522278 C91.35818964 53.15580536 91.31888314 59.28600985 91.2746582 65.41644287 C91.23376641 71.67015467 91.21547611 77.92392747 91.1953125 84.17773438 C91.15239198 96.45198918 91.0841063 108.72596317 91 121 C86.76641647 120.01088094 83.73365704 118.22583401 80 116 C80 115.34 80 114.68 80 114 C78.35 113.67 76.7 113.34 75 113 C75 112.34 75 111.68 75 111 C73.92468018 110.83286499 73.92468018 110.83286499 72.82763672 110.66235352 C67.54780862 109.42559185 63.53450619 107.14253218 60 103 C58.62967654 97.84082888 58.73195098 92.84606483 58.875 87.5625 C58.87694439 86.14908748 58.87438118 84.73566118 58.8671875 83.32226562 C58.85940501 79.87980403 58.91288902 76.44151955 59 73 C57.3603125 73.99 57.3603125 73.99 55.6875 75 C53.06292462 76.58464929 52.1743622 77 49 77 C49 77.66 49 78.32 49 79 C47.865625 79.28875 46.73125 79.5775 45.5625 79.875 C44.386875 80.24625 43.21125 80.6175 42 81 C41.67 81.66 41.34 82.32 41 83 C38.51748187 85.06185276 35.95140782 86.69130525 33 88 C27.96226585 87.4524202 23.67650051 84.09828355 19.4140625 81.46484375 C16.67176767 79.8008299 13.89662317 78.37208466 11 77 C11 76.34 11 75.68 11 75 C9.35 74.67 7.7 74.34 6 74 C6 73.34 6 72.68 6 72 C5.01 72 4.02 72 3 72 C3.04713135 73.36934692 3.04713135 73.36934692 3.09521484 74.76635742 C3.19774464 78.16779433 3.27281395 81.56758047 3.32958984 84.9699707 C3.35968538 86.43963596 3.40057406 87.90912271 3.45263672 89.37817383 C3.5257907 91.49605341 3.55952214 93.61155245 3.5859375 95.73046875 C3.63306885 97.63928833 3.63306885 97.63928833 3.68115234 99.58666992 C2.61009329 104.95386584 -0.59818529 106.37236246 -5.01171875 109.36328125 C-9.66666667 112 -9.66666667 112 -13 112 C-13.495 112.99 -13.495 112.99 -14 114 C-16.0625 114.625 -16.0625 114.625 -18 115 C-18 115.66 -18 116.32 -18 117 C-24.625 121 -24.625 121 -28 121 C-28.06942265 107.62231334 -28.12277194 94.24466932 -28.15543652 80.86683941 C-28.17111159 74.65538369 -28.1923836 68.44405095 -28.22631836 62.23266602 C-28.2588459 56.24155781 -28.27683913 50.25056811 -28.28463173 44.25937843 C-28.29018711 41.97035671 -28.30103499 39.68134168 -28.31719017 37.39237022 C-28.3388764 34.19332084 -28.34197059 30.99476501 -28.34057617 27.7956543 C-28.351362 26.84331406 -28.36214783 25.89097382 -28.3732605 24.90977478 C-28.36913651 24.03899292 -28.36501251 23.16821106 -28.36076355 22.27104187 C-28.36352893 21.51424983 -28.36629431 20.75745779 -28.36914349 19.97773266 C-27.89780825 17.45249485 -26.96274676 16.60373003 -25 15 C-23.65094652 14.18460824 -22.27268222 13.41639879 -20.875 12.6875 C-17.54031251 10.89815549 -14.42172333 8.9694908 -11.3125 6.8125 C-7.96843686 4.52260738 -4.90065256 3.17019577 -1 2 C-0.67 1.34 -0.34 0.68 0 0 Z " fill="#005BBA" transform="translate(212,159)"/>
<path d="M0 0 C4.3954397 1.46514657 8.22898217 3.6785926 12.1875 6.0625 C12.1875 6.7225 12.1875 7.3825 12.1875 8.0625 C12.8475 8.124375 13.5075 8.18625 14.1875 8.25 C18.38129031 9.38581821 21.63054274 11.61576598 25.1875 14.0625 C25.87865906 14.3814473 26.56981812 14.70039459 27.28192139 15.02900696 C30.47507973 18.43651019 29.70873639 22.46052135 29.64160156 26.94995117 C29.64218567 27.96476059 29.64276978 28.97957001 29.64337158 30.02513123 C29.64058077 33.38558948 29.60944078 36.7451651 29.578125 40.10546875 C29.57066618 42.43288183 29.56497156 44.76030118 29.56097412 47.08772278 C29.54568964 53.21830536 29.50638314 59.34850985 29.4621582 65.47894287 C29.42126641 71.73265467 29.40297611 77.98642747 29.3828125 84.24023438 C29.33989198 96.51448918 29.2716063 108.78846317 29.1875 121.0625 C24.95391647 120.07338094 21.92115704 118.28833401 18.1875 116.0625 C18.1875 115.4025 18.1875 114.7425 18.1875 114.0625 C16.5375 113.7325 14.8875 113.4025 13.1875 113.0625 C13.1875 112.4025 13.1875 111.7425 13.1875 111.0625 C12.47118408 110.94986816 11.75486816 110.83723633 11.0168457 110.72119141 C5.70025026 109.48345092 1.68155052 107.30672699 -1.8125 103.0625 C-3.08468283 97.55499905 -2.80647761 92.29745285 -2.5 86.6875 C-2.45836347 85.18631665 -2.42121165 83.68500183 -2.38867188 82.18359375 C-2.09229375 71.34229375 -2.09229375 71.34229375 -0.8125 70.0625 C-0.65246512 67.39823315 -0.55307111 64.75689572 -0.49609375 62.08984375 C-0.47531265 61.29220108 -0.45453156 60.49455841 -0.43312073 59.67274475 C-0.36753842 57.11525389 -0.30870033 54.5576572 -0.25 52 C-0.20682301 50.27017118 -0.16320899 48.54035321 -0.11914062 46.81054688 C-0.01184828 42.5613074 0.08939426 38.3119611 0.1875 34.0625 C-0.57916992 34.53671387 -1.34583984 35.01092773 -2.13574219 35.49951172 C-4.99005058 37.26389108 -7.84529154 39.02674136 -10.70117188 40.78857422 C-11.93527133 41.55033603 -13.16899974 42.31269928 -14.40234375 43.07568359 C-16.17870628 44.17444977 -17.95640708 45.27102149 -19.734375 46.3671875 C-20.80268555 47.02702637 -21.87099609 47.68686523 -22.97167969 48.36669922 C-25.2207521 49.7092617 -27.44866308 50.94042551 -29.8125 52.0625 C-29.86201788 47.5784659 -29.89827526 43.09457761 -29.92236328 38.61035156 C-29.93240744 37.08558377 -29.94604531 35.56083516 -29.96337891 34.03613281 C-29.98769738 31.84174862 -29.99899889 29.64761958 -30.0078125 27.453125 C-30.01828613 26.13344727 -30.02875977 24.81376953 -30.03955078 23.45410156 C-29.82821158 20.29719387 -29.56310078 18.64112385 -27.8125 16.0625 C-25.75390625 14.359375 -25.75390625 14.359375 -23.375 12.8125 C-22.59253906 12.29171875 -21.81007812 11.7709375 -21.00390625 11.234375 C-18.8125 10.0625 -18.8125 10.0625 -15.8125 10.0625 C-15.8125 9.4025 -15.8125 8.7425 -15.8125 8.0625 C-14.265625 7.19625 -14.265625 7.19625 -12.6875 6.3125 C-10.18970053 4.91031478 -8.05560655 3.49096821 -5.75 1.75 C-2.8125 0.0625 -2.8125 0.0625 0 0 Z " fill="#242425" transform="translate(273.8125,158.9375)"/>
<path d="M0 0 C8.03271038 1.2358016 16.01895508 2.49655667 24 4 C24 4.66 24 5.32 24 6 C17.07 9.3 10.14 12.6 3 16 C3 19.91225923 4.33326228 21.10218661 6.6875 24.1875 C10.04673456 28.67443497 13.10405302 33.20358781 16 38 C20.403606 36.66557394 23.14241507 34.30702993 26.44921875 31.2421875 C28 30 28 30 30 30 C30.4390393 37.33038827 30.75303114 44.66066671 31 52 C31.03537872 53.01688904 31.03537872 53.01688904 31.07147217 54.05432129 C31.22123314 58.48266123 31.33016935 62.90973977 31.39697266 67.34011841 C31.42391351 68.81746302 31.46145231 70.29465369 31.50976562 71.77145386 C31.88220356 83.58189304 31.88220356 83.58189304 29.76293945 86.98852539 C28.203125 88.3203125 28.203125 88.3203125 25 90 C24.33613281 90.44988281 23.67226562 90.89976562 22.98828125 91.36328125 C18.33333333 94 18.33333333 94 15 94 C14.505 94.99 14.505 94.99 14 96 C11.9375 96.625 11.9375 96.625 10 97 C10 97.66 10 98.32 10 99 C3.375 103 3.375 103 0 103 C0 69.01 0 35.02 0 0 Z " fill="#00C5FD" transform="translate(184,177)"/>
<path d="M0 0 C5.4556335 0.63437599 9.09695233 2.09695233 13 6 C13.495 6.99 13.495 6.99 14 8 C14.53625 8.12375 15.0725 8.2475 15.625 8.375 C19.13221145 9.29795038 21.88885516 11.14527904 25 13 C25 13.66 25 14.32 25 15 C25.5775 15.12375 26.155 15.2475 26.75 15.375 C29 16 29 16 33 18 C32.67 29.22 32.34 40.44 32 52 C23.00384615 47.50192308 23.00384615 47.50192308 19.1328125 45.01953125 C18.31039062 44.49552734 17.48796875 43.97152344 16.640625 43.43164062 C15.81046875 42.89732422 14.9803125 42.36300781 14.125 41.8125 C12.44058169 40.73493028 10.75570845 39.65807123 9.0703125 38.58203125 C8.33570801 38.10999268 7.60110352 37.6379541 6.84423828 37.15161133 C5.00800991 35.96466903 5.00800991 35.96466903 3 35 C3.10054687 36.25103516 3.10054687 36.25103516 3.203125 37.52734375 C3.27976147 43.10264703 3.22384897 46.65086086 -0.6328125 50.90234375 C-3.57454476 53.28013813 -6.59669252 55.33062695 -10 57 C-13.48694558 55.83768481 -13.89144533 55.08913069 -15.84765625 52.10546875 C-16.37037109 51.31462891 -16.89308594 50.52378906 -17.43164062 49.70898438 C-17.96982422 48.87689453 -18.50800781 48.04480469 -19.0625 47.1875 C-19.60455078 46.36701172 -20.14660156 45.54652344 -20.70507812 44.70117188 C-22.99979154 41.20379037 -25.18925173 37.77642972 -27 34 C-23.54466686 32.32705993 -20.08526007 30.66272237 -16.625 29 C-15.64015625 28.52304688 -14.6553125 28.04609375 -13.640625 27.5546875 C-12.22910156 26.87792969 -12.22910156 26.87792969 -10.7890625 26.1875 C-9.91975098 25.76855469 -9.05043945 25.34960938 -8.15478516 24.91796875 C-6 24 -6 24 -4 24 C-4 23.34 -4 22.68 -4 22 C-4.65484375 21.96261719 -5.3096875 21.92523438 -5.984375 21.88671875 C-13.24350244 21.3638155 -19.99421571 19.94401344 -27 18 C-27 17.34 -27 16.68 -27 16 C-26.31035156 15.63648438 -25.62070313 15.27296875 -24.91015625 14.8984375 C-20.18314645 12.36958452 -15.59686851 9.80495497 -11.1875 6.75 C-7.88984991 4.47657516 -4.85578692 3.15673607 -1 2 C-0.67 1.34 -0.34 0.68 0 0 Z " fill="#0051AC" transform="translate(212,159)"/>
<path d="M0 0 C3.7395082 1.96816221 4.73397025 4.04476015 6 8 C6.22705078 11.41333008 6.22705078 11.41333008 6.1953125 15.26953125 C6.1924826 15.95053391 6.18965271 16.63153656 6.18673706 17.33317566 C6.17560525 19.49313455 6.15051457 21.65266794 6.125 23.8125 C6.11496111 25.28319711 6.10583685 26.75390076 6.09765625 28.22460938 C6.07568913 31.81654286 6.0412082 35.40822985 6 39 C6.99 38.67 7.98 38.34 9 38 C9 37.34 9 36.68 9 36 C9.66 36 10.32 36 11 36 C10.67 35.01 10.34 34.02 10 33 C10.9375 30.3125 10.9375 30.3125 12 28 C12.66 28 13.32 28 14 28 C13.505 26.515 13.505 26.515 13 25 C13.92387681 22.59558875 14.90673738 20.32414286 16 18 C16.54015765 16.75345742 17.07536878 15.50475905 17.60546875 14.25390625 C19.0703125 10.8359375 20.53515625 7.41796875 22 4 C22.66 4 23.32 4 24 4 C24.24105469 3.35933594 24.48210938 2.71867187 24.73046875 2.05859375 C26 0 26 0 27.98828125 -0.71484375 C31.77406324 -1.0775153 34.30544582 -1.28688108 37.875 0.1875 C42.7917142 4.38116799 42.7917142 4.38116799 43.25985718 8.01965332 C43.34789309 10.6172618 43.33670994 13.1981218 43.29296875 15.796875 C43.28872391 16.74564514 43.28447906 17.69441528 43.28010559 18.67193604 C43.26333082 21.69824766 43.22568056 24.7238901 43.1875 27.75 C43.17245162 29.80337579 43.15876348 31.85676203 43.14648438 33.91015625 C43.11343117 38.94036148 43.06165683 43.97006733 43 49 C41.52093108 49.02689216 40.04172517 49.04634621 38.5625 49.0625 C37.73878906 49.07410156 36.91507812 49.08570313 36.06640625 49.09765625 C34 49 34 49 33 48 C32.83982834 45.19023482 32.74049466 42.40226404 32.68359375 39.58984375 C32.66281265 38.74780899 32.64203156 37.90577423 32.62062073 37.03822327 C32.55503188 34.33806821 32.49619724 31.63781283 32.4375 28.9375 C32.39432363 27.11131759 32.35070964 25.28514546 32.30664062 23.45898438 C32.19934106 18.97276008 32.09810034 14.4864345 32 10 C31.35529843 11.27350698 30.71242143 12.54793774 30.0703125 13.82275391 C29.71211426 14.5323526 29.35391602 15.24195129 28.98486328 15.97305298 C27.81070772 18.38958242 26.87508368 20.83569468 26 23.375 C24.6639492 27.14119044 23.31318433 30.89637395 21.875 34.625 C21.56304687 35.44226563 21.25109375 36.25953125 20.9296875 37.1015625 C20 39 20 39 18 40 C18.33 40.99 18.66 41.98 19 43 C18.34 43 17.68 43 17 43 C16.896875 43.61875 16.79375 44.2375 16.6875 44.875 C16 47 16 47 13 49 C10.15234375 49.23046875 10.15234375 49.23046875 6.9375 49.1875 C5.34228516 49.17783203 5.34228516 49.17783203 3.71484375 49.16796875 C1 49 1 49 -1 48 C-1 47.34 -1 46.68 -1 46 C-1.66 46 -2.32 46 -3 46 C-4.98397753 41.83364718 -5.30069028 38.32204372 -5.4140625 33.73046875 C-5.43342865 33.04946609 -5.4527948 32.36846344 -5.4727478 31.66682434 C-5.53218132 29.50717407 -5.578782 27.34746943 -5.625 25.1875 C-5.66321328 23.71677456 -5.70226694 22.24607071 -5.7421875 20.77539062 C-5.83785183 17.18379211 -5.92201575 13.59203087 -6 10 C-6.33 10.66 -6.66 11.32 -7 12 C-7.66 12 -8.32 12 -9 12 C-8.67 12.99 -8.34 13.98 -8 15 C-10.43157895 21.71578947 -10.43157895 21.71578947 -13 23 C-12.67 23.99 -12.34 24.98 -12 26 C-12.6015625 28.05859375 -12.6015625 28.05859375 -13.625 30.4375 C-14.17994141 31.74847656 -14.17994141 31.74847656 -14.74609375 33.0859375 C-15.15988281 34.04757812 -15.57367188 35.00921875 -16 36 C-16.89623588 38.1873351 -17.79207123 40.37483437 -18.6875 42.5625 C-20.87229437 47.87229437 -20.87229437 47.87229437 -22 49 C-23.51928038 49.07179964 -25.04167482 49.08392007 -26.5625 49.0625 C-27.38878906 49.05347656 -28.21507812 49.04445313 -29.06640625 49.03515625 C-29.70449219 49.02355469 -30.34257812 49.01195312 -31 49 C-30.52482858 39.65496204 -27.08865061 31.74398809 -23.375 23.25 C-22.29003725 20.6855426 -21.40247954 18.20821097 -20.5625 15.5625 C-16.87437456 4.38346694 -16.87437456 4.38346694 -12.375 1.0625 C-11.59125 0.711875 -10.8075 0.36125 -10 0 C-6.74699139 -1.6265043 -3.42971866 -0.7621597 0 0 Z " fill="#0052B8" transform="translate(31,314)"/>
<path d="M0 0 C0 21.45 0 42.9 0 65 C-22.77 65 -45.54 65 -69 65 C-69.33 64.34 -69.66 63.68 -70 63 C-69.34 63 -68.68 63 -68 63 C-67.95875 62.34 -67.9175 61.68 -67.875 61 C-66.56473172 56.5076516 -64.54404741 53.10058993 -61 50 C-57.35816233 48.91337966 -53.90631755 49.06248773 -50.1328125 49.21875 C-48.58072586 49.23572937 -48.58072586 49.23572937 -46.99728394 49.25305176 C-43.70460887 49.29770242 -40.41634987 49.39804702 -37.125 49.5 C-34.88808389 49.54014148 -32.65109927 49.57664107 -30.4140625 49.609375 C-24.93965486 49.69059767 -19.47474494 49.84709789 -14 50 C-14 36.8 -14 23.6 -14 10 C-12.68 9.34 -11.36 8.68 -10 8 C-9.67 7.34 -9.34 6.68 -9 6 C-7.88702965 4.92329184 -6.73617656 3.88519147 -5.5625 2.875 C-4.94503906 2.33617187 -4.32757813 1.79734375 -3.69140625 1.2421875 C-2 0 -2 0 0 0 Z " fill="#0051B4" transform="translate(330,238)"/>
<path d="M0 0 C22.77 0 45.54 0 69 0 C69 4.24645065 67.18249194 6.38524772 65 10 C64.34 10 63.68 10 63 10 C62.67 11.32 62.34 12.64 62 14 C46.49 14 30.98 14 15 14 C15 27.2 15 40.4 15 54 C14.34 54 13.68 54 13 54 C12.67 54.99 12.34 55.98 12 57 C10.34795544 57.70211894 8.68076231 58.36971413 7 59 C6.67 59.66 6.34 60.32 6 61 C4.02 61.99 2.04 62.98 0 64 C0 42.88 0 21.76 0 0 Z " fill="#005CBD" transform="translate(157,137)"/>
<path d="M0 0 C1.37478516 0.01740234 1.37478516 0.01740234 2.77734375 0.03515625 C3.69644531 0.04417969 4.61554688 0.05320312 5.5625 0.0625 C6.27277344 0.07410156 6.98304687 0.08570313 7.71484375 0.09765625 C7.7398999 1.08161377 7.76495605 2.06557129 7.79077148 3.0793457 C7.88495195 6.73035682 7.98514665 10.38118241 8.0871582 14.03198242 C8.1304668 15.6120164 8.17214481 17.19209594 8.2121582 18.7722168 C8.26995958 21.04359673 8.33362535 23.31474814 8.3984375 25.5859375 C8.41514999 26.29228836 8.43186249 26.99863922 8.44908142 27.72639465 C8.54081845 30.76413865 8.74692061 33.19388683 9.71484375 36.09765625 C12.66872511 37.57459693 15.36646257 37.30696422 18.65234375 37.34765625 C20.52212891 37.38632812 20.52212891 37.38632812 22.4296875 37.42578125 C25.57805103 37.35581067 25.57805103 37.35581067 27.40405273 36.04443359 C29.40391679 33.07424995 29.06404789 30.0724749 28.97265625 26.62109375 C28.96603973 25.89524078 28.95942322 25.16938782 28.9526062 24.42153931 C28.92920744 22.10481289 28.88547973 19.78904237 28.83984375 17.47265625 C28.8048295 15.14924494 28.77405723 12.82588437 28.74850464 10.50234985 C28.73146983 9.05660351 28.70828125 7.61091465 28.67849731 6.16537476 C28.65317464 4.47628161 28.6788757 2.78655624 28.71484375 1.09765625 C29.71484375 0.09765625 29.71484375 0.09765625 32 0 C32.91652344 0.01160156 33.83304688 0.02320313 34.77734375 0.03515625 C35.69644531 0.04417969 36.61554688 0.05320312 37.5625 0.0625 C38.27277344 0.07410156 38.98304688 0.08570313 39.71484375 0.09765625 C39.78924823 5.25712971 39.84356566 10.41628776 39.87963867 15.57617188 C39.8946837 17.32980798 39.91512479 19.08340672 39.94116211 20.83691406 C39.97773496 23.36402634 39.99461295 25.89063921 40.0078125 28.41796875 C40.02329636 29.19633087 40.03878021 29.97469299 40.05473328 30.77664185 C40.05621906 35.63093563 39.36085097 38.87403113 36.71484375 43.09765625 C31.20943415 48.45818665 25.71099511 48.27871294 18.33984375 48.28515625 C17.24542969 48.30352539 17.24542969 48.30352539 16.12890625 48.32226562 C10.92958015 48.33619239 5.27552206 48.26374982 1.12255859 44.75073242 C-4.73931398 37.86714949 -3.68397762 27.84148707 -3.56640625 19.37451172 C-3.53484574 17.0750327 -3.52538657 14.77623811 -3.51953125 12.4765625 C-3.51037549 11.01691863 -3.50000432 9.55728176 -3.48828125 8.09765625 C-3.48403137 7.40921631 -3.47978149 6.72077637 -3.47540283 6.01147461 C-3.38615523 0.14470749 -3.38615523 0.14470749 0 0 Z " fill="#0054BE" transform="translate(96.28515625,314.90234375)"/>
<path d="M0 0 C3.3 0 6.6 0 10 0 C10 6.27 10 12.54 10 19 C16.435 18.505 16.435 18.505 23 18 C23.66 16.02 24.32 14.04 25 12 C25.97627952 10.03967216 26.99717483 8.1008973 28.0625 6.1875 C28.85333984 4.75470703 28.85333984 4.75470703 29.66015625 3.29296875 C31 1 31 1 32 0 C33.68608966 -0.07205511 35.37500659 -0.08386068 37.0625 -0.0625 C37.98160156 -0.05347656 38.90070313 -0.04445313 39.84765625 -0.03515625 C40.55792969 -0.02355469 41.26820313 -0.01195312 42 0 C42.495 0.99 42.495 0.99 43 2 C41.67948953 4.65890595 40.30556706 7.19045648 38.8125 9.75 C38.41224609 10.45382812 38.01199219 11.15765625 37.59960938 11.8828125 C35.21830427 16.03562335 32.70234735 20.04898181 30 24 C30.73605469 24.680625 31.47210938 25.36125 32.23046875 26.0625 C35.2140344 29.05132767 37.25001622 32.33684095 39.3125 36 C39.67150391 36.60328125 40.03050781 37.2065625 40.40039062 37.828125 C42.41364616 41.35611565 43.45533917 43.9251003 43 48 C39.28488692 49.20938788 36.67220152 49.43586081 33 48 C30.29950244 44.74717207 28.4250163 41.0069154 26.57666016 37.22290039 C24.28273636 32.50230834 24.28273636 32.50230834 20.140625 29.4609375 C16.37474406 28.83058768 16.37474406 28.83058768 10 29 C10 35.27 10 41.54 10 48 C7.03 48 4.06 48 1 48 C0 47 0 47 -0.12025452 45.09544373 C-0.11803391 44.26271439 -0.11581329 43.42998505 -0.11352539 42.57202148 C-0.11344986 41.63112167 -0.11337433 40.69022186 -0.11329651 39.72080994 C-0.10813522 38.69790359 -0.10297394 37.67499725 -0.09765625 36.62109375 C-0.0962413 35.57929459 -0.09482635 34.53749542 -0.09336853 33.46412659 C-0.0877508 30.12188906 -0.0751953 26.77971743 -0.0625 23.4375 C-0.05748728 21.17773534 -0.05292398 18.91796963 -0.04882812 16.65820312 C-0.03777561 11.10544318 -0.0204991 5.55273278 0 0 Z " fill="#1B1B1B" transform="translate(457,315)"/>
<path d="M0 0 C6.22959866 2.97468725 12.00564021 6.39881831 17.8125 10.125 C18.65748047 10.66253906 19.50246094 11.20007813 20.37304688 11.75390625 C23.60067339 13.80994792 26.81576447 15.87717631 30 18 C30.2667616 20.76628915 30.34804189 23.30619631 30.29296875 26.0703125 C30.28872391 26.86654022 30.28447906 27.66276794 30.28010559 28.48312378 C30.26328834 31.03075729 30.22563179 33.57760489 30.1875 36.125 C30.17245705 37.85024901 30.15876796 39.57551039 30.14648438 41.30078125 C30.11337501 45.53415782 30.06157285 49.76694559 30 54 C19.47277879 48.78238211 19.47277879 48.78238211 15 46.25 C13.01219929 45.12831245 11.04146647 44.02073324 9 43 C9 42.34 9 41.68 9 41 C7.35 40.67 5.7 40.34 4 40 C4 39.34 4 38.68 4 38 C3.01 38 2.02 38 1 38 C-0.58645357 34.82709287 -0.12078213 31.41174616 -0.09765625 27.9296875 C-0.0962413 27.13345978 -0.09482635 26.33723206 -0.09336853 25.51687622 C-0.08776345 22.9695462 -0.07521014 20.42230353 -0.0625 17.875 C-0.05748565 16.14974085 -0.05292263 14.42448033 -0.04882812 12.69921875 C-0.03779237 8.46611209 -0.02052436 4.23307086 0 0 Z " fill="#1E2023" transform="translate(214,193)"/>
<path d="M0 0 C6.29917185 4.55684772 8.26040755 12.56061089 10.2421875 19.79296875 C10.90344709 22.01078885 11.72222136 24.02486675 12.6875 26.125 C13.1 27.115 13.5125 28.105 13.9375 29.125 C13.6075 29.785 13.2775 30.445 12.9375 31.125 C13.9275 31.62 13.9275 31.62 14.9375 32.125 C15.86363975 34.21963382 16.7057232 36.35189617 17.5 38.5 C17.93441406 39.66273438 18.36882812 40.82546875 18.81640625 42.0234375 C19.54837004 44.04845231 20.25658474 46.08225421 20.9375 48.125 C19.27719118 49.78530882 17.33996403 49.41418251 15.0625 49.5 C12.3203125 49.46875 12.3203125 49.46875 9.9375 49.125 C7.9375 47 7.9375 47 6.9375 44.125 C6.31875 42.5471875 6.31875 42.5471875 5.6875 40.9375 C4.9375 38.125 4.9375 38.125 5.9375 36.125 C4.9475 35.63 4.9475 35.63 3.9375 35.125 C2.83203125 32.69140625 2.83203125 32.69140625 1.75 29.6875 C1.38519531 28.69878906 1.02039063 27.71007812 0.64453125 26.69140625 C-0.0625 24.125 -0.0625 24.125 0.9375 22.125 C0.2775 22.125 -0.3825 22.125 -1.0625 22.125 C-2.3825 18.495 -3.7025 14.865 -5.0625 11.125 C-8.1946072 14.2571072 -9.01485044 16.10212137 -10.5 20.1875 C-10.92796875 21.33863281 -11.3559375 22.48976563 -11.796875 23.67578125 C-12.21453125 24.81402344 -12.6321875 25.95226562 -13.0625 27.125 C-13.78227225 29.04521432 -14.51033549 30.96236006 -15.25 32.875 C-15.55292969 33.67421875 -15.85585938 34.4734375 -16.16796875 35.296875 C-17.0625 37.125 -17.0625 37.125 -19.0625 38.125 C-19.000625 38.82625 -18.93875 39.5275 -18.875 40.25 C-19.10506101 43.77760212 -20.35450568 46.06484351 -22.0625 49.125 C-25.6925 49.125 -29.3225 49.125 -33.0625 49.125 C-32.7325 47.475 -32.4025 45.825 -32.0625 44.125 C-31.4025 44.125 -30.7425 44.125 -30.0625 44.125 C-30.5575 42.64 -30.5575 42.64 -31.0625 41.125 C-30.4404573 39.53533531 -29.79924713 37.95139905 -29.08203125 36.40234375 C-27.81766458 33.57810709 -26.72527335 30.70454976 -25.625 27.8125 C-23.77503571 22.97370451 -21.90907611 18.14396355 -19.9609375 13.34375 C-19.38956335 11.93270428 -18.8307808 10.51644453 -18.2890625 9.09375 C-16.79717343 5.30788097 -15.23490828 2.70258173 -12.0625 0.125 C-7.69021232 -1.33242923 -4.43332516 -1.26666433 0 0 Z " fill="#1B1B1B" transform="translate(366.0625,313.875)"/>
<path d="M0 0 C2.92456792 4.38685189 2.96295982 8.79955925 3 14 C2.0625 17.6875 2.0625 17.6875 1 20 C0.34 20 -0.32 20 -1 20 C-1.495 21.485 -1.495 21.485 -2 23 C-9.15103018 28.55365721 -18.50842445 27.375088 -27 27 C-26.98839844 28.14339844 -26.97679687 29.28679687 -26.96484375 30.46484375 C-26.95546712 31.95572754 -26.94636679 33.44661309 -26.9375 34.9375 C-26.92912109 35.69224609 -26.92074219 36.44699219 -26.91210938 37.22460938 C-26.90347559 39.14994313 -26.94775667 41.07535581 -27 43 C-28 44 -28 44 -30.28515625 44.09765625 C-31.65994141 44.08025391 -31.65994141 44.08025391 -33.0625 44.0625 C-33.98160156 44.05347656 -34.90070313 44.04445313 -35.84765625 44.03515625 C-36.55792969 44.02355469 -37.26820313 44.01195312 -38 44 C-38.14522934 40.08372337 -38.23404757 36.16813847 -38.3125 32.25 C-38.35439453 31.13882813 -38.39628906 30.02765625 -38.43945312 28.8828125 C-38.56068001 20.83334755 -38.56068001 20.83334755 -36.14453125 17.2421875 C-31.51435378 15.41312361 -27.2969485 15.65371349 -22.375 15.875 C-20.48728544 15.94387607 -18.59923216 16.00415567 -16.7109375 16.0546875 C-15.87868652 16.09062012 -15.04643555 16.12655273 -14.18896484 16.16357422 C-11.70514677 16.15815378 -11.70514677 16.15815378 -9 14 C-8.66659529 10.95804573 -8.66659529 10.95804573 -9 8 C-10.79911112 6.20088888 -13.53779221 6.78452721 -15.96875 6.71875 C-17.78439453 6.66267578 -17.78439453 6.66267578 -19.63671875 6.60546875 C-20.91160156 6.57066406 -22.18648438 6.53585937 -23.5 6.5 C-26.01054001 6.4314615 -28.52097149 6.35877724 -31.03125 6.28125 C-32.15080078 6.25095703 -33.27035156 6.22066406 -34.42382812 6.18945312 C-37 6 -37 6 -38 5 C-38.07179964 3.48071962 -38.08392007 1.95832518 -38.0625 0.4375 C-38.05347656 -0.38878906 -38.04445313 -1.21507812 -38.03515625 -2.06640625 C-38.02355469 -2.70449219 -38.01195312 -3.34257812 -38 -4 C-33.62575083 -4.22673326 -29.25068728 -4.42813881 -24.875 -4.625 C-23.6375 -4.68945312 -22.4 -4.75390625 -21.125 -4.8203125 C-19.92617188 -4.871875 -18.72734375 -4.9234375 -17.4921875 -4.9765625 C-16.39245605 -5.02893066 -15.29272461 -5.08129883 -14.15966797 -5.13525391 C-8.78011323 -4.90497471 -4.39465755 -3.05184552 0 0 Z " fill="#1C1C1C" transform="translate(323,319)"/>
<path d="M0 0 C1.53043945 0.06574219 1.53043945 0.06574219 3.09179688 0.1328125 C4.15076172 0.184375 5.20972656 0.2359375 6.30078125 0.2890625 C7.37134766 0.33289063 8.44191406 0.37671875 9.54492188 0.421875 C17.48354184 0.78432309 17.48354184 0.78432309 18.61328125 1.9140625 C18.75443286 4.58465101 18.65575232 7.23838488 18.61328125 9.9140625 C15.98604729 11.22767948 13.88717564 11.12660159 10.94921875 11.23046875 C9.82773437 11.27236328 8.70625 11.31425781 7.55078125 11.35742188 C6.37515625 11.39673828 5.19953125 11.43605469 3.98828125 11.4765625 C2.21324219 11.54133789 2.21324219 11.54133789 0.40234375 11.60742188 C-2.52722203 11.71373676 -5.45687463 11.81576892 -8.38671875 11.9140625 C-9.04671875 13.5640625 -9.70671875 15.2140625 -10.38671875 16.9140625 C-11.04671875 16.9140625 -11.70671875 16.9140625 -12.38671875 16.9140625 C-12.20109375 17.6565625 -12.01546875 18.3990625 -11.82421875 19.1640625 C-11.38029921 21.95441387 -11.72001237 23.24723697 -12.38671875 25.9140625 C-12.06868932 27.58371701 -11.73686924 29.25084768 -11.38671875 30.9140625 C-11.71671875 31.5740625 -12.04671875 32.2340625 -12.38671875 32.9140625 C-11.72671875 33.2440625 -11.06671875 33.5740625 -10.38671875 33.9140625 C-9.91234375 34.4090625 -9.43796875 34.9040625 -8.94921875 35.4140625 C-6.11344667 38.1364037 -3.05197058 38.06952241 0.68359375 38.1953125 C1.66199219 38.23269531 2.64039063 38.27007812 3.6484375 38.30859375 C5.71613676 38.37917261 7.78384519 38.44948311 9.8515625 38.51953125 C10.82738281 38.55691406 11.80320312 38.59429687 12.80859375 38.6328125 C13.70594238 38.66310547 14.60329102 38.69339844 15.52783203 38.72460938 C17.61328125 38.9140625 17.61328125 38.9140625 18.61328125 39.9140625 C18.74609375 41.7265625 18.74609375 41.7265625 18.73828125 43.9140625 C18.74214844 44.996875 18.74214844 44.996875 18.74609375 46.1015625 C18.61328125 47.9140625 18.61328125 47.9140625 17.61328125 48.9140625 C13.7242121 49.16837574 9.82217057 49.09929847 5.92578125 49.1015625 C4.83587891 49.11380859 3.74597656 49.12605469 2.62304688 49.13867188 C-5.4291939 49.15337469 -11.28678034 48.655181 -17.38671875 42.9140625 C-17.38671875 42.2540625 -17.38671875 41.5940625 -17.38671875 40.9140625 C-18.04671875 40.5840625 -18.70671875 40.2540625 -19.38671875 39.9140625 C-19.38671875 38.9240625 -19.38671875 37.9340625 -19.38671875 36.9140625 C-20.04671875 36.5840625 -20.70671875 36.2540625 -21.38671875 35.9140625 C-24.67639789 27.64176992 -23.67165512 18.01690556 -20.38671875 9.9140625 C-19.72671875 9.9140625 -19.06671875 9.9140625 -18.38671875 9.9140625 C-18.20109375 9.1715625 -18.01546875 8.4290625 -17.82421875 7.6640625 C-15.8599354 3.90630304 -13.2107158 2.55983338 -9.38671875 0.9140625 C-6.1607626 -0.09263769 -3.36726484 -0.14661699 0 0 Z " fill="#1C1C1C" transform="translate(420.38671875,314.0859375)"/>
<path d="M0 0 C2.03530385 0.30892497 4.07042387 0.61906113 6.10546875 0.9296875 C7.23879639 1.10226074 8.37212402 1.27483398 9.53979492 1.45263672 C14.37574152 2.21762594 19.18879765 3.09368132 24 4 C24 4.66 24 5.32 24 6 C17.07 9.3 10.14 12.6 3 16 C3 19.91225923 4.33326228 21.10218661 6.6875 24.1875 C10.04673456 28.67443497 13.10405302 33.20358781 16 38 C20.403606 36.66557394 23.14241507 34.30702993 26.44921875 31.2421875 C28 30 28 30 30 30 C30.11709643 33.52054914 30.1875469 37.04059112 30.25 40.5625 C30.30027344 42.0484668 30.30027344 42.0484668 30.3515625 43.56445312 C30.43678096 49.97714186 29.74243422 53.7473315 26 59 C23.82190638 55.73285958 22.10834136 52.3249824 20.375 48.8125 C19.88773438 47.83120117 19.88773438 47.83120117 19.390625 46.83007812 C18.5919346 45.22095188 17.79572351 43.61059545 17 42 C13.74808801 45.81612385 11.88372853 50.23299891 9.8125 54.75 C9.44447266 55.54277344 9.07644531 56.33554688 8.69726562 57.15234375 C7.79400508 59.09963272 6.8964359 61.04955989 6 63 C5.34 63 4.68 63 4 63 C-0.09802713 55.75541349 -0.54000932 49.5193025 -0.390625 41.30859375 C-0.38496521 40.12274185 -0.37930542 38.93688995 -0.37347412 37.71510315 C-0.35121801 33.9554784 -0.3010393 30.19683306 -0.25 26.4375 C-0.2299212 23.87696696 -0.21167286 21.31641887 -0.1953125 18.75585938 C-0.15138842 12.50357633 -0.08458371 6.25185816 0 0 Z " fill="#0090FC" transform="translate(184,177)"/>
<path d="M0 0 C3 2 3 2 3.56835938 3.84082031 C3.65923828 4.57913086 3.75011719 5.31744141 3.84375 6.078125 C3.95420654 6.90280273 4.06466309 7.72748047 4.1784668 8.57714844 C4.28457275 9.45918945 4.39067871 10.34123047 4.5 11.25 C5.33002837 17.49449629 6.26630024 23.61148462 7.6875 29.75 C8.12605001 31.83311255 8.56370546 33.91641388 9 36 C9.20109375 36.76441406 9.4021875 37.52882812 9.609375 38.31640625 C9.9375 40.3125 9.9375 40.3125 9 44 C5.33357071 47.57754616 1.50118818 50.5475454 -3 53 C-6.48694558 51.83768481 -6.89144533 51.08913069 -8.84765625 48.10546875 C-9.37037109 47.31462891 -9.89308594 46.52378906 -10.43164062 45.70898438 C-10.96982422 44.87689453 -11.50800781 44.04480469 -12.0625 43.1875 C-12.60455078 42.36701172 -13.14660156 41.54652344 -13.70507812 40.70117188 C-15.99979154 37.20379037 -18.18925173 33.77642972 -20 30 C-16.54466686 28.32705993 -13.08526007 26.66272237 -9.625 25 C-8.64015625 24.52304688 -7.6553125 24.04609375 -6.640625 23.5546875 C-5.22910156 22.87792969 -5.22910156 22.87792969 -3.7890625 22.1875 C-2.91975098 21.76855469 -2.05043945 21.34960938 -1.15478516 20.91796875 C1 20 1 20 3 20 C3 19.34 3 18.68 3 18 C2.34515625 17.96261719 1.6903125 17.92523438 1.015625 17.88671875 C-6.24350244 17.3638155 -12.99421571 15.94401344 -20 14 C-20 13.34 -20 12.68 -20 12 C-19.31035156 11.63648438 -18.62070313 11.27296875 -17.91015625 10.8984375 C-11.69912323 7.57566264 -5.78059074 4.02500393 0 0 Z " fill="#005ABA" transform="translate(205,163)"/>
<path d="M0 0 C1.51815699 0.00015911 3.0363194 0.00585313 4.55444336 0.01586914 C5.35208603 0.01728409 6.1497287 0.01869904 6.97154236 0.02015686 C9.52916146 0.02577223 12.08669429 0.03832727 14.64428711 0.05102539 C16.37410356 0.05603841 18.10392137 0.06060166 19.83374023 0.06469727 C24.08312264 0.07574664 28.33244023 0.09302153 32.58178711 0.11352539 C32.60867927 1.59259431 32.62813332 3.07180022 32.64428711 4.55102539 C32.65588867 5.37473633 32.66749023 6.19844727 32.67944336 7.04711914 C32.58178711 9.11352539 32.58178711 9.11352539 31.58178711 10.11352539 C27.62178711 10.11352539 23.66178711 10.11352539 19.58178711 10.11352539 C19.25178711 22.65352539 18.92178711 35.19352539 18.58178711 48.11352539 C15.61178711 48.11352539 12.64178711 48.11352539 9.58178711 48.11352539 C8.58178711 47.11352539 8.58178711 47.11352539 8.46826172 43.60351562 C8.46842085 42.04304117 8.47411569 40.48256146 8.48413086 38.92211914 C8.48554581 38.10228043 8.48696075 37.28244171 8.48841858 36.4377594 C8.49403422 33.80881157 8.50658932 31.17994766 8.51928711 28.55102539 C8.5243001 26.77303183 8.52886335 24.99503693 8.53295898 23.21704102 C8.54400872 18.84916994 8.5612838 14.48136191 8.58178711 10.11352539 C7.42549805 10.14833008 7.42549805 10.14833008 6.24584961 10.18383789 C5.24295898 10.20188477 4.24006836 10.21993164 3.20678711 10.23852539 C2.20905273 10.26172852 1.21131836 10.28493164 0.18334961 10.30883789 C-2.41821289 10.11352539 -2.41821289 10.11352539 -4.41821289 8.11352539 C-4.60571289 4.55102539 -4.60571289 4.55102539 -4.41821289 1.11352539 C-3.41821289 0.11352539 -3.41821289 0.11352539 0 0 Z " fill="#0053B1" transform="translate(205.418212890625,314.886474609375)"/>
<path d="M0 0 C1.37478516 0.01740234 1.37478516 0.01740234 2.77734375 0.03515625 C3.69644531 0.04417969 4.61554688 0.05320312 5.5625 0.0625 C6.27277344 0.07410156 6.98304688 0.08570313 7.71484375 0.09765625 C7.73466309 1.08161377 7.75448242 2.06557129 7.77490234 3.0793457 C7.85098362 6.73048464 7.93969675 10.38122634 8.03222656 14.03198242 C8.07050596 15.61198076 8.10536072 17.19206594 8.13671875 18.7722168 C8.18239251 21.0437727 8.24038159 23.31473134 8.30078125 25.5859375 C8.31233246 26.29228836 8.32388367 26.99863922 8.33578491 27.72639465 C8.44555423 31.37507018 8.63626739 32.97979171 10.71484375 36.09765625 C13.56990424 37.04934308 15.62421657 37.28775085 18.6015625 37.4140625 C20.00825195 37.4769043 20.00825195 37.4769043 21.44335938 37.54101562 C22.90805664 37.59999023 22.90805664 37.59999023 24.40234375 37.66015625 C25.39041016 37.70333984 26.37847656 37.74652344 27.39648438 37.79101562 C29.83577347 37.89707167 32.27529029 37.99786599 34.71484375 38.09765625 C34.71484375 41.39765625 34.71484375 44.69765625 34.71484375 48.09765625 C31.02714448 48.15184285 27.34024991 48.19142172 23.65234375 48.22265625 C22.61400391 48.23941406 21.57566406 48.25617188 20.50585938 48.2734375 C13.54680393 48.31762198 7.94321464 48.10642036 1.90234375 44.34765625 C-0.6789066 41.69265589 -1.39372379 39.6633861 -2.28515625 36.09765625 C-2.46288574 35.52297607 -2.64061523 34.9482959 -2.82373047 34.35620117 C-3.46751485 31.20506397 -3.41511666 28.17585432 -3.41796875 24.9609375 C-3.41892548 24.28089157 -3.4198822 23.60084564 -3.42086792 22.90019226 C-3.42154632 21.46886095 -3.4197158 20.03752651 -3.41552734 18.60620117 C-3.41014931 16.40731997 -3.41549647 14.20864071 -3.421875 12.00976562 C-3.42121465 10.61848913 -3.41993437 9.22721276 -3.41796875 7.8359375 C-3.41684082 6.56790283 -3.41571289 5.29986816 -3.41455078 3.9934082 C-3.24229974 0.13855982 -3.24229974 0.13855982 0 0 Z " fill="#0059C3" transform="translate(157.28515625,314.90234375)"/>
<path d="M0 0 C5.4556335 0.63437599 9.09695233 2.09695233 13 6 C14.2010968 9.60329041 13.63934675 10.76186335 12.5 14.3125 C10.37064711 21.79957951 11.81280743 26.08034563 15.2578125 32.8515625 C16.1201155 35.34770277 15.87581489 36.54993555 15 39 C13.265625 39.65234375 13.265625 39.65234375 11 40 C8.859375 39.00390625 8.859375 39.00390625 6.75 37.5625 C6.04359375 37.08941406 5.3371875 36.61632812 4.609375 36.12890625 C4.07828125 35.75636719 3.5471875 35.38382813 3 35 C2.505 37.475 2.505 37.475 2 40 C0.45088004 37.15974455 -0.42399098 34.60994099 -1.03515625 31.4375 C-1.28894043 30.12591919 -1.28894043 30.12591919 -1.54785156 28.7878418 C-1.71768555 27.867854 -1.88751953 26.94786621 -2.0625 26 C-2.2387793 25.06260986 -2.41505859 24.12521973 -2.59667969 23.15942383 C-3.82336446 16.44570153 -4.71733379 9.82638895 -5 3 C-4.360625 2.87625 -3.72125 2.7525 -3.0625 2.625 C-2.0415625 2.315625 -2.0415625 2.315625 -1 2 C-0.67 1.34 -0.34 0.68 0 0 Z " fill="#0067D6" transform="translate(212,159)"/>
<path d="M0 0 C3.3 0 6.6 0 10 0 C11.57300328 1.57300328 11.12725504 3.13684045 11.12939453 5.3203125 C11.13254669 6.23796387 11.13569885 7.15561523 11.13894653 8.10107422 C11.1369223 9.09896973 11.13489807 10.09686523 11.1328125 11.125 C11.13376923 12.14223145 11.13472595 13.15946289 11.13571167 14.20751953 C11.13639361 16.36295636 11.13453835 18.51839522 11.13037109 20.67382812 C11.12502305 23.98572371 11.13031563 27.29748367 11.13671875 30.609375 C11.13605797 32.69791697 11.13477681 34.78645885 11.1328125 36.875 C11.13483673 37.87289551 11.13686096 38.87079102 11.13894653 39.89892578 C11.13579437 40.81657715 11.13264221 41.73422852 11.12939453 42.6796875 C11.12859894 43.49163574 11.12780334 44.30358398 11.12698364 45.14013672 C11 47 11 47 10 48 C6.7 48 3.4 48 0 48 C0 32.16 0 16.32 0 0 Z " fill="#0052C1" transform="translate(255,315)"/>
<path d="M0 0 C0.33 0 0.66 0 1 0 C1 10.56 1 21.12 1 32 C-3.97735311 29.51132344 -8.40616843 27.23599052 -13 24.25 C-13.94875 23.63640625 -14.8975 23.0228125 -15.875 22.390625 C-16.57625 21.93171875 -17.2775 21.4728125 -18 21 C-16.625 19 -16.625 19 -15 17 C-14.34 17 -13.68 17 -13 17 C-12.78472656 16.47921875 -12.56945312 15.9584375 -12.34765625 15.421875 C-10.44914282 12.01005377 -7.97370557 9.20511789 -5.4375 6.25 C-4.93025391 5.64800781 -4.42300781 5.04601562 -3.90039062 4.42578125 C-2.62557363 2.92859272 -1.31568608 1.46140412 0 0 Z " fill="#0066CE" transform="translate(243,179)"/>
<path d="M0 0 C0.99 0.66 1.98 1.32 3 2 C3.38394667 4.77262255 3.60342248 7.34323528 3.6875 10.125 C3.73874023 11.25615234 3.73874023 11.25615234 3.79101562 12.41015625 C3.87354278 14.27291201 3.93844711 16.13643326 4 18 C-4.3124321 17.57258771 -11.9901375 16.25809954 -20 14 C-20 13.34 -20 12.68 -20 12 C-19.31035156 11.63648438 -18.62070313 11.27296875 -17.91015625 10.8984375 C-11.69912323 7.57566264 -5.78059074 4.02500393 0 0 Z " fill="#004CA4" transform="translate(205,163)"/>
<path d="M0 0 C8.02720183 1.20839597 16.02267047 2.49725656 24 4 C24 4.66 24 5.32 24 6 C23.36908447 6.29245605 22.73816895 6.58491211 22.08813477 6.88623047 C19.24320351 8.20936887 16.40284205 9.54204051 13.5625 10.875 C12.56927734 11.33519531 11.57605469 11.79539063 10.55273438 12.26953125 C9.60849609 12.71425781 8.66425781 13.15898437 7.69140625 13.6171875 C6.37958374 14.22989502 6.37958374 14.22989502 5.04125977 14.85498047 C2.84941473 15.83342667 2.84941473 15.83342667 2 18 C1.34 18 0.68 18 0 18 C0 12.06 0 6.12 0 0 Z " fill="#007DF4" transform="translate(184,177)"/>
<path d="M0 0 C3.96 0 7.92 0 12 0 C13.03544174 1.90881434 14.05290085 3.82739204 15.0625 5.75 C15.63097656 6.81734375 16.19945312 7.8846875 16.78515625 8.984375 C18.01044806 12.02593537 18.25348607 13.04893565 17 16 C15.265625 16.65234375 15.265625 16.65234375 13 17 C10.859375 16.00390625 10.859375 16.00390625 8.75 14.5625 C7.69039062 13.85287109 7.69039062 13.85287109 6.609375 13.12890625 C6.07828125 12.75636719 5.5471875 12.38382813 5 12 C4.67 13.65 4.34 15.3 4 17 C1.94862685 13.51783717 1.43181408 10.22724343 0.875 6.25 C0.70742187 5.07953125 0.53984375 3.9090625 0.3671875 2.703125 C0.24601563 1.81109375 0.12484375 0.9190625 0 0 Z " fill="#0078F0" transform="translate(210,182)"/>
<path d="M0 0 C4.55700425 0.52484692 7.192874 2.31507303 10.8125 5.0625 C11.78832031 5.79597656 12.76414063 6.52945313 13.76953125 7.28515625 C14.50558594 7.85105469 15.24164063 8.41695312 16 9 C15.67 9.99 15.34 10.98 15 12 C10.88473708 11.35826346 7.69611565 9.13013842 4.25 6.9375 C3.64800781 6.56044922 3.04601562 6.18339844 2.42578125 5.79492188 C0.94750857 4.86806837 -0.52666089 3.93467611 -2 3 C-1.34 2.01 -0.68 1.02 0 0 Z " fill="#004FA7" transform="translate(227,197)"/>
</svg>
