<svg xmlns:xlink="http://www.w3.org/1999/xlink" id="Layer_1" data-name="Layer 1" xmlns="http://www.w3.org/2000/svg" viewBox="0 0 489.97 147.38" width="489.97"  height="147.38" ><defs><style>.cls-1,.cls-2,.cls-3{fill:#20419a;}.cls-3.dark{fill:#ffffff;}.cls-2{font-size:8px;}.cls-2,.cls-3{font-family:ArialMT, Arial;}.cls-3{font-size:12px;}</style></defs><title>Xlogotag_b</title><path class="cls-1" d="M179.44,93.73,160.54,68H172l13,19,13.54-19h10.72L190.57,93l21,29.3H200.12L185,99.82l-15.12,22.47H159.07Z" transform="translate(-24.98 -28.17)"/><path class="cls-1" d="M215.55,47.32h8.93v75h-8.93Z" transform="translate(-24.98 -28.17)"/><path class="cls-1" d="M278.34,105.07q-1.79,9-7.87,13.75t-15.33,4.72a27.24,27.24,0,0,1-11.29-2.15,22.68,22.68,0,0,1-8-5.93,24.9,24.9,0,0,1-4.88-9A43.27,43.27,0,0,1,229.1,95,32.78,32.78,0,0,1,231,83.7a27,27,0,0,1,5.3-9,24,24,0,0,1,8.09-5.88,24.63,24.63,0,0,1,10.23-2.1,22.29,22.29,0,0,1,12,3,23.76,23.76,0,0,1,7.67,7.62,30.3,30.3,0,0,1,4,10.08,42.92,42.92,0,0,1,.89,10.39H238.55a21.51,21.51,0,0,0,.84,6.77,15.25,15.25,0,0,0,3,5.67,15,15,0,0,0,5.36,3.94,18.46,18.46,0,0,0,7.66,1.47,15.43,15.43,0,0,0,9.24-2.63,12.58,12.58,0,0,0,4.83-8ZM269.73,90a18.17,18.17,0,0,0-1.42-6,15.06,15.06,0,0,0-3.25-4.88,15.24,15.24,0,0,0-4.88-3.26,15.46,15.46,0,0,0-6.09-1.2,15.62,15.62,0,0,0-6.25,1.2,14.47,14.47,0,0,0-4.78,3.31A15.87,15.87,0,0,0,239.91,84,18.66,18.66,0,0,0,238.55,90Z" transform="translate(-24.98 -28.17)"/><path class="cls-1" d="M334.83,122.29h-8.92v-7.35h-.21a13.38,13.38,0,0,1-6.93,6.56,26,26,0,0,1-10.4,2,24.46,24.46,0,0,1-11-2.3,22.29,22.29,0,0,1-7.77-6.25,27.53,27.53,0,0,1-4.67-9.08A37.11,37.11,0,0,1,283.38,95a37.92,37.92,0,0,1,1.52-10.87,26.32,26.32,0,0,1,4.63-9A22,22,0,0,1,297.29,69a24.66,24.66,0,0,1,10.87-2.26,26.49,26.49,0,0,1,4.52.42,22.64,22.64,0,0,1,4.83,1.42,20.4,20.4,0,0,1,4.56,2.62,14.43,14.43,0,0,1,3.63,4h.21V47.32h8.92Zm-41-19.27a19.84,19.84,0,0,0,3.05,6.46,14.82,14.82,0,0,0,5.25,4.51,15.9,15.9,0,0,0,7.5,1.68,14.74,14.74,0,0,0,12.81-6.46,19.58,19.58,0,0,0,2.89-6.56,31.69,31.69,0,0,0,.89-7.45,31.27,31.27,0,0,0-.94-7.72,19.13,19.13,0,0,0-3-6.56A15.31,15.31,0,0,0,317,76.35a16.49,16.49,0,0,0-7.87-1.73,15.26,15.26,0,0,0-7.72,1.78,14.33,14.33,0,0,0-5,4.73,20.56,20.56,0,0,0-2.73,6.72,35.71,35.71,0,0,0-.84,7.77A27.57,27.57,0,0,0,293.83,103Z" transform="translate(-24.98 -28.17)"/><path class="cls-1" d="M389.12,117.67q0,13.32-6.15,20t-19.06,6.67a37.5,37.5,0,0,1-7.71-.84,23.81,23.81,0,0,1-7.14-2.73,16.48,16.48,0,0,1-5.3-4.94,13.84,13.84,0,0,1-2.31-7.45h8.92a6.64,6.64,0,0,0,1.52,4.09,11.13,11.13,0,0,0,3.47,2.73,16.53,16.53,0,0,0,4.46,1.52,23.71,23.71,0,0,0,4.62.48,16.46,16.46,0,0,0,7.45-1.53,14,14,0,0,0,5.05-4.2,17.33,17.33,0,0,0,2.88-6.45,36.33,36.33,0,0,0,.89-8.4V113h-.2a15.43,15.43,0,0,1-2.95,4.36,16.28,16.28,0,0,1-4,3,20.62,20.62,0,0,1-4.83,1.84,21.3,21.3,0,0,1-5.09.63A23.93,23.93,0,0,1,353,120.71a21.77,21.77,0,0,1-7.55-6,25.64,25.64,0,0,1-4.57-8.77,35.79,35.79,0,0,1-1.52-10.55,40.61,40.61,0,0,1,1.26-9.87,27.65,27.65,0,0,1,4.19-9.24,22.75,22.75,0,0,1,7.77-6.88,24.14,24.14,0,0,1,11.87-2.68,19.69,19.69,0,0,1,9.4,2.26,16,16,0,0,1,6.67,6.77h.2V68h8.41Zm-17.49-4.47a14.52,14.52,0,0,0,5-4.83,21.89,21.89,0,0,0,2.78-6.77,32.52,32.52,0,0,0,.89-7.56,30.23,30.23,0,0,0-.83-7,19.94,19.94,0,0,0-2.68-6.25A13.91,13.91,0,0,0,372,76.3a14.18,14.18,0,0,0-7.14-1.68,15.46,15.46,0,0,0-7.35,1.62,14.4,14.4,0,0,0-5,4.36,18.47,18.47,0,0,0-2.83,6.3,30.43,30.43,0,0,0-.9,7.46,37.4,37.4,0,0,0,.74,7.35,20.82,20.82,0,0,0,2.52,6.66,14,14,0,0,0,4.73,4.83,13.56,13.56,0,0,0,7.35,1.84A14.4,14.4,0,0,0,371.63,113.2Z" transform="translate(-24.98 -28.17)"/><path class="cls-1" d="M442.56,105.07q-1.79,9-7.87,13.75t-15.33,4.72a27.17,27.17,0,0,1-11.29-2.15,22.59,22.59,0,0,1-8-5.93,24.92,24.92,0,0,1-4.89-9A44.1,44.1,0,0,1,393.31,95a32.79,32.79,0,0,1,1.9-11.29,26.7,26.7,0,0,1,5.3-9,24,24,0,0,1,8.08-5.88,24.71,24.71,0,0,1,10.24-2.1,22.29,22.29,0,0,1,12,3,23.86,23.86,0,0,1,7.67,7.62,30.3,30.3,0,0,1,4,10.08,43.43,43.43,0,0,1,.89,10.39H402.77a21,21,0,0,0,.84,6.77,15.11,15.11,0,0,0,3,5.67A15,15,0,0,0,412,114.2a18.51,18.51,0,0,0,7.67,1.47,15.43,15.43,0,0,0,9.24-2.63,12.58,12.58,0,0,0,4.83-8ZM434,90a18.17,18.17,0,0,0-1.42-6,14.95,14.95,0,0,0-8.14-8.14,16.43,16.43,0,0,0-12.33,0,14.47,14.47,0,0,0-4.78,3.31A15.87,15.87,0,0,0,404.13,84,18.4,18.4,0,0,0,402.77,90Z" transform="translate(-24.98 -28.17)"/><path class="cls-1" d="M447.07,68h8.4V79.45h.21a24.2,24.2,0,0,1,8-9.77q4.72-3.15,12-2.94v9.45a25.21,25.21,0,0,0-9.13,1.47A14.41,14.41,0,0,0,460.41,82a17.8,17.8,0,0,0-3.36,6.93A37.27,37.27,0,0,0,456,98.14v24.15h-8.93Z" transform="translate(-24.98 -28.17)"/><path class="cls-1" d="M151,154.94H48.12c-14.28,0-23.14-9.05-23.14-23.62V28.17H127.83c14.71,0,23.14,8.6,23.14,23.61V154.94ZM31,34.17v97.15c0,11.37,6.08,17.62,17.14,17.62H145V51.78c0-11.69-5.76-17.61-17.14-17.61Z" transform="translate(-24.98 -28.17)"/><path class="cls-1" d="M137.28,43H116.22L92.77,72.61v14.7h9.41Zm-98.86-.26L73.73,87.31h9.54V72.78L59.47,42.73Zm.68,97.65H60.16l23.11-29.19V96.81H73.6ZM92.77,96.81v14.55l22.77,28.75H136.6l-34.3-43.3Z" transform="translate(-24.98 -28.17)"/><path class="cls-1" d="M251.22,163a7.24,7.24,0,0,0,.28,2,5.72,5.72,0,0,0,.84,1.82,4.42,4.42,0,0,0,1.47,1.34,4.16,4.16,0,0,0,2.17.54,4.22,4.22,0,0,0,3-1,5.35,5.35,0,0,0,1.51-2.67h1.77a7.14,7.14,0,0,1-2.06,3.82A6.09,6.09,0,0,1,256,170.2a6.58,6.58,0,0,1-3-.62,5.57,5.57,0,0,1-2-1.66,7.16,7.16,0,0,1-1.16-2.44,11.13,11.13,0,0,1-.38-2.92,10.51,10.51,0,0,1,.38-2.8,7.4,7.4,0,0,1,1.16-2.45,5.88,5.88,0,0,1,2-1.74,6.2,6.2,0,0,1,3-.66,5.73,5.73,0,0,1,5,2.54,7.51,7.51,0,0,1,1.1,2.6,11,11,0,0,1,.28,3Zm9.35-1.48a6.52,6.52,0,0,0-.35-1.93,5.34,5.34,0,0,0-.91-1.64,4.46,4.46,0,0,0-1.43-1.15,4.06,4.06,0,0,0-1.9-.43,4.17,4.17,0,0,0-1.94.43,4.42,4.42,0,0,0-1.42,1.15,5.34,5.34,0,0,0-.94,1.65,7.47,7.47,0,0,0-.46,1.92Z" transform="translate(-24.98 -28.17)"/><path class="cls-1" d="M264.71,155.33h1.63v2.44h.08a5.61,5.61,0,0,1,1.85-2.09,5.06,5.06,0,0,1,2.88-.77,5,5,0,0,1,2.59.7,3.47,3.47,0,0,1,1.56,2.13,4.41,4.41,0,0,1,1.9-2.13,5.53,5.53,0,0,1,2.69-.7q4.78,0,4.79,5.07v9.8h-1.77v-9.7a4.26,4.26,0,0,0-.75-2.72,3.27,3.27,0,0,0-2.66-.94,3.8,3.8,0,0,0-1.91.44,3.34,3.34,0,0,0-1.2,1.16,4.78,4.78,0,0,0-.63,1.66,10.22,10.22,0,0,0-.18,1.94v8.16h-1.77V160a6.14,6.14,0,0,0-.15-1.38,3.26,3.26,0,0,0-.51-1.15,2.44,2.44,0,0,0-.93-.77,3.44,3.44,0,0,0-1.43-.28,4.33,4.33,0,0,0-2,.41A3.54,3.54,0,0,0,267.5,158a4.78,4.78,0,0,0-.77,1.69,8.26,8.26,0,0,0-.25,2.09v8.05h-1.77Z" transform="translate(-24.98 -28.17)"/><path class="cls-1" d="M288,155.33h1.62v2.75h0a4.86,4.86,0,0,1,2-2.33,5.94,5.94,0,0,1,3.15-.84,6.29,6.29,0,0,1,2.87.62,5.87,5.87,0,0,1,2,1.66,7.14,7.14,0,0,1,1.2,2.44,11.16,11.16,0,0,1,0,5.85,7,7,0,0,1-1.2,2.44,5.87,5.87,0,0,1-2,1.66,6.29,6.29,0,0,1-2.87.62,6.39,6.39,0,0,1-1.58-.2,5.29,5.29,0,0,1-1.45-.6,5.36,5.36,0,0,1-1.19-1,4.13,4.13,0,0,1-.79-1.37h-.06v8.09H288Zm11.56,7.24a9.24,9.24,0,0,0-.27-2.22,5.81,5.81,0,0,0-.84-2A4.5,4.5,0,0,0,297,157a4,4,0,0,0-2.15-.55,5.25,5.25,0,0,0-2.44.51,4.27,4.27,0,0,0-1.57,1.34,5.34,5.34,0,0,0-.82,1.95,11.21,11.21,0,0,0-.24,2.35,9.36,9.36,0,0,0,.27,2.22,5.65,5.65,0,0,0,.86,2,4.64,4.64,0,0,0,1.57,1.41,4.8,4.8,0,0,0,2.37.55,4.06,4.06,0,0,0,2.15-.55,4.5,4.5,0,0,0,1.47-1.41,5.81,5.81,0,0,0,.84-2A9.36,9.36,0,0,0,299.6,162.57Z" transform="translate(-24.98 -28.17)"/><path class="cls-1" d="M310.21,154.91a6.68,6.68,0,0,1,2.93.62,6.37,6.37,0,0,1,2.14,1.65,7.09,7.09,0,0,1,1.32,2.44,10.08,10.08,0,0,1,0,5.89,7.18,7.18,0,0,1-1.32,2.42,6.37,6.37,0,0,1-2.14,1.65,6.68,6.68,0,0,1-2.93.62,6.6,6.6,0,0,1-2.92-.62,6.41,6.41,0,0,1-2.15-1.65,7.16,7.16,0,0,1-1.31-2.42,9.86,9.86,0,0,1,0-5.89,7.07,7.07,0,0,1,1.31-2.44,6.41,6.41,0,0,1,2.15-1.65A6.6,6.6,0,0,1,310.21,154.91Zm0,1.49a4.38,4.38,0,0,0-2.21.53,4.73,4.73,0,0,0-1.58,1.4,6.45,6.45,0,0,0-1,2,8.11,8.11,0,0,0,0,4.51,6.34,6.34,0,0,0,1,2,4.73,4.73,0,0,0,1.58,1.4,4.79,4.79,0,0,0,4.42,0,4.76,4.76,0,0,0,1.59-1.4,6.32,6.32,0,0,0,.95-2,8.11,8.11,0,0,0,0-4.51,6.43,6.43,0,0,0-.95-2,4.76,4.76,0,0,0-1.59-1.4A4.38,4.38,0,0,0,310.21,156.4Z" transform="translate(-24.98 -28.17)"/><path class="cls-1" d="M318.22,155.33h1.88l3.69,12.38h.06l3.53-12.38h2l3.53,12.38H333l3.69-12.38h1.88l-4.65,14.45h-1.93l-3.56-12.15h-.05l-3.53,12.15h-1.93Z" transform="translate(-24.98 -28.17)"/><path class="cls-1" d="M341.46,163a7.24,7.24,0,0,0,.28,2,6.19,6.19,0,0,0,.84,1.82,4.42,4.42,0,0,0,1.47,1.34,4.81,4.81,0,0,0,5.19-.49,5.44,5.44,0,0,0,1.52-2.67h1.76a7.08,7.08,0,0,1-2.06,3.82,6.07,6.07,0,0,1-4.24,1.36,6.58,6.58,0,0,1-3-.62,5.54,5.54,0,0,1-2-1.66,7.18,7.18,0,0,1-1.17-2.44,11.13,11.13,0,0,1-.37-2.92,10.5,10.5,0,0,1,.37-2.8,7.41,7.41,0,0,1,1.17-2.45,5.85,5.85,0,0,1,2-1.74,6.2,6.2,0,0,1,3-.66,6,6,0,0,1,3,.7,5.89,5.89,0,0,1,2,1.84,7.51,7.51,0,0,1,1.1,2.6,11.47,11.47,0,0,1,.29,3Zm9.35-1.48a6.22,6.22,0,0,0-.35-1.93,5.14,5.14,0,0,0-.91-1.64,4.46,4.46,0,0,0-1.43-1.15,4.06,4.06,0,0,0-1.9-.43,4.13,4.13,0,0,0-1.93.43,4.46,4.46,0,0,0-1.43,1.15,5.55,5.55,0,0,0-.94,1.65,7.91,7.91,0,0,0-.46,1.92Z" transform="translate(-24.98 -28.17)"/><path class="cls-1" d="M355,155.33h1.62v3.39h.05a5.6,5.6,0,0,1,2.09-2.72,5.47,5.47,0,0,1,3.38-.86v1.76a5.32,5.32,0,0,0-2.19.32,4.84,4.84,0,0,0-2.8,2.76,5.6,5.6,0,0,0-.39,2.1v7.7H355Z" transform="translate(-24.98 -28.17)"/><path class="cls-1" d="M363.8,149.79h1.77v2.83H363.8Zm0,5.54h1.77v14.45H363.8Z" transform="translate(-24.98 -28.17)"/><path class="cls-1" d="M368.93,155.33h1.76v2.49h.06a4,4,0,0,1,.71-1.19,4.54,4.54,0,0,1,1.08-.92,5.57,5.57,0,0,1,1.34-.59,5.36,5.36,0,0,1,1.49-.21,7.12,7.12,0,0,1,2.53.39,4,4,0,0,1,1.64,1.11,4.18,4.18,0,0,1,.87,1.75,10.31,10.31,0,0,1,.25,2.32v9.3h-1.77v-9a8.59,8.59,0,0,0-.16-1.72,3.59,3.59,0,0,0-.59-1.38,2.82,2.82,0,0,0-1.14-.92,4.17,4.17,0,0,0-1.77-.34,4.52,4.52,0,0,0-1.89.38,4.32,4.32,0,0,0-1.42,1,4.4,4.4,0,0,0-.89,1.57,6.5,6.5,0,0,0-.34,2v8.41h-1.76Z" transform="translate(-24.98 -28.17)"/><path class="cls-1" d="M396.2,168.6a11.29,11.29,0,0,1-.35,2.92,5.56,5.56,0,0,1-1.11,2.18,4.79,4.79,0,0,1-2,1.37,8.16,8.16,0,0,1-3,.48,9.4,9.4,0,0,1-2.13-.25,6,6,0,0,1-1.86-.79,4.71,4.71,0,0,1-1.38-1.36,4.14,4.14,0,0,1-.63-2h1.77a3.14,3.14,0,0,0,.54,1.36,3.41,3.41,0,0,0,1,.88,4.48,4.48,0,0,0,1.28.49,6.74,6.74,0,0,0,1.43.15,4.2,4.2,0,0,0,3.55-1.4,6.46,6.46,0,0,0,1.09-4.06v-2h-.05a5.11,5.11,0,0,1-1.82,2.16,4.85,4.85,0,0,1-2.77.81,7,7,0,0,1-3-.57,5.6,5.6,0,0,1-2-1.58,6.48,6.48,0,0,1-1.16-2.37,10.87,10.87,0,0,1-.37-2.9,8.94,8.94,0,0,1,.44-2.81,7.08,7.08,0,0,1,1.26-2.33,5.85,5.85,0,0,1,2-1.56,6.36,6.36,0,0,1,2.79-.58,4.88,4.88,0,0,1,2.83.86,5,5,0,0,1,1.76,2h.05v-2.49h1.77Zm-6.41-.47a4.1,4.1,0,0,0,2-.49,4.64,4.64,0,0,0,1.46-1.29,5.76,5.76,0,0,0,.88-1.83,7.66,7.66,0,0,0,.29-2.13,9.11,9.11,0,0,0-.25-2.13,6.26,6.26,0,0,0-.81-1.93,4.28,4.28,0,0,0-1.44-1.4,4,4,0,0,0-2.14-.53,4.31,4.31,0,0,0-2.16.51,4.59,4.59,0,0,0-1.48,1.36,5.59,5.59,0,0,0-.86,1.92,9.52,9.52,0,0,0-.26,2.2,8,8,0,0,0,.28,2.13,5.33,5.33,0,0,0,.86,1.83,4.64,4.64,0,0,0,1.49,1.29A4.44,4.44,0,0,0,389.79,168.13Z" transform="translate(-24.98 -28.17)"/><path class="cls-1" d="M407.17,159.76a4.58,4.58,0,0,1,1.75-3.7,6.91,6.91,0,0,1,4.11-1.15,10.19,10.19,0,0,1,1.9.18,4.6,4.6,0,0,1,1.71.69,3.86,3.86,0,0,1,1.23,1.41,5.09,5.09,0,0,1,.48,2.37v7.67c0,.71.34,1.07,1,1.07a1.38,1.38,0,0,0,.56-.12v1.49c-.2,0-.39.06-.54.08a5,5,0,0,1-.61,0,2.68,2.68,0,0,1-1.07-.18,1.48,1.48,0,0,1-.63-.52,2,2,0,0,1-.3-.8,7.91,7.91,0,0,1-.07-1h-.05a12.06,12.06,0,0,1-1,1.25,5.27,5.27,0,0,1-1.09.92,4.72,4.72,0,0,1-1.39.57,7.56,7.56,0,0,1-1.82.2,6.8,6.8,0,0,1-1.89-.25,4.55,4.55,0,0,1-1.54-.77,3.64,3.64,0,0,1-1-1.32,4.25,4.25,0,0,1-.38-1.89,3.68,3.68,0,0,1,.67-2.36A4.25,4.25,0,0,1,409,162.3a10.08,10.08,0,0,1,2.49-.63l2.81-.35a8,8,0,0,0,1-.15,2,2,0,0,0,.71-.29,1.24,1.24,0,0,0,.44-.56,2.58,2.58,0,0,0,.15-1,3.35,3.35,0,0,0-.29-1.47,2.46,2.46,0,0,0-.81-.91,3.5,3.5,0,0,0-1.21-.46,8.49,8.49,0,0,0-1.47-.12,4.48,4.48,0,0,0-2.73.79,3.13,3.13,0,0,0-1.13,2.57Zm9.41,2.12h-.05a1,1,0,0,1-.65.45,7.63,7.63,0,0,1-.84.2c-.74.13-1.51.24-2.31.35a12.2,12.2,0,0,0-2.17.46,4.22,4.22,0,0,0-1.61.88,2.1,2.1,0,0,0-.63,1.64,2.54,2.54,0,0,0,.27,1.19,3,3,0,0,0,.71.9,3.18,3.18,0,0,0,1,.57,3.78,3.78,0,0,0,1.2.2,6.19,6.19,0,0,0,1.93-.31,4.77,4.77,0,0,0,1.61-.9,4.21,4.21,0,0,0,1.5-3.33Z" transform="translate(-24.98 -28.17)"/><path class="cls-1" d="M421.88,155.33h1.62v2.44h.08a5.61,5.61,0,0,1,1.85-2.09,5.11,5.11,0,0,1,2.88-.77,5,5,0,0,1,2.59.7,3.43,3.43,0,0,1,1.56,2.13,4.46,4.46,0,0,1,1.9-2.13,5.53,5.53,0,0,1,2.69-.7q4.79,0,4.79,5.07v9.8h-1.77v-9.7a4.26,4.26,0,0,0-.75-2.72,3.27,3.27,0,0,0-2.66-.94,3.8,3.8,0,0,0-1.91.44,3.34,3.34,0,0,0-1.2,1.16,4.78,4.78,0,0,0-.63,1.66,10.22,10.22,0,0,0-.18,1.94v8.16H431V160a6.14,6.14,0,0,0-.15-1.38,3.24,3.24,0,0,0-.5-1.15,2.55,2.55,0,0,0-.94-.77,3.41,3.41,0,0,0-1.43-.28,4.33,4.33,0,0,0-2,.41,3.61,3.61,0,0,0-1.33,1.12,4.78,4.78,0,0,0-.77,1.69,8.26,8.26,0,0,0-.25,2.09v8.05h-1.76Z" transform="translate(-24.98 -28.17)"/><path class="cls-1" d="M445.2,149.79H447v8.29H447a4.2,4.2,0,0,1,.8-1.38,4.68,4.68,0,0,1,1.19-1,5.76,5.76,0,0,1,1.44-.6,6,6,0,0,1,1.58-.21,6.29,6.29,0,0,1,2.87.62,5.87,5.87,0,0,1,2,1.66,7.14,7.14,0,0,1,1.2,2.44,10.89,10.89,0,0,1,0,5.85,7,7,0,0,1-1.2,2.44,5.87,5.87,0,0,1-2,1.66,6.29,6.29,0,0,1-2.87.62,5.94,5.94,0,0,1-3.15-.84,4.86,4.86,0,0,1-2-2.32h-.06v2.74H445.2Zm11.56,12.77a9.91,9.91,0,0,0-.26-2.23,6.14,6.14,0,0,0-.84-2,4.86,4.86,0,0,0-1.47-1.42,4.12,4.12,0,0,0-2.16-.54,4.83,4.83,0,0,0-2.37.54,4.74,4.74,0,0,0-1.56,1.42,5.59,5.59,0,0,0-.87,2,9.3,9.3,0,0,0,0,4.45,5.72,5.72,0,0,0,.87,2,4.71,4.71,0,0,0,1.56,1.41,4.83,4.83,0,0,0,2.37.55,4.13,4.13,0,0,0,2.16-.55,4.82,4.82,0,0,0,1.47-1.41,6.3,6.3,0,0,0,.84-2A9.89,9.89,0,0,0,456.76,162.56Z" transform="translate(-24.98 -28.17)"/><path class="cls-1" d="M461.3,149.79h1.76v2.83H461.3Zm0,5.54h1.76v14.45H461.3Z" transform="translate(-24.98 -28.17)"/><path class="cls-1" d="M469.25,155.33h2.94v1.49h-2.94v9.74a3.16,3.16,0,0,0,.24,1.36c.16.32.55.51,1.19.54a12.73,12.73,0,0,0,1.51-.08v1.51l-.78,0-.79,0a2.62,2.62,0,0,1-3.13-3.25v-9.88H465v-1.49h2.52V151h1.76Z" transform="translate(-24.98 -28.17)"/><path class="cls-1" d="M474.77,149.79h1.76v2.83h-1.76Zm0,5.54h1.76v14.45h-1.76Z" transform="translate(-24.98 -28.17)"/><path class="cls-1" d="M486,154.91a6.68,6.68,0,0,1,2.93.62,6.37,6.37,0,0,1,2.14,1.65,7.09,7.09,0,0,1,1.32,2.44,10.08,10.08,0,0,1,0,5.89,7.18,7.18,0,0,1-1.32,2.42,6.37,6.37,0,0,1-2.14,1.65,6.68,6.68,0,0,1-2.93.62,6.6,6.6,0,0,1-2.92-.62,6.41,6.41,0,0,1-2.15-1.65,7.34,7.34,0,0,1-1.31-2.42,9.86,9.86,0,0,1,0-5.89,7.24,7.24,0,0,1,1.31-2.44,6.41,6.41,0,0,1,2.15-1.65A6.6,6.6,0,0,1,486,154.91Zm0,1.49a4.38,4.38,0,0,0-2.21.53,4.73,4.73,0,0,0-1.58,1.4,6.21,6.21,0,0,0-1,2,7.87,7.87,0,0,0,0,4.51,6.11,6.11,0,0,0,1,2,4.73,4.73,0,0,0,1.58,1.4,4.79,4.79,0,0,0,4.42,0,4.76,4.76,0,0,0,1.59-1.4,6.32,6.32,0,0,0,.95-2,8.11,8.11,0,0,0,0-4.51,6.43,6.43,0,0,0-.95-2,4.76,4.76,0,0,0-1.59-1.4A4.38,4.38,0,0,0,486,156.4Z" transform="translate(-24.98 -28.17)"/><path class="cls-1" d="M495.46,155.33h1.76v2.49h.06a4.27,4.27,0,0,1,.71-1.19,4.54,4.54,0,0,1,1.08-.92,5.57,5.57,0,0,1,1.34-.59,5.36,5.36,0,0,1,1.49-.21,7.12,7.12,0,0,1,2.53.39,4,4,0,0,1,1.64,1.11,4.18,4.18,0,0,1,.87,1.75,9.76,9.76,0,0,1,.25,2.32v9.3h-1.76v-9a8.57,8.57,0,0,0-.17-1.72,3.59,3.59,0,0,0-.59-1.38,2.86,2.86,0,0,0-1.13-.92,4.25,4.25,0,0,0-1.78-.34,4.52,4.52,0,0,0-1.89.38,4.19,4.19,0,0,0-2.31,2.6,6.5,6.5,0,0,0-.34,2v8.41h-1.76Z" transform="translate(-24.98 -28.17)"/><text class="cls-2" transform="translate(484.07 141.68)">®</text><text class="cls-3" transform="translate(433.55 94.83)">®</text></svg>