<svg xmlns:xlink="http://www.w3.org/1999/xlink" xmlns="http://www.w3.org/2000/svg" viewBox="0 0 209.4 43.2" width="233" height="48">
  <defs fill="#000000">
    <style>
      .cls-1 {
        fill: #094169;
      }
    </style>
  </defs>
  <g id="Layer_2" data-name="Layer 2">
    <g id="Layer_1-2" data-name="Layer 1">
      <g id="Layer_2-2" data-name="Layer 2">
        <g id="EXPAND">
          <path class="cls-1" d="M21.8,20.4S25,10.9,25,9.9s-.8-1.3-2.1-1.4a7.8,7.8,0,0,0-3.4.4,1.5,1.5,0,0,0-1.1-.4,16.8,16.8,0,0,0-5,.7v-1a2.1,2.1,0,0,0,1.7-2.3,1.9,1.9,0,0,0-1.7-1.8V2.4h1.7V1.7H13.4V0h-.6V1.7H11v.7h1.8V4.1a2,2,0,0,0-1.7,2.3,2.1,2.1,0,0,0,1.7,1.8v1a17.9,17.9,0,0,0-5.1-.7,1.2,1.2,0,0,0-1,.4,8,8,0,0,0-3.4-.4c-1.3.1-2.1.4-2.2,1.4S4.3,20.4,4.3,20.4Zm-2-10.6c.3-.5,1.1-.7,2.7-.7a1.6,1.6,0,0,1,1.4.5,1,1,0,0,1,.2.9c-.2.8-.8,2.6-.8,2.7h.1s-1.2-.3-1.4.3.9,1.6.7,1.9-.8-1.4-1.3-.9a2.8,2.8,0,0,0-.1,2.2c.3.3.9-.6,1.1-.7s.4-.5.3,0a2.5,2.5,0,0,1-2.4,2c-1.3,0-1.7-.2-1.8-.6a2,2,0,0,1-.1-1.3c.2-.4.2-.3.3-.2a1.2,1.2,0,0,0,.8.9c.4,0,.7-1.3.7-1.7s-.1-.9-.8-.4l-.7.6c-.1,0-.2-.1,0-.2s1.2-1.2,1.2-1.5-.1-.6-.9-.6S19.7,10,19.8,9.8Zm-5.1,4.9c-.4-.2-.9.3-1.1.5s-.4,0-.3-.2l.9-1.4c0-.3-.1-.6-.9-.6h.1a14.5,14.5,0,0,1,.3-3c.3-.4,1.8-.6,2.9-.7a5.4,5.4,0,0,1,1.8,0c.2.1.5.2.5.4s-.3,2.2-.5,3.3h.1s-.8-.1-.9.3a4.9,4.9,0,0,0,.6,1.7.2.2,0,0,1-.1.3,7.6,7.6,0,0,1-.9-.9c-.2,0-.6-.2-.6,1.2s.3,1.1.4,1.1,1-.9,1.1-.9-.1.5-.2.7a3.8,3.8,0,0,1-.9,1.3,3,3,0,0,1-1.6.2H13.9a1.9,1.9,0,0,1-.6-1.2,1.8,1.8,0,0,1,0-.9c.1-.1.6.7.7.8s.6.4.8-.1S15.1,14.9,14.7,14.7Zm-7.5-5,.2-.2c.1-.2.6-.4,2.1-.2s2.7.3,3,.7a9.9,9.9,0,0,1,.2,3h.1c-.8,0-.8.3-.8.6a4.2,4.2,0,0,0,.9,1.4c0,.2-.1.4-.3.2s-.8-.7-1.2-.5-.3,1.3-.1,1.8.6.3.8.1.6-.9.7-.8.2.2,0,.9a1.5,1.5,0,0,1-.6,1.2H10.7a3,3,0,0,1-1.6-.2,3.8,3.8,0,0,1-.9-1.3c-.1-.2-.2-.7-.1-.7s.6.9,1,.9.4-.3.4-1.1-.4-1.2-.5-1.2l-1,.9a.5.5,0,0,1-.1-.3,4.9,4.9,0,0,0,.6-1.7c-.1-.4-.8-.3-.8-.3h0C7.5,11.9,7.4,10.8,7.2,9.7ZM3.5,16c-.1-.5.1-.2.3,0s.7,1,1,.7a2.4,2.4,0,0,0-.1-2.2c-.5-.5-1,1.1-1.2.9s.8-1.3.6-1.9-1.3-.3-1.3-.3h0c0-.1-.6-1.9-.8-2.7a1,1,0,0,1,.2-.9,1.6,1.6,0,0,1,1.4-.5c1.6,0,2.4.2,2.7.7s.6,2.2.8,3.2-.9.3-.9.6,1.1,1.3,1.2,1.5.1.2,0,.2l-.7-.6c-.6-.5-.8-.1-.8.4s.3,1.7.8,1.7.7-.7.8-.9.1-.2.2.2a1.9,1.9,0,0,1,0,1.3c-.2.4-.6.6-1.9.6A2.3,2.3,0,0,1,3.5,16Zm12.7,6.5c-.5,0-.2.5-.3.9s-.7.2-.7.2.4-.6.4-1,.6-.6,1.1-.1.9.3.9.3S16.6,22.5,16.2,22.5Zm.3,2c-.1-.5-.7-.3-.9-.1a1.1,1.1,0,0,1-1.1,0,1,1,0,0,1-.3-1,.9.9,0,0,0,0-.7c.1.2.3.4.3.6s-.1.8.5.8.7-.4,1.4-.3a.7.7,0,0,1,.3,1.1.7.7,0,0,1-.6.2A.4.4,0,0,0,16.5,24.5Zm-14,1a.2.2,0,0,1-.2.2.2.2,0,0,1,0-.4h0A.2.2,0,0,1,2.5,25.5Zm22.3,0a.2.2,0,1,1-.2-.2A.2.2,0,0,1,24.8,25.5Zm1.9-1c-.2.7-.9,1.6-1,1.5s1.4-2.2,1.1-2.3a4.2,4.2,0,0,0-2.6.8,15.2,15.2,0,0,0-5.1,5.3h0a1.7,1.7,0,0,0-1,.3.8.8,0,0,0-.2.4v.2h.6c.1,0,.1.2.1.2h0V31a2,2,0,0,0-.2.7c-.1.3-1.5,5.7,1.1,8.6a2.7,2.7,0,0,0,1.9.8h0a3.7,3.7,0,0,0,2.7-1.3,1.2,1.2,0,0,0,.5-.5,2.1,2.1,0,0,0,.4-.6l.2-.3c.1-.2.1-.4.2-.6a3,3,0,0,0-.1-2.1h0l-.4.5a1.5,1.5,0,0,0-.5.6c-.2.5-.6.1-1,.2s-1.4.3-1.5,1.1h0a.1.1,0,0,1,.1.1h0c.1-.1.4-.4.9,0h0a2,2,0,0,1,.6.7c.1.1.1.2.1.4s-1.9.9-1.9.9a1.6,1.6,0,0,1-1.1-.5c-1.5-1.4-.8-4.4.8-6.7h.1a.1.1,0,0,1,.1.1c0,.1.1.2,0,.3s-.1.1,0,.2a.1.1,0,0,0,.1-.1l.3-.3a1.7,1.7,0,0,0,.1-1h0c.2-.3,3.3-4.3,3.8-5.2a9.4,9.4,0,0,0,1-2.3h0c0-.2-.2-.3-.2-.2Zm-2.1,1.4a.4.4,0,1,1,.4-.4.4.4,0,0,1-.4.4ZM8.8,30.1a1.7,1.7,0,0,0-1-.3h0a15.2,15.2,0,0,0-5.1-5.3A4.3,4.3,0,0,0,0,23.7c-.2.1,1.6,2,1.2,2.3s-.8-.8-1-1.5-.2,0-.2.2H0A9.4,9.4,0,0,0,1,27c.5.9,3.6,4.9,3.8,5.2h0a1.7,1.7,0,0,0,.1,1l.3.3a.1.1,0,0,0,.1.1c.1-.1,0-.1,0-.2s0-.2,0-.3a.1.1,0,0,1,.1-.1h.1c1.6,2.3,2.3,5.3.8,6.7a1.6,1.6,0,0,1-1.1.5s-1.7.1-1.9-.9,0-.3.1-.4a1.3,1.3,0,0,1,.6-.7H4c.5-.4.8-.1.9,0h0a.1.1,0,0,1,.1-.1H5c-.1-.8-1.2-1-1.5-1.1s-.8.3-1-.2a1.5,1.5,0,0,0-.5-.6l-.4-.5h0a3,3,0,0,0-.1,2.1c.1.2.1.4.2.6l.2.3a2.1,2.1,0,0,0,.4.6,1.2,1.2,0,0,0,.5.5,3.7,3.7,0,0,0,2.7,1.3h0a2.3,2.3,0,0,0,1.8-.8C10,37.4,8.6,32,8.5,31.7a2,2,0,0,0-.2-.7v-.2h0s0-.2.1-.2H9v-.2A.8.8,0,0,0,8.8,30.1ZM2.3,25.9a.4.4,0,1,1,0-.8.4.4,0,0,1,.4.4h0A.4.4,0,0,1,2.3,25.9Zm13,1.5c.3.8-.1,1.2-.3,1.2h0a.1.1,0,0,0-.1.1,2.3,2.3,0,0,1-.3.9c-.1.5.1.8.6,2s-.6,4-.6,4a10.1,10.1,0,0,0-.9,3.4c0,1.4.1,2.1.7,2.8a1.2,1.2,0,0,0,.9.4,1.7,1.7,0,0,0,1-.3h.2c.1-.2.2-.3.2-.5s0-.4-.2-.5l-.3-.3H14.8c-.1.1-.2.2-.2.3s.1.1,0,.2h-.1c-.1-.2-.2-.3-.2-.5a3.6,3.6,0,0,1,.4-.9h0c.1,0,.1,0,.1-.1l.3-.3s.5-.3.5-.6a1.3,1.3,0,0,1,.1-.6c0-.2-.1-.3-.1-.4v-.4h.1c.1.1.2.1.2.2h.2l.3.3.2.2.3.6a1.1,1.1,0,0,1,.3.8.6.6,0,0,1,.1.4V41a3.6,3.6,0,0,1-.4,1.1,2.8,2.8,0,0,1-1.3,1.1c-1.8.4-3.6-1.2-4.2-2.9a13.6,13.6,0,0,1-.7-3.5s-.3-3.5.5-5,1-1.7.9-2.3v-.4a1.1,1.1,0,0,1-.1-.5h0a1,1,0,0,1-.3-1.2h0q.3-.4,0-.6h-.5l-.7.5a3.3,3.3,0,0,1-1.3.7H8.9l-.8-.6-.6-.8L7,26.1l-.3-.2h-1c-.1,0,0-.1,0-.1h.4a.1.1,0,0,1-.1-.1H5.3a.1.1,0,0,1,0-.2h.6a.1.1,0,0,1,.1.1h.1c.1.1.2.1.2.2l.4.4.4.2h0c.1.1.2.1.3.3l1,.9.7.4.4-.3.7-.6.4-.4.4-.4h1c1.2-.1,1-.7.9-.8s-.3,0-.5.1H12c-.1-.1-.1-.1-.1-.2h0a.1.1,0,0,1-.1-.1h-.3c.1,0,.1-.1.1-.2h0v-.2h0c0-.1-.1-.1-.1-.2v-.2h0v-.2h0l-.2.3c-.1.2-.4.6-.7.1s-.1-.8-.7-.4.3-.6.6-.3l.2.3c.1.2.2.5.4.1s.3-1,1.7-1a1.1,1.1,0,0,1,1,.6c.4.4,0,1.4,0,1.7a1.8,1.8,0,0,0,.9,1.3c.1.2.9,0,1.3.4l.5.5.4.3.6.6.3.3h.1l.7-.4,1-.9c.1-.2.2-.2.3-.3h0l.4-.2c.1-.1.3-.2.4-.4s.1-.1.2-.2H21a.1.1,0,0,1,.1-.1h.6a.1.1,0,0,1,0,.2H21a.1.1,0,0,1-.1.1h.4s.1.1,0,.1h-1l-.3.2-.5.6-.6.8-.7.6h-.4l-1.3-.7a2.4,2.4,0,0,0-.9-.6c-.2-.2-.5.1-.3.6Z" fill="#000000"/>
          <path class="cls-1" d="M38.1,17.9h9.6v2.5H40.9v4.5h5.9v2.4H40.9v7H38.1Z" fill="#000000"/>
          <path class="cls-1" d="M49.7,17.1h2.6v2.5H49.7Zm0,4.7h2.6V34.3H49.7Z" fill="#000000"/>
          <path class="cls-1" d="M56,33.5a4.1,4.1,0,0,1-1.1-2.8v-.3h2.7v.2a1.7,1.7,0,0,0,.5,1.5,1.9,1.9,0,0,0,1.3.5,2.8,2.8,0,0,0,1.2-.4,1.7,1.7,0,0,0,.2-2.2l-.3-.2a5.6,5.6,0,0,0-1.8-.7l-1.9-.7a3.2,3.2,0,0,1-1.2-1.1,4.6,4.6,0,0,1-.5-2,3.8,3.8,0,0,1,1.2-2.8,4.9,4.9,0,0,1,3.1-.9,4.2,4.2,0,0,1,2.9.9,2.7,2.7,0,0,1,1.1,2.5v.5H60.8c0-1.1-.5-1.7-1.5-1.7a1.9,1.9,0,0,0-1.2.4,1.8,1.8,0,0,0-.4,1,1.1,1.1,0,0,0,.6,1,5.1,5.1,0,0,0,1.7.7l1.9.7a2.8,2.8,0,0,1,1.3,1.1,3.1,3.1,0,0,1,.5,2.1,3.4,3.4,0,0,1-1.2,3,5.3,5.3,0,0,1-3.2,1A4.9,4.9,0,0,1,56,33.5Z" fill="#000000"/>
          <path class="cls-1" d="M66.1,17.1h2.6V27l3.6-5.2h2.8l-3.7,5.1,3.9,7.4H72.4l-2.6-5.4-1.1,1.4v4H66.1Z" fill="#000000"/>
          <path class="cls-1" d="M77.5,33a8,8,0,0,1-1.3-5c0-4.3,1.6-6.5,4.8-6.5A3.9,3.9,0,0,1,84.3,23a8,8,0,0,1,1.1,4.8v.9H78.9a5.4,5.4,0,0,0,.5,2.8,2.1,2.1,0,0,0,1.7,1,1.7,1.7,0,0,0,1.3-.7,3.2,3.2,0,0,0,.5-1.9h2.5a4.6,4.6,0,0,1-1.2,3.5,4.8,4.8,0,0,1-6.7-.4Zm5.2-6.3a4.5,4.5,0,0,0-.4-2.3,1.3,1.3,0,0,0-1.3-.8,1.8,1.8,0,0,0-1.5.8,4.6,4.6,0,0,0-.6,2.3Z" fill="#000000"/>
          <path class="cls-1" d="M88.1,21.8h2.1l.3,1.7h.2c.4-1.3,1.1-2,2.1-2a2.2,2.2,0,0,1,1.1.2v2.5H93a2.2,2.2,0,0,0-1.7.6,3.2,3.2,0,0,0-.6,2.3v7.2H88.1Z" fill="#000000"/>
          <path class="cls-1" d="M96,17.1h2.6v2.5H96Zm0,4.7h2.6V34.3H96Z" fill="#000000"/>
          <path class="cls-1" d="M102.2,33a9.9,9.9,0,0,1-1.1-5,9.3,9.3,0,0,1,1.1-4.9,3.3,3.3,0,0,1,4.4-1.2,2,2,0,0,1,1.1,1.1h.1V17.1h2.6V34.3h-2.1l-.3-1.5h-.1a3.7,3.7,0,0,1-1.2,1.3,3,3,0,0,1-1.6.5A3.4,3.4,0,0,1,102.2,33Zm5.1-1.7a5.6,5.6,0,0,0,.5-2.8v-.9a6.1,6.1,0,0,0-.5-2.9A1.6,1.6,0,0,0,105,24a1.2,1.2,0,0,0-.7.7,5.8,5.8,0,0,0-.5,2.9v.9a5.4,5.4,0,0,0,.5,2.8,1.7,1.7,0,0,0,2.3.8,1.8,1.8,0,0,0,.7-.8Z" fill="#000000"/>
          <path class="cls-1" d="M113.5,17.1h2.6v2.5h-2.6Zm0,4.7h2.6V34.3h-2.6Z" fill="#000000"/>
          <path class="cls-1" d="M119.3,21.8h2.1l.3,1.7h.2c.4-1.3,1.1-2,2.1-2a2,2,0,0,1,1.1.2v2.5h-.9a2.2,2.2,0,0,0-1.7.6,3.2,3.2,0,0,0-.6,2.3v7.2h-2.6Z" fill="#000000"/>
          <path class="cls-1" d="M127.4,33a8.6,8.6,0,0,1-1.2-5c0-4.3,1.6-6.5,4.8-6.5a3.9,3.9,0,0,1,3.3,1.5,8.7,8.7,0,0,1,1.1,4.8v.9h-6.5a5.4,5.4,0,0,0,.5,2.8,1.9,1.9,0,0,0,1.7,1,1.7,1.7,0,0,0,1.3-.7,4.1,4.1,0,0,0,.5-1.9h2.5a4.6,4.6,0,0,1-1.2,3.5,5,5,0,0,1-6.8-.4Zm5.3-6.3a5.9,5.9,0,0,0-.4-2.3,1.4,1.4,0,0,0-1.3-.8,1.8,1.8,0,0,0-1.5.8,4.6,4.6,0,0,0-.6,2.3Z" fill="#000000"/>
          <path class="cls-1" d="M138.1,17.1h2.5V27l3.7-5.2h2.8l-3.7,5.1,3.9,7.4h-2.9l-2.6-5.4-1.2,1.4v4h-2.5Z" fill="#000000"/>
          <path class="cls-1" d="M150.3,33.6a3.4,3.4,0,0,1-.7-2.2V23.9h-1.2V21.8h1.2l.5-3.5h2.1v3.5h1.7v2.1h-1.7v7.4a.9.9,0,0,0,.8,1.1h.9v1.9l-.7.2h-.9A2,2,0,0,1,150.3,33.6Z" fill="#000000"/>
          <path class="cls-1" d="M156.9,33a8.6,8.6,0,0,1-1.2-5,8.5,8.5,0,0,1,1.2-4.9,4.9,4.9,0,0,1,6.9-.4.8.8,0,0,0,.4.4,8.5,8.5,0,0,1,1.2,4.9,8.6,8.6,0,0,1-1.2,5,5,5,0,0,1-7,.3Zm5.3-1.6a7.1,7.1,0,0,0,.5-2.9v-.9a7.6,7.6,0,0,0-.5-3,1.9,1.9,0,0,0-2.6-.7,1.2,1.2,0,0,0-.7.7,6.1,6.1,0,0,0-.5,3v.9a5.8,5.8,0,0,0,.5,2.9,1.9,1.9,0,0,0,2.5.8A3,3,0,0,0,162.2,31.4Z" fill="#000000"/>
          <path class="cls-1" d="M167.8,21.8h2.1l.3,1.7h.1c.5-1.3,1.2-2,2.2-2a2.3,2.3,0,0,1,1.1.2v2.5h-.9a2.1,2.1,0,0,0-1.7.6,3.2,3.2,0,0,0-.6,2.3v7.2h-2.6Z" fill="#000000"/>
          <path class="cls-1" d="M175.7,33.8a3.5,3.5,0,0,1-1-2.8,3.5,3.5,0,0,1,1.7-3.3,9.1,9.1,0,0,1,4.6-1V25.3a3.1,3.1,0,0,0-.3-1.3,1.5,1.5,0,0,0-1.3-.4,1.4,1.4,0,0,0-1.2.4,1.5,1.5,0,0,0-.4,1.1v.4h-2.5v-.6a3.1,3.1,0,0,1,1.1-2.5,5.6,5.6,0,0,1,6.1,0,3.4,3.4,0,0,1,1,2.7v6.5a1.4,1.4,0,0,0,.2.6l.5.2h.7v1.8a3,3,0,0,1-1.6.3,1.8,1.8,0,0,1-1.4-.4,2.4,2.4,0,0,1-.7-1.2H181a3.7,3.7,0,0,1-1.2,1.3,4.1,4.1,0,0,1-1.9.4A3.5,3.5,0,0,1,175.7,33.8Zm4.7-2.2a3.7,3.7,0,0,0,.6-2.1v-.8a5.2,5.2,0,0,0-2.7.5,1.8,1.8,0,0,0-1,1.6c0,1.1.5,1.6,1.5,1.6a1.8,1.8,0,0,0,1.6-.8Z" fill="#000000"/>
          <path class="cls-1" d="M187.7,33.6a3.4,3.4,0,0,1-.7-2.2V23.9h-1.2V21.8H187l.5-3.5h2.1v3.5h1.7v2.1h-1.7v7.4a1,1,0,0,0,.8,1.1h.9v1.9l-.7.2h-.9A2,2,0,0,1,187.7,33.6Z" fill="#000000"/>
          <path class="cls-1" d="M194.3,33a8,8,0,0,1-1.3-5c0-4.3,1.6-6.5,4.8-6.5a3.9,3.9,0,0,1,3.3,1.5,8,8,0,0,1,1.1,4.8v.9h-6.5a5.4,5.4,0,0,0,.5,2.8,2.1,2.1,0,0,0,1.7,1,1.7,1.7,0,0,0,1.3-.7,3.2,3.2,0,0,0,.5-1.9h2.5a4.6,4.6,0,0,1-1.2,3.5,4.8,4.8,0,0,1-6.7-.4Zm5.2-6.3a4.5,4.5,0,0,0-.4-2.3,1.3,1.3,0,0,0-1.3-.8,1.8,1.8,0,0,0-1.5.8,4.6,4.6,0,0,0-.6,2.3Z" fill="#000000"/>
          <path class="cls-1" d="M205.7,33.6a4,4,0,0,1-.6-2.2V23.9h-1.2V21.8h1.2l.4-3.5h2.1v3.5h1.8v2.1h-1.8v7.4a1.1,1.1,0,0,0,.8,1.1h1v1.9l-.8.2h-.8A2.2,2.2,0,0,1,205.7,33.6Z" fill="#000000"/>
        </g>
      </g>
    </g>
  </g>
</svg>