<?xml version="1.0" encoding="UTF-8"?>
<svg version="1.1" xmlns="http://www.w3.org/2000/svg" width="4096" height="1172">
<path d="M0 0 C47.19 0 94.38 0 143 0 C157.03047838 42.09143513 157.03047838 42.09143513 163.52050781 62.17089844 C164.00051644 63.65458576 164.48053809 65.13826887 164.96057129 66.62194824 C165.20202377 67.36844131 165.44347626 68.11493439 165.69224548 68.88404846 C166.71903688 72.05768133 167.746999 75.23093455 168.77495003 78.40419197 C171.93639129 88.16349761 175.09450671 97.9238772 178.25121307 107.68471527 C178.97896212 109.93494989 179.70678531 112.18516052 180.43463135 114.43536377 C190.92410145 146.86526385 201.39165048 179.30224232 211.85141182 211.74173546 C216.14323202 225.05204861 220.43862288 238.36119175 224.74330139 251.66735268 C226.56319327 257.29287806 228.38264543 262.9185457 230.20204163 268.54423141 C230.64902528 269.92629246 231.09603639 271.30834463 231.54307556 272.69038773 C238.09190891 292.93686508 244.59586426 313.19704453 251.00341797 333.48876953 C251.4054393 334.75904243 251.4054393 334.75904243 251.81558228 336.05497742 C252.30789799 337.61084442 252.79886128 339.16714031 253.28817749 340.72395325 C254.45235466 344.43705118 254.45235466 344.43705118 256 348 C256.37471436 346.82050781 256.74942871 345.64101563 257.13549805 344.42578125 C265.46037951 318.24036231 273.90927268 292.09915237 282.5 266 C288.72513113 247.08730841 294.90128664 228.1615806 300.9375 209.1875 C307.40569672 188.85601358 314.04428738 168.58319061 320.71842575 148.31866074 C327.21002768 128.60706031 333.63280558 108.87689991 339.92236328 89.09967041 C349.39598762 59.3283685 359.23035867 29.67528554 369 0 C415.2 0 461.4 0 509 0 C509 144.54 509 289.08 509 438 C481.94 438 454.88 438 427 438 C426.505 254.355 426.505 254.355 426 67 C413.67231106 105.10376581 401.34926234 143.2085722 389.05859375 181.32421875 C383.73704405 197.82370397 378.40055512 214.31834883 373.0625 230.8125 C372.59929356 232.24378443 372.13608758 233.67506902 371.67288208 235.10635376 C371.32896156 236.16905282 371.32896156 236.16905282 370.97809315 237.25322056 C369.82130702 240.82765949 368.66454651 244.4021067 367.5078125 247.9765625 C367.16448159 249.03749272 367.16448159 249.03749272 366.81421471 250.11985588 C360.81699374 268.65243028 354.82835504 287.18777692 348.84204102 305.72387695 C347.97673705 308.40316136 347.11141831 311.082441 346.24609375 313.76171875 C346.03203699 314.42451403 345.81798023 315.0873093 345.5974369 315.77018929 C342.45712709 325.49336801 339.31308171 335.21533308 336.16694069 344.93662643 C334.33520363 350.5968678 332.50416326 356.25733454 330.67340469 361.91789246 C330.22620271 363.3006013 329.77897543 364.68330197 329.33172226 366.06599426 C323.03249908 385.54113456 316.77722735 405.02953034 310.640625 424.55664062 C310.27309113 425.72345116 310.27309113 425.72345116 309.89813232 426.91383362 C309.45038153 428.3358366 309.00402422 429.75827948 308.55938721 431.18125916 C307.81825211 433.53403681 307.1051718 435.78965639 306 438 C272.34 438 238.68 438 204 438 C200.62415039 428.99773436 200.62415039 428.99773436 199.26098633 424.83642578 C198.95181274 423.89517853 198.64263916 422.95393127 198.32409668 421.98416138 C197.99671509 420.98134125 197.6693335 419.97852112 197.33203125 418.9453125 C196.98072144 417.87328583 196.62941162 416.80125916 196.26745605 415.69674683 C195.11376831 412.1734935 193.9629507 408.64931154 192.8125 405.125 C192.41195404 403.89974609 192.01140808 402.67449219 191.59872437 401.41210938 C185.78643315 383.63005224 180.04122402 365.82727049 174.35696411 348.00384521 C168.21081377 328.73423877 161.98923902 309.4896107 155.75 290.25 C153.7693951 284.14197123 151.78891678 278.03390142 149.80859375 271.92578125 C149.56380154 271.17077394 149.31900932 270.41576664 149.06679916 269.63788033 C143.96745165 253.90911936 138.88640244 238.17448524 133.8125 222.4375 C133.60908493 221.80662979 133.40566986 221.17575958 133.1960907 220.52577209 C130.94759439 213.5522886 128.69953098 206.57866561 126.45166016 199.60498047 C123.24233262 189.64900232 120.03072542 179.69375982 116.8190918 169.73852539 C105.87871132 135.82590406 94.93963304 101.91286241 84 68 C83.67 190.1 83.34 312.2 83 438 C55.61 438 28.22 438 0 438 C0 293.46 0 148.92 0 0 Z " fill="#F2EEE7" transform="translate(2053,367)"/>
<path d="M0 0 C38.960625 -0.04125 77.92125 -0.0825 118.0625 -0.125 C130.33058838 -0.14320801 142.59867676 -0.16141602 155.23852539 -0.18017578 C170.30554199 -0.18920898 170.30554199 -0.18920898 177.37571716 -0.19088745 C182.27722512 -0.19273867 187.17868905 -0.20018513 192.08018494 -0.21115112 C198.35905334 -0.22500959 204.63785898 -0.22895668 210.91674125 -0.22614455 C213.20439376 -0.22673139 215.49204877 -0.23061333 217.779688 -0.23843026 C257.0539441 -0.36624757 295.03811169 3.81774746 326 30 C326.73734375 30.62261719 327.4746875 31.24523437 328.234375 31.88671875 C339.87267217 42.61722874 347.14254918 57.46463445 351.6875 72.375 C351.89028564 73.03419434 352.09307129 73.69338867 352.30200195 74.37255859 C355.40968306 85.13979779 356.36931991 96.01914151 356.3125 107.1875 C356.30686035 108.36368896 356.3012207 109.53987793 356.29541016 110.75170898 C355.91302455 138.42166135 347.60269 163.97701782 328 184 C315.19569517 196.2483513 300.00818058 204.01982539 283.12890625 209.140625 C281.97592041 209.49157227 280.82293457 209.84251953 279.63500977 210.20410156 C278.76545654 210.46674805 277.89590332 210.72939453 277 211 C277.73935791 211.23074219 278.47871582 211.46148438 279.24047852 211.69921875 C309.42105129 221.20298838 335.59708116 233.62019721 350.95947266 262.87988281 C365.48072181 292.46752422 366.98390195 329.72841347 357 361 C347.44620939 388.83947394 328.43728345 409.91901944 302.19921875 423.0859375 C271.58767539 437.56327554 237.95496915 438.17269867 204.79980469 438.11352539 C202.51456326 438.11321822 200.22932174 438.11335397 197.94408035 438.11389065 C191.88711988 438.11411414 185.83017962 438.10836651 179.77322388 438.10128021 C174.06577499 438.09553693 168.35833073 438.09531448 162.65087891 438.09460449 C146.01724998 438.08938089 129.38362473 438.07541963 112.75 438.0625 C75.5425 438.041875 38.335 438.02125 0 438 C0 293.46 0 148.92 0 0 Z M84 66 C84 104.61 84 143.22 84 183 C106.87527243 183.06017252 106.87527243 183.06017252 129.75055599 183.10050774 C137.9376504 183.11155018 146.12470363 183.12552426 154.31176758 183.15087891 C160.79830411 183.1709574 167.28480944 183.18375032 173.77137619 183.18817699 C177.19865638 183.19076018 180.62584738 183.19673121 184.05309868 183.21146011 C222.26102143 183.91102432 222.26102143 183.91102432 255.37890625 166.80859375 C270.04308575 150.44831638 270.11484116 129.74151348 269 109 C267.68661832 97.56183373 262.71430714 86.56834124 254.2265625 78.66015625 C238.79158304 67.15161894 220.39900062 65.83035402 201.83935547 65.88647461 C199.92058846 65.88625557 199.92058846 65.88625557 197.96305847 65.8860321 C194.48647441 65.88574745 191.00992548 65.89159021 187.53334951 65.89860606 C183.88853735 65.90489514 180.24372422 65.90544777 176.59890747 65.90663147 C169.71082717 65.9097285 162.82276291 65.91791977 155.93468964 65.92798096 C146.61701278 65.94129297 137.29933148 65.94665516 127.98164749 65.95248318 C113.32108633 65.9618609 98.66055901 65.98179064 84 66 Z M84 242 C84 284.9 84 327.8 84 372 C105.285 372.04125 126.57 372.0825 148.5 372.125 C158.54018555 372.15231201 158.54018555 372.15231201 168.78320312 372.18017578 C174.8410024 372.18686918 174.8410024 372.18686918 180.89880371 372.19088745 C183.57401219 372.19393654 186.2490243 372.20015561 188.92419434 372.21115112 C226.45355952 372.9511513 226.45355952 372.9511513 258.8125 355.75 C273.78597848 339.28281686 275.81252943 319.41563768 275.17919922 298.06201172 C274.25856351 282.33093125 267.67134451 267.63717475 256 257 C239.95802331 244.32485792 219.89066257 241.82604136 200.13647461 241.88647461 C198.85671784 241.88635407 197.57696108 241.88623354 196.25842381 241.88610935 C192.8217151 241.88588519 189.38504178 241.89164722 185.94834137 241.89871979 C182.71397503 241.90444864 179.47961006 241.90468475 176.24523926 241.90539551 C166.80932155 241.91062614 157.37341032 241.9245874 147.9375 241.9375 C116.2884375 241.9684375 116.2884375 241.9684375 84 242 Z " fill="#F2EEE7" transform="translate(1141,367)"/>
<path d="M0 0 C44.99579046 -0.78293597 87.10414475 10.83657546 120.31640625 42.12109375 C121.04214844 42.77078125 121.76789062 43.42046875 122.515625 44.08984375 C153.35191674 72.87776423 164.49100914 118.65099939 166.06640625 159.24609375 C167.00063948 188.7526273 167.00063948 188.7526273 164.31640625 194.12109375 C82.14640625 194.12109375 -0.02359375 194.12109375 -84.68359375 194.12109375 C-79.09768434 230.52311114 -79.09768434 230.52311114 -60.68359375 261.12109375 C-60.11253906 261.79914063 -59.54148437 262.4771875 -58.953125 263.17578125 C-46.32029214 277.02071961 -25.90185806 283.64046401 -7.68359375 285.12109375 C20.08682547 286.29664577 47.60984828 284.73819063 69.56640625 265.74609375 C78.79372442 257.08106528 84.31640368 247.12110147 88.31640625 235.12109375 C113.72640625 235.12109375 139.13640625 235.12109375 165.31640625 235.12109375 C160.57795761 265.92100991 145.95456052 292.56700306 121.31640625 312.12109375 C94.97844359 330.97557624 65.19425962 339.44076325 33.31640625 343.12109375 C32.17945312 343.25386719 31.0425 343.38664062 29.87109375 343.5234375 C-15.7486137 347.69666888 -68.21117272 341.76580344 -105.12109375 312.30078125 C-109.39916796 308.66180959 -113.59864094 304.97647896 -117.68359375 301.12109375 C-118.43253906 300.43660156 -119.18148437 299.75210937 -119.953125 299.046875 C-147.87711978 272.58999028 -162.0750995 229.42860897 -163.79060364 191.77215576 C-163.846866 189.29953023 -163.87435463 186.82870324 -163.88671875 184.35546875 C-163.89241882 183.44138245 -163.8981189 182.52729614 -163.9039917 181.58551025 C-163.91338645 179.65597671 -163.91995352 177.72642752 -163.92382812 175.796875 C-163.93342962 172.92026673 -163.96446282 170.0444068 -163.99609375 167.16796875 C-164.09003567 150.75392941 -162.41874885 134.59005151 -158.49609375 118.62109375 C-158.28815186 117.7705542 -158.08020996 116.92001465 -157.8659668 116.04370117 C-148.23520419 78.48889556 -126.16754583 46.04643439 -93.49609375 24.99609375 C-64.58946362 7.94501759 -33.31338989 1.09513795 0 0 Z M-62.93359375 82.49609375 C-76.45301078 98.48592634 -81.82655429 119.69365968 -83.68359375 140.12109375 C-26.92359375 140.12109375 29.83640625 140.12109375 88.31640625 140.12109375 C87.52425158 129.03892298 87.52425158 129.03892298 85.62890625 118.24609375 C85.45593018 117.48997803 85.2829541 116.7338623 85.10473633 115.95483398 C80.42236596 96.53551176 71.13458222 79.95096304 54.12890625 68.80859375 C19.40919048 48.54177853 -35.10814689 52.67561485 -62.93359375 82.49609375 Z " fill="#F2EEE7" transform="translate(3322.68359375,470.87890625)"/>
<path d="M0 0 C0.94304993 0.00182281 1.88609985 0.00364563 2.85772705 0.00552368 C17.02286634 0.05155626 30.8874443 0.48760151 44.8125 3.3125 C45.70469238 3.48942383 46.59688477 3.66634766 47.51611328 3.84863281 C71.47895794 8.74176879 92.14806265 17.3523537 110.8125 33.3125 C111.85857422 34.20388672 111.85857422 34.20388672 112.92578125 35.11328125 C128.42309799 49.47056549 138.13868179 72.84151892 138.94557858 93.76300526 C138.94943349 95.03897918 138.9532884 96.3149531 138.95726013 97.6295929 C138.96078698 98.34491422 138.96431382 99.06023555 138.96794754 99.79723328 C138.97858432 102.18424619 138.98230729 104.57121909 138.98608398 106.95825195 C138.99239496 108.67584397 138.99916137 110.39343437 139.00634766 112.11102295 C139.02100649 115.81206738 139.03273771 119.51310557 139.04229546 123.21416664 C139.05784987 129.11100246 139.08181337 135.00778615 139.10719299 140.90458679 C139.17807791 157.67553369 139.23745701 174.44651325 139.28930664 191.2175293 C139.31801699 200.47969622 139.35362549 209.741814 139.39596039 219.00392884 C139.41792956 223.88278597 139.43661501 228.76159923 139.44640923 233.64049721 C139.49444566 256.71024415 140.02800721 279.68385921 141.29066467 302.72062683 C141.86338912 313.24789467 142.3337745 323.78053896 142.8125 334.3125 C119.0525 334.3125 95.2925 334.3125 70.8125 334.3125 C67.35822148 299.76971477 67.35822148 299.76971477 66.625 284.9375 C66.54295736 283.38798683 66.46027234 281.83850755 66.37695312 280.2890625 C66.18153517 276.63056086 65.99431782 272.97170612 65.8125 269.3125 C65.41853027 270.25641602 65.02456055 271.20033203 64.61865234 272.17285156 C64.08712402 273.43303129 63.55537389 274.69311747 63.0234375 275.953125 C62.76554443 276.57268066 62.50765137 277.19223633 62.24194336 277.83056641 C51.24256631 303.78568559 28.60073484 322.8878126 2.99951172 333.46484375 C-31.15067778 346.70099668 -72.75905904 346.33704976 -106.3203125 331.6484375 C-127.32077249 321.86348203 -143.69296333 306.14531035 -152.1875 284.3125 C-161.33474811 256.72098963 -160.81655671 226.44784699 -148.375 199.9375 C-145.3043374 194.14172251 -141.53737462 189.20299002 -137.1875 184.3125 C-136.31544922 183.29929687 -136.31544922 183.29929687 -135.42578125 182.265625 C-116.95597655 162.23329886 -88.19735055 154.46643332 -62.4140625 149.54296875 C-61.75688169 149.41652544 -61.09970089 149.29008213 -60.42260551 149.15980721 C-49.07856269 146.98057293 -37.70502688 144.98958656 -26.31640625 143.05859375 C-25.51738955 142.92289726 -24.71837284 142.78720078 -23.89514351 142.64739227 C-16.51001162 141.39379172 -9.12417764 140.14450135 -1.73510742 138.91430664 C2.37423009 138.22969076 6.48157372 137.53401661 10.58790779 136.83162117 C12.1174638 136.57207866 13.64769069 136.31645032 15.17864799 136.06530571 C39.68514355 132.24889847 39.68514355 132.24889847 59.3125 118.4375 C64.97438232 109.96067054 64.91897653 99.3979007 63.125 89.625 C60.60622199 80.01890181 55.20594891 73.58422914 47.046875 68.1328125 C26.46936984 56.59151613 -7.32496663 57.09927737 -29.86328125 62.91796875 C-44.11242835 67.210344 -55.90295189 74.43783777 -63.65234375 87.359375 C-68.21398807 96.13444651 -69.54827316 104.47713894 -71.1875 114.3125 C-97.5875 114.3125 -123.9875 114.3125 -151.1875 114.3125 C-150.01656043 95.57746692 -150.01656043 95.57746692 -148 87.625 C-147.67008057 86.29094116 -147.67008057 86.29094116 -147.33349609 84.92993164 C-145.42435377 77.56561914 -142.8347054 71.01108022 -139.1875 64.3125 C-138.68734375 63.33539062 -138.1871875 62.35828125 -137.671875 61.3515625 C-122.92812258 34.08277769 -95.50440301 17.32458999 -66.58911133 8.37915039 C-60.82088829 6.67989893 -55.01459193 5.27235723 -49.125 4.0625 C-48.39579346 3.91143799 -47.66658691 3.76037598 -46.9152832 3.60473633 C-31.35023165 0.62741014 -15.80494799 -0.06364947 0 0 Z M58.125 166.4375 C40.6683516 177.61155 19.37371585 181.32098503 -0.53515625 185.9921875 C-1.53996536 186.22885635 -2.54477448 186.46552521 -3.58003235 186.70936584 C-8.63077567 187.89809901 -13.6837308 189.07483641 -18.74243164 190.22924805 C-38.32430065 194.75935186 -61.16152702 200.13703583 -72.5625 218.3125 C-78.83515789 229.66788067 -79.4331175 242.50745996 -76.31640625 254.98828125 C-72.60820005 265.90760124 -65.39313055 273.68189952 -55.1484375 278.84375 C-36.1291763 286.80314885 -12.17855545 286.22562217 6.95947266 278.43896484 C11.72230618 276.31939055 16.28395719 273.88942806 20.8125 271.3125 C21.65167969 270.85230469 22.49085938 270.39210938 23.35546875 269.91796875 C44.01868688 257.4598172 55.47476644 235.0178267 61.18920898 212.39379883 C65.1223653 195.99340233 65.05038018 180.10501052 64.8125 163.3125 C61.90051045 163.3125 60.51162863 164.78933494 58.125 166.4375 Z " fill="#F2EEE7" transform="translate(2767.1875,470.6875)"/>
<path d="M0 0 C122.76 0 245.52 0 372 0 C372 22.44 372 44.88 372 68 C324.48 68 276.96 68 228 68 C228 190.1 228 312.2 228 438 C200.61 438 173.22 438 145 438 C145 315.9 145 193.8 145 68 C97.15 68 49.3 68 0 68 C0 45.56 0 23.12 0 0 Z " fill="#F2EEE7" transform="translate(1518,367)"/>
<path d="M0 0 C21.5896669 1.43931113 39.82418609 6.11715081 56 21 C56.84046875 21.74894531 57.6809375 22.49789063 58.546875 23.26953125 C72.58726252 36.43771288 82.37080215 56.11347049 83.0946908 75.54132938 C83.13475385 78.63668792 83.14286814 81.73067312 83.14044189 84.82629395 C83.14489858 86.60798611 83.14489858 86.60798611 83.1494453 88.42567205 C83.15660178 91.71016537 83.15930276 94.99462673 83.16004276 98.27912664 C83.16189995 101.82670516 83.16945069 105.37427248 83.17617798 108.92184448 C83.18973586 116.67425444 83.19578228 124.42665921 83.20018864 132.17907906 C83.20295583 137.02512343 83.20719409 141.87116583 83.21169281 146.71720886 C83.22388302 160.14945602 83.23418226 173.58170159 83.2375679 187.01395416 C83.23778747 187.87297737 83.23800703 188.73200058 83.23823325 189.61705479 C83.23845153 190.47807101 83.23866981 191.33908724 83.2388947 192.22619486 C83.23933816 193.97078355 83.23978472 195.71537225 83.24023438 197.45996094 C83.2404558 198.32532728 83.24067723 199.19069363 83.24090537 200.0822832 C83.24484986 214.09115813 83.26229432 228.09998094 83.2855939 242.10883576 C83.30935332 256.51113991 83.32177187 270.91341796 83.32293582 285.31574202 C83.3238501 293.39412241 83.32953965 301.4724349 83.34775543 309.55079651 C83.36321863 316.43243952 83.3682405 323.31399365 83.36001733 330.19565076 C83.35613246 333.70133598 83.35693322 337.20684254 83.37107468 340.71250534 C83.4671136 369.37958736 79.68424182 392.91287372 59.0625 414.375 C37.67122951 434.71477947 13.39235846 438.17652026 -14.86401367 438.11352539 C-16.64886473 438.11324286 -18.4337159 438.11340254 -20.21856689 438.1139679 C-25.03388796 438.1142533 -29.84918381 438.10839821 -34.66449904 438.10139394 C-39.70799743 438.09511752 -44.75149648 438.09455322 -49.79499817 438.09336853 C-59.33215737 438.09026782 -68.86930502 438.08207148 -78.40645915 438.07201904 C-89.26986753 438.06081869 -100.13327648 438.05533759 -110.9966892 438.05032361 C-133.331134 438.03988776 -155.66556298 438.02155802 -178 438 C-178 414.9 -178 391.8 -178 368 C-119.26 368 -60.52 368 0 368 C0 246.56 0 125.12 0 0 Z " fill="#F2EEE7" transform="translate(995,367)"/>
<path d="M0 0 C0 121.44 0 242.88 0 368 C34.98 368 69.96 368 106 368 C106 391.1 106 414.2 106 438 C79.72872989 438.08021762 79.72872989 438.08021762 68.43945312 438.09765625 C60.76795651 438.10956308 53.09650811 438.1235744 45.42504883 438.15087891 C39.23288383 438.17277769 33.04077063 438.1846042 26.84856987 438.18975449 C24.49856184 438.1934199 22.14855631 438.2005765 19.79857063 438.21146011 C-10.92555938 438.34795897 -37.29542346 435.16592089 -60.40234375 412.66015625 C-81.1028051 390.82736198 -83.47542585 365.57764162 -83.39217401 337.02911377 C-83.38531027 333.53892319 -83.39590053 330.04877545 -83.40411377 326.55859375 C-83.41737617 319.74275059 -83.41460708 312.92700716 -83.40587585 306.11116028 C-83.39906996 300.56628611 -83.39819506 295.02143966 -83.4014473 289.4765625 C-83.40213684 288.28778755 -83.40213684 288.28778755 -83.40284032 287.07499695 C-83.40379961 285.46445719 -83.40477225 283.85391743 -83.4057581 282.24337769 C-83.41429004 267.18061221 -83.40451247 252.11790172 -83.388357 237.05514526 C-83.37495582 224.161736 -83.37728453 211.2684078 -83.39111328 198.375 C-83.40720805 183.362047 -83.41346627 168.34914206 -83.40427649 153.33618164 C-83.40332095 151.7319336 -83.40237784 150.12768555 -83.4014473 148.5234375 C-83.40098447 147.73434494 -83.40052164 146.94525238 -83.40004479 146.13224792 C-83.39746657 140.60117427 -83.40180055 135.07013139 -83.40888596 129.5390625 C-83.41734463 122.78830657 -83.41492985 116.03765514 -83.39904372 109.28691101 C-83.39121924 105.849907 -83.38796836 102.41307651 -83.39799118 98.97607422 C-83.46207673 69.99813968 -79.94480179 45.53487405 -58.9453125 23.85546875 C-42.9587599 8.00151861 -22.32897664 0 0 0 Z " fill="#F2EEE7" transform="translate(3618,367)"/>
<path d="M0 0 C27.39 0 54.78 0 83 0 C83 47.19 83 94.38 83 143 C130.19 143 177.38 143 226 143 C226 170.39 226 197.78 226 226 C178.81 226 131.62 226 83 226 C83 273.19 83 320.38 83 369 C55.61 369 28.22 369 0 369 C-0.04125 358.419375 -0.0825 347.83875 -0.125 336.9375 C-0.14320801 333.628396 -0.16141602 330.31929199 -0.18017578 326.90991211 C-0.18602562 324.2407243 -0.19112001 321.57153468 -0.1953125 318.90234375 C-0.20053925 318.23167374 -0.20576599 317.56100372 -0.21115112 316.87001038 C-0.40851663 290.14882549 6.07178341 267.467918 24.9375 247.6875 C41.10548541 232.31361996 60.04840499 226.46343967 82 225 C82 198.27 82 171.54 82 144 C78.04 144 74.08 144 70 144 C54.74772292 141.79624894 40.59822421 135.09699268 29 125 C28.41347656 124.55527344 27.82695313 124.11054688 27.22265625 123.65234375 C11.86452189 111.70712813 3.15208308 91.04110428 0.46289062 72.24609375 C-0.27638058 65.34003319 -0.12365784 58.40065637 -0.09765625 51.46484375 C-0.09664917 50.15680786 -0.09564209 48.84877197 -0.09460449 47.50109863 C-0.08939923 42.64655675 -0.07543808 37.79202743 -0.0625 32.9375 C-0.041875 22.068125 -0.02125 11.19875 0 0 Z " fill="#F2EEE7" transform="translate(510,367)"/>
<path d="M0 0 C1.20100342 -0.00014603 2.40200684 -0.00029205 3.6394043 -0.0004425 C6.90531359 0.00013137 10.17117903 0.00511796 13.43707967 0.01213145 C16.86034912 0.01841795 20.28361959 0.01897296 23.70689392 0.02015686 C30.1770996 0.02325464 36.64728822 0.03144695 43.11748642 0.04150635 C51.21300524 0.05381725 59.30852688 0.05926236 67.40405273 0.06469727 C81.83180037 0.07441338 96.25951082 0.09444948 110.68725586 0.11352539 C110.68725586 23.21352539 110.68725586 46.31352539 110.68725586 70.11352539 C73.39725586 70.11352539 36.10725586 70.11352539 -2.31274414 70.11352539 C-2.31274414 153.93352539 -2.31274414 237.75352539 -2.31274414 324.11352539 C-27.06274414 324.11352539 -51.81274414 324.11352539 -77.31274414 324.11352539 C-77.40101882 290.33759763 -77.47483964 256.56178234 -77.51700546 222.78577384 C-77.52200795 218.79313613 -77.52718527 214.80049867 -77.5324707 210.80786133 C-77.53404457 209.61562863 -77.53404457 209.61562863 -77.53565022 208.39931042 C-77.55302888 195.55004228 -77.58455248 182.70084612 -77.62135532 169.8516206 C-77.65883559 156.65527267 -77.68099493 143.45896231 -77.68909812 130.26256335 C-77.69457125 122.12757789 -77.71182224 113.99279598 -77.74441001 105.85787322 C-77.76564551 100.27029662 -77.77192388 94.68282438 -77.76674965 89.09521042 C-77.76420179 85.87719477 -77.77017778 82.65960523 -77.78956604 79.44163704 C-77.92155621 56.39538775 -74.75009762 37.57257909 -58.31274414 20.11352539 C-42.26290002 4.4685422 -21.69957225 -0.06979523 0 0 Z " fill="#F2EEE7" transform="translate(3041.312744140625,480.886474609375)"/>
<path d="M0 0 C47.52 0 95.04 0 144 0 C144 27.39 144 54.78 144 83 C96.48 83 48.96 83 0 83 C0 55.61 0 28.22 0 0 Z " fill="#F2EEE7" transform="translate(367,510)"/>
</svg>
