<svg version="1.1" id="Layer_1" xmlns="http://www.w3.org/2000/svg" xmlns:xlink="http://www.w3.org/1999/xlink" x="0px" y="0px" viewBox="0 0 512 156" style="enable-background:new 0 0 512 156;" xml:space="preserve" width="512"  height="156" >
<style type="text/css">
	.st0{fill:#FFFFFF;}
	.st1{fill-rule:evenodd;clip-rule:evenodd;fill:#FFFFFF;}
</style>
<g>
	<path class="st0" d="M15.5,14.2c-3.2,0-5.8,2.6-5.8,5.8v116c0,3.2,2.6,5.8,5.8,5.8h94.3c3.2,0,5.8-2.6,5.8-5.8V20   c0-3.2-2.6-5.8-5.8-5.8H15.5z M12.4,136V20c0-1.7,1.4-3,3-3h94.3c1.7,0,3,1.4,3,3v116c0,1.7-1.4,3-3,3H15.5   C13.8,139,12.4,137.7,12.4,136z"/>
	<g>
		<g>
			<path class="st0" d="M149,16.2l39.4,46.4h0.2V43.9c0-11.2-0.5-16.8-0.9-19.7c-0.5-3.6-3.3-4.7-9.6-5.1v-2.8h24.1V19     c-4.9,0.2-7.5,1.6-8,5.1c-0.4,3-0.9,8.5-0.9,19.7v37.3h-4.5l-40.7-49.7h-0.2v21.3c0,11.3,0.5,16.8,0.9,19.7     c0.5,3.6,3.3,4.7,9.6,5.1v2.8h-24.1v-2.8c4.9-0.2,7.5-1.6,8-5.1c0.4-3,0.9-8.5,0.9-19.7V33.4c0-11.4-2.2-13.8-10.3-14.4v-2.8H149     z"/>
			<path class="st0" d="M271.8,47.1c0,21-14.7,34.7-33.5,34.7c-19.4,0-32.3-14.5-32.3-32.5c0-16.2,11.4-34.6,34.5-34.6     C257.7,14.8,271.8,27.9,271.8,47.1z M218.9,46.2c0,17.9,7.9,31.7,21.9,31.7c10.3,0,18.2-8.6,18.2-27.1c0-20.5-8.2-32.1-21.4-32.1     C227.1,18.7,218.9,28.8,218.9,46.2z"/>
			<path class="st0" d="M303.9,16.2c7.2,0,12.3,0.8,16.3,3.4c3.9,2.6,6.5,6.7,6.5,12.5c0,8.3-5.1,14.1-13.1,17.1     c1.6,2.8,5.4,9.7,8.6,14.1c3.8,5.4,6.3,9,8.2,11c2.4,2.4,3.9,3.8,6.8,4.5l-0.4,2.6l-4.1-0.2c-10.8-0.8-14.1-3.6-18-9.1     c-3.2-4.5-6.4-10.9-9.3-16c-1.6-2.8-2.8-3.8-5.7-3.8h-3.2v13.2c0,10.7,0.8,11.5,8.3,12v2.8H277v-2.8c7.9-0.6,8.7-1.4,8.7-12V31     c0-10.7-0.8-11.4-8.3-12v-2.8H303.9z M296.5,49h3.8c3.9,0,6.7-0.6,9.3-2.6c3.9-3.2,5.3-7.9,5.3-12.6c0-10.3-7.1-13.8-13.4-13.8     c-4.7,0-4.9,0.4-4.9,3.6V49z"/>
			<path class="st0" d="M394.2,68.9c0,3.6,0,6.7,0.6,8.8c-6.1,1.8-14,4.1-21.5,4.1c-22,0-36.7-13.1-36.7-32.9     c0-22.5,18-34.2,37.3-34.2c8.5,0,15.4,1.8,18.9,2.6c0.2,3.4,0.8,8.5,1.6,16l-3.2,0.4c-2.6-12.4-10.9-15-18.9-15     c-13.6,0-22.9,10.4-22.9,28.3c0,15.2,6.5,30.9,24.5,30.9c3.2,0,5-0.4,6.6-1.1c1.9-0.8,2.7-2.5,2.7-6.4v-8.3     c0-6.7-0.4-7.3-10.9-8.1v-3h27.4v3c-5.1,0.8-5.5,1.2-5.5,8.1V68.9z"/>
			<path class="st0" d="M449.9,16.2c0.2,1.6,0.6,8.9,1.2,15l-3,0.2c-1-4.7-2.2-7.5-3.7-9c-1.7-1.7-4.8-2.3-11-2.3h-4.9     c-3.8,0-3.9,0-3.9,3.6v20.9h8.5c8.5,0,8.7-0.6,9.7-8.2h3.2v20.9h-3.2c-1-7.8-1.2-8.2-9.7-8.2h-8.5v16.2c0,5.7,0.4,8.5,2.2,9.8     c1.8,1.2,5.3,1.3,9.5,1.3c4.9,0,9.5-0.4,11.5-2.9c1.7-1.9,3.4-5.2,5-10l3,0.6c-0.4,3.4-2.6,13.4-3.4,16.2h-48.2v-2.8     c8.5-0.6,9.3-1.4,9.3-12V31c0-10.7-0.8-11.4-8.3-12v-2.8H449.9z"/>
			<path class="st0" d="M495.9,31.3c-1.8-5.7-4.8-12.6-13.1-12.6c-6.5,0-10.1,4.7-10.1,10.4c0,5.5,3.9,9.2,11.5,12.6l2.6,1.2     c7.7,3.5,14.8,8.7,14.8,18.9c0,11.7-9.2,20-22.5,20c-3.8,0-7.3-0.8-9.9-1.7c-2.8-0.9-4.5-1.7-5.7-2.1c-0.8-2.6-2-9.3-3-15.3l3-1     c2,5.1,7.3,16.1,17.5,16.1c6.4,0,10.4-5,10.4-11.1c0-5.5-2.7-9.5-10.5-13.3l-3.2-1.6c-6.5-3.4-14.8-8.6-14.8-18.3     c0-10.4,7.8-18.8,21-18.8c2.7,0,6.2,0.4,9,1.4c1.6,0.6,3,0.8,4.1,1.3c0.4,3.5,1,7.8,2,13.3L495.9,31.3z"/>
		</g>
		<g>
			<path class="st0" d="M229.8,110.3c0-6.5-0.4-6.9-5.8-7.2v-2.5h31.5c0.1,1.7,0.4,5.8,0.7,10.2l-2.6,0.2c-0.6-3.2-1.3-4.8-2.3-5.8     c-0.8-0.8-2.7-1.5-6.6-1.5h-3.2c-2.5,0-2.6,0-2.6,2.2v12.4h5.5c5.5,0,5.7-0.4,6.4-4.8h2.6v13.5H251c-0.7-4.8-0.9-5.1-6.4-5.1H239     v8.4c0,6.4,0.5,6.9,6.9,7.2v2.5H224v-2.5c5.4-0.4,5.8-0.8,5.8-7.2V110.3z"/>
			<path class="st0" d="M278.2,130.2c0,6.4,0.5,6.9,6,7.2v2.5H263v-2.5c5.5-0.4,6-0.8,6-7.2v-19.9c0-6.5-0.5-6.9-6-7.2v-2.5h21.2     v2.5c-5.5,0.4-6,0.7-6,7.2V130.2z"/>
			<path class="st0" d="M295,126.9c1.3,4.4,5.9,10.8,11.8,10.8c3.9,0,6.8-2.4,6.8-5.8c0-3.5-2.1-6.3-6.6-8l-2.4-0.9     c-5.1-2-10.6-5-10.6-11c0-7.2,5.5-12.5,15.6-12.5c3.8,0,7.8,1.4,9.3,1.8c0.4,2.4,0.7,5.5,1.3,9.9l-2.7,0.4     c-1.4-4.9-4.5-8.8-9.2-8.8c-3.5,0-6.1,2.6-6.1,5.8c0,3.3,2.6,5.2,6,6.4l2.2,0.8c6.3,2.2,11.7,5.5,11.8,12.6     c0,7.8-6.8,12.6-16.4,12.6c-5.9,0-9.9-2.2-11.4-3.2c-0.5-1.3-1.4-6.4-2.2-10.7L295,126.9z"/>
			<path class="st0" d="M349.9,100.6v2.5c-5.2,0.4-5.7,0.7-5.7,7.2v9.5c3.1-2.9,9.4-10.1,12.2-13.5c1.5-1.8,2.2-2.7,0.3-3l-2.5-0.3     v-2.5h18.2v2.5c-3.9,0.4-6.8,1.1-9.9,3.4c-2.5,1.9-7.5,6.4-10.6,9.8c4.3,5.9,11.4,14.4,14.2,17.3c2.9,3,4.9,3.6,7.2,3.9v2.5     h-13.5c-2.6-3.2-11.8-15-15.5-19.6h-0.2v10c0,6.4,0.5,6.9,6.1,7.2v2.5h-20.4v-2.5c5.1-0.4,5.6-0.8,5.6-7.2v-19.9     c0-6.5-0.5-6.9-6-7.2v-2.5H349.9z"/>
			<path class="st0" d="M378.8,139.8v-2.5c6-0.4,6.4-0.8,6.4-7.3v-19.8c0-6.5-0.5-6.9-6-7.2v-2.5h21.7v2.5c-5.9,0.4-6.4,0.7-6.4,7.2     v19.6c0,3.4,0.4,5.3,1.7,6c1.2,0.7,2.8,0.9,5.3,0.9c3.4,0,5.6-0.4,6.9-1.9c1.1-1.1,2.2-3.2,3.4-6.9l2.6,0.3     c-0.5,3.1-1.8,9.2-2.3,11.5H378.8z"/>
			<path class="st0" d="M440.7,137.4l1.7-0.2c2.5-0.3,2.9-0.9,1.4-4.7l-2.1-5.3h-12.1c-0.4,1-1.3,3.8-2.1,6.3     c-0.8,2.6-0.3,3.3,2.2,3.6l2,0.2v2.5h-15.9v-2.5c3.7-0.4,5.3-0.6,7.7-6.4l13.1-30.7l3.3-0.7l13.3,32.5c2,4.8,3.8,5,7.5,5.4v2.5     h-20V137.4z M430.5,123.9h9.9l-4.8-12.5h-0.3L430.5,123.9z"/>
			<path class="st0" d="M496.6,112.6c-1.8-8-7.1-9.9-12.4-9.9c-7.4,0-13.7,5.3-13.7,16.8c0,9.2,4.5,18.2,15,18.2     c1.8,0,4.5-0.4,4.5-3.9v-5.1c0-4.1-0.3-4.5-7.4-4.9v-2.5H503v2.5c-3.3,0.4-3.8,0.6-3.8,4.9v4.2c0,2.2,0.2,4.1,0.5,5.5     c-4.3,1.1-9.5,2.5-14.9,2.5c-14.8,0-24.7-8.1-24.7-20.3c0-13.8,11.9-21.1,25.3-21.1c5.7,0,10.6,1.3,12.8,1.9     c0.3,2,0.5,5.5,1.1,11.1L496.6,112.6z"/>
			<path class="st0" d="M214.8,132l-12.6-31.2c2.7-0.9,4.8-3.3,4.8-6.5c0-4.4-3.7-6.9-7.4-6.9c-3.7,0-7.3,2.5-7.3,6.9     c0,3.7,2.5,6.1,5.5,6.8L185.1,131c-2.5,5.8-4.1,6-7.7,6.4v2.5h15.9v-2.5l-2-0.2c-2.5-0.3-3-1-2.2-3.6c0.8-2.6,1.8-5.4,2.1-6.3     h12.1l2.1,5.3c1.5,3.8,1.1,4.4-1.4,4.7l-1.7,0.2v2.5h20v-2.5C218.6,137,216.7,136.9,214.8,132z M195.8,94.3c0-2.4,1.7-4.4,4-4.4     c2.2,0,3.8,2,3.8,4.4c0,2.4-1.6,4.4-3.8,4.4C197.5,98.7,195.8,96.7,195.8,94.3z M192.2,123.9l4.8-12.5h0.3l4.8,12.5H192.2z"/>
			<path class="st0" d="M147.9,130.2c0,6.4,0.5,6.9,6,7.2v2.5h-21v-2.5c5.5-0.4,6.1-0.8,6.1-7.2v-19.9c0-6.5-0.5-6.9-5.8-7.2v-2.5     h22c4.1,0,7.4,0.5,10,2c2.5,1.5,4.4,4.4,4.4,8.3c0,5.2-3.7,8.5-8.5,10c1.1,1.8,3.9,6.1,5.7,8.7c2.1,3.1,3.8,4.9,4.8,5.9     c1.2,1.1,2.9,2,4.4,2.6l-0.3,2.3h-3.5c-7.8-0.1-10.2-2.3-12.6-5.5c-2.1-2.8-4.4-7.1-5.9-9.6c-1.1-1.9-1.8-2.2-4.4-2.2h-1.4V130.2     z M149.2,120.3h2.8c1.9,0,4.1-0.3,5.7-1.2c2.5-1.5,3.5-4.1,3.5-7.2c0-5.6-3.9-8.2-8.3-8.2c-3.6,0-3.8,0.1-3.8,2.6V120.3z"/>
		</g>
	</g>
	<g>
		<path class="st1" d="M42.9,107.4c-1.8,0.2-3.3,0.6-4.7,1.8c1.4-0.2,2.6-0.3,4-0.3L42.9,107.4z"/>
		<path class="st1" d="M41.8,110.4c-1.8,0.1-3.3,0.3-4.7,1.6c1.4-0.1,2.7-0.2,4.1-0.1L41.8,110.4z"/>
		<path class="st1" d="M40.8,113c-1.9,0.3-3.1,0.5-4.6,1.8c1.3-0.2,2.7-0.3,4-0.2L40.8,113z"/>
		<path class="st1" d="M39.9,115.6c-1.6,0-2.8,0.3-4.1,1.5c1.2-0.1,2.5-0.3,3.7-0.1L39.9,115.6z"/>
		<path class="st1" d="M39.3,117.8c-1.5,0.2-2.7,0.6-3.8,1.6c1.1-0.2,2.4-0.2,3.4-0.2L39.3,117.8z"/>
		<path class="st1" d="M38.4,121.6l0.3-1.5c-1.5,0.1-2.6,0.6-3.5,1.7C36.2,121.6,37.4,121.5,38.4,121.6z"/>
		<path class="st1" d="M37.2,133.8l0,0.7c-0.4,0.2-1.5,0.4-1.9,0.2C35.8,134.3,36.6,134,37.2,133.8z"/>
		<path class="st1" d="M37.3,131.8l-0.1,1.2c-0.7,0-1.6,0.1-2.4,1C35.3,132.2,36.6,131.9,37.3,131.8z"/>
		<path class="st1" d="M37.4,129.2l-0.1,1.5c-1.1,0-2.2,0.6-2.7,1.4C34.9,130,36.4,129.5,37.4,129.2z"/>
		<path class="st1" d="M37.7,126.4l-0.2,1.6c-0.9,0.2-2.5,0.9-3.1,1.9C34.7,127.3,37.7,126.4,37.7,126.4z"/>
		<path class="st1" d="M38.1,123.9l-0.2,1.6c-1.1,0.3-2.6,0.8-3.5,2.3C34.9,124.7,37.2,124.3,38.1,123.9z"/>
		<path class="st1" d="M46.9,99.4c-1.1-0.2-3.8,0.5-5.7,1.8c1.6-2.7,4.8-3.8,7-4.1L46.9,99.4z"/>
		<path class="st0" d="M45.4,102.1c0,0-1.6,0-3,0.7c0.2-0.5,1.7-1.9,4.1-2.8L45.4,102.1z"/>
		<path class="st1" d="M48.9,96.1c-4,0.5-4.9,1.1-8.3,3.3c2.4-3.5,7.5-5.4,10-5.8C50.6,93.6,49.5,95,48.9,96.1z"/>
	</g>
	<g>
		<path class="st0" d="M81.8,81.1c-0.8,2.1-1.7,3.9-2.2,6c0.1-0.1,0.2-0.2,0.3-0.4c1.1-1.4,2-2.8,2.7-4.2L81.8,81.1z"/>
		<path class="st0" d="M91.4,49.7c0.6-0.5,1.8-2.2,2.8-5.3c0.9,1.1,0.5,3.1-0.2,4.4c0.8-0.6,2-2.4,2.2-4.1c1.1,1.5,0.6,3.4-1,4.7    C95.4,49.5,93.2,49.6,91.4,49.7z"/>
		<path class="st0" d="M87.9,34.5c0,0-0.8-4.5-3.1-6.6c-1.7-1.6-4.1-2.3-4.1-2.3s1.1,0.6,2,2.6c0.8,1.8,1,2.2,1,3.1    c-1.2-0.2-4-0.1-5.8,0c-2.7,0.2-3.5,0.7-3.5,0.7s1.8-0.2,4.4,0.1C84.7,32.8,87.9,34.5,87.9,34.5z M65.6,38.6c1.6-2,3.8-5.4,4-5.5    c1.3-0.5,1.4-0.5,2.3-0.7c-0.1-0.3-0.3-0.8-2-0.5c-0.1-0.4,1.1-2.1,1.1-2.3c1-3.2,3.1-4.1,5.1-4.4c2.1-1.1,2.6-0.7,4.8-0.4    c3.8,0.7,7.3,4.7,8.1,9.9c1.2,1.2,2.6,2.1,4.1,3.3c1.8,1.3,3.9,3,7,5.3c1.4,5-3.9,6.5-3.9,6.5c1.9-1.1,3.5-4,2.4-6    c-2.8-0.3-3.8-0.1-9.4-2.3c-7-2.5-15-5.9-16.5-6c-0.4,0.1-4.9,3.3-6.1,4.4c-0.8,0.9,1,7.1,5.4,10.5c0,0.1,0.4,1,0.4,1    C67,48.7,63.9,40.7,65.6,38.6z"/>
		<path class="st0" d="M97.6,95.8c0,2-1.5,5.2-2.5,6.3l4,0.3c0,0,2.8-2.7,1.2-6.3c-0.2,0.9-0.8,3.8-2.3,5    C98.6,98.1,97.6,95.8,97.6,95.8z"/>
		<path class="st0" d="M114.2,89.9V70c-1.4-3.7-2.7-7.2-2.9-7.5c-0.8-2.2-4.3-5.4-8.4-5.6l-3.7,1.9c-0.8,0.4-8.6-2.3-10.3-1.1    c0,0,2.1,1.2,2.7,1.7c-10.1,0-13.3,4.8-13.3,9.1c-0.1,0.5-0.9,3.1-2.2,4.9l0.6-7.8l2.9-5.7c0.9-1.6,9.7-4.9,9.7-4.9l9,2.1    c0,0,0.3-2.3,0.7-4.8c0.7,1.6,1.9,4.1,1.9,4.1s-0.1-2.1-0.2-4.5c0,0,0.8,0.7,2.5,4.3c0.3-5.9-3.1-6.4-3.1-6.4l-1.7,1.6    c0,0-5.7-0.2-8.7,0.5c-5.5,1.3-12.6,5.3-12.6,5.3c-1.4,1.5-2.5,3.2-2.9,5.2c-2-1.9-2.2-5.1-2.1-6.1c-0.8,0.7-1.5,1.5-1.2,4.7    c-1.8-0.8-2.8-5-1.6-6.9c-2.9,1.3-2.3,6.5-0.3,8.1c1.2,0.9,5.2,3.2,5.2,3.2c-0.1,1.4,0.7,7.3,0.7,7.3l-2.7-6l-3.7-3.2    c0,0,0.6,2.2,0.4,3.6c-4.9-5.3-2.7-8.8-2.4-9.5c0,0-2.2,1-2.8,1.3c-2.5,1.4-2.2,3.8-2.4,7c0,7.1-3.9,16.1-3.9,19.5    c1.7-1.5,3.4-2.8,5.2-4c-0.3-2.3,0-5.4,0-5.4l-0.9,1c0.1-3.3,1.5-6.4,2.1-7.5c-0.1,0.9-0.4,7.2,0,11.1c4-2.5,8.1-4.2,12.6-6.4    c0.4-0.2,0.7-0.3,1-0.4c1-1.8,3.6-6.3,3.9-7.5c0.4-1.6,1.6-4,1.4-3.1c-0.1,0.4-0.1,2.3-0.2,4.9c0,0.9-3.1,4-4.7,5.5    c1.9-0.4,2.4,1,2.4,1.8c0,0.7-2.1,5.5-2,6.1c0.1,1.2,2.4-3.9,3.2-3.7c0.7,0.1,0.8,0.9,0.7,1.6c0.1,0.6,0.4,1.4,0.8,2.2    c2.2-4.5,2.9-7.7,3.5-10.7c1.2,3.7-0.4,8.6-1.2,11.9c1.6-0.3,3.8-9.3,5-14.1c2.2,6-1,11.5-2.9,15.8c-0.4,0.8-3.9,4.1-5.9,6.5    l2.1,0.7c2.7-1.8,6.2-3.8,9.2-5.3c3.4-1.5,4.8-1.2,5.7-0.5c1.1-0.6,2-1.1,2-1.2c-1-0.9-2-1.8-2.5-2.7c1.3-0.1,3.3,0.1,3.3,0.1    s-0.7-1.2-2.6-2.5c0,0,0.9-2.6,1.1-3.9c0.2-1.6-0.7-3.5-0.1-5.8c0.1,0,1.5,6.8,5.3,15.2c-0.2,0.1-2.7,0.8-5.1,2.2    c0.8,1,1.9,3.3,2.4,6.3c4.4-0.9,7.1-1.1,8.6-1.9C112,90.9,113.2,90.3,114.2,89.9z"/>
		<path class="st0" d="M101.3,102.1c-0.4,0.8-0.9,1.3-1.5,1.5c-3.5,0.4-16.2-1.5-18-2c-1.5,0-6.1,0.3-8.6-0.6    c-0.4,1.5-1,3.1-1.7,4.7c1.8,0.2,2.3,0.5,2.3,0.5c-1.3,0.3-2.2,0.7-3,1c-0.2,0.3-0.3,0.6-0.5,0.9c3.7,0.2,5.1,0.1,5.1,0.1    c-2,0.8-5.2,1.9-6.6,2.4l-0.1,0.2c4.5,0,7-0.3,7-0.3c-3,1.4-7.2,2.2-7.2,2.3c5.4,0.4,8.5,0.4,8.5,0.4c-4.2,1.7-6.4,2.2-9.1,2.6    c7.4,0.2,9.3-0.3,9.3-0.3c-4.1,1.7-6.3,2.2-9,2.6c3.1,0.5,17.2,1.2,21.8,0.2c-0.6-0.7-0.8-1.1-1-1.9c3.7,1.3,14.6,2.2,14.6,2.2    c-1.6-8.5,1.6-7.9,2.5-16.6C104.9,101.9,102.9,101.9,101.3,102.1z"/>
		<path class="st0" d="M104.9,133.9v-0.3c-5.4-0.7-8.1-0.7-8.1-0.7c4-1.1,5.5-1.6,7.9-1.9l0-0.2c-5.8-0.8-8.3-0.7-8.3-0.7    c3.6-1,5.7-1.5,7.8-1.8L104,128c-5.2-0.6-8.2-0.7-8.2-0.7c3.5-1,5.6-1.5,7.7-1.8l-0.1-0.4c-5.2-0.7-8-0.6-8-0.6    c3.6-1,5.1-1.5,7.2-1.7l-0.1-0.5l-16.2-1.2c-0.2,0.7-2.7,2.3-5.6,2.1c1.3,4.5,3.3,11.5,5.1,17.2h13c1.6-0.5,4.7-0.9,5.8-1.1    l0.1-0.3c-4.6-0.5-7.1-0.5-7.1-0.5c3.2-0.9,5.3-1.4,7.3-1.7l0-0.4c-5-0.6-7.8-0.6-7.8-0.6C100.8,134.7,102.7,134.2,104.9,133.9z"/>
		<path class="st0" d="M73.2,137.8c4.1-1.1,6.3-1.7,8.8-1.9l-0.1-0.5c-4.9-0.6-7.6-0.6-7.6-0.6c3.1-0.9,5.2-1.3,7-1.6l-0.1-0.4    c-4.3-0.5-6.7-0.5-6.7-0.5c2.6-0.7,4.5-1.2,6.1-1.5l-0.2-0.7c-3.4-0.3-5.2-0.3-5.2-0.3c1.9-0.5,3.5-0.9,4.8-1.1l-0.2-0.9    c-2.7-0.2-4.1-0.2-4.1-0.2c1.5-0.4,2.7-0.7,3.8-0.9l-0.3-0.9c-2.5-0.2-3.4-0.3-3.4-0.3c1.4-0.4,2.1-0.6,3.1-0.8l-0.2-0.6    c0,0-1.8-1.2-3.1-0.4c-1.3,1.3-5.4,4.6-10.6,4.4l-0.4,0c-0.8,1.2-1.7,7.4-2.1,12.4h12.8c3.4-0.9,5.5-1.5,7.6-1.6    c0-0.1-0.1-0.2-0.1-0.3C76.6,137.6,73.2,137.8,73.2,137.8z"/>
	</g>
	<g>
		<path class="st0" d="M74.6,40.7c0,0,0.5,0.1,2.2,0.2c0.4,0,0.4-0.8,1-1c0.8-0.2,1.6,0.1,2-0.4l-3-1.1l-2.7,0.6L74.6,40.7z     M72,38.7c0.1-0.5,0.6-1.1,0.6-1.1l3.2-0.1c2.5,1,7.4,2.8,7.4,2.8s-0.2,0.7,0.1,1.4c0.4,0.4,1.3,0.3,1.3,0.3    c0,1.5,1.3,1.2,2.3-0.2c-0.7,2.2-1.7,1.9-2.6,1.6c0.4,1.1,1.9,1.1,1.9,1.1c0.1,1.6-1.5,4.5-1.8,3.4c-1.7,2.5-2.3,2.9-2.3,2.9    c0.2-0.6,0.1-2.1,0.1-2.1c-0.5,1.1-1.3,1.9-2.1,2.9C80,52,76.4,54,75.8,52.9c-0.6-1,0.8-1.6-0.2-2.5c-0.4-0.1-0.8-0.3-0.6-0.9    c1-0.5,2.2-0.5,2.9-1.3c-0.4-0.5-1.2,0.6-3.3,0.2c0,0-0.2-1.3,0-1.6c0.2-0.9,1.5-0.5,1.7-1.2c0.7-0.2,1.5,0.5,1.8,0.7    c0.4-0.2-1-1.7-1.8-1.9c-0.4,1-1.3,1-2.2,1.1c-1.6,0.2-0.8-2.9-0.8-4c0.3-1.2,0.1-1.6,0.1-1.9C73,39.3,72,38.7,72,38.7z"/>
		<path class="st0" d="M43.4,126.7c0.6-2.1,2.3-10,6.7-15.4c2.8-3.5,5.4-6.5,6.6-9c0.9-1.9,2.7-7.6,3.2-9.4c0.5-1.7,1-2.9,1.5-3.7    c-1.8,0.4-4.4,10.4-6.5,14c-4.1,7.1-8.7,5.7-13.6,28.5c-0.3,1.4-0.7,4.4-0.9,6.8c-0.1,0.8-0.1,1.4-0.1,2h0.9    c-0.1-0.8,0-1.6,0.1-2.5C41.5,135.7,42.8,128.7,43.4,126.7z"/>
		<path class="st0" d="M81.5,79.1c-0.1,0-0.2-0.1-0.4,0.1c-0.6,0.7-3.3,6.2-4.3,5.8c-1.3-0.5,1-3.1,2.2-7.7c-2,4.1-4.6,7.3-3.7,8.5    c0,0,0.7,0.9,3.1-1.1c-1.4,2.2-3.8,3.2-4.2,1.4c-0.6-2.6,4.4-8.5,5.5-11.2c-1.3,1.5-3.7,2.7-5.7,5.2c-0.3-1.5-2.1-2.1-3.1-1.7    c-1.1,0.5-1.6,1.2-1.6,2.4c0.2,1.1,1.3,1.8,2.5,2c-1,0.8-1.3,1-3.1,0.4c-2.7,1.3-4.2,6.7-4.3,6.8c-0.2,0.5-1.5,0.3-2.2,0.5    c-2.1,0.8-0.9,3.5-0.9,3.5s-1.1,0.9-1.2,2c0,0.4,0.5,1.8,0.5,1.8s-1.3,0.3-1.7,0.8c-0.8,1,0,3.5,0,3.5s-3.6,2.6-5.1,7.3    c-0.3,0.8-1.6,0.8-2,1.5l-0.2,2c0,0-1.9-0.1-2.4,1c-0.7,1.2,0.7,2.9-1.2,3.4c-0.3,0.1-0.3,2.7-0.3,3l-2.5,3.1c0,0-0.2,1.5,0.5,2.2    c0,0-1.3,1.7-1.3,2.5c0,0.4,0.5,0.7,1,1c-0.7,0.7-1.1,0.9-1.7,1.5c-0.4,0.4-1.2,2.7-0.6,6.9c-0.7-0.5-0.8,0.3-0.8,0.8    c0,0.3,0.1,1.2,0.1,2h1.5c0.3-0.7,1.1-3.3,2.3-5.6c0.5,0.5,2.1,2.1,2.3,2.1c0.3,0.1,2-2,2-2.4c0-1.2-0.8-3.4-1.2-4.6    c0.6-0.8,1.2-1.7,1.8-2.5c0.3,0.7,1.3,3.3,1.5,3.4c0.1,0.1,1.5-0.8,1.7-0.9c0.6-0.3,4.3-2.7,4.5-3.5c0.6-2.1,0.2-5.5,0-7.3    c0.2-0.2,0.4-0.4,0.6-0.5c5.7-2.7,10.8-9.8,13.3-18c-0.8-0.7-2.6-2.1-3.4-3.1c-3.8-0.7-5.7-3.6-5.9-4.7c0-0.2,0.3-0.2,0.3-0.1    c2.3,3.6,5.4,4.3,7.6,4.1c2.7-0.5,5.4-1.8,6.3-4.5c0.9-2.5,1.3-4.4,1.9-6.8C79.8,83.5,82.2,79.4,81.5,79.1z M44.7,132.9    c-0.2,0.6,0,1.2-0.3,1.8c-0.8-1-0.8-2.1-0.1-3.4l1.4-0.8C45.4,131.2,44.8,132.3,44.7,132.9z M62.4,91.5c0.7-0.4,0,2.9,0,2.9    S60.6,92.4,62.4,91.5z M62.1,95.4c0.4,0,0.9,1.4-0.1,2.5C61.3,96.9,60.2,95.6,62.1,95.4z M59.6,100.2c0.1-0.9,1.2-1.9,2.3-0.6    c-0.9,0.3-1.5,0.3-1.4,2.9C60.2,103.7,59.3,102.3,59.6,100.2z M47.2,122.4l1.5-0.5c0,0-1.5,1.8-1.5,2.2c0,0.7,0.7,1.5,0.1,1.5    c-0.9-0.2-1.1-1.9-1.1-1.9L47.2,122.4z M46.6,134c0.2-0.4,0.4-0.8,0.7-1.1c0.7,0.9,1.3,2.2,1.3,3.4L46.6,134z M49.5,135.1    l-1.6-3.2c0.3-0.4,0.5-0.8,0.8-1.2C49.2,132,49.7,133.6,49.5,135.1z M49.1,119.8c-0.4,0-0.1-1.6-0.1-1.6l1.2,0.8    C50.2,119,49.5,119.8,49.1,119.8z M50,116.3c-0.6-0.6,0.2-1.9,0.2-1.9l2.1-0.3c0,0-0.3,0.9-0.9,1.4    C50.7,115.9,50.3,116.6,50,116.3z M52.8,129.7l-1.4-3c0.3-0.4,0.6-0.8,0.9-1.2C52.8,126.5,53.2,128.7,52.8,129.7z M54.3,128.9    l-1.2-4.3c0.3-0.4,0.6-0.7,1-1.1C54.5,125,54.8,127.6,54.3,128.9z M53.5,112.1c-0.3,0.3,0.2,1.1-0.2,1.3c-1.4,0.5-0.3-1.3-0.4-1.8    c-0.2-1.2,1.7-0.7,2.4,0C55.3,112.4,53.8,111.8,53.5,112.1z M55.7,128l-0.7-5.4c0.3-0.3,0.6-0.7,0.9-1    C56.4,123.5,56.6,126.3,55.7,128z M57.4,126.8l-0.6-6.1c0.3-0.3,0.6-0.6,0.9-0.9C58.3,122.3,58.4,124.5,57.4,126.8z M57.3,107    c0,0.6,1,1.6,1,1.6s-1.7-0.5-2.1,0.6l0.1,1.5c-0.1,0.1-0.4,0-0.7-0.2c-0.5-0.4-0.7-0.8-0.6-1.3c0.1-1,2.7-5.5,3.7-5.5    c0,0,1.9,0.2,1.7,0.7C59.1,104.6,57.3,105.6,57.3,107z M64.6,97.6c0.1-0.2,0.1,0.2,0.1,0.8c-1.4,2.4-3.7,6.9-3.3,9.7    c1-2.7,1.9-5.7,3-7.5c-0.6,2-1.3,5.3-0.7,7.3c0.4-2.4,1-5.4,1.9-7.1c-0.3,1.9-0.3,4.1,0.3,6c0.5-2.3,0.8-4.9,0.8-7.2    c0,0,0-0.1,0-0.2c0.1-0.2,0.2-0.3,0.3-0.5c0.2,1,0,7.8-0.4,8.3c-0.8,1-3,2.1-4.5,2.3c-0.9,0.1-1.8-0.3-1.9-0.4    c-0.2-2.4,1.4-6.4,2.4-8.1C63.5,99.5,64.1,98.7,64.6,97.6z M70.4,80.8c-0.2-1.5,2.2-1.9,2.4-0.3C73,81.9,70.6,82.2,70.4,80.8z     M68.1,93.9c-0.5-0.4-0.2-1.4,0.7-0.8c2.4,1.6,5.5-0.4,5.5-0.4S72,95.9,68.1,93.9z"/>
		<path class="st0" d="M35.3,115.6c0.8-3.6,1.8-7.4,3.8-8.2l4.7-1.9l0.2-0.5c-0.9-0.5-1.7-1.2-2.2-1.9    c-11.9,9.3-19.6,20.3-29.8,35.4c0.8,1.1,2.1,1.8,3.6,1.8H18C24.7,129.4,30.2,121.6,35.3,115.6z"/>
		<path class="st0" d="M11.1,113.6v21.3c12.3-17.5,21.1-26.5,29.9-32.9c-0.5-0.8-1.1-1.7-1.6-2.5c3.1-4.5,7.9-5.9,12.3-7.5    c1.2-1.7,3.1-3.9,4.7-5.4c-0.1-1.2,0.3-2.6,0.9-4.4C41.9,88.7,25,99.6,11.1,113.6z"/>
		<path class="st0" d="M47.9,49.4c-1-4-4.7-11.3-4.7-11.3c-0.1-2.4-0.4-4.4-0.4-4.4C42.6,32,41,32,39.9,31.7c-1.5-1-4.7-2.7-5.2-2.8    c-1.6,0.1-3.3,2.6-3.3,2.6l-2.5,0.4c-0.7,0.7-3.7,3.3-4.9,3.9c0.3,0.1,1.5,0.9,4.2-0.7c1.4-0.8,5-0.2,6.1,0.2    c-1,0-5.2,1.7-5.6,1.8c5.7,0.1,7.8,2.6,7.8,2.6c-2.5-0.6-5.7-0.5-8.4,0.2c6.6,1.6,7.8,3.3,7.8,3.3c-1.9-0.4-5.9-0.8-6.9-0.5    c3,1.3,4.9,3.7,4.9,3.7c-1.5-0.5-4.1-1.1-6.5-0.9l-3.3-3.7c-0.3-1.5-1.9-5.4-1.9-5.7c0.3-4.3-2.8-4.1-4.8-3.5    c-1.3,0.5-3.9,0.2-5.1,0.4l-1.3,0.8V36c0.7-0.4,1.5-0.9,2-1.4c0.4-0.2,3-0.2,4.6,1.1c-0.6,0.1-4.5,0.9-5.7,2.6    c4.1,0.2,4.3,0.8,4.3,0.8c-0.6,0.3-3.4,1.2-4.7,2.3c3.7,0.1,5.6,1.5,5.6,1.5c-1.5-0.1-5.1,1.2-5.5,1.8c0.5,0,4.8,0.3,6.6,1.9    c-4.8,0-6.3,1.5-6.3,1.5c0,0,5,0.3,7.6,2.2c-1.2,0.1-4.7,0-7.2,1.3c0,0,6.4,1,8.1,2.9c-0.4-0.1-6.3,0-8,1c0,0,6.9,1.8,8.7,3    c-3.5,0-7.5,0.6-10.1,1.1v3.6l13.1,0c-0.9-1.2-0.8-3.9-0.8-4c1.4-0.1,2.3,0.1,2.9,0c0.1-1,0.1-2.8,0.1-4c-1.4,0-2.7,0.1-4.2,0.2    c0.1-1.7,0.4-6.3-0.3-9.6c1.2,0.7,3,1.5,4.8,2.2l0.1-0.7c0,0,0.3-0.1,0.8,0.1c0.1,2.2-0.2,4.9-0.1,6.7l4.7,0.1    c0.4,1.1-0.5,0.2-0.4,0.9c0,0,0.2,3.4,0,3.7c2.9-0.1,8.6-0.5,8.6-0.5s-7.4-8.3-7.5-8.3c-0.8-1.1,0.4-1,0.4-1l6.9,7.5l0-16.7    c0,0,0.7-0.4,1.1-0.2c0,3.2,0.2,18.5,0.2,18.5c3.6-0.5,6.5-1.7,10.4-2.5c0,0-0.9,4.4-0.9,7.5l9.3,0c0,0-4.7-6.2-8.2-9.8    C50.4,51.8,48.3,50,47.9,49.4z"/>
	</g>
</g>
</svg>