<svg version="1.1" baseProfile="tiny" id="Layer_1" xmlns="http://www.w3.org/2000/svg" xmlns:xlink="http://www.w3.org/1999/xlink" x="0px" y="0px" viewBox="0 0 500 101" overflow="visible" xml:space="preserve">
<g>
	<path fill="#2596be" d="M68.6,53.2c-2.9-2-6.2-3.6-9.8-4.9c-3.6-1.3-7.3-2.5-11.2-3.5c-3.8-1-7.6-2-11.2-3.1   c-3.6-1-6.9-2.2-9.7-3.6c-2.9-1.3-5.2-3-6.9-5.1c-1.7-2.1-2.6-4.6-2.6-7.7c0-2.6,0.9-5,2.7-7.2c1.8-2.1,4.6-3.8,8.4-5.1   c3.8-1.2,8.5-1.8,14.4-1.8c4.3,0,8.1,0.7,11.4,2c3.4,1.3,6,3.1,8.1,5.5c2,2.3,3,5.2,3,8.6v2.3h10.2v-1.6c0-4.6-0.8-8.5-2.6-11.7   c-1.7-3.2-4.1-5.9-7.1-8.1C62.7,6,59.1,4.4,55.1,3.4c-4-1-8.3-1.5-12.9-1.5c-6.1,0-11.4,0.6-15.8,1.8c-4.4,1.2-8.1,2.8-11,5   c-2.9,2.1-5,4.7-6.4,7.7c-1.4,3-2.1,6.3-2.1,10c0,4.2,0.8,7.7,2.6,10.6c1.7,2.9,4,5.3,6.9,7.2c2.9,1.9,6.1,3.5,9.7,4.8   c3.6,1.3,7.3,2.4,11.2,3.4c3.8,1,7.6,2.1,11.2,3.2c3.6,1.1,6.9,2.3,9.7,3.8c2.8,1.4,5.1,3.2,6.9,5.4c1.7,2.2,2.6,5,2.6,8.4   c0,2.9-0.6,5.4-1.9,7.3c-1.3,2-2.9,3.6-4.9,4.8c-2,1.2-4.2,2.2-6.6,2.9c-2.4,0.7-4.8,1.1-7.1,1.4c-2.3,0.2-4.3,0.3-6,0.3   c-5,0-9.4-0.7-13.4-2c-4-1.3-7.1-3.3-9.4-6c-2.3-2.7-3.5-6-3.5-10.1c0-0.5,0-1,0.1-1.6c0-0.6,0.1-1.1,0.1-1.5H4.8   c-0.1,0.4-0.1,0.9-0.1,1.3c0,0.4,0,0.8,0,1.3c0,5.3,1,9.7,3,13.3c2,3.6,4.7,6.4,8.2,8.6c3.5,2.2,7.5,3.7,12,4.7   c4.5,0.9,9.2,1.4,14,1.4c7.1,0,13.4-1,18.8-2.9c5.4-1.9,9.6-4.9,12.7-9c3.1-4.1,4.6-9.4,4.6-15.9c0-4.3-0.8-7.9-2.6-10.8   C73.9,57.6,71.6,55.1,68.6,53.2z"/>
	<path fill="#2596be" d="M253.5,56.7c4.6-1.9,7.5-4.9,10.3-9.5c2.8-4.6,4.2-10.2,4.2-16.9c0-5.1-0.9-9.7-2.8-13.7   c-1.9-4-4.7-7.2-8.5-9.5c-3.7-2.3-8.5-3.5-14.2-3.5H197v93.9h10V58.9h35.7c5.3,7.6,10.6,15.2,13.3,24.1c2,6.8,2.9,14.5,3,14.5   c0,0,10,0,10,0c-0.7-8.5-2.7-16.8-6-24.6C260.5,67,257.2,61.8,253.5,56.7z M241.5,49.5H207V12.9h34.5c3.6,0,6.7,0.7,9.1,2.1   c2.4,1.4,4.3,3.4,5.6,6c1.3,2.6,1.9,5.7,1.9,9.3c0,6-1.5,10.7-4.4,14.2C250.7,47.8,246.6,49.5,241.5,49.5z"/>
	<path fill="#2596be" d="M353.7,7.3c-6.4-3.6-14.2-5.4-23.2-5.4c-8.9,0-16.6,1.8-23.1,5.4c-6.4,3.6-11.4,9-14.8,16.2   c-3.5,7.2-5.2,16.2-5.2,27c0,10.8,1.7,19.8,5.2,27c3.4,7.2,8.4,12.6,14.8,16.2c6.4,3.6,14.1,5.4,23.1,5.4c9,0,16.7-1.8,23.2-5.4   c6.4-3.6,11.4-9,14.8-16.2c3.4-7.2,5.1-16.2,5.1-27c0-10.9-1.7-19.9-5.1-27C365.1,16.3,360.2,10.9,353.7,7.3z M363.4,52   c0,6.7-0.8,12.4-2.3,17.1c-1.6,4.7-3.8,8.7-6.6,11.8c-2.9,3.1-6.3,5.4-10.3,6.8c-4,1.4-8.5,2.1-13.5,2.1c-5,0-9.5-0.7-13.5-2.1   c-4-1.4-7.4-3.7-10.3-6.8c-2.9-3.1-5.1-7-6.6-11.8c-1.6-4.7-2.3-10.5-2.3-17.1v-2.9c0-6.7,0.8-12.5,2.3-17.3   c1.6-4.7,3.8-8.7,6.6-11.8c2.9-3.1,6.3-5.4,10.3-6.8c4-1.4,8.5-2.1,13.5-2.1c5,0,9.5,0.7,13.5,2.1c4,1.4,7.5,3.7,10.3,6.8   c2.9,3.1,5.1,7,6.6,11.8c1.6,4.8,2.3,10.5,2.3,17.3V52z"/>
	<polygon fill="#2596be" points="399.5,97.5 409.5,97.5 409.5,58.9 450.6,58.9 450.6,49.5 409.5,49.5 409.5,12.9 460.5,12.9    460.5,3.5 399.5,3.5  "/>
	<rect x="485.4" y="3.5" fill="#2596be" width="10" height="93.9"/>
	<path fill="#2596be" d="M170.5,1.9h-0.2c-0.7,4.3-4.1,24.1-15.5,44.8l-1.8,3.1c0,0,4.7-1.3,7.7-2.4v16.3c0,8.7-2.3,15.2-6.8,19.4   c-4.5,4.3-10.8,6.4-18.7,6.4c-7.8,0-13.9-2.1-18.3-6.4c-4.3-4.3-6.5-10.8-6.5-19.4l0-60.2h-10l0,58.1c0,8.9,1.4,16.1,4.2,21.6   c2.8,5.6,6.8,9.6,11.9,12.1c5.2,2.5,11.4,3.8,18.6,3.8c7.4,0,13.7-1.3,19-3.8c5.3-2.5,9.3-6.5,12.1-12.1c2.6-5.2,4-11.8,4.2-19.9   v-1.7L170.5,1.9z"/>
</g>
</svg>