<svg xmlns:xlink="http://www.w3.org/1999/xlink" id="LOGO" xmlns="http://www.w3.org/2000/svg" viewBox="0 0 760 193" width="760"  height="193" >
  <g>
    <path d="M75.46,15.19c-.74,0-1.33-.22-1.77-.66-.44-.44-.66-1.03-.66-1.77v-7.3c0-.67.22-1.25.66-1.72.44-.47,1.03-.71,1.77-.71h9.22c.74,0,1.35.24,1.82.71.47.47.71,1.05.71,1.72v7.3c0,.74-.24,1.33-.71,1.77-.47.44-1.08.66-1.82.66h-9.22ZM75.86,76.6c-.68,0-1.25-.24-1.72-.71-.47-.47-.71-1.05-.71-1.72V26.34c0-.67.24-1.25.71-1.72.47-.47,1.05-.71,1.72-.71h8.41c.74,0,1.33.24,1.77.71.44.47.66,1.05.66,1.72v47.83c0,.68-.22,1.25-.66,1.72-.44.47-1.03.71-1.77.71h-8.41Z"/>
    <path d="M121.16,77.61c-4.05,0-7.52-.47-10.39-1.42-2.87-.95-5.22-2.13-7.04-3.55-1.82-1.42-3.18-2.84-4.05-4.26-.88-1.42-1.35-2.6-1.42-3.55-.07-.74.15-1.33.66-1.77.51-.44,1.06-.66,1.67-.66h8.01c.27,0,.51.04.71.1.2.07.47.27.81.61.88.74,1.81,1.52,2.79,2.33.98.81,2.14,1.5,3.5,2.08,1.35.57,3.04.86,5.07.86,2.63,0,4.85-.52,6.64-1.57,1.79-1.05,2.69-2.55,2.69-4.51,0-1.42-.39-2.57-1.17-3.45-.78-.88-2.21-1.67-4.31-2.38-2.09-.71-5.07-1.47-8.92-2.28-3.78-.88-6.93-1.99-9.42-3.34-2.5-1.35-4.36-3.04-5.57-5.07-1.22-2.03-1.82-4.39-1.82-7.09s.79-5.15,2.38-7.55c1.59-2.4,3.95-4.37,7.09-5.93,3.14-1.55,7.04-2.33,11.7-2.33,3.65,0,6.82.46,9.52,1.37,2.7.91,4.95,2.04,6.74,3.39,1.79,1.35,3.16,2.72,4.1,4.1.95,1.39,1.45,2.58,1.52,3.6.07.74-.14,1.33-.61,1.77-.47.44-1.01.66-1.62.66h-7.5c-.34,0-.64-.07-.91-.2-.27-.13-.54-.3-.81-.51-.74-.67-1.56-1.38-2.43-2.13-.88-.74-1.94-1.4-3.19-1.98-1.25-.57-2.89-.86-4.91-.86-2.57,0-4.53.56-5.88,1.67-1.35,1.12-2.03,2.52-2.03,4.21,0,1.15.32,2.15.96,2.99.64.85,1.94,1.64,3.9,2.38,1.96.74,4.93,1.52,8.92,2.33,4.52.81,8.12,2.01,10.79,3.6,2.67,1.59,4.56,3.41,5.67,5.47,1.11,2.06,1.67,4.34,1.67,6.84,0,3.04-.9,5.78-2.69,8.21-1.79,2.43-4.43,4.34-7.9,5.73-3.48,1.38-7.79,2.08-12.92,2.08Z"/>
    <path d="M157.53,76.6c-.68,0-1.25-.24-1.72-.71-.47-.47-.71-1.05-.71-1.72V26.34c0-.67.24-1.25.71-1.72.47-.47,1.05-.71,1.72-.71h7.9c.67,0,1.25.24,1.72.71.47.47.71,1.05.71,1.72v3.45c1.42-1.89,3.33-3.5,5.73-4.81,2.4-1.32,5.25-2.01,8.56-2.08,7.7-.13,13.07,2.87,16.11,9.02,1.55-2.7,3.8-4.88,6.74-6.54,2.94-1.65,6.2-2.48,9.78-2.48s6.7.81,9.58,2.43c2.87,1.62,5.13,4.07,6.79,7.35,1.65,3.28,2.48,7.41,2.48,12.41v29.08c0,.68-.24,1.25-.71,1.72-.47.47-1.05.71-1.72.71h-8.31c-.68,0-1.25-.24-1.72-.71-.47-.47-.71-1.05-.71-1.72v-28.27c0-3.04-.44-5.45-1.32-7.25-.88-1.79-2.06-3.06-3.55-3.8-1.49-.74-3.14-1.11-4.97-1.11-1.49,0-2.97.37-4.46,1.11-1.49.74-2.7,2.01-3.65,3.8-.95,1.79-1.42,4.21-1.42,7.25v28.27c0,.68-.24,1.25-.71,1.72-.47.47-1.05.71-1.72.71h-8.31c-.74,0-1.33-.24-1.77-.71-.44-.47-.66-1.05-.66-1.72v-28.27c0-3.04-.47-5.45-1.42-7.25-.95-1.79-2.16-3.06-3.65-3.8-1.49-.74-3.07-1.11-4.76-1.11-1.55,0-3.07.39-4.56,1.17-1.49.78-2.7,2.04-3.65,3.8-.95,1.76-1.42,4.15-1.42,7.19v28.27c0,.68-.24,1.25-.71,1.72s-1.05.71-1.72.71h-8.51Z"/>
    <path d="M262.81,77.61c-3.51,0-6.69-.69-9.53-2.08-2.84-1.38-5.08-3.24-6.74-5.57-1.66-2.33-2.48-4.95-2.48-7.85,0-4.73,1.91-8.49,5.73-11.3,3.82-2.8,8.87-4.68,15.15-5.62l13.88-2.03v-2.13c0-2.84-.71-5.03-2.13-6.59-1.42-1.55-3.85-2.33-7.3-2.33-2.43,0-4.41.49-5.93,1.47-1.52.98-2.65,2.28-3.39,3.9-.54.88-1.32,1.32-2.33,1.32h-8.01c-.74,0-1.3-.2-1.67-.61-.37-.41-.56-.95-.56-1.62.07-1.08.51-2.4,1.32-3.95.81-1.55,2.09-3.06,3.85-4.51,1.76-1.45,4.02-2.69,6.79-3.7,2.77-1.01,6.11-1.52,10.03-1.52,4.26,0,7.85.52,10.79,1.57,2.94,1.05,5.28,2.45,7.04,4.21,1.76,1.76,3.04,3.82,3.85,6.18.81,2.37,1.22,4.86,1.22,7.5v31.82c0,.68-.24,1.25-.71,1.72s-1.05.71-1.72.71h-8.21c-.74,0-1.33-.24-1.77-.71-.44-.47-.66-1.05-.66-1.72v-3.95c-.88,1.28-2.06,2.48-3.55,3.6-1.49,1.12-3.29,2.03-5.42,2.74-2.13.71-4.65,1.06-7.55,1.06ZM266.26,67.99c2.36,0,4.51-.51,6.43-1.52,1.93-1.01,3.45-2.58,4.56-4.71,1.11-2.13,1.67-4.81,1.67-8.06v-2.13l-10.13,1.62c-3.99.61-6.96,1.59-8.92,2.94-1.96,1.35-2.94,3.01-2.94,4.97,0,1.49.46,2.75,1.37,3.8.91,1.05,2.08,1.82,3.5,2.33,1.42.51,2.9.76,4.46.76Z"/>
    <g>
      <path d="M62.82,5.27c-.45-.41-.94-.62-1.49-.62h-9.04c-.96,0-1.7.26-2.21.77-.51.51-.87,1.01-1.08,1.49l-17.28,52.93-.02-.05-4.57,13.85c-.48,1.45.6,2.95,2.13,2.95h8.11c1.1,0,1.95-.27,2.57-.82.62-.55,1.06-1.23,1.34-2.06L63.28,7.74c.14-.34.21-.65.21-.92,0-.62-.22-1.13-.67-1.54Z"/>
      <path d="M10.36,27.58c-1.03,0-1.78-.26-2.26-.77-.48-.51-.86-1.11-1.13-1.8L.39,7.95c-.21-.41-.31-.86-.31-1.34,0-.55.17-1.01.51-1.39.34-.38.79-.57,1.34-.57h9.46c1.03,0,1.8.32,2.31.97.51.65.84,1.42.98,2.31l2.68,17.47c.07.62-.05,1.13-.36,1.54-.31.41-.77.62-1.39.62h-5.24Z"/>
    </g>
  </g>
  <g>
    <g>
      <g>
        <path d="M503.69,190.95c-.45.41-.94.62-1.49.62h-9.04c-.96,0-1.7-.25-2.21-.77-.51-.51-.87-1.01-1.08-1.49l-17.28-52.92-.02.05-4.57-13.85c-.48-1.45.6-2.95,2.13-2.95h8.1c1.1,0,1.95.27,2.57.82.62.55,1.06,1.23,1.34,2.05l22.01,65.98c.14.34.21.65.21.92,0,.62-.22,1.13-.67,1.54Z"/>
        <path d="M512.08,142.55c1.03,0,1.78-.26,2.26-.77.48-.51.86-1.11,1.13-1.8l6.58-17.06c.21-.41.31-.86.31-1.34,0-.55-.17-1.01-.51-1.39-.34-.38-.79-.57-1.34-.57h-9.46c-1.03,0-1.8.33-2.31.98-.51.65-.84,1.42-.98,2.31l-2.67,17.47c-.07.62.05,1.13.36,1.54.31.41.77.62,1.39.62h5.24Z"/>
      </g>
      <path d="M467.05,189.14c0,.74-.22,1.33-.66,1.77-.44.44-1.03.66-1.77.66h-7.3c-.67,0-1.25-.22-1.72-.66-.47-.44-.71-1.03-.71-1.77v-9.22c0-.74.24-1.35.71-1.82.47-.47,1.05-.71,1.72-.71h7.3c.74,0,1.33.24,1.77.71.44.47.66,1.08.66,1.82v9.22Z"/>
    </g>
    <g>
      <path d="M546.54,192.58c-5.41,0-9.95-.95-13.63-2.84-3.68-1.89-6.49-4.56-8.41-8.01-1.93-3.45-3.02-7.46-3.29-12.06-.07-1.22-.1-2.7-.1-4.46s.03-3.24.1-4.46c.27-4.66,1.4-8.7,3.39-12.11,1.99-3.41,4.83-6.06,8.51-7.95,3.68-1.89,8.16-2.84,13.43-2.84s9.74.95,13.43,2.84c3.68,1.89,6.52,4.54,8.51,7.95,1.99,3.41,3.12,7.45,3.39,12.11.07,1.22.1,2.7.1,4.46s-.04,3.24-.1,4.46c-.27,4.59-1.37,8.61-3.29,12.06-1.93,3.45-4.73,6.11-8.41,8.01-3.68,1.89-8.23,2.84-13.63,2.84ZM546.54,182.55c3.58,0,6.35-1.13,8.31-3.4,1.96-2.26,3.04-5.59,3.24-9.98.07-1.01.1-2.33.1-3.95s-.04-2.94-.1-3.95c-.2-4.32-1.28-7.63-3.24-9.93-1.96-2.3-4.73-3.45-8.31-3.45s-6.35,1.15-8.31,3.45c-1.96,2.3-3.04,5.61-3.24,9.93-.07,1.01-.1,2.33-.1,3.95s.03,2.94.1,3.95c.2,4.39,1.28,7.72,3.24,9.98,1.96,2.26,4.73,3.4,8.31,3.4Z"/>
      <path d="M583.49,191.57c-.68,0-1.25-.24-1.72-.71-.47-.47-.71-1.05-.71-1.72v-47.73c0-.74.24-1.35.71-1.82.47-.47,1.05-.71,1.72-.71h8.21c.67,0,1.27.24,1.77.71.51.47.76,1.08.76,1.82v4.16c1.55-2.16,3.56-3.82,6.03-4.97,2.47-1.15,5.32-1.72,8.56-1.72h4.15c.74,0,1.33.24,1.77.71.44.47.66,1.05.66,1.72v7.3c0,.68-.22,1.25-.66,1.72-.44.47-1.03.71-1.77.71h-7.9c-3.24,0-5.76.91-7.55,2.74-1.79,1.82-2.69,4.32-2.69,7.5v27.87c0,.68-.24,1.25-.71,1.72-.47.47-1.08.71-1.82.71h-8.82Z"/>
      <path d="M644.09,192.58c-3.51,0-6.6-.59-9.27-1.77-2.67-1.18-4.88-2.85-6.64-5.02-1.76-2.16-3.11-4.71-4.05-7.65-.95-2.94-1.49-6.16-1.62-9.68-.07-1.22-.1-2.31-.1-3.29s.03-2.08.1-3.29c.13-3.38.66-6.52,1.57-9.42.91-2.9,2.26-5.45,4.05-7.65,1.79-2.19,4.02-3.9,6.69-5.12,2.67-1.22,5.76-1.82,9.27-1.82s6.74.63,9.27,1.88c2.53,1.25,4.64,2.85,6.33,4.81v-22.5c0-.67.22-1.25.66-1.72.44-.47,1.03-.71,1.77-.71h8.61c.67,0,1.25.24,1.72.71.47.47.71,1.05.71,1.72v67.08c0,.68-.24,1.25-.71,1.72-.47.47-1.05.71-1.72.71h-8.01c-.74,0-1.33-.24-1.77-.71-.44-.47-.66-1.05-.66-1.72v-3.75c-1.69,2.09-3.84,3.82-6.44,5.17-2.6,1.35-5.86,2.03-9.78,2.03ZM647.83,181.74c2.84,0,5.1-.64,6.79-1.93,1.69-1.28,2.94-2.92,3.75-4.91.81-1.99,1.25-4.04,1.32-6.13.07-1.22.1-2.52.1-3.9,0-1.38-.04-2.69-.1-3.9-.07-2.03-.54-3.97-1.42-5.83-.88-1.86-2.16-3.39-3.85-4.61-1.69-1.22-3.88-1.82-6.59-1.82-2.84,0-5.08.63-6.74,1.87-1.66,1.25-2.85,2.89-3.6,4.91-.74,2.03-1.18,4.26-1.32,6.69-.07,2.03-.07,4.05,0,6.08.13,2.43.57,4.66,1.32,6.69.74,2.03,1.94,3.67,3.6,4.91,1.65,1.25,3.9,1.87,6.74,1.87Z"/>
      <path d="M735.18,192.58c-4.86,0-9.14-.91-12.82-2.74-3.68-1.82-6.55-4.47-8.61-7.95-2.06-3.48-3.19-7.68-3.4-12.62-.07-1.01-.1-2.35-.1-4s.03-3.02.1-4.1c.2-4.93,1.33-9.14,3.4-12.62,2.06-3.48,4.93-6.13,8.61-7.95,3.68-1.82,7.95-2.74,12.82-2.74,4.32,0,8.01.61,11.05,1.82s5.54,2.74,7.5,4.56c1.96,1.82,3.43,3.73,4.41,5.73.98,1.99,1.5,3.8,1.57,5.42.07.74-.15,1.33-.66,1.77-.51.44-1.1.66-1.77.66h-8.92c-.68,0-1.2-.17-1.57-.51-.37-.34-.73-.84-1.06-1.52-1.01-2.7-2.35-4.61-4-5.73-1.66-1.11-3.77-1.67-6.33-1.67-3.38,0-6.06,1.06-8.06,3.19-1.99,2.13-3.06,5.49-3.19,10.08-.14,2.57-.14,4.93,0,7.09.13,4.66,1.2,8.04,3.19,10.13,1.99,2.09,4.68,3.14,8.06,3.14,2.64,0,4.76-.56,6.38-1.67,1.62-1.11,2.94-3.02,3.95-5.73.34-.67.69-1.18,1.06-1.52.37-.34.89-.51,1.57-.51h8.92c.67,0,1.27.22,1.77.66.51.44.72,1.03.66,1.77-.07,1.22-.39,2.58-.96,4.1-.57,1.52-1.49,3.08-2.74,4.66-1.25,1.59-2.82,3.04-4.71,4.36-1.89,1.32-4.17,2.38-6.84,3.19-2.67.81-5.76,1.22-9.27,1.22Z"/>
      <path d="M688.58,130.16c-.74,0-1.33-.22-1.77-.66-.44-.44-.66-1.03-.66-1.77v-7.3c0-.67.22-1.25.66-1.72.44-.47,1.03-.71,1.77-.71h9.22c.74,0,1.35.24,1.82.71.47.47.71,1.05.71,1.72v7.3c0,.74-.24,1.33-.71,1.77-.47.44-1.08.66-1.82.66h-9.22ZM688.98,191.57c-.68,0-1.25-.24-1.72-.71-.47-.47-.71-1.05-.71-1.72v-47.83c0-.67.24-1.25.71-1.72.47-.47,1.05-.71,1.72-.71h8.41c.74,0,1.33.24,1.77.71.44.47.66,1.05.66,1.72v47.83c0,.68-.22,1.25-.66,1.72-.44.47-1.03.71-1.77.71h-8.41Z"/>
    </g>
  </g>
  <g>
    <g>
      <path d="M349.59,4.67c-2.4.44-4.6,1.11-6.61,2-4,1.78-7.08,4.21-9.24,7.29-2.16,3.08-3.24,6.61-3.24,10.57,0,4.11.87,7.5,2.62,10.17,1.75,2.67,4.35,4.88,7.8,6.62,2.43,1.23,5.29,2.33,8.56,3.3.72.22,1.45-.32,1.45-1.07v-10.99c0-.44-.26-.83-.65-1.02-1.57-.76-2.78-1.61-3.61-2.54-1.13-1.27-1.69-2.86-1.69-4.78,0-2.88,1.13-5,3.39-6.36.58-.35,1.2-.65,1.87-.91.42-.16.69-.58.69-1.04V5.77c0-.71-.65-1.23-1.34-1.1ZM339.04,56.26c-.27-.68-.65-1.28-1.13-1.8-.48-.51-1.23-.77-2.26-.77h-5.24c-.62,0-1.08.21-1.39.62-.31.41-.43.92-.36,1.54l2.67,17.45c.14.89.46,1.66.98,2.31.51.65,1.28.98,2.31.98h9.45c.55,0,.99-.19,1.33-.57.34-.38.51-.84.51-1.39,0-.48-.1-.92-.31-1.33l-6.57-17.04Z"/>
      <path d="M374.91,4.65c.74,0,1.33.22,1.77.66.44.44.66,1.03.66,1.77v7.3c0,.67-.22,1.25-.66,1.72-.44.47-1.03.71-1.77.71h-9.22c-.74,0-1.35-.24-1.82-.71-.47-.47-.71-1.05-.71-1.72v-7.3c0-.74.24-1.33.71-1.77.47-.44,1.08-.66,1.82-.66h9.22Z"/>
    </g>
    <path d="M402.53,77.61c-5.41,0-9.95-.95-13.63-2.84-3.68-1.89-6.49-4.56-8.41-8.01-1.93-3.45-3.02-7.46-3.29-12.06-.07-1.22-.1-2.7-.1-4.46s.03-3.24.1-4.46c.27-4.66,1.4-8.7,3.39-12.11,1.99-3.41,4.83-6.06,8.51-7.95,3.68-1.89,8.16-2.84,13.43-2.84,5.27,0,9.74.95,13.43,2.84,3.68,1.89,6.52,4.54,8.51,7.95,1.99,3.41,3.12,7.45,3.39,12.11.07,1.22.1,2.7.1,4.46s-.04,3.24-.1,4.46c-.27,4.59-1.37,8.61-3.29,12.06-1.93,3.45-4.73,6.11-8.41,8.01-3.68,1.89-8.23,2.84-13.63,2.84ZM402.53,67.58c3.58,0,6.35-1.13,8.31-3.4,1.96-2.26,3.04-5.59,3.24-9.98.07-1.01.1-2.33.1-3.95s-.04-2.94-.1-3.95c-.2-4.32-1.28-7.63-3.24-9.93-1.96-2.3-4.73-3.45-8.31-3.45s-6.35,1.15-8.31,3.45c-1.96,2.3-3.04,5.61-3.24,9.93-.07,1.01-.1,2.33-.1,3.95s.03,2.94.1,3.95c.2,4.39,1.28,7.72,3.24,9.98,1.96,2.26,4.73,3.4,8.31,3.4Z"/>
    <path d="M544.49,76.6c-.95,0-1.66-.24-2.13-.71-.47-.47-.88-1.08-1.22-1.82l-14.49-47.02c-.07-.34-.1-.64-.1-.91,0-.61.22-1.13.66-1.57s.93-.66,1.47-.66h7.5c.81,0,1.45.22,1.93.66.47.44.74.86.81,1.27l9.93,33.54,10.54-33.24c.13-.47.44-.96.91-1.47.47-.51,1.18-.76,2.13-.76h5.07c.95,0,1.65.25,2.13.76.47.51.78,1,.91,1.47l10.54,33.24,9.93-33.54c.07-.41.32-.83.76-1.27s1.06-.66,1.87-.66h7.5c.61,0,1.13.22,1.57.66.44.44.66.96.66,1.57,0,.27-.07.57-.2.91l-14.49,47.02c-.2.74-.56,1.35-1.06,1.82-.51.47-1.23.71-2.18.71h-6.59c-.95,0-1.69-.24-2.23-.71-.54-.47-.91-1.08-1.11-1.82l-10.54-32.02-10.54,32.02c-.27.74-.66,1.35-1.17,1.82-.51.47-1.27.71-2.28.71h-6.49Z"/>
    <path d="M626.87,77.61c-3.51,0-6.69-.69-9.53-2.08-2.84-1.38-5.08-3.24-6.74-5.57-1.66-2.33-2.48-4.95-2.48-7.85,0-4.73,1.91-8.49,5.73-11.3,3.82-2.8,8.87-4.68,15.15-5.62l13.88-2.03v-2.13c0-2.84-.71-5.03-2.13-6.59-1.42-1.55-3.85-2.33-7.3-2.33-2.43,0-4.41.49-5.93,1.47-1.52.98-2.65,2.28-3.39,3.9-.54.88-1.32,1.32-2.33,1.32h-8.01c-.74,0-1.3-.2-1.67-.61-.37-.41-.56-.95-.56-1.62.07-1.08.51-2.4,1.32-3.95.81-1.55,2.09-3.06,3.85-4.51,1.76-1.45,4.02-2.69,6.79-3.7,2.77-1.01,6.11-1.52,10.03-1.52,4.26,0,7.85.52,10.79,1.57,2.94,1.05,5.28,2.45,7.04,4.21,1.76,1.76,3.04,3.82,3.85,6.18.81,2.37,1.22,4.86,1.22,7.5v31.82c0,.68-.24,1.25-.71,1.72s-1.05.71-1.72.71h-8.21c-.74,0-1.33-.24-1.77-.71-.44-.47-.66-1.05-.66-1.72v-3.95c-.88,1.28-2.06,2.48-3.55,3.6-1.49,1.12-3.29,2.03-5.42,2.74s-4.65,1.06-7.55,1.06ZM630.31,67.99c2.36,0,4.51-.51,6.43-1.52,1.93-1.01,3.45-2.58,4.56-4.71,1.11-2.13,1.67-4.81,1.67-8.06v-2.13s-10.13,1.62-10.13,1.62c-3.99.61-6.96,1.59-8.92,2.94-1.96,1.35-2.94,3.01-2.94,4.97,0,1.49.46,2.75,1.37,3.8.91,1.05,2.08,1.82,3.5,2.33,1.42.51,2.9.76,4.46.76Z"/>
    <path d="M671.86,76.6c-.68,0-1.25-.24-1.72-.71-.47-.47-.71-1.05-.71-1.72V26.44c0-.74.24-1.35.71-1.82.47-.47,1.05-.71,1.72-.71h8.21c.67,0,1.27.24,1.77.71.51.47.76,1.08.76,1.82v4.16c1.55-2.16,3.56-3.82,6.03-4.97,2.47-1.15,5.32-1.72,8.56-1.72h4.15c.74,0,1.33.24,1.77.71.44.47.66,1.05.66,1.72v7.3c0,.68-.22,1.25-.66,1.72-.44.47-1.03.71-1.77.71h-7.9c-3.24,0-5.76.91-7.55,2.74-1.79,1.82-2.69,4.32-2.69,7.5v27.87c0,.68-.24,1.25-.71,1.72-.47.47-1.08.71-1.82.71h-8.82Z"/>
    <path d="M734.68,77.61c-7.5,0-13.44-2.16-17.83-6.48-4.39-4.32-6.76-10.47-7.09-18.44-.07-.67-.1-1.54-.1-2.58s.03-1.88.1-2.48c.27-5.07,1.43-9.46,3.5-13.17,2.06-3.71,4.91-6.57,8.56-8.56,3.65-1.99,7.94-2.99,12.87-2.99,5.47,0,10.06,1.13,13.78,3.4,3.71,2.26,6.52,5.4,8.41,9.42,1.89,4.02,2.84,8.66,2.84,13.93v2.13c0,.68-.24,1.25-.71,1.72s-1.08.71-1.82.71h-33.64v.81c.07,2.37.52,4.54,1.37,6.54.84,1.99,2.09,3.6,3.75,4.81,1.65,1.22,3.63,1.82,5.93,1.82,1.89,0,3.48-.29,4.76-.86,1.28-.57,2.33-1.23,3.14-1.98.81-.74,1.38-1.35,1.72-1.82.61-.81,1.1-1.3,1.47-1.47.37-.17.93-.25,1.67-.25h8.71c.67,0,1.23.2,1.67.61.44.41.62.91.56,1.52-.07,1.08-.63,2.4-1.67,3.95-1.05,1.55-2.55,3.07-4.51,4.56-1.96,1.49-4.41,2.72-7.35,3.7-2.94.98-6.3,1.47-10.08,1.47ZM723.54,45.7h22.39v-.3c0-2.63-.44-4.93-1.32-6.89-.88-1.96-2.16-3.51-3.85-4.66-1.69-1.15-3.72-1.72-6.08-1.72-2.37,0-4.39.57-6.08,1.72-1.69,1.15-2.96,2.7-3.8,4.66-.85,1.96-1.27,4.26-1.27,6.89v.3Z"/>
    <path d="M445.78,76.6c-.68,0-1.25-.24-1.72-.71-.47-.47-.71-1.05-.71-1.72v-39.52h-8.21c-.68,0-1.25-.24-1.72-.71-.47-.47-.71-1.05-.71-1.72v-5.88c0-.67.24-1.25.71-1.72.47-.47,1.05-.71,1.72-.71h8.21v-4.15c0-4.05.74-7.41,2.23-10.08,1.48-2.67,3.68-4.68,6.59-6.03,2.9-1.35,6.59-2.03,11.04-2.03h6.89c.74,0,1.33.24,1.77.71.44.47.66,1.05.66,1.72v5.88c0,.68-.22,1.25-.66,1.72-.44.47-1.03.71-1.77.71h-6.48c-2.7,0-4.56.68-5.57,2.03-1.01,1.35-1.52,3.31-1.52,5.88v3.65h12.56c.74,0,1.33.24,1.77.71.44.47.66,1.05.66,1.72v5.88c0,.68-.22,1.25-.66,1.72-.44.47-1.03.71-1.77.71h-12.56v39.52c0,.68-.24,1.25-.71,1.72-.47.47-1.05.71-1.72.71h-8.31Z"/>
    <path d="M508.5,76.6c-4.05,0-7.47-.71-10.23-2.13-2.77-1.42-4.83-3.53-6.18-6.33-1.35-2.8-2.03-6.3-2.03-10.49v-23h-8.01c-.68,0-1.25-.24-1.72-.71-.47-.47-.71-1.05-.71-1.72v-5.88c0-.67.24-1.25.71-1.72s1.05-.71,1.72-.71h8.01V7.09c0-.67.22-1.25.66-1.72.44-.47,1.03-.71,1.77-.71h8.21c.67,0,1.25.24,1.72.71.47.47.71,1.05.71,1.72v16.82h12.67c.67,0,1.25.24,1.72.71.47.47.71,1.05.71,1.72v5.88c0,.68-.24,1.25-.71,1.72s-1.05.71-1.72.71h-12.67v21.99c0,2.77.49,4.93,1.47,6.49.98,1.55,2.69,2.33,5.12,2.33h6.99c.67,0,1.25.24,1.72.71.47.47.71,1.05.71,1.72v6.28c0,.68-.24,1.25-.71,1.72-.47.47-1.05.71-1.72.71h-8.21Z"/>
  </g>
</svg>