<svg xmlns="http://www.w3.org/2000/svg" fill="none" viewBox="0 0 124.90599999999999 45" xmlns:xlink="http://www.w3.org/1999/xlink" style="max-height: 500px" width="124.90599999999999" height="45">
<g clip-path="url(#clip0_62_140)">
<path fill="url(#paint0_linear_62_140)" d="M28 22.4L39.7 44.8L16.1 22.4L39.7 0L28 22.4ZM11.7 22.4L0 44.7L23.6 22.3L0 0L11.7 22.4Z"/>
<path fill="#1D1D1B" d="M59.7 14.3996H53C51.4 14.3996 50.9 14.8996 50.9 16.6996V19.6996H59.5C59.9 19.6996 60.2 19.9996 60.2 20.3996V23.4996C60.2 23.8996 59.9 24.1996 59.5 24.1996H50.9V33.7996C50.9 34.1996 50.6 34.4996 50.2 34.4996H45.9C45.5 34.4996 45.2 34.1996 45.2 33.7996V16.6996C45.2 10.6996 48.9999 9.59961 53.2999 9.59961C57.5999 9.59961 58.5 9.89961 59.7 9.99961C60.2 10.0996 60.4 10.1996 60.4 10.6996V13.7996C60.4 14.0996 60.1 14.3996 59.7 14.3996Z"/>
<path fill="#1D1D1B" d="M78.6999 26.6998H68.0999C68.0999 28.6998 68.9 30.3998 71.5 30.3998C74.1 30.3998 76.5 30.1998 77.9 30.0998C78.3 30.0998 78.5 30.2998 78.5 30.5998V33.0998C78.5 33.5998 78.5 33.8998 77.8 33.9998C75.7 34.4998 73.9 34.7998 71 34.7998C68.1 34.7998 62.7 32.6998 62.7 26.2998V23.9998C62.7 18.6998 65.7999 15.2998 71.0999 15.2998C76.3999 15.2998 79.3 18.9998 79.3 23.9998V25.8998C79.3 26.3998 78.9999 26.6998 78.5999 26.6998H78.6999ZM74.0999 23.1998C74.0999 20.6998 72.9999 19.4998 71.0999 19.4998C69.1999 19.4998 68.0999 20.7998 68.0999 23.1998H74.0999Z"/>
<path fill="#1D1D1B" d="M101.7 34.4996H96.6C96.2 34.4996 96.1 34.1996 95.9 33.7996L91.5 25.3996H91.1C90.4 25.3996 89.4 25.2996 88.7 25.2996V33.7996C88.7 34.1996 88.4 34.4996 88 34.4996H83.7C83.3 34.4996 83 34.1996 83 33.7996V11.5996C83 10.4996 83.5 10.1996 84.5 9.99961C86 9.79961 88.8 9.59961 91.2 9.59961C96.8 9.59961 101.2 11.4996 101.2 17.3996V17.7996C101.2 21.2996 99.3 23.4996 96.9 24.3996L101.9 33.6996C101.9 33.6996 102.05 33.9396 102.05 34.0396C102.05 34.2396 101.9 34.4996 101.6 34.4996H101.7ZM95.7 17.2996C95.7 15.2996 94.1 14.3996 91.4 14.3996C88.7 14.3996 89.2 14.4996 88.8 14.4996V20.7996C89.2 20.7996 90.8 20.8996 91.2 20.8996C94.7 20.8996 95.7 19.9996 95.7 17.7996V17.2996Z"/>
<path fill="#1D1D1B" d="M113.7 34.8C110.9 34.8 108 34.5 106.6 34.3C106 34.3 105.6 33.9 105.6 33.1V11.2C105.6 10.4 105.9 10.1 106.6 10C108 9.8 110.9 9.5 113.7 9.5C120.3 9.5 124.3 13 124.3 20V24.3C124.3 31.3 120.3 34.8 113.7 34.8ZM118.6 20C118.6 15.5 116.7 14.3 113.7 14.3C110.7 14.3 111.8 14.3 111.3 14.3V29.8C111.8 29.8 112.8 29.9 113.7 29.9C116.7 29.9 118.6 28.7 118.6 24.2V19.9V20Z"/>
<path fill="#A3A3A3" d="M136.67 34.2993H135.59V26.5693H139.92V27.4993H136.66V30.1193H139.72V31.0393H136.66V34.2893L136.67 34.2993Z"/>
<path fill="#A3A3A3" d="M146.23 31.3791C146.23 31.8591 146.17 32.2891 146.04 32.6591C145.92 33.0391 145.73 33.3491 145.5 33.6091C145.26 33.8691 144.98 34.0691 144.64 34.1991C144.31 34.3391 143.93 34.3991 143.5 34.3991C143.11 34.3991 142.74 34.3291 142.41 34.1991C142.08 34.0591 141.8 33.8691 141.56 33.6091C141.32 33.3491 141.14 33.0291 141.01 32.6591C140.88 32.2791 140.81 31.8591 140.81 31.3791C140.81 30.7391 140.92 30.1991 141.14 29.7491C141.36 29.2991 141.67 28.9591 142.08 28.7191C142.49 28.4891 142.97 28.3691 143.54 28.3691C144.11 28.3691 144.55 28.4891 144.95 28.7191C145.35 28.9491 145.67 29.2991 145.9 29.7491C146.13 30.1991 146.24 30.7391 146.24 31.3791H146.23ZM141.9 31.3791C141.9 31.8291 141.96 32.2091 142.07 32.5291C142.18 32.8491 142.36 33.0991 142.6 33.2691C142.84 33.4391 143.15 33.5291 143.52 33.5291C143.89 33.5291 144.19 33.4391 144.43 33.2691C144.67 33.0991 144.85 32.8491 144.96 32.5291C145.07 32.2091 145.13 31.8191 145.13 31.3791C145.13 30.9391 145.07 30.5591 144.96 30.2391C144.85 29.9191 144.67 29.6791 144.43 29.5091C144.19 29.3391 143.88 29.2591 143.5 29.2591C142.94 29.2591 142.54 29.4491 142.28 29.8191C142.02 30.1891 141.89 30.7091 141.89 31.3891L141.9 31.3791Z"/>
<path fill="#A3A3A3" d="M150.5 28.3691C150.61 28.3691 150.72 28.3691 150.84 28.3891C150.96 28.3991 151.07 28.4191 151.16 28.4291L151.05 29.4191C150.97 29.3991 150.87 29.3791 150.76 29.3691C150.65 29.3591 150.55 29.3491 150.45 29.3491C150.22 29.3491 150.01 29.3891 149.8 29.4791C149.6 29.5591 149.42 29.6891 149.26 29.8491C149.1 30.0091 148.98 30.2091 148.9 30.4391C148.81 30.6691 148.77 30.9291 148.77 31.2291V34.3091H147.7V28.4791H148.56L148.69 29.5291H148.74C148.86 29.3191 149.01 29.1291 149.18 28.9491C149.35 28.7691 149.55 28.6291 149.77 28.5291C149.99 28.4291 150.24 28.3691 150.51 28.3691H150.5Z"/>
<path fill="#A3A3A3" d="M157.19 28.4697V34.2997H156.34L156.19 33.4997H156.13C156.01 33.6997 155.86 33.8697 155.66 33.9997C155.46 34.1297 155.26 34.2297 155.02 34.2997C154.78 34.3697 154.53 34.3997 154.27 34.3997C153.82 34.3997 153.44 34.3297 153.13 34.1797C152.82 34.0297 152.58 33.7997 152.42 33.4897C152.26 33.1797 152.18 32.7797 152.18 32.2797V28.4697H153.25V32.1297C153.25 32.5997 153.35 32.9497 153.55 33.1797C153.75 33.4097 154.06 33.5297 154.48 33.5297C154.9 33.5297 155.21 33.4497 155.44 33.2897C155.68 33.1297 155.85 32.8997 155.95 32.5897C156.05 32.2797 156.11 31.8997 156.11 31.4597V28.4697H157.18H157.19Z"/>
<path fill="#A3A3A3" d="M165.46 28.3691C166.11 28.3691 166.59 28.5391 166.92 28.8691C167.25 29.2091 167.41 29.7491 167.41 30.4891V34.2991H166.36V30.6191C166.36 30.1591 166.27 29.8191 166.08 29.5891C165.89 29.3591 165.61 29.2491 165.24 29.2491C164.71 29.2491 164.33 29.4091 164.1 29.7291C163.87 30.0491 163.75 30.5191 163.75 31.1291V34.2991H162.69V30.6191C162.69 30.3091 162.65 30.0591 162.56 29.8591C162.48 29.6591 162.35 29.4991 162.18 29.3991C162.01 29.2991 161.8 29.2491 161.55 29.2491C161.19 29.2491 160.9 29.3291 160.68 29.4791C160.46 29.6391 160.31 29.8691 160.21 30.1791C160.11 30.4891 160.06 30.8591 160.06 31.3091V34.3091H159V28.4791H159.84L159.99 29.2791H160.05C160.17 29.0791 160.31 28.9091 160.49 28.7791C160.67 28.6491 160.87 28.5391 161.08 28.4791C161.3 28.4091 161.53 28.3791 161.77 28.3791C162.21 28.3791 162.58 28.4591 162.87 28.6191C163.17 28.7791 163.39 29.0191 163.53 29.3391H163.6C163.79 29.0091 164.04 28.7691 164.37 28.6091C164.7 28.4491 165.05 28.3691 165.43 28.3691H165.46Z"/>
<path fill="#A3A3A3" d="M174.27 28.3696C174.78 28.3696 175.21 28.4796 175.58 28.6996C175.94 28.9196 176.22 29.2196 176.41 29.6196C176.6 30.0196 176.7 30.4796 176.7 31.0196V31.6196H172.75C172.76 32.2396 172.92 32.7196 173.23 33.0496C173.54 33.3796 173.98 33.5496 174.54 33.5496C174.91 33.5496 175.24 33.5096 175.53 33.4396C175.82 33.3696 176.12 33.2696 176.43 33.1296V34.0196C176.14 34.1496 175.84 34.2496 175.55 34.3096C175.26 34.3696 174.9 34.3996 174.5 34.3996C173.94 34.3996 173.44 34.2896 173.02 34.0596C172.6 33.8296 172.27 33.4996 172.03 33.0596C171.79 32.6196 171.68 32.0696 171.68 31.4196C171.68 30.7696 171.79 30.2296 172 29.7696C172.21 29.3096 172.52 28.9596 172.91 28.7196C173.3 28.4796 173.76 28.3496 174.29 28.3496L174.27 28.3696ZM174.27 29.1896C173.84 29.1896 173.49 29.3296 173.23 29.6096C172.97 29.8896 172.82 30.2896 172.77 30.8096H175.64C175.64 30.4896 175.59 30.2096 175.49 29.9596C175.39 29.7096 175.24 29.5296 175.04 29.3896C174.84 29.2496 174.58 29.1796 174.27 29.1796V29.1896Z"/>
<path fill="#A3A3A3" d="M179.22 34.2991H178.15V26.0791H179.22V34.2991Z"/>
<path fill="#A3A3A3" d="M183.31 28.3696C183.82 28.3696 184.25 28.4796 184.61 28.6996C184.97 28.9196 185.25 29.2196 185.45 29.6196C185.65 30.0196 185.74 30.4796 185.74 31.0196V31.6196H181.78C181.79 32.2396 181.95 32.7196 182.26 33.0496C182.57 33.3796 183 33.5496 183.56 33.5496C183.93 33.5496 184.26 33.5096 184.55 33.4396C184.84 33.3696 185.14 33.2696 185.45 33.1296V34.0196C185.16 34.1496 184.86 34.2496 184.57 34.3096C184.28 34.3696 183.92 34.3996 183.52 34.3996C182.96 34.3996 182.46 34.2896 182.04 34.0596C181.61 33.8296 181.28 33.4996 181.05 33.0596C180.81 32.6196 180.7 32.0696 180.7 31.4196C180.7 30.7696 180.81 30.2296 181.02 29.7696C181.23 29.3096 181.54 28.9596 181.93 28.7196C182.32 28.4796 182.78 28.3496 183.31 28.3496V28.3696ZM183.3 29.1896C182.87 29.1896 182.52 29.3296 182.26 29.6096C182 29.8896 181.85 30.2896 181.8 30.8096H184.67C184.67 30.4896 184.62 30.2096 184.52 29.9596C184.42 29.7196 184.27 29.5296 184.07 29.3896C183.87 29.2496 183.61 29.1796 183.3 29.1796V29.1896Z"/>
<path fill="#A3A3A3" d="M188.24 26.0696V30.1896C188.24 30.3496 188.24 30.5396 188.22 30.7396C188.21 30.9496 188.2 31.1396 188.19 31.3096H188.23C188.31 31.1996 188.42 31.0696 188.56 30.8896C188.7 30.7096 188.82 30.5696 188.92 30.4496L190.78 28.4596H192.01L189.67 30.9596L192.17 34.2796H190.91L188.95 31.6196L188.25 32.2396V34.2796H187.19V26.0596H188.25L188.24 26.0696Z"/>
<path fill="#A3A3A3" d="M195.16 33.5394C195.31 33.5394 195.46 33.5294 195.62 33.4994C195.78 33.4694 195.91 33.4394 196.02 33.3994V34.2094C195.9 34.2594 195.74 34.3094 195.54 34.3394C195.34 34.3794 195.14 34.3994 194.93 34.3994C194.61 34.3994 194.33 34.3494 194.07 34.2394C193.81 34.1294 193.61 33.9394 193.45 33.6794C193.3 33.4194 193.22 33.0494 193.22 32.5794V29.2894H192.41V28.7994L193.26 28.4094L193.64 27.1494H194.3V28.4694H195.99V29.2894H194.3V32.5594C194.3 32.8894 194.38 33.1294 194.54 33.2894C194.7 33.4494 194.91 33.5294 195.17 33.5294L195.16 33.5394Z"/>
<path fill="#A3A3A3" d="M200 28.3691C200.11 28.3691 200.22 28.3691 200.34 28.3891C200.46 28.4091 200.57 28.4191 200.66 28.4291L200.55 29.4191C200.47 29.3991 200.37 29.3791 200.26 29.3691C200.15 29.3591 200.05 29.3491 199.95 29.3491C199.72 29.3491 199.51 29.3891 199.31 29.4791C199.11 29.5591 198.93 29.6891 198.77 29.8491C198.61 30.0091 198.49 30.2091 198.4 30.4391C198.31 30.6691 198.27 30.9291 198.27 31.2291V34.3091H197.2V28.4791H198.06L198.19 29.5291H198.24C198.36 29.3191 198.51 29.1291 198.68 28.9491C198.85 28.7691 199.05 28.6291 199.27 28.5291C199.49 28.4291 199.74 28.3691 200.01 28.3691H200Z"/>
<path fill="#A3A3A3" d="M206.84 31.3791C206.84 31.8591 206.78 32.2891 206.65 32.6591C206.53 33.0391 206.34 33.3491 206.11 33.6091C205.87 33.8691 205.59 34.0691 205.25 34.1991C204.91 34.3291 204.54 34.3991 204.11 34.3991C203.72 34.3991 203.35 34.3291 203.02 34.1991C202.69 34.0591 202.41 33.8691 202.17 33.6091C201.93 33.3491 201.75 33.0291 201.61 32.6591C201.48 32.2791 201.41 31.8591 201.41 31.3791C201.41 30.7391 201.52 30.1991 201.74 29.7491C201.96 29.2991 202.27 28.9591 202.68 28.7191C203.09 28.4891 203.57 28.3691 204.14 28.3691C204.68 28.3691 205.15 28.4891 205.55 28.7191C205.95 28.9491 206.27 29.2991 206.5 29.7491C206.73 30.1991 206.84 30.7391 206.84 31.3791ZM202.51 31.3791C202.51 31.8291 202.57 32.2091 202.68 32.5291C202.79 32.8491 202.97 33.0991 203.21 33.2691C203.45 33.4391 203.76 33.5291 204.13 33.5291C204.5 33.5291 204.8 33.4391 205.04 33.2691C205.28 33.0991 205.46 32.8491 205.57 32.5291C205.68 32.2091 205.74 31.8191 205.74 31.3791C205.74 30.9391 205.68 30.5591 205.57 30.2391C205.46 29.9191 205.28 29.6791 205.04 29.5091C204.8 29.3391 204.49 29.2591 204.11 29.2591C203.55 29.2591 203.15 29.4491 202.89 29.8191C202.63 30.1891 202.5 30.7091 202.5 31.3891L202.51 31.3791Z"/>
<path fill="#A3A3A3" d="M211.2 28.3691C211.87 28.3691 212.39 28.5391 212.75 28.8791C213.11 29.2191 213.29 29.7591 213.29 30.5091V34.2991H212.24V30.6491C212.24 30.1891 212.14 29.8391 211.93 29.5991C211.72 29.3591 211.41 29.2491 210.99 29.2491C210.39 29.2491 209.96 29.4291 209.72 29.7791C209.48 30.1391 209.36 30.6491 209.36 31.3291V34.2991H208.3V28.4691H209.14L209.29 29.2891H209.35C209.47 29.0891 209.63 28.9091 209.82 28.7791C210.01 28.6391 210.22 28.5391 210.46 28.4691C210.69 28.3991 210.94 28.3691 211.2 28.3691Z"/>
<path fill="#A3A3A3" d="M215.6 26.2695C215.77 26.2695 215.91 26.3195 216.04 26.4195C216.16 26.5195 216.22 26.6795 216.22 26.8995C216.22 27.1195 216.16 27.2795 216.04 27.3795C215.92 27.4795 215.77 27.5295 215.6 27.5295C215.43 27.5295 215.28 27.4795 215.16 27.3795C215.04 27.2795 214.98 27.1195 214.98 26.8995C214.98 26.6795 215.04 26.5195 215.16 26.4195C215.28 26.3195 215.42 26.2695 215.6 26.2695ZM216.13 28.4695V34.2995H215.07V28.4695H216.13Z"/>
<path fill="#A3A3A3" d="M221.78 32.6699C221.78 33.0499 221.69 33.3699 221.5 33.6199C221.31 33.8799 221.05 34.0699 220.69 34.1999C220.33 34.3299 219.91 34.3999 219.42 34.3999C219.01 34.3999 218.66 34.3699 218.36 34.3099C218.06 34.2499 217.8 34.1599 217.56 34.0399V33.0999C217.82 33.2199 218.11 33.3299 218.45 33.4299C218.79 33.5299 219.12 33.5699 219.44 33.5699C219.9 33.5699 220.22 33.4999 220.43 33.3499C220.63 33.2099 220.73 33.0099 220.73 32.7599C220.73 32.6199 220.69 32.4899 220.61 32.3799C220.53 32.2699 220.39 32.1599 220.19 32.0499C219.99 31.9399 219.7 31.8099 219.32 31.6699C218.95 31.5299 218.63 31.3799 218.37 31.2399C218.11 31.0999 217.91 30.9199 217.77 30.7199C217.63 30.5199 217.56 30.2499 217.56 29.9299C217.56 29.4299 217.76 29.0399 218.17 28.7799C218.57 28.5099 219.11 28.3799 219.77 28.3799C220.12 28.3799 220.45 28.4199 220.77 28.4899C221.08 28.5599 221.38 28.6599 221.67 28.7899L221.33 29.6099C221.08 29.4999 220.82 29.4099 220.55 29.3399C220.28 29.2699 220.01 29.2299 219.73 29.2299C219.37 29.2299 219.09 29.2899 218.9 29.3999C218.71 29.5199 218.61 29.6799 218.61 29.8799C218.61 30.0399 218.65 30.1699 218.74 30.2799C218.83 30.3899 218.98 30.4899 219.19 30.5899C219.4 30.6899 219.69 30.8099 220.05 30.9499C220.41 31.0799 220.71 31.2199 220.97 31.3699C221.23 31.5099 221.43 31.6899 221.57 31.8999C221.71 32.1099 221.78 32.3699 221.78 32.6999V32.6699Z"/>
<path fill="#A3A3A3" d="M225.5 34.3994C224.96 34.3994 224.5 34.2894 224.09 34.0794C223.69 33.8694 223.38 33.5394 223.16 33.0894C222.94 32.6494 222.83 32.0894 222.83 31.4094C222.83 30.7294 222.95 30.1294 223.18 29.6794C223.42 29.2294 223.74 28.8994 224.16 28.6794C224.58 28.4694 225.06 28.3594 225.59 28.3594C225.91 28.3594 226.2 28.3894 226.48 28.4494C226.76 28.5094 226.99 28.5894 227.18 28.6894L226.86 29.5494C226.66 29.4694 226.45 29.3994 226.22 29.3394C225.99 29.2794 225.78 29.2494 225.57 29.2494C225.2 29.2494 224.89 29.3294 224.64 29.4994C224.39 29.6694 224.21 29.8994 224.09 30.2194C223.97 30.5394 223.91 30.9294 223.91 31.3894C223.91 31.8494 223.97 32.2194 224.09 32.5294C224.21 32.8394 224.39 33.0794 224.63 33.2394C224.87 33.3994 225.16 33.4794 225.52 33.4794C225.83 33.4794 226.12 33.4394 226.37 33.3694C226.62 33.2994 226.85 33.2094 227.06 33.0994V34.0394C226.86 34.1494 226.63 34.2394 226.38 34.2894C226.13 34.3494 225.84 34.3694 225.49 34.3694L225.5 34.3994Z"/>
<path fill="#A3A3A3" d="M229.5 26.0696V28.3296C229.5 28.5096 229.5 28.6896 229.48 28.8596C229.48 29.0296 229.46 29.1796 229.44 29.2896H229.5C229.62 29.0796 229.78 28.9096 229.96 28.7796C230.14 28.6496 230.35 28.5396 230.58 28.4696C230.81 28.3996 231.05 28.3696 231.31 28.3696C231.76 28.3696 232.15 28.4396 232.46 28.5896C232.77 28.7396 233.01 28.9696 233.17 29.2796C233.33 29.5896 233.41 29.9996 233.41 30.4896V34.2796H232.36V30.6296C232.36 30.1696 232.26 29.8196 232.05 29.5796C231.84 29.3396 231.53 29.2296 231.11 29.2296C230.69 29.2296 230.39 29.3096 230.15 29.4696C229.91 29.6296 229.74 29.8696 229.64 30.1796C229.54 30.4896 229.49 30.8696 229.49 31.3196V34.2796H228.43V26.0596H229.49L229.5 26.0696Z"/>
<path fill="#A3A3A3" d="M237.48 28.3696C237.99 28.3696 238.42 28.4796 238.79 28.6996C239.16 28.9196 239.43 29.2196 239.62 29.6196C239.81 30.0096 239.91 30.4796 239.91 31.0196V31.6196H235.96C235.97 32.2396 236.13 32.7196 236.44 33.0496C236.75 33.3796 237.19 33.5496 237.75 33.5496C238.12 33.5496 238.45 33.5096 238.74 33.4396C239.03 33.3696 239.33 33.2696 239.64 33.1296V34.0196C239.35 34.1496 239.05 34.2496 238.76 34.3096C238.47 34.3696 238.11 34.3996 237.71 34.3996C237.15 34.3996 236.65 34.2896 236.23 34.0596C235.81 33.8296 235.47 33.4996 235.24 33.0596C235 32.6196 234.89 32.0696 234.89 31.4196C234.89 30.7696 235 30.2296 235.21 29.7696C235.42 29.3096 235.73 28.9596 236.12 28.7196C236.51 28.4796 236.97 28.3496 237.5 28.3496L237.48 28.3696ZM237.48 29.1896C237.05 29.1896 236.7 29.3296 236.44 29.6096C236.18 29.8896 236.03 30.2896 235.98 30.8096H238.84C238.84 30.4896 238.79 30.2096 238.69 29.9596C238.59 29.7096 238.44 29.5296 238.24 29.3896C238.04 29.2496 237.78 29.1796 237.47 29.1796L237.48 29.1896Z"/>
<path fill="#A3A3A3" d="M246.43 26.5693C247.08 26.5693 247.62 26.6493 248.05 26.8093C248.48 26.9693 248.79 27.2093 249 27.5393C249.21 27.8693 249.31 28.2793 249.31 28.7793C249.31 29.1693 249.24 29.5093 249.09 29.7793C248.94 30.0493 248.76 30.2693 248.52 30.4493C248.29 30.6193 248.03 30.7593 247.77 30.8593L249.93 34.3093H248.69L246.81 31.1493H245.39V34.3093H244.31V26.5793H246.44L246.43 26.5693ZM246.36 27.4893H245.38V30.2293H246.43C247.04 30.2293 247.48 30.1093 247.77 29.8693C248.05 29.6293 248.19 29.2793 248.19 28.8193C248.19 28.3593 248.04 27.9893 247.74 27.7893C247.44 27.5893 246.98 27.4893 246.36 27.4893Z"/>
<path fill="#A3A3A3" d="M253.25 28.3696C253.76 28.3696 254.19 28.4796 254.56 28.6996C254.93 28.9196 255.2 29.2196 255.39 29.6196C255.58 30.0096 255.68 30.4796 255.68 31.0196V31.6196H251.73C251.74 32.2396 251.9 32.7196 252.21 33.0496C252.52 33.3796 252.96 33.5496 253.52 33.5496C253.89 33.5496 254.22 33.5096 254.51 33.4396C254.8 33.3696 255.1 33.2696 255.41 33.1296V34.0196C255.12 34.1496 254.82 34.2496 254.53 34.3096C254.24 34.3696 253.88 34.3996 253.48 34.3996C252.92 34.3996 252.42 34.2896 252 34.0596C251.58 33.8296 251.24 33.4996 251.01 33.0596C250.77 32.6196 250.66 32.0696 250.66 31.4196C250.66 30.7696 250.77 30.2296 250.98 29.7696C251.19 29.3096 251.5 28.9596 251.89 28.7196C252.28 28.4796 252.74 28.3496 253.27 28.3496L253.25 28.3696ZM253.25 29.1896C252.82 29.1896 252.47 29.3296 252.21 29.6096C251.95 29.8896 251.8 30.2896 251.75 30.8096H254.61C254.61 30.4896 254.56 30.2096 254.46 29.9596C254.36 29.7096 254.21 29.5296 254.01 29.3896C253.81 29.2496 253.55 29.1796 253.24 29.1796L253.25 29.1896Z"/>
<path fill="#A3A3A3" d="M259.47 34.3994C258.93 34.3994 258.47 34.2894 258.06 34.0794C257.66 33.8694 257.35 33.5394 257.13 33.0894C256.91 32.6494 256.8 32.0894 256.8 31.4094C256.8 30.7294 256.92 30.1294 257.15 29.6794C257.39 29.2294 257.71 28.8994 258.13 28.6794C258.55 28.4694 259.03 28.3594 259.56 28.3594C259.88 28.3594 260.17 28.3894 260.45 28.4494C260.73 28.5094 260.96 28.5894 261.15 28.6894L260.83 29.5494C260.63 29.4694 260.42 29.3994 260.19 29.3394C259.96 29.2794 259.75 29.2494 259.54 29.2494C259.17 29.2494 258.86 29.3294 258.61 29.4994C258.36 29.6694 258.18 29.8994 258.06 30.2194C257.94 30.5394 257.88 30.9294 257.88 31.3894C257.88 31.8494 257.94 32.2194 258.06 32.5294C258.18 32.8394 258.36 33.0794 258.6 33.2394C258.84 33.3994 259.13 33.4794 259.49 33.4794C259.8 33.4794 260.09 33.4394 260.34 33.3694C260.59 33.2994 260.82 33.2094 261.03 33.0994V34.0394C260.83 34.1494 260.6 34.2394 260.35 34.2894C260.1 34.3494 259.81 34.3694 259.46 34.3694L259.47 34.3994Z"/>
<path fill="#A3A3A3" d="M263.47 26.0696V28.3296C263.47 28.5096 263.47 28.6896 263.45 28.8596C263.45 29.0296 263.43 29.1796 263.41 29.2896H263.47C263.59 29.0796 263.75 28.9096 263.93 28.7796C264.11 28.6496 264.32 28.5396 264.55 28.4696C264.78 28.3996 265.02 28.3696 265.28 28.3696C265.73 28.3696 266.12 28.4396 266.43 28.5896C266.74 28.7396 266.98 28.9696 267.14 29.2796C267.3 29.5896 267.38 29.9996 267.38 30.4896V34.2796H266.33V30.6296C266.33 30.1696 266.23 29.8196 266.02 29.5796C265.81 29.3396 265.5 29.2296 265.08 29.2296C264.66 29.2296 264.36 29.3096 264.12 29.4696C263.88 29.6296 263.71 29.8696 263.61 30.1796C263.51 30.4896 263.46 30.8696 263.46 31.3196V34.2796H262.4V26.0596H263.46L263.47 26.0696Z"/>
<path fill="#A3A3A3" d="M272.06 28.3691C272.73 28.3691 273.25 28.5391 273.61 28.8791C273.97 29.2191 274.15 29.7591 274.15 30.5091V34.2991H273.1V30.6491C273.1 30.1891 273 29.8391 272.79 29.5991C272.58 29.3591 272.27 29.2491 271.85 29.2491C271.25 29.2491 270.82 29.4291 270.58 29.7791C270.34 30.1391 270.22 30.6491 270.22 31.3291V34.2991H269.16V28.4691H270L270.15 29.2891H270.21C270.33 29.0891 270.49 28.9091 270.68 28.7791C270.87 28.6391 271.08 28.5391 271.32 28.4691C271.55 28.3991 271.8 28.3691 272.06 28.3691Z"/>
<path fill="#A3A3A3" d="M280.88 28.4697V34.2997H280.03L279.88 33.4997H279.82C279.7 33.6997 279.55 33.8697 279.36 33.9997C279.17 34.1297 278.96 34.2297 278.72 34.2997C278.48 34.3697 278.23 34.3997 277.97 34.3997C277.52 34.3997 277.14 34.3297 276.83 34.1797C276.52 34.0297 276.28 33.7997 276.12 33.4897C275.96 33.1797 275.88 32.7797 275.88 32.2797V28.4697H276.95V32.1297C276.95 32.5997 277.05 32.9497 277.25 33.1797C277.45 33.4097 277.76 33.5297 278.18 33.5297C278.6 33.5297 278.91 33.4497 279.14 33.2897C279.38 33.1297 279.55 32.8997 279.65 32.5897C279.75 32.2797 279.81 31.8997 279.81 31.4597V28.4697H280.88Z"/>
<path fill="#A3A3A3" d="M285.59 28.3691C286.26 28.3691 286.78 28.5391 287.14 28.8791C287.5 29.2191 287.68 29.7591 287.68 30.5091V34.2991H286.63V30.6491C286.63 30.1891 286.53 29.8391 286.32 29.5991C286.11 29.3591 285.8 29.2491 285.38 29.2491C284.78 29.2491 284.35 29.4291 284.11 29.7791C283.87 30.1391 283.75 30.6491 283.75 31.3291V34.2991H282.69V28.4691H283.53L283.68 29.2891H283.74C283.86 29.0891 284.02 28.9091 284.21 28.7791C284.4 28.6391 284.61 28.5391 284.85 28.4691C285.08 28.3991 285.33 28.3691 285.59 28.3691Z"/>
<path fill="#A3A3A3" d="M291.1 36.8991C290.32 36.8991 289.72 36.7591 289.31 36.4691C288.89 36.1791 288.68 35.7891 288.68 35.2691C288.68 34.9091 288.8 34.5991 289.02 34.3491C289.25 34.0991 289.57 33.9291 289.98 33.8391C289.82 33.7691 289.69 33.6591 289.58 33.5191C289.47 33.3691 289.41 33.2091 289.41 33.0291C289.41 32.8091 289.47 32.6291 289.59 32.4691C289.71 32.3091 289.89 32.1591 290.14 32.0091C289.83 31.8791 289.59 31.6691 289.4 31.3791C289.21 31.0891 289.12 30.7391 289.12 30.3491C289.12 29.9291 289.21 29.5691 289.39 29.2791C289.57 28.9791 289.82 28.7591 290.16 28.5991C290.5 28.4391 290.9 28.3691 291.38 28.3691C291.49 28.3691 291.59 28.3691 291.71 28.3791C291.82 28.3791 291.93 28.3991 292.03 28.4191C292.13 28.4391 292.22 28.4591 292.28 28.4691H294.29V29.0991L293.25 29.2591C293.35 29.3891 293.43 29.5491 293.5 29.7391C293.56 29.9191 293.6 30.1191 293.6 30.3391C293.6 30.9291 293.4 31.3991 292.99 31.7391C292.58 32.0791 292.03 32.2491 291.32 32.2491C291.15 32.2491 290.99 32.2291 290.82 32.2091C290.67 32.2991 290.55 32.3891 290.48 32.4991C290.4 32.5991 290.36 32.7191 290.36 32.8591C290.36 32.9591 290.39 33.0491 290.46 33.1091C290.53 33.1691 290.63 33.2191 290.76 33.2491C290.89 33.2791 291.05 33.2891 291.24 33.2891H292.25C292.88 33.2891 293.37 33.4191 293.71 33.6891C294.05 33.9591 294.22 34.3491 294.22 34.8591C294.22 35.5091 293.95 36.0091 293.42 36.3691C292.88 36.7191 292.11 36.8991 291.1 36.8991ZM291.14 36.1191C291.6 36.1191 291.97 36.0691 292.28 35.9791C292.58 35.8891 292.81 35.7591 292.97 35.5891C293.13 35.4191 293.2 35.2191 293.2 34.9891C293.2 34.7791 293.15 34.6191 293.05 34.5091C292.95 34.3991 292.8 34.3191 292.6 34.2891C292.4 34.2491 292.16 34.2291 291.87 34.2291H290.91C290.66 34.2291 290.45 34.2691 290.26 34.3491C290.08 34.4291 289.93 34.5391 289.83 34.6891C289.73 34.8391 289.68 35.0191 289.68 35.2291C289.68 35.5191 289.81 35.7491 290.06 35.8991C290.31 36.0491 290.67 36.1291 291.14 36.1291V36.1191ZM291.37 31.5291C291.76 31.5291 292.05 31.4291 292.25 31.2191C292.44 31.0091 292.54 30.7191 292.54 30.3391C292.54 29.9291 292.44 29.6191 292.24 29.4091C292.04 29.1991 291.75 29.0991 291.36 29.0991C290.97 29.0991 290.69 29.2091 290.5 29.4191C290.31 29.6291 290.2 29.9391 290.2 30.3491C290.2 30.7291 290.3 31.0191 290.5 31.2291C290.7 31.4391 290.99 31.5391 291.37 31.5391V31.5291Z"/>
<path fill="#A3A3A3" d="M304.54 30.3593C304.54 31.2293 304.38 31.9593 304.06 32.5393C303.74 33.1193 303.27 33.5593 302.67 33.8593C302.06 34.1493 301.32 34.2993 300.46 34.2993H298.34V26.5693H300.7C301.49 26.5693 302.17 26.7093 302.75 26.9993C303.33 27.2893 303.77 27.7093 304.08 28.2693C304.39 28.8293 304.55 29.5293 304.55 30.3593H304.54ZM303.4 30.3893C303.4 29.7293 303.29 29.1793 303.08 28.7493C302.86 28.3193 302.55 27.9993 302.13 27.7893C301.71 27.5793 301.2 27.4793 300.6 27.4793H299.41V33.3793H300.41C301.41 33.3793 302.15 33.1293 302.65 32.6293C303.15 32.1293 303.4 31.3793 303.4 30.3893Z"/>
<path fill="#A3A3A3" d="M308.38 28.3696C308.89 28.3696 309.32 28.4796 309.69 28.6996C310.06 28.9196 310.33 29.2196 310.52 29.6196C310.71 30.0096 310.81 30.4796 310.81 31.0196V31.6196H306.86C306.87 32.2396 307.03 32.7196 307.34 33.0496C307.65 33.3796 308.09 33.5496 308.65 33.5496C309.02 33.5496 309.35 33.5096 309.64 33.4396C309.93 33.3696 310.23 33.2696 310.54 33.1296V34.0196C310.25 34.1496 309.95 34.2496 309.66 34.3096C309.37 34.3696 309.01 34.3996 308.61 34.3996C308.05 34.3996 307.55 34.2896 307.13 34.0596C306.71 33.8296 306.37 33.4996 306.14 33.0596C305.9 32.6196 305.79 32.0696 305.79 31.4196C305.79 30.7696 305.9 30.2296 306.11 29.7696C306.32 29.3096 306.63 28.9596 307.02 28.7196C307.41 28.4796 307.87 28.3496 308.4 28.3496L308.38 28.3696ZM308.37 29.1896C307.94 29.1896 307.59 29.3296 307.33 29.6096C307.07 29.8896 306.92 30.2896 306.87 30.8096H309.73C309.73 30.4896 309.68 30.2096 309.58 29.9596C309.48 29.7096 309.33 29.5296 309.13 29.3896C308.93 29.2496 308.67 29.1796 308.36 29.1796L308.37 29.1896Z"/>
<path fill="#A3A3A3" d="M317.2 28.4697V34.2997H316.35L316.2 33.4997H316.14C316.02 33.6997 315.87 33.8697 315.68 33.9997C315.49 34.1297 315.28 34.2297 315.04 34.2997C314.8 34.3697 314.55 34.3997 314.29 34.3997C313.84 34.3997 313.46 34.3297 313.15 34.1797C312.84 34.0297 312.6 33.7997 312.44 33.4897C312.28 33.1797 312.2 32.7797 312.2 32.2797V28.4697H313.27V32.1297C313.27 32.5997 313.37 32.9497 313.57 33.1797C313.77 33.4097 314.08 33.5297 314.5 33.5297C314.92 33.5297 315.23 33.4497 315.46 33.2897C315.7 33.1297 315.87 32.8997 315.97 32.5897C316.07 32.2797 316.13 31.8997 316.13 31.4597V28.4697H317.2Z"/>
<path fill="#A3A3A3" d="M321.04 33.5394C321.19 33.5394 321.34 33.5294 321.5 33.4994C321.66 33.4694 321.79 33.4394 321.9 33.3994V34.2094C321.78 34.2594 321.62 34.3094 321.42 34.3394C321.22 34.3794 321.02 34.3994 320.81 34.3994C320.49 34.3994 320.21 34.3494 319.95 34.2394C319.69 34.1294 319.49 33.9394 319.33 33.6794C319.18 33.4194 319.1 33.0494 319.1 32.5794V29.2894H318.29V28.7994L319.14 28.4094L319.52 27.1494H320.18V28.4694H321.87V29.2894H320.18V32.5594C320.18 32.8894 320.26 33.1294 320.42 33.2894C320.58 33.4494 320.79 33.5294 321.05 33.5294L321.04 33.5394Z"/>
<path fill="#A3A3A3" d="M326.93 32.6699C326.93 33.0499 326.84 33.3699 326.65 33.6199C326.46 33.8799 326.2 34.0699 325.84 34.1999C325.48 34.3299 325.06 34.3999 324.57 34.3999C324.16 34.3999 323.81 34.3699 323.51 34.3099C323.21 34.2499 322.95 34.1599 322.71 34.0399V33.0999C322.97 33.2199 323.26 33.3299 323.6 33.4299C323.94 33.5299 324.27 33.5699 324.59 33.5699C325.05 33.5699 325.37 33.4999 325.58 33.3499C325.78 33.2099 325.88 33.0099 325.88 32.7599C325.88 32.6199 325.84 32.4899 325.76 32.3799C325.68 32.2699 325.54 32.1599 325.34 32.0499C325.14 31.9399 324.85 31.8099 324.47 31.6699C324.1 31.5299 323.78 31.3799 323.52 31.2399C323.26 31.0999 323.06 30.9199 322.92 30.7199C322.78 30.5199 322.71 30.2499 322.71 29.9299C322.71 29.4299 322.91 29.0399 323.32 28.7799C323.72 28.5099 324.26 28.3799 324.92 28.3799C325.27 28.3799 325.6 28.4199 325.92 28.4899C326.23 28.5599 326.53 28.6599 326.82 28.7899L326.48 29.6099C326.23 29.4999 325.97 29.4099 325.7 29.3399C325.43 29.2699 325.16 29.2299 324.88 29.2299C324.52 29.2299 324.24 29.2899 324.05 29.3999C323.86 29.5199 323.76 29.6799 323.76 29.8799C323.76 30.0399 323.8 30.1699 323.89 30.2799C323.98 30.3899 324.13 30.4899 324.34 30.5899C324.55 30.6899 324.84 30.8099 325.2 30.9499C325.56 31.0799 325.86 31.2199 326.12 31.3699C326.38 31.5099 326.58 31.6899 326.72 31.8999C326.86 32.1099 326.93 32.3699 326.93 32.6999V32.6699Z"/>
<path fill="#A3A3A3" d="M330.64 34.3994C330.1 34.3994 329.64 34.2894 329.23 34.0794C328.83 33.8694 328.52 33.5394 328.3 33.0894C328.08 32.6494 327.97 32.0894 327.97 31.4094C327.97 30.7294 328.09 30.1294 328.32 29.6794C328.56 29.2294 328.88 28.8994 329.3 28.6794C329.72 28.4694 330.2 28.3594 330.73 28.3594C331.05 28.3594 331.34 28.3894 331.62 28.4494C331.9 28.5094 332.13 28.5894 332.32 28.6894L332 29.5494C331.8 29.4694 331.59 29.3994 331.36 29.3394C331.13 29.2794 330.92 29.2494 330.71 29.2494C330.34 29.2494 330.03 29.3294 329.78 29.4994C329.53 29.6694 329.35 29.8994 329.23 30.2194C329.11 30.5394 329.05 30.9294 329.05 31.3894C329.05 31.8494 329.11 32.2194 329.23 32.5294C329.35 32.8394 329.53 33.0794 329.77 33.2394C330.01 33.3994 330.3 33.4794 330.66 33.4794C330.97 33.4794 331.26 33.4394 331.51 33.3694C331.76 33.2994 331.99 33.2094 332.2 33.0994V34.0394C332 34.1494 331.77 34.2394 331.52 34.2894C331.27 34.3494 330.98 34.3694 330.63 34.3694L330.64 34.3994Z"/>
<path fill="#A3A3A3" d="M334.65 26.0696V28.3296C334.65 28.5096 334.65 28.6896 334.63 28.8596C334.63 29.0296 334.61 29.1796 334.59 29.2896H334.65C334.77 29.0796 334.93 28.9096 335.11 28.7796C335.29 28.6496 335.5 28.5396 335.73 28.4696C335.96 28.3996 336.2 28.3696 336.46 28.3696C336.91 28.3696 337.3 28.4396 337.61 28.5896C337.92 28.7396 338.16 28.9696 338.32 29.2796C338.48 29.5896 338.56 29.9996 338.56 30.4896V34.2796H337.51V30.6296C337.51 30.1696 337.41 29.8196 337.2 29.5796C336.99 29.3396 336.68 29.2296 336.26 29.2296C335.84 29.2296 335.54 29.3096 335.3 29.4696C335.06 29.6296 334.89 29.8696 334.79 30.1796C334.69 30.4896 334.64 30.8696 334.64 31.3196V34.2796H333.58V26.0596H334.64L334.65 26.0696Z"/>
<path fill="#A3A3A3" d="M341.41 34.2991H340.34V26.0791H341.41V34.2991Z"/>
<path fill="#A3A3A3" d="M345.45 28.3691C346.17 28.3691 346.71 28.5291 347.06 28.8491C347.42 29.1691 347.59 29.6691 347.59 30.3591V34.2991H346.83L346.62 33.4491H346.58C346.42 33.6591 346.25 33.8391 346.07 33.9791C345.89 34.1191 345.69 34.2291 345.46 34.2991C345.23 34.3691 344.95 34.4091 344.62 34.4091C344.27 34.4091 343.95 34.3491 343.68 34.2191C343.4 34.0891 343.19 33.8991 343.03 33.6491C342.87 33.3991 342.79 33.0691 342.79 32.6691C342.79 32.0791 343.02 31.6291 343.47 31.3191C343.93 31.0091 344.61 30.8491 345.54 30.8191L346.54 30.7791V30.4491C346.54 29.9991 346.44 29.6691 346.24 29.4891C346.04 29.2991 345.75 29.2091 345.39 29.2091C345.09 29.2091 344.8 29.2491 344.53 29.3391C344.25 29.4291 343.99 29.5291 343.74 29.6491L343.4 28.8791C343.68 28.7391 343.99 28.6191 344.34 28.5291C344.69 28.4291 345.06 28.3891 345.44 28.3891L345.45 28.3691ZM346.54 31.4691L345.73 31.5091C345.06 31.5391 344.58 31.6491 344.31 31.8491C344.04 32.0491 343.9 32.3291 343.9 32.6791C343.9 32.9891 343.99 33.2191 344.18 33.3591C344.37 33.4991 344.61 33.5791 344.92 33.5791C345.39 33.5791 345.78 33.4491 346.09 33.1791C346.39 32.9091 346.55 32.5191 346.55 31.9991V31.4791L346.54 31.4691Z"/>
<path fill="#A3A3A3" d="M352.26 28.3691C352.93 28.3691 353.45 28.5391 353.81 28.8791C354.17 29.2191 354.35 29.7591 354.35 30.5091V34.2991H353.3V30.6491C353.3 30.1891 353.2 29.8391 352.99 29.5991C352.78 29.3591 352.47 29.2491 352.05 29.2491C351.45 29.2491 351.02 29.4291 350.78 29.7791C350.54 30.1391 350.42 30.6491 350.42 31.3291V34.2991H349.36V28.4691H350.2L350.35 29.2891H350.41C350.53 29.0891 350.69 28.9091 350.88 28.7791C351.07 28.6391 351.28 28.5391 351.52 28.4691C351.75 28.3991 352 28.3691 352.26 28.3691Z"/>
<path fill="#A3A3A3" d="M358.14 34.3996C357.43 34.3996 356.86 34.1496 356.43 33.6396C356 33.1296 355.79 32.3896 355.79 31.3996C355.79 30.4096 356.01 29.6396 356.44 29.1296C356.87 28.6196 357.44 28.3596 358.16 28.3596C358.46 28.3596 358.72 28.3996 358.95 28.4796C359.18 28.5596 359.37 28.6696 359.53 28.7996C359.69 28.9296 359.83 29.0896 359.94 29.2496H360C359.98 29.1396 359.96 28.9896 359.95 28.7896C359.94 28.5896 359.92 28.4196 359.92 28.2696V26.0596H360.98V34.2796H360.14L359.97 33.4696H359.92C359.81 33.6396 359.68 33.7896 359.52 33.9296C359.36 34.0696 359.16 34.1796 358.93 34.2596C358.7 34.3396 358.44 34.3796 358.13 34.3796L358.14 34.3996ZM358.39 33.5396C358.96 33.5396 359.37 33.3696 359.61 33.0396C359.85 32.7096 359.97 32.2196 359.97 31.5696V31.4096C359.97 30.7196 359.86 30.1796 359.63 29.8096C359.4 29.4396 358.99 29.2496 358.38 29.2496C357.89 29.2496 357.52 29.4396 357.26 29.8296C357.01 30.2196 356.88 30.7496 356.88 31.4296C356.88 32.1096 357 32.6296 357.26 32.9896C357.51 33.3596 357.89 33.5396 358.39 33.5396Z"/>
</g>
<defs>
<linearGradient gradientUnits="userSpaceOnUse" y2="22.4" x2="39.7" y1="22.4" x1="0" id="paint0_linear_62_140">
<stop stop-color="#B7BE2A" offset="0.2"/>
<stop stop-color="#6DA76C" offset="0.5"/>
<stop stop-color="#34969E" offset="0.7"/>
<stop stop-color="#118BBD" offset="0.8"/>
<stop stop-color="#0487C9" offset="0.9"/>
</linearGradient>
<clipPath id="clip0_62_140">
<rect fill="white" height="44.8" width="361"/>
</clipPath>
</defs>
</svg>