<svg xmlns="http://www.w3.org/2000/svg" fill="none" viewBox="63.483624999999996 10.085393258426967 127.97000000000001 30.752808988764045" style="max-height: 500px" width="127.97000122070312" height="30.752809524536133" transform="matrix(1, 0, 0, 1, 0, 0)">
<path fill="#5060db" d="M182.331 11.266C182.435 11.2487 182.55 11.2111 182.663 11.2111C185.155 11.2082 187.65 11.2082 190.205 11.2082C190.205 20.6186 190.205 29.977 190.205 39.3816C187.658 39.3816 185.129 39.3816 182.412 39.3816C182.643 38.6077 182.787 37.883 183.075 37.2246C183.389 36.5028 183.85 35.8473 184.224 35.1514C184.432 34.7645 184.507 34.3631 184.025 34.0975C183.556 33.8376 183.242 34.0888 183.011 34.47C182.545 35.2525 182.098 36.0494 181.643 36.8377C178.811 41.7262 172.113 40.4326 169.825 37.0283C168.471 35.0157 167.918 32.7981 167.797 30.439C167.63 27.1357 168.065 23.9594 170.009 21.1528C171.793 18.58 174.873 17.4135 177.768 18.2133C179.2 18.6089 180.315 19.4838 181.11 20.6908C181.911 21.9093 182.562 23.2231 183.279 24.4994C183.397 24.7073 183.452 25.0105 183.628 25.1116C183.881 25.2559 184.288 25.3888 184.498 25.279C184.691 25.178 184.754 24.7506 184.783 24.4561C184.8 24.2973 184.642 24.1038 184.535 23.9479C183.196 21.9988 182.415 19.8505 182.346 17.4857C182.282 15.424 182.331 13.3594 182.331 11.266ZM182.366 29.2234C182.202 28.103 182.147 27.283 181.951 26.5005C181.608 25.1404 180.73 24.459 179.329 24.3406C177.993 24.228 176.849 24.7968 176.353 26.0125C175.538 28.0048 175.561 30.0434 176.397 32.0271C176.866 33.1446 177.84 33.5719 179.007 33.5922C180.153 33.6095 181.142 33.1995 181.582 32.1166C181.986 31.1147 182.156 30.0203 182.366 29.2234Z"/>
<path fill="#5060db" d="M128.397 39.3814C125.697 39.3814 123.093 39.3814 120.448 39.3814C120.448 29.9884 120.448 20.6415 120.448 11.2514C123.096 11.2514 125.703 11.2514 128.319 11.2514C128.319 13.4112 128.371 15.5422 128.304 17.6732C128.232 19.9861 127.472 22.0968 126.141 23.9968C126.02 24.1729 125.861 24.3837 125.867 24.5714C125.876 24.8226 125.962 25.1691 126.141 25.2846C126.325 25.4059 126.723 25.4059 126.91 25.2789C127.143 25.1229 127.264 24.788 127.426 24.5281C128.316 23.0815 129.068 21.5222 130.125 20.2113C132.007 17.8753 134.608 17.5346 137.319 18.32C139.958 19.0852 141.217 21.1295 141.629 23.7456C141.73 24.3837 141.761 25.0392 141.764 25.686C141.776 29.9682 141.77 34.2503 141.77 38.5354C141.77 38.7952 141.77 39.058 141.77 39.3727C139.088 39.3727 136.46 39.3727 133.721 39.3727C133.721 39.1302 133.721 38.8761 133.721 38.6249C133.721 34.848 133.721 31.0712 133.721 27.2914C133.721 25.3597 133.113 24.5801 131.571 24.5483C129.707 24.5108 128.437 25.5994 128.405 27.3405C128.371 29.3618 128.397 31.383 128.394 33.4043C128.397 35.3736 128.397 37.3457 128.397 39.3814Z"/>
<path fill="#5060db" d="M84.9486 17.9246C80.9008 17.9246 76.902 17.9246 72.837 17.9246C72.837 19.0594 72.7563 20.1393 72.86 21.2019C72.9609 22.2328 73.5688 22.7496 74.6117 22.8998C75.1072 22.972 75.6142 22.9864 76.1155 22.9864C78.8035 22.9951 81.4885 22.9893 84.2341 22.9893C84.2341 25.2155 84.2341 27.41 84.2341 29.6363C84.0555 29.6565 83.8941 29.6912 83.7299 29.6912C81.5951 29.6796 79.4575 29.6941 77.3227 29.6392C75.3895 29.5872 73.7935 28.822 72.6699 27.1906C72.3703 26.7546 72.0678 26.3243 71.771 25.8854C71.3418 25.2473 70.8808 25.0307 70.4948 25.3513C69.9387 25.8133 70.3363 26.2579 70.5898 26.6824C70.9355 27.2599 71.3101 27.8172 71.6471 28.3976C72.3242 29.5612 72.716 30.826 72.7477 32.1658C72.8024 34.4729 72.7851 36.7829 72.7967 39.0929C72.7967 39.1824 72.7621 39.2719 72.739 39.3932C70.0136 39.3932 67.3113 39.3932 64.5542 39.3932C64.5571 30.0319 64.5571 20.6851 64.5571 11.2487C64.7991 11.2343 65.0526 11.2083 65.3033 11.2083C71.5895 11.2054 77.8787 11.2169 84.165 11.191C84.8362 11.1881 85.0177 11.3786 85.0004 12.037C84.9572 13.7435 84.986 15.4529 84.9832 17.1594C84.9832 17.3962 84.963 17.6301 84.9486 17.9246Z"/>
<path fill="#5060db" d="M165.78 30.7888C161.032 30.7888 156.46 30.7888 151.891 30.7888C151.825 32.6137 152.611 34.0487 153.925 34.3577C155.573 34.7446 157.489 34.5107 158.295 32.683C160.686 32.683 163.083 32.683 165.584 32.683C165.284 34.2971 164.697 35.7235 163.66 36.9536C162.395 38.4493 160.73 39.2636 158.863 39.6649C156.244 40.228 153.605 40.2193 151.024 39.5061C147.304 38.481 145.138 35.9689 144.426 32.195C143.98 29.8214 144.049 27.4566 144.735 25.1293C145.901 21.1676 149.102 18.5255 153.233 18.0838C155.282 17.8643 157.319 17.9047 159.281 18.5689C162.997 19.8278 165.005 22.5421 165.535 26.3651C165.731 27.7858 165.699 29.2353 165.78 30.7888ZM158.408 26.6683C158.292 25.5624 158.235 24.4363 157.183 23.8761C155.841 23.1629 154.383 23.1658 153.075 23.9685C152.127 24.5489 151.986 25.6144 151.865 26.6683C154.086 26.6683 156.207 26.6683 158.408 26.6683Z"/>
<path fill="#5060db" d="M117.924 24.7479C115.447 24.7479 113.073 24.7537 110.702 24.7335C110.543 24.7335 110.324 24.5718 110.235 24.4245C109.445 23.1338 107.198 22.6112 105.983 23.515C105.703 23.7229 105.415 24.2311 105.484 24.514C105.582 24.9125 105.945 25.4178 106.311 25.5449C107.325 25.8943 108.405 26.0415 109.445 26.3187C111.203 26.7865 112.983 27.1965 114.689 27.8116C116.835 28.5854 118.083 30.136 118.186 32.5211C118.299 35.1545 117.544 37.3721 115.095 38.6224C113.963 39.1999 112.681 39.5868 111.422 39.786C108.506 40.2451 105.576 40.1989 102.733 39.2894C100.01 38.4202 98.2212 36.6358 97.6479 33.7569C97.5931 33.4768 97.573 33.191 97.5269 32.8503C97.7458 32.8272 97.9273 32.7925 98.1088 32.7925C100.221 32.7896 102.332 32.7983 104.444 32.7838C104.816 32.781 104.986 32.9167 105.219 33.2227C105.565 33.679 106.049 34.2334 106.55 34.3229C107.538 34.5019 108.581 34.4528 109.595 34.3777C110.18 34.3344 110.598 33.8984 110.63 33.2574C110.664 32.6019 110.243 32.2006 109.679 32.062C108.192 31.6981 106.674 31.4469 105.19 31.0658C103.943 30.7453 102.69 30.3901 101.497 29.905C99.3563 29.0359 98.1348 27.4218 97.9936 25.0656C97.8438 22.5332 98.855 20.5639 101.094 19.4234C102.306 18.8055 103.686 18.3868 105.038 18.1875C107.786 17.7833 110.54 17.8699 113.205 18.8314C115.683 19.7266 117.213 21.4648 117.829 24.0203C117.875 24.2224 117.884 24.4419 117.924 24.7479Z"/>
<path fill="#5060db" d="M95.3924 39.3873C92.7506 39.3873 90.149 39.3873 87.5072 39.3873C87.5072 32.5266 87.5072 25.7092 87.5072 18.8457C90.1289 18.8457 92.7333 18.8457 95.3924 18.8457C95.3924 25.6833 95.3924 32.518 95.3924 39.3873Z"/>
<path fill="#5060db" d="M87.4984 16.5904C87.4984 14.7915 87.4984 13.0474 87.4984 11.2543C90.1287 11.2543 92.7274 11.2543 95.3894 11.2543C95.3894 13.0301 95.3894 14.7886 95.3894 16.5904C92.7735 16.5904 90.1748 16.5904 87.4984 16.5904Z"/>
<path fill="#5060db" d="M0 12.1188C0 5.42578 5.42578 0 12.1188 0H38.8812C45.5742 0 51 5.42578 51 12.1188V38.8812C51 45.5742 45.5742 51 38.8812 51H12.1188C5.42578 51 0 45.5742 0 38.8812V12.1188Z"/>
<path fill="#3f51b5" d="M32.8711 20.722C32.8711 21.5088 32.2361 22.1438 31.4494 22.1438C30.6626 22.1438 30.0276 21.5088 30.0276 20.722C30.0276 19.9352 30.6626 19.3003 31.4494 19.3003C32.2361 19.3003 32.8711 19.9352 32.8711 20.722Z"/>
<path fill="#3f51b5" d="M19.8545 13.7275L20.21 13.479H37.4468H38.8271V14.8593C38.8271 15.0319 38.8064 19.1315 36.9465 23.2862C35.1762 27.2443 31.3803 31.9651 23.3744 31.9651V29.2044C33.6026 29.2044 35.5903 19.9976 35.9733 16.3259C31.9742 16.709 21.1772 18.8011 18.5195 30.217C17.814 33.2476 18.8785 36.4978 21.4316 38.2766L19.8545 40.5404C15.0786 37.2138 12.3386 32.3274 12.3386 27.1339C12.3352 21.9404 15.0751 17.0541 19.8545 13.7275ZM26.3731 16.2397H21.083C17.2733 19.0314 15.0958 22.9826 15.0958 27.1339C15.0958 28.3141 15.2787 29.4805 15.6169 30.6054C17.1284 22.5581 22.0907 18.3826 26.3731 16.2397Z"/>
<rect fill="#5060db" height="2.87903" width="5.55242" y="38.3618" x="16.6572"/>
</svg>