<svg xmlns:xlink="http://www.w3.org/1999/xlink" xmlns="http://www.w3.org/2000/svg" width="233.055" height="74.176" viewBox="0 0 233.055 74.176">
  <g id="Egersund_Group_logo" data-name="Egersund Group logo" transform="translate(-0.02)">
    <path id="Path_1" data-name="Path 1" d="M105,201.012a3.873,3.873,0,0,1,2.723-3.6,6.823,6.823,0,0,1,1.08-.125H178.18a3.907,3.907,0,0,1,3.4,3.932v66.252s.273,3.991-4.172,3.991h-69.09S105,271.074,105,268.053V201.012" transform="translate(-104.98 -197.29)" fill="#d71936"/>
    <path id="Path_2" data-name="Path 2" d="M156.829,214.842c4.164-2.989,12.128-6.062,19.679-7.614,2.266-.472-7.676,12.688-10.9,14.962-1.592,1.106-46.385,37.323-50.362,40.441-1.212.947-2.436-1.257-1.522-2.016.9-3.722,50.306-42.118,54.338-44.76.678-.442,8.756-8.059,8.225-7.846-2.5,1.013-17.276,10.912-17.608,11.126-3.073,1.9-43.452,37.283-46.857,38.856-2.4,1.106-4.422-2.451-2.852-3.833,23.312-20.423,24.252-22.406,47.859-39.324" transform="translate(-107.136 -203.558)" fill="#fff"/>
    <path id="Path_3" data-name="Path 3" d="M172.922,242.735c1.209-.851,4.1,1.231,1.879,3.317-7.636,7.123-25.763,22.789-37.648,31.25-2.827,2.012-4.754-.512-2.716-2.211,1.953-1.618,35.12-29.979,38.484-32.352" transform="translate(-123.035 -225.864)" fill="#004a90"/>
    <path id="Path_4" data-name="Path 4" d="M227,387.6a1.7,1.7,0,0,0-1.75-1.655A1.633,1.633,0,1,0,227,387.6" transform="translate(-179.956 -316.424)" fill="#004a90"/>
    <path id="Path_5" data-name="Path 5" d="M174.334,387.705a1.8,1.8,0,1,0-1.82,1.537,1.691,1.691,0,0,0,1.82-1.537" transform="translate(-146.506 -316.526)" fill="#004a90"/>
    <path id="Path_6" data-name="Path 6" d="M148.04,366.4a1.676,1.676,0,0,0-1.754-1.592,1.579,1.579,0,1,0,1.754,1.592" transform="translate(-129.904 -303.075)" fill="#004a90"/>
    <path id="Path_7" data-name="Path 7" d="M221.76,344.3a1.8,1.8,0,0,0,3.575.052,1.673,1.673,0,0,0-1.754-1.588,1.7,1.7,0,0,0-1.82,1.537" transform="translate(-178.712 -289.15)" fill="#004a90"/>
    <path id="Path_8" data-name="Path 8" d="M174.335,344.424a1.814,1.814,0,1,1-1.787-1.5,1.664,1.664,0,0,1,1.787,1.5" transform="translate(-146.506 -289.253)" fill="#004a90"/>
    <path id="Path_9" data-name="Path 9" d="M170.749,344.4a1.65,1.65,0,0,0,1.754,1.529,1.673,1.673,0,0,0,1.817-1.474,1.647,1.647,0,0,0-1.754-1.526,1.673,1.673,0,0,0-1.817,1.474" transform="translate(-146.499 -289.259)" fill="#004a90"/>
    <path id="Path_10" data-name="Path 10" d="M278.255,344.223a1.8,1.8,0,1,1-1.787-1.562,1.686,1.686,0,0,1,1.787,1.563" transform="translate(-212.13 -289.089)" fill="#004a90"/>
    <path id="Path_11" data-name="Path 11" d="M274.659,344.194a1.681,1.681,0,0,0,1.754,1.6,1.7,1.7,0,0,0,1.82-1.537,1.678,1.678,0,0,0-1.754-1.592,1.7,1.7,0,0,0-1.82,1.533" transform="translate(-212.117 -289.086)" fill="#004a90"/>
    <path id="Path_12" data-name="Path 12" d="M299.93,323.287a1.813,1.813,0,1,1,1.787,1.507,1.667,1.667,0,0,1-1.787-1.507" transform="translate(-228.075 -275.903)" fill="#004a90"/>
    <path id="Path_13" data-name="Path 13" d="M279.1,302.823a1.8,1.8,0,1,1-1.787-1.562,1.684,1.684,0,0,1,1.787,1.563" transform="translate(-212.667 -262.945)" fill="#004a90"/>
    <path id="Path_14" data-name="Path 14" d="M226.771,302.964a1.812,1.812,0,1,1-1.784-1.5,1.661,1.661,0,0,1,1.784,1.5" transform="translate(-179.621 -263.072)" fill="#004a90"/>
    <path id="Path_15" data-name="Path 15" d="M200.731,324.474a1.812,1.812,0,0,1-3.571,0A1.642,1.642,0,0,1,198.944,323a1.663,1.663,0,0,1,1.784,1.5" transform="translate(-163.177 -276.674)" fill="#004a90"/>
    <path id="Path_16" data-name="Path 16" d="M223.179,302.947a1.645,1.645,0,0,0,1.754,1.526,1.677,1.677,0,0,0,1.82-1.474A1.647,1.647,0,0,0,225,301.47a1.677,1.677,0,0,0-1.82,1.474" transform="translate(-179.608 -263.077)" fill="#004a90"/>
    <path id="Path_17" data-name="Path 17" d="M252.571,281.854a1.812,1.812,0,1,1-1.787-1.5,1.662,1.662,0,0,1,1.787,1.5" transform="translate(-195.914 -249.741)" fill="#004a90"/>
    <path id="Path_18" data-name="Path 18" d="M249,281.85a1.815,1.815,0,1,0,1.82-1.47,1.667,1.667,0,0,0-1.82,1.47" transform="translate(-195.913 -249.759)" fill="#004a90"/>
    <path id="Path_19" data-name="Path 19" d="M122.221,387.784a1.812,1.812,0,1,1-1.787-1.5,1.664,1.664,0,0,1,1.787,1.5" transform="translate(-113.6 -316.634)" fill="#004a90"/>
    <path id="Path_20" data-name="Path 20" d="M299.929,281.837a1.647,1.647,0,0,0,1.754,1.529,1.679,1.679,0,0,0,1.82-1.474,1.653,1.653,0,0,0-1.754-1.533,1.682,1.682,0,0,0-1.82,1.474" transform="translate(-228.074 -249.747)" fill="#004a90"/>
    <path id="Path_21" data-name="Path 21" d="M303.5,241.914a1.814,1.814,0,1,1-1.787-1.5,1.664,1.664,0,0,1,1.787,1.5" transform="translate(-228.075 -224.52)" fill="#004a90"/>
    <path id="Path_22" data-name="Path 22" d="M278.315,262.584a1.814,1.814,0,1,1-1.787-1.5,1.664,1.664,0,0,1,1.787,1.5" transform="translate(-212.168 -237.572)" fill="#004a90"/>
    <path id="Path_23" data-name="Path 23" d="M289.126,246.91a3.317,3.317,0,0,1-2.782,2.609,25.365,25.365,0,0,0-3.722.542c-.988.295-1.08.254-1.662.737a2.834,2.834,0,0,0-.807,1.065l-.162.317.737.265a4.842,4.842,0,0,1,.689-1.106c.295-.265.461-.369,1.621-.56a23.785,23.785,0,0,0,4.518-.737,3.111,3.111,0,0,0,2.045-1.9c.262-.9.431-1.522.431-1.522l-.91-.162Z" transform="translate(-215.483 -228.34)" fill="#004a90"/>
    <path id="Path_24" data-name="Path 24" d="M262.156,266.032a3.317,3.317,0,0,1-2.782,2.605,25.088,25.088,0,0,0-3.718.545c-.984.295-1.083.251-1.662.719a2.867,2.867,0,0,0-.811,1.065l-.162.317.737.265a4.9,4.9,0,0,1,.693-1.106c.291-.265.457-.369,1.618-.56a23.784,23.784,0,0,0,4.518-.737,3.126,3.126,0,0,0,2.049-1.9c.265-.9.431-1.526.431-1.526l-.914-.162Z" transform="translate(-198.452 -240.401)" fill="#004a90"/>
    <path id="Path_25" data-name="Path 25" d="M236.162,287.3a3.317,3.317,0,0,1-2.782,2.609,24.757,24.757,0,0,0-3.718.542c-.984.295-1.083.254-1.662.737a2.834,2.834,0,0,0-.807,1.065l-.162.317.737.265a4.982,4.982,0,0,1,.693-1.106c.291-.262.461-.369,1.618-.556a23.494,23.494,0,0,0,4.518-.737,3.135,3.135,0,0,0,2.049-1.9c.265-.9.431-1.526.431-1.526l-.914-.158Z" transform="translate(-182.04 -253.846)" fill="#004a90"/>
    <path id="Path_26" data-name="Path 26" d="M210.106,308.768a3.317,3.317,0,0,1-2.782,2.609,25.257,25.257,0,0,0-3.722.545c-.988.295-1.08.251-1.658.719a2.867,2.867,0,0,0-.811,1.065l-.162.317.737.265a5.071,5.071,0,0,1,.689-1.106c.295-.265.461-.368,1.621-.56a23.787,23.787,0,0,0,4.518-.737,3.131,3.131,0,0,0,2.049-1.9c.265-.9.431-1.522.431-1.522l-.914-.162Z" transform="translate(-165.583 -267.391)" fill="#004a90"/>
    <path id="Path_27" data-name="Path 27" d="M183.636,329.166a3.317,3.317,0,0,1-2.782,2.605,25.257,25.257,0,0,0-3.722.545c-.988.295-1.08.254-1.658.737a2.867,2.867,0,0,0-.811,1.065l-.162.317.737.265a5.07,5.07,0,0,1,.689-1.106c.295-.262.461-.368,1.621-.556a23.5,23.5,0,0,0,4.518-.737,3.126,3.126,0,0,0,2.049-1.9c.265-.9.431-1.526.431-1.526l-.914-.158Z" transform="translate(-148.868 -280.286)" fill="#004a90"/>
    <path id="Path_28" data-name="Path 28" d="M157.6,350.57a3.317,3.317,0,0,1-2.782,2.609,25.27,25.27,0,0,0-3.722.545c-.988.295-1.08.251-1.662.737a2.882,2.882,0,0,0-.807,1.065l-.162.321.737.262a5.071,5.071,0,0,1,.689-1.106c.295-.265.461-.368,1.621-.56a23.5,23.5,0,0,0,4.518-.737,3.143,3.143,0,0,0,2.049-1.9c.265-.9.427-1.526.427-1.526l-.91-.162Z" transform="translate(-132.424 -293.799)" fill="#004a90"/>
    <path id="Path_29" data-name="Path 29" d="M131.2,372.53a3.317,3.317,0,0,1-2.782,2.605,25.257,25.257,0,0,0-3.722.545c-.988.295-1.08.254-1.662.737a2.838,2.838,0,0,0-.807,1.061l-.162.321.737.262a4.927,4.927,0,0,1,.689-1.106c.295-.262.461-.368,1.618-.556a23.578,23.578,0,0,0,4.522-.737,3.126,3.126,0,0,0,2.049-1.9c.265-.9.427-1.526.427-1.526l-.91-.158Z" transform="translate(-115.753 -307.667)" fill="#004a90"/>
    <path id="Path_30" data-name="Path 30" d="M261.8,308.23a3.317,3.317,0,0,1-2.782,2.605,25.088,25.088,0,0,0-3.718.545c-.984.295-1.083.251-1.662.737a2.838,2.838,0,0,0-.811,1.065l-.162.317.737.265a4.983,4.983,0,0,1,.693-1.106c.291-.265.457-.369,1.618-.556a23.5,23.5,0,0,0,4.518-.737,3.126,3.126,0,0,0,2.049-1.9c.265-.9.431-1.526.431-1.526l-.914-.162Z" transform="translate(-198.225 -267.063)" fill="#004a90"/>
    <path id="Path_31" data-name="Path 31" d="M235.746,329.766a3.317,3.317,0,0,1-2.782,2.609,24.918,24.918,0,0,0-3.722.542c-.988.295-1.08.254-1.662.737a2.834,2.834,0,0,0-.807,1.065l-.162.317.737.265a4.927,4.927,0,0,1,.689-1.106c.295-.262.461-.368,1.621-.556a23.5,23.5,0,0,0,4.518-.737,3.111,3.111,0,0,0,2.045-1.9c.262-.9.431-1.526.431-1.526l-.91-.158Z" transform="translate(-181.775 -280.665)" fill="#004a90"/>
    <path id="Path_32" data-name="Path 32" d="M209.276,350.7a3.317,3.317,0,0,1-2.782,2.613,24.925,24.925,0,0,0-3.722.542c-.988.295-1.08.251-1.662.737a2.83,2.83,0,0,0-.807,1.069l-.162.317.737.265a4.928,4.928,0,0,1,.689-1.106c.295-.265.461-.368,1.621-.556a23.494,23.494,0,0,0,4.518-.737,3.111,3.111,0,0,0,2.045-1.9c.262-.9.431-1.526.431-1.526l-.91-.162Z" transform="translate(-165.059 -293.888)" fill="#004a90"/>
    <path id="Path_33" data-name="Path 33" d="M183.236,371.5a3.317,3.317,0,0,1-2.786,2.609,24.666,24.666,0,0,0-3.718.545c-.988.295-1.08.251-1.662.719a2.834,2.834,0,0,0-.807,1.065l-.162.317.737.265a5.068,5.068,0,0,1,.693-1.106c.295-.262.461-.368,1.621-.556a23.5,23.5,0,0,0,4.518-.737,3.116,3.116,0,0,0,2.045-1.9c.262-.9.431-1.522.431-1.522l-.91-.162Z" transform="translate(-148.615 -307.01)" fill="#004a90"/>
    <path id="Path_34" data-name="Path 34" d="M289.352,287.3a3.317,3.317,0,0,1-2.782,2.609,24.843,24.843,0,0,0-3.718.542c-.984.295-1.08.254-1.662.737a2.834,2.834,0,0,0-.807,1.065l-.162.317.737.265a4.927,4.927,0,0,1,.689-1.106c.295-.262.461-.369,1.618-.556a23.579,23.579,0,0,0,4.522-.737,3.111,3.111,0,0,0,2.045-1.9c.262-.9.431-1.526.431-1.526l-.91-.158Z" transform="translate(-215.628 -253.846)" fill="#004a90"/>
    <path id="Path_35" data-name="Path 35" d="M288.586,329.166a3.317,3.317,0,0,1-2.782,2.605,25.086,25.086,0,0,0-3.718.545c-.984.295-1.083.254-1.662.737a2.867,2.867,0,0,0-.811,1.065l-.162.317.737.265a5.07,5.07,0,0,1,.689-1.106c.295-.262.461-.369,1.621-.556a23.45,23.45,0,0,0,4.518-.737,3.135,3.135,0,0,0,2.049-1.9c.265-.9.427-1.526.427-1.526l-.91-.158Z" transform="translate(-215.142 -280.286)" fill="#004a90"/>
    <path id="Path_36" data-name="Path 36" d="M262.666,349.516a3.317,3.317,0,0,1-2.782,2.609,25.452,25.452,0,0,0-3.722.542c-.988.295-1.08.254-1.658.737a2.867,2.867,0,0,0-.811,1.065l-.162.317.737.265a5.071,5.071,0,0,1,.689-1.106c.295-.262.461-.35,1.621-.557s3.424-.258,4.518-.737a3.126,3.126,0,0,0,2.049-1.9c.265-.9.431-1.522.431-1.522l-.914-.162Z" transform="translate(-198.774 -293.136)" fill="#004a90"/>
    <path id="Path_37" data-name="Path 37" d="M236.886,371.995a3.317,3.317,0,0,1-2.782,2.613,24.925,24.925,0,0,0-3.722.542c-.988.295-1.08.251-1.662.719a2.83,2.83,0,0,0-.807,1.069l-.162.317.737.265a5.129,5.129,0,0,1,.693-1.106c.295-.265.461-.368,1.621-.556a23.5,23.5,0,0,0,4.518-.737,3.126,3.126,0,0,0,2.049-1.9c.265-.9.424-1.5.424-1.5l-.91-.162Z" transform="translate(-182.495 -307.339)" fill="#004a90"/>
    <path id="Path_38" data-name="Path 38" d="M202.018,329.738a3.365,3.365,0,0,0,2.731,2.749,26.189,26.189,0,0,1,3.788.708c1,.339,1.106.3,1.669.8a2.871,2.871,0,0,1,.785,1.106l.151.328-.763.24a5,5,0,0,0-.663-1.146c-.291-.28-.457-.369-1.633-.634s-3.5-.4-4.6-.921a3.161,3.161,0,0,1-2.016-2.008c-.236-.921-.369-1.562-.369-1.562l.94-.125Z" transform="translate(-165.666 -280.633)" fill="#004a90"/>
    <path id="Path_39" data-name="Path 39" d="M227.95,348.587a3.365,3.365,0,0,0,2.738,2.76,25.992,25.992,0,0,1,3.785.708c.995.339,1.106.3,1.669.8a2.823,2.823,0,0,1,.785,1.106l.155.328-.767.24a4.95,4.95,0,0,0-.66-1.146c-.291-.28-.457-.369-1.633-.634s-3.5-.405-4.6-.921a3.144,3.144,0,0,1-2.016-2.008c-.232-.921-.369-1.562-.369-1.562l.94-.125Z" transform="translate(-182.046 -292.543)" fill="#004a90"/>
    <path id="Path_40" data-name="Path 40" d="M254.8,371.354a3.365,3.365,0,0,0,2.738,2.76,26.174,26.174,0,0,1,3.785.7c.995.335,1.106.3,1.673.8a2.882,2.882,0,0,1,.781,1.106l.155.328-.763.236a5.083,5.083,0,0,0-.663-1.146c-.291-.28-.457-.369-1.636-.634s-3.494-.4-4.6-.921a3.152,3.152,0,0,1-2.016-2.008c-.232-.921-.369-1.563-.369-1.563l.936-.125Z" transform="translate(-199.001 -306.915)" fill="#004a90"/>
    <path id="Path_41" data-name="Path 41" d="M228.447,308.951a3.365,3.365,0,0,0,2.742,2.76,26.728,26.728,0,0,1,3.785.7c.995.335,1.106.306,1.669.8a2.867,2.867,0,0,1,.785,1.106l.155.328-.767.24a5.159,5.159,0,0,0-.66-1.15c-.291-.276-.461-.369-1.636-.634s-3.5-.4-4.6-.921a3.156,3.156,0,0,1-2.016-2c-.232-.921-.369-1.563-.369-1.563l.94-.125Z" transform="translate(-182.362 -267.511)" fill="#004a90"/>
    <path id="Path_42" data-name="Path 42" d="M253.6,329.157a3.365,3.365,0,0,0,2.738,2.76,26.934,26.934,0,0,1,3.788.7c1,.335,1.106.306,1.669.8a2.871,2.871,0,0,1,.785,1.106l.151.328-.763.24a5,5,0,0,0-.663-1.146c-.287-.28-.457-.368-1.636-.634s-3.494-.405-4.592-.921a3.168,3.168,0,0,1-2.019-2.008c-.236-.921-.369-1.563-.369-1.563l.94-.125Z" transform="translate(-198.244 -280.273)" fill="#004a90"/>
    <path id="Path_43" data-name="Path 43" d="M281.18,350.554a3.357,3.357,0,0,0,2.738,2.757,26.938,26.938,0,0,1,3.788.7c1,.335,1.106.306,1.669.8a2.867,2.867,0,0,1,.785,1.106l.151.328-.763.236a5,5,0,0,0-.663-1.146c-.291-.28-.457-.368-1.633-.634s-3.5-.4-4.6-.921a3.161,3.161,0,0,1-2.016-2.008c-.236-.921-.368-1.562-.368-1.562l.94-.125Z" transform="translate(-215.66 -293.781)" fill="#004a90"/>
    <path id="Path_44" data-name="Path 44" d="M289.132,371.948a3.317,3.317,0,0,1-2.782,2.609,24.84,24.84,0,0,0-3.722.542c-.988.295-1.08.251-1.662.719a2.83,2.83,0,0,0-.807,1.069L280,377.2l.737.265a4.928,4.928,0,0,1,.689-1.106c.295-.265.461-.368,1.621-.556a23.5,23.5,0,0,0,4.518-.737,3.111,3.111,0,0,0,2.045-1.9c.262-.9.431-1.526.431-1.526l-.91-.162Z" transform="translate(-215.49 -307.288)" fill="#004a90"/>
    <path id="Path_45" data-name="Path 45" d="M300.14,367.007a1.811,1.811,0,1,1,1.784,1.507,1.661,1.661,0,0,1-1.784-1.507" transform="translate(-228.208 -303.512)" fill="#004a90"/>
    <path id="Path_46" data-name="Path 46" d="M276.29,387.777a1.813,1.813,0,1,1,1.787,1.507,1.665,1.665,0,0,1-1.787-1.507" transform="translate(-213.147 -316.628)" fill="#004a90"/>
    <path id="Path_47" data-name="Path 47" d="M199.691,365.731a1.791,1.791,0,1,0-1.817,1.592,1.7,1.7,0,0,0,1.817-1.592" transform="translate(-162.521 -302.401)" fill="#004a90"/>
    <path id="Path_48" data-name="Path 48" d="M249.3,366.474a1.813,1.813,0,1,1,1.787,1.507,1.664,1.664,0,0,1-1.787-1.507" transform="translate(-196.103 -303.177)" fill="#004a90"/>
    <path id="Path_49" data-name="Path 49" d="M252.064,324.2a1.661,1.661,0,0,0-1.754-1.566,1.686,1.686,0,0,0-1.82,1.507,1.663,1.663,0,0,0,1.754,1.566,1.688,1.688,0,0,0,1.82-1.507" transform="translate(-195.591 -276.44)" fill="#004a90"/>
    <path id="Path_50" data-name="Path 50" d="M202.03,371.354a3.365,3.365,0,0,0,2.738,2.76,26.379,26.379,0,0,1,3.788.7c1,.335,1.106.3,1.669.8a2.867,2.867,0,0,1,.785,1.106l.151.328-.763.236a5.082,5.082,0,0,0-.663-1.146c-.291-.28-.457-.369-1.633-.634s-3.5-.4-4.6-.918a3.189,3.189,0,0,1-2.016-2.012c-.236-.907-.369-1.562-.369-1.562l.94-.125Z" transform="translate(-165.678 -306.915)" fill="#004a90"/>
    <path id="Path_51" data-name="Path 51" d="M176.53,349.507a3.364,3.364,0,0,0,2.738,2.76,26.938,26.938,0,0,1,3.788.7c1,.335,1.106.306,1.666.8a2.9,2.9,0,0,1,.789,1.106l.151.328-.767.24a4.949,4.949,0,0,0-.66-1.146c-.291-.28-.457-.369-1.636-.634s-3.494-.405-4.6-.921a3.153,3.153,0,0,1-2.016-2.008c-.236-.921-.369-1.563-.369-1.563l.94-.125Z" transform="translate(-149.575 -293.124)" fill="#004a90"/>
    <path id="Path_52" data-name="Path 52" d="M149.418,371.4a3.365,3.365,0,0,0,2.738,2.76,26.153,26.153,0,0,1,3.788.7c.995.335,1.106.3,1.669.8a2.867,2.867,0,0,1,.785,1.106l.155.328-.767.236a5.158,5.158,0,0,0-.66-1.146c-.291-.28-.461-.369-1.636-.634s-3.5-.394-4.577-.892a3.192,3.192,0,0,1-2.016-2.012c-.232-.907-.369-1.562-.369-1.562l.94-.125Z" transform="translate(-132.468 -306.96)" fill="#004a90"/>
    <path id="Path_53" data-name="Path 53" d="M253.94,286.2a3.365,3.365,0,0,0,2.742,2.76,26.284,26.284,0,0,1,3.785.7c.995.335,1.106.3,1.669.8a2.867,2.867,0,0,1,.785,1.106l.151.328-.763.236a5.006,5.006,0,0,0-.663-1.142c-.287-.284-.457-.368-1.633-.638s-3.5-.4-4.6-.921a3.168,3.168,0,0,1-2.019-2.008c-.236-.925-.369-1.563-.369-1.563l.94-.125Z" transform="translate(-198.458 -253.145)" fill="#004a90"/>
    <path id="Path_54" data-name="Path 54" d="M280.377,307.654a3.372,3.372,0,0,0,2.742,2.76,26.728,26.728,0,0,1,3.785.7c.995.335,1.106.3,1.669.8a2.867,2.867,0,0,1,.785,1.106l.155.328-.767.24a5.029,5.029,0,0,0-.66-1.15c-.291-.276-.457-.368-1.636-.634s-3.5-.4-4.6-.918a3.153,3.153,0,0,1-2.016-2.008c-.232-.921-.368-1.566-.368-1.566l.94-.125Z" transform="translate(-215.155 -266.69)" fill="#004a90"/>
    <path id="Path_55" data-name="Path 55" d="M280.377,266.054a3.365,3.365,0,0,0,2.742,2.757,25.983,25.983,0,0,1,3.785.708c.995.339,1.106.3,1.669.8a2.867,2.867,0,0,1,.785,1.106l.155.328-.767.236a4.95,4.95,0,0,0-.66-1.146c-.291-.28-.457-.369-1.636-.634s-3.5-.4-4.6-.921a3.153,3.153,0,0,1-2.016-2.008c-.232-.925-.368-1.562-.368-1.562l.94-.125Z" transform="translate(-215.155 -240.42)" fill="#004a90"/>
    <path id="Path_56" data-name="Path 56" d="M249.075,29.941h-9.394v7.322h10.5V41H235.13V16.07h14.5v3.737h-9.946v6.434h9.394Z" transform="translate(-148.468 -10.148)" fill="#004a90"/>
    <path id="Path_57" data-name="Path 57" d="M404.937,246.834c0,3.774-.778,6.471-2.664,8.174a10.165,10.165,0,0,1-6.95,2.189,12.751,12.751,0,0,1-6.291-1.445l1-3.438a10.872,10.872,0,0,0,5.251,1.367c2.948,0,5.178-1.551,5.178-5.436v-1.551h-.07a6.1,6.1,0,0,1-5.255,2.661c-4.474,0-7.654-3.685-7.654-8.8,0-5.918,3.844-9.5,8.174-9.5a5.674,5.674,0,0,1,5.215,2.808h.074l.184-2.4h3.958c-.077,1.22-.147,2.7-.147,5.178Zm-4.547-8.174a4.422,4.422,0,0,0-.151-1.22,3.772,3.772,0,0,0-3.685-2.922c-2.554,0-4.441,2.211-4.441,5.9,0,3.07,1.551,5.546,4.422,5.546a3.88,3.88,0,0,0,3.667-2.768,7.841,7.841,0,0,0,.188-1.625Z" transform="translate(-283.361 -218.609)" fill="#004a90"/>
    <path id="Path_58" data-name="Path 58" d="M449.347,241.687c.111,3.254,2.661,4.658,5.546,4.658a13.558,13.558,0,0,0,4.99-.811l.667,3.143a16.952,16.952,0,0,1-6.287,1.146c-5.845,0-9.283-3.626-9.283-9.136,0-4.993,3.033-9.688,8.8-9.688,5.878,0,7.765,4.791,7.765,8.763a11.225,11.225,0,0,1-.147,1.924Zm7.912-3.18c.037-1.666-.7-4.4-3.733-4.4-2.812,0-4,2.55-4.179,4.4Z" transform="translate(-319.672 -218.577)" fill="#004a90"/>
    <path id="Path_59" data-name="Path 59" d="M499.627,237.243c0-2.443-.037-4.179-.147-5.808h3.958l.144,3.438h.147a5.372,5.372,0,0,1,4.923-3.844,4.82,4.82,0,0,1,1.072.111v4.3a6.38,6.38,0,0,0-1.334-.147,3.983,3.983,0,0,0-4.054,3.438,7.531,7.531,0,0,0-.151,1.408v9.305h-4.559Z" transform="translate(-354.087 -218.596)" fill="#004a90"/>
    <path id="Path_60" data-name="Path 60" d="M533.5,245.264a10.131,10.131,0,0,0,4.621,1.293c2,0,2.889-.811,2.889-2s-.737-1.843-2.948-2.624c-3.516-1.22-5-3.143-4.957-5.251,0-3.18,2.628-5.657,6.807-5.657a10.543,10.543,0,0,1,4.769,1.072l-.888,3.217a8.052,8.052,0,0,0-3.81-1.036c-1.629,0-2.513.778-2.513,1.887s.851,1.7,3.143,2.513c3.254,1.183,4.769,2.849,4.809,5.509,0,3.254-2.554,5.66-7.322,5.66a11.586,11.586,0,0,1-5.476-1.3Z" transform="translate(-375.015 -218.595)" fill="#004a90"/>
    <path id="Path_61" data-name="Path 61" d="M593.475,244.741c0,2.145.074,3.921.144,5.4h-3.991l-.221-2.734h-.063a6.512,6.512,0,0,1-5.767,3.143c-3.291,0-6.287-1.961-6.287-7.842V232.13h4.547v9.8c0,3,.962,4.92,3.368,4.92a3.833,3.833,0,0,0,3.475-2.44,4.139,4.139,0,0,0,.262-1.4V232.13h4.547Z" transform="translate(-403.223 -219.291)" fill="#004a90"/>
    <path id="Path_62" data-name="Path 62" d="M634.3,236.8c0-2.071-.037-3.81-.147-5.362h4l.225,2.7h.111a6.481,6.481,0,0,1,5.73-3.107c3.147,0,6.4,2.034,6.4,7.739v10.687h-4.559V239.277c0-2.58-.958-4.551-3.438-4.551a3.814,3.814,0,0,0-3.549,2.664,4.538,4.538,0,0,0-.184,1.474v10.58H634.3Z" transform="translate(-439.129 -218.596)" fill="#004a90"/>
    <path id="Path_63" data-name="Path 63" d="M706.606,209.731v21.19c0,1.843.074,3.847.151,5.067H702.7l-.188-2.845h-.074a6.487,6.487,0,0,1-5.878,3.254c-4.293,0-7.695-3.663-7.695-9.213-.048-6.025,3.733-9.622,8.048-9.622a5.734,5.734,0,0,1,5.067,2.366h.077V209.72Zm-4.544,15.754a6.416,6.416,0,0,0-.111-1.183,3.991,3.991,0,0,0-3.925-3.217c-2.919,0-4.548,2.58-4.548,5.955,0,3.291,1.629,5.694,4.514,5.694a4.013,4.013,0,0,0,3.921-3.217,5.079,5.079,0,0,0,.147-1.33Z" transform="translate(-473.683 -205.139)" fill="#004a90"/>
    <path id="Path_64" data-name="Path 64" d="M353.346,323.292a15.927,15.927,0,0,1-5.159.9,8.571,8.571,0,0,1-6.265-2.141,7.948,7.948,0,0,1-2.233-5.9c0-5.067,3.615-8.325,8.918-8.325a10.62,10.62,0,0,1,4.256.763l-.641,2.355a8.608,8.608,0,0,0-3.641-.689c-3.424,0-5.826,2.019-5.826,5.753,0,3.641,2.237,5.8,5.565,5.8a5.594,5.594,0,0,0,2.211-.335v-4.009H347.7v-2.307h5.66Z" transform="translate(-253.182 -267.093)" fill="#004a90"/>
    <path id="Path_65" data-name="Path 65" d="M384.566,323.645c0-1.566-.026-2.686-.1-3.733h2.546l.092,2.211h.1a3.457,3.457,0,0,1,3.166-2.473,3.062,3.062,0,0,1,.689.074v2.757a4.332,4.332,0,0,0-.859-.1,2.58,2.58,0,0,0-2.613,2.211,4.92,4.92,0,0,0-.1.9v5.992h-2.926Z" transform="translate(-281.461 -274.558)" fill="#004a90"/>
    <path id="Path_66" data-name="Path 66" d="M416.875,325.594a5.737,5.737,0,0,1-5.944,6.162,5.6,5.6,0,0,1-5.8-5.97c0-3.8,2.495-6.136,5.992-6.136s5.753,2.425,5.753,5.944m-8.726.122c0,2.233,1.106,3.925,2.878,3.925,1.662,0,2.83-1.64,2.83-3.973,0-1.809-.807-3.877-2.808-3.877-2.067,0-2.9,2-2.9,3.925" transform="translate(-294.507 -274.558)" fill="#004a90"/>
    <path id="Path_67" data-name="Path 67" d="M453.75,328.452c0,1.378.044,2.521.1,3.471h-2.58l-.144-1.762h-.048a4.19,4.19,0,0,1-3.711,2.023c-2.115,0-4.054-1.26-4.054-5.041v-6.8h2.926v6.305c0,1.924.619,3.162,2.167,3.162a2.465,2.465,0,0,0,2.233-1.57,2.738,2.738,0,0,0,.166-.907v-7h2.926Z" transform="translate(-318.617 -274.988)" fill="#004a90"/>
    <path id="Path_68" data-name="Path 68" d="M480.046,323.759c0-1.522-.048-2.76-.1-3.855h2.58l.144,1.784h.048a4.507,4.507,0,0,1,3.969-2.045c2.664,0,4.875,2.285,4.875,5.9,0,4.183-2.639,6.206-5.277,6.206a3.81,3.81,0,0,1-3.261-1.548h-.044v5.992h-2.926Zm2.926,2.874a3.074,3.074,0,0,0,.092.811,2.646,2.646,0,0,0,2.58,2.045c1.843,0,2.948-1.548,2.948-3.829,0-2.045-1-3.711-2.882-3.711a2.731,2.731,0,0,0-2.613,2.163,2.58,2.58,0,0,0-.118.737Z" transform="translate(-341.754 -274.551)" fill="#004a90"/>
  </g>
</svg>