<svg version="1.1" xmlns="http://www.w3.org/2000/svg" xmlns:xlink="http://www.w3.org/1999/xlink" x="0px" y="0px" viewBox="0 0 282.8 147.3" style="enable-background:new 0 0 282.8 147.3;" xml:space="preserve" width="282.8"  height="147.3" >
<style type="text/css">
	.st0{display:none;}
	.st1{display:inline;}
	.st2{fill:#FBB715;}
	.st3{display:inline;fill:#FBB715;}
	.st4{display:inline;opacity:0.38;fill:#303030;}
	.st5{display:inline;fill:#303030;}
	.st6{display:inline;opacity:0.38;fill:none;}
	.st7{fill:#303030;}
	.st8{clip-path:url(#SVGID_2_);}
	.st9{fill:none;}
	.st10{opacity:8.000000e-002;}
	.st11{fill:#424143;}
	.st12{fill:none;stroke:#303030;stroke-miterlimit:10;}
	.st13{fill:#FFFFFF;}
	.st14{fill:#058775;}
	.st15{fill:#231F20;}
	.st16{fill:none;stroke:#058775;stroke-width:4;stroke-miterlimit:10;}
	.st17{fill:none;stroke:#058775;stroke-miterlimit:10;}
	.st18{opacity:0.75;fill:#303030;}
	.st19{opacity:0.37;fill:#303030;}
	.st20{fill:none;stroke:#FBB715;stroke-miterlimit:10;}
	.st21{fill:none;stroke:#303030;stroke-width:1.5;stroke-linecap:round;stroke-linejoin:round;stroke-miterlimit:10;}
	.st22{fill:none;stroke:#303030;stroke-linecap:round;stroke-linejoin:round;stroke-miterlimit:10;}
	.st23{fill:none;stroke:#303030;stroke-width:0.7;stroke-miterlimit:10;}
	.st24{fill:#FBB615;}
	.st25{fill:#F9B517;}
	.st26{opacity:0.23;fill:#FBB715;}
	.st27{opacity:0.32;}
	.st28{opacity:0.31;}
	.st29{clip-path:url(#SVGID_4_);}
	.st30{fill:#FCB717;}
	.st31{clip-path:url(#SVGID_6_);fill:#FBB715;}
	.st32{clip-path:url(#SVGID_8_);}
	.st33{fill:none;stroke:#FFFFFF;stroke-miterlimit:10;}
	.st34{clip-path:url(#SVGID_10_);}
	.st35{fill:none;stroke:#FBB615;stroke-miterlimit:10;}
	.st36{clip-path:url(#SVGID_12_);}
	.st37{display:inline;fill:none;stroke:#010101;stroke-width:0.2;stroke-miterlimit:10;}
	.st38{display:inline;fill:#F78C1F;}
	.st39{fill:none;stroke:#010101;stroke-width:0.2;stroke-miterlimit:10;}
	.st40{display:inline;fill:#ED2224;}
</style>
<g id="original" class="st0">
</g>
<g id="Layer_1">
	<g>
		<path class="st2" d="M88.9,39.9c3-0.3,6.5,0,9.5,0.5c0.2,0.1,0.3,0,0.3-0.2c-1.3-4-6-1.3-9-1.7c-0.1,0-0.1,0-0.2,0    c-2.1,0.4-4.3,0.8-6.1,2c0.6,1.5,2.4-0.1,3.8-0.1c0.1,0,0.2,0,0.4,0C87.8,40.2,88.4,40.1,88.9,39.9"/>
		<path class="st2" d="M82.9,37.8C82.9,37.8,82.9,37.8,82.9,37.8"/>
		<path class="st2" d="M83,37.7C83,37.8,82.9,37.8,83,37.7C82.9,37.8,83,37.8,83,37.7"/>
		<path class="st2" d="M83.1,37.7C83.1,37.7,83.1,37.7,83.1,37.7C83.1,37.7,83.1,37.7,83.1,37.7"/>
		<path class="st2" d="M83,37.7C83,37.7,83,37.7,83,37.7C83,37.7,83,37.7,83,37.7"/>
		<path class="st2" d="M83.1,37.7C83.1,37.7,83.1,37.7,83.1,37.7C83.1,37.7,83.1,37.7,83.1,37.7"/>
		<path class="st2" d="M83,37.7C83,37.8,82.9,37.8,83,37.7C82.9,37.8,83,37.8,83,37.7"/>
		<path class="st2" d="M88.7,28.5c-0.7,0.3-4.5,3.3-5.8,4.3c-0.3,0.2-0.5,0.5-0.7,0.8l-0.5,0.7c-0.2,0.3,0.2,0.3,0.3,0.4    c2.1-1.7,4.3-3.5,6.8-4.5c1.2-1.3,4.8-0.1,3.8-3C91.3,27.5,90,28.2,88.7,28.5"/>
		<path class="st2" d="M92.4,21.8c-4,2-7.9,6-11.1,9.5c-0.3,0.4-0.4,0.7-0.1,0.8c0.8-0.8,9.2-7.7,11.9-9.1    C93.3,22.1,93.2,21.6,92.4,21.8z"/>
		<path class="st2" d="M92.2,24.6l-2.1,0.9c-1.6,0.7-9,6.7-9.2,7.5c0.1,0.3,0.4,0.3,0.7,0.1c0,0,7.6-6.2,10.6-6.9    C92.2,25.7,92.6,25.1,92.2,24.6"/>
		<path class="st2" d="M91.4,31.6c0.1-0.6,0.8-1.1,0.6-1.7c-4,0.9-7.4,3.9-10.3,6.5c-0.1,0.2,0,0.3,0.2,0.3c2.9-1.5,4.8-3.8,8.1-4.4    L91.4,31.6"/>
		<path class="st2" d="M91.4,34.4c0,0-8,3.3-8.6,3.6c-0.5,0.1-0.1,0.9,0.3,1.1c3.3-1.8,6.7-2.8,10.3-3.8    C93.3,34.5,92.2,34.6,91.4,34.4"/>
		<path class="st2" d="M85.3,36c2-1.5,5.9-0.8,6.3-4l-0.8,0.1c-3,1.1-6.1,3.1-8.5,5.3c0.1,0.4,0.5,0.3,0.8,0.3    C83.6,36.9,84.5,36.5,85.3,36"/>
		<path class="st2" d="M92.3,36.6c-3,0.8-6.3,1.4-9,2.8c0.1,0.1,0.1,0.5,0.4,0.4c3.9-1.9,8.6-1.6,12.9-2.4    C95.7,36,93.7,36.3,92.3,36.6"/>
		<path class="st2" d="M76.5,41.2c0,0-0.3,0.7-0.7,0.7c-0.2,0-0.4-0.1-0.5-0.2C75.5,41,76.1,41.2,76.5,41.2"/>
		<path class="st2" d="M80.3,45.5c-0.4,0.1-0.5,0.5-1,0.4c-0.6-1-1.1-2.7-0.3-3.8c0.2-0.3,0.6-0.4,1-0.4L80.3,45.5"/>
		<path class="st2" d="M75.7,43.1c-0.2,0.3-0.8,0.6-1.4,0.4l-0.1-0.1C74.5,42.9,75.2,42.9,75.7,43.1"/>
		<path class="st2" d="M75.8,44.3c-0.2,0.4-0.7-0.1-1.1,0.1C74.8,44.4,75.5,43.7,75.8,44.3"/>
		<path class="st2" d="M75,45.3c0,0.6-1.3,0.5-1.8,0.7L73,45.8C73.5,45.3,74.2,45.2,75,45.3"/>
		<path class="st2" d="M75,46.9c-0.3,0.6-1.2,0.3-1.9,0.5c-0.2,0,0-0.3-0.1-0.4C73.8,47,74.5,46.8,75,46.9"/>
		<path class="st2" d="M132,56.2l0,1.4c-0.3,0.1-0.7,0.2-0.9,0c-0.6-3-1.5-5.8-2.9-8.4c0-0.6,1-0.6,1.2-0.3    C131.1,50.7,131.3,53.7,132,56.2"/>
		<path class="st2" d="M129.3,57.1c-0.3,0.3-0.8,0.2-1.1,0.1c-0.2-2.8-1.1-5.2-1.9-7.8c0-0.2,0.1-0.4,0.4-0.4    C128.4,51.3,129.8,53.9,129.3,57.1"/>
		<path class="st2" d="M126.4,52c0.6,1.6,1.2,3.4,0.9,5c-2.5,0.5-0.5-3-1.5-4.1c-0.3-1.2-0.9-2.2-0.9-3.4    C125.8,49.8,126,51.1,126.4,52"/>
		<path class="st2" d="M88,52.3c-0.5,0.2-0.9,0.2-1.1-0.1c0-1.2-0.3-2.7,0.4-3.5c0.3-0.1,0.5-0.1,0.6,0.1L88,52.3"/>
		<path class="st2" d="M124.1,51.4c0.5,1.7,1,3.4,0.5,5.3c-0.5,0.3-0.9,0.3-1.1,0c0.6-2.4-0.2-4.5-1.2-6.4    C122.8,48.6,124,50.6,124.1,51.4"/>
		<path class="st2" d="M86,51.8c-0.6,0.1-1.3-0.1-1.1-0.8c0.3-0.8,0.2-1.9,1.1-2.2C86.7,49.6,86.1,50.7,86,51.8"/>
		<path class="st2" d="M90,53c-0.1,0.3-0.6,0.1-0.9,0.2c-0.4-1.4-0.3-3.1-0.6-4.4c0.3-0.2,0.6-0.2,0.9,0.1L90,53"/>
		<path class="st2" d="M73.1,48.7l0,0.2c-0.2,0-0.6,0-0.5-0.3C72.8,48.6,73,48.5,73.1,48.7"/>
		<path class="st2" d="M101.4,49.5c0.8,1.7,1.1,3.8,1.4,5.6c-2.4,0.7-1.4-2.3-2-3.5C101,50.9,99.8,49.3,101.4,49.5"/>
		<path class="st2" d="M84.8,49.2c0.2,0.5-0.2,1-0.4,1.4c-0.5,0.4-0.6-0.5-1-0.5C83.4,49.5,84,48.8,84.8,49.2"/>
		<path class="st2" d="M92,53.7c-0.4,0.5-0.7-0.2-1.2-0.1c-0.1-1.3-0.4-3-0.2-4.3C92.5,49.6,91.4,52.3,92,53.7"/>
		<path class="st2" d="M94,54c-0.3,0-0.6,0.2-0.9,0.1c-0.4-1.5-0.9-3.4-0.8-4.7C93.6,50.4,94,52.2,94,54"/>
		<path class="st2" d="M97.8,49.8c0.4,1.6,0.7,3.3,0.7,5c-0.5,0.3-0.9,0.2-1.3,0c-0.2-1.7-0.7-3.6-0.1-5.1    C97.4,49.5,97.6,49.5,97.8,49.8"/>
		<path class="st2" d="M99.5,49.8c0,1.6,0.3,3.6,0.7,5.1c-1.7,0.3-1.2-1.6-1.5-2.5C99.4,51.3,97.3,49.3,99.5,49.8"/>
		<path class="st2" d="M122.2,51.8c0.5,1.4,0.1,3.2,0.1,4.8c-0.5,0.3-0.9,0.3-0.9,0c1-2.1-0.2-4.3-0.6-6.2    C121.7,50.2,122.1,51.1,122.2,51.8"/>
		<path class="st2" d="M96.4,54.6c-0.5,0.5-0.9-0.1-1.2-0.2c0.2-1.6-0.6-3.2-0.3-4.5c0.7-0.2,0.6,0.8,1,1.2L96.4,54.6"/>
		<path class="st2" d="M120.1,50.8c0.5,1.8,0.7,3.7,0.8,5.6c-0.3,0.2-0.8,0.4-1.1,0.2c0-1.9-0.7-3.7-0.7-5.6    C119.4,50.8,119.7,50.7,120.1,50.8"/>
		<path class="st2" d="M157,62.7c-0.4,0.5-1.1-0.1-1.1-0.2c0.6-3.1,0.6-6.8,0-9.9c0-0.5,0.3-0.6,0.7-0.5    C158.5,55.1,157.8,59.2,157,62.7"/>
		<path class="st2" d="M118.2,51.1c0.3,1.7,0.4,3.5,0.4,5.3c-0.1,0.3-0.5,0.1-0.8,0.2l-0.7-5.1C117.3,51,117.8,51,118.2,51.1"/>
		<path class="st2" d="M114.6,56.6c-0.3,0.2-0.5,0.2-0.8,0.1l-0.4-4.9c0.2-0.4,0.6-0.4,1-0.4L114.6,56.6"/>
		<path class="st2" d="M117.1,56.3c-0.4,0.2-0.9,0.4-1.4,0.2c0.1-1.7-0.8-3.5-0.2-5.1c0.3-0.2,0.5-0.2,0.7,0.1L117.1,56.3"/>
		<path class="st2" d="M155,52.9c1.1,2.8,0.1,6.1-0.4,8.9c-0.5,0.1-0.8,0.1-0.9-0.2c0.9-2.7,0.6-5.9,0.9-8.7    C154.7,52.8,154.8,52.8,155,52.9"/>
		<path class="st2" d="M112.6,56.3c-0.1,0.1-0.2,0.4-0.6,0.2l-0.5-4.4c0.3-0.5,0.9-0.2,1.4-0.2L112.6,56.3"/>
		<path class="st2" d="M153.6,53.1c0.5,2.3-0.2,5.4-1.1,7.9c-0.1,0.3-0.4,0.2-0.7,0.2c-0.2,0-0.3-0.1-0.2-0.3    c0.7-2.5,1.3-5.2,1.6-7.8C153.4,52.9,153.5,53,153.6,53.1"/>
		<path class="st2" d="M110.9,52.6c-0.5,1.1,0.7,3.9-0.8,3.9c-1.1,0.2-0.2-2.8,0.2-3.9C110.6,52.3,110.7,52.5,110.9,52.6"/>
		<path class="st2" d="M151.7,53.6c0,2.3-0.5,4.6-1.3,6.6c-0.2,0.3-1,0.1-1,0.1s1.3-4.5,1.7-6.8C151.3,53.3,151.5,53.3,151.7,53.6"/>
		<path class="st2" d="M150,53.8c-0.4,2.2-0.8,4.4-1.8,6.3l-0.6-0.1c0.6-1.9,1.1-4,1.5-6.1C149.3,53.7,149.8,53.5,150,53.8"/>
		<path class="st2" d="M146.6,53.8c-0.4,1.9-0.6,4-1.8,5.4c-0.1,0.1-0.3,0.1-0.3,0c0.3-1.6,1.3-3.2,1.3-5    C145.9,54.1,146.2,53.7,146.6,53.8"/>
		<path class="st2" d="M147.8,54.1c0,1.8-0.2,3.9-1.6,5.4c-0.2,0.1-0.3,0.1-0.4,0c0.6-1.8,1.5-3.6,1.6-5.6    C147.7,53.8,147.9,53.8,147.8,54.1"/>
		<path class="st2" d="M144.8,54.1c-0.5,1.6-0.4,3.7-1.4,5c-0.3,0.1-0.5,0-0.6-0.2l1.2-4.9C144.3,53.7,144.6,53.8,144.8,54.1"/>
		<path class="st2" d="M142.9,54.2c0.1,1.6-0.6,3.2-1.1,4.5c-0.2,0.1-0.3,0.2-0.3,0c0.2-1.3,0.4-3,0.8-4.4    C142.5,54.4,142.6,54.1,142.9,54.2"/>
		<path class="st2" d="M140.5,58.4c-0.3,0.4-0.6,0.4-0.7,0l1-3.7c0.3-0.2,0.4-0.1,0.5,0.2L140.5,58.4"/>
		<path class="st2" d="M139,57.9c-0.2,0-0.4,0.4-0.6,0.1c0.4-0.9-0.7-2.6,0.7-3C139.3,55.7,139.2,57.1,139,57.9"/>
		<polyline class="st2" points="81.2,56.9 81.3,56.9 81.9,57.5 81.9,57.6 81.2,56.9   "/>
		<path class="st2" d="M70.4,58.2c0.1,0.5-0.8,0.7-1.4,0.7c-0.4,0-0.2-0.9,0.1-1.1C69.7,57.7,70.1,57.9,70.4,58.2"/>
		<path class="st2" d="M84.9,59.6c0,0.4-0.2,0.6-0.5,0.7c-1.2-0.2-1.1,2.3-2.5,1.1c-0.3-0.6,0.4-0.9,0.7-1.3c1.6,0.7,0.7-1.4,1.1-2    C84.6,58,84.5,59,84.9,59.6"/>
		<path class="st2" d="M102.4,59.1c0.2,0.7-0.8,0.6-0.6,0L102.4,59.1"/>
		<path class="st2" d="M111.5,59.5c0.1,1.1-1.6,1.6-2.4,2.3c-1-0.5-1.8-1.2-2.9-1c1.1-0.4,2.8,0.5,4-0.3    C110.6,60,110.4,58.8,111.5,59.5"/>
		<path class="st2" d="M126.7,60.3c-0.4,0.9-0.6,1.5-0.7,2.3l-0.1,0c0-0.8-0.5-2.4,0.5-2.7L126.7,60.3"/>
		<path class="st2" d="M132.2,60.7c-1.2,0.7-2.2,1.5-3.6,1.6l0-0.2c1.9,0.6,1.1-1.5,2.6-1.9L132.2,60.7"/>
		<path class="st2" d="M70.5,60.2c-1.5,0.7-1.5,0.4-1.5,0.4s-0.2-1.3-0.1-1.3C69.2,59.3,70.6,59.2,70.5,60.2"/>
		<path class="st2" d="M89.2,60.8c0.1,0.9-0.5,1.3-1.3,1.5c-0.3,0-0.7-0.2-0.5-0.6C88,61.2,88.3,59,89.2,60.8"/>
		<path class="st2" d="M95.4,61.4c-0.5,0.7-1.7,1.1-1.7,2.2l-0.3,0c0.1-0.6-0.4-1-0.9-1.4c0.6,0,0.6-0.7,0.5-0.9    c0.2-0.4,1-0.5,1.4-0.8L95.4,61.4"/>
		<path class="st2" d="M103.1,61l0,0.2l-0.4,0l0-0.3C102.8,61,103,60.9,103.1,61"/>
		<path class="st2" d="M133.3,64.1c-0.1,0-0.3,0.4-0.5,0.2c0.7-0.4-0.3-1.6,0.7-2C134,62.7,133.2,63.4,133.3,64.1"/>
		<path class="st2" d="M86.6,62.1c0,0.5-0.3,0.9-0.7,1.2c-0.5,0-0.7-0.4-0.8-0.9l0.7-1.1C86.3,61.4,86.4,61.7,86.6,62.1"/>
		<path class="st2" d="M75.5,62.5c0,0.4,0,1-0.4,1.2c-1.3-0.2-0.8-1.7-1.2-2.6C74.9,60.7,74.8,62.2,75.5,62.5"/>
		<path class="st2" d="M70.9,61.7c-0.3,0.6-1.6,0.6-1.6,0.6s-0.7-0.4-0.1-1.3C69.3,61,70.9,60.8,70.9,61.7"/>
		<path class="st2" d="M90.9,62.4c0,0.8-0.9,1.1-1.5,1.3c-1-0.5-2.1,1.2-1.9-0.8c0.7-0.5,1.7-0.8,2.5-1.3    C90.3,61.7,90.8,62,90.9,62.4"/>
		<path class="st2" d="M105.6,63.5l-1.2,0.6l-0.1-1.2C104.9,63.1,105.4,63.2,105.6,63.5"/>
		<path class="st2" d="M84.9,62.8c-0.2,0.4,0.4,1.5-0.5,1.3c-0.3,0-0.7-0.3-0.7-0.7C83.6,62.7,84.4,62.8,84.9,62.8"/>
		<path class="st2" d="M71.3,63.2c-0.1,0.7-1.6,0.7-1.6,0.7s-0.7-0.2-0.5-0.7c0-0.7,1.2-0.6,1.2-0.6S71.2,62.6,71.3,63.2"/>
		<path class="st2" d="M112.7,65.3c-1.1,0.4-0.4,2.3-1.8,2.4c-0.1,0.4-0.5,0.8-1,0.8c0.1,0.5-0.2,1-0.7,1.2    c-0.6,0.1-0.9-0.2-1.3-0.5c0.2-0.6,1.1-0.8,1.7-1l1.2-4.1C111.5,63.6,112.5,64.5,112.7,65.3"/>
		<path class="st2" d="M142.2,65.2l-0.6,0l0.1-0.4C141.9,64.9,142.4,64.7,142.2,65.2"/>
		<path class="st2" d="M91.7,63.9c-0.3,0.6,0.1,2-0.9,1.9c-0.7-0.3-0.6-1.5-0.4-2.2C90.8,63.8,91.2,63.5,91.7,63.9"/>
		<path class="st2" d="M99.4,65.4c0.1,0.6-0.2,1-0.7,1.2c0.6,0.1,0.8,0.8,0.5,1.5L99,68.3c0.5,0.3,1.6,0.9,0.6,1.8    c-0.7,0.5-1.1-0.1-1.7-0.1l0.3-1.5L97.5,67l1.1-0.4c-0.8-0.2-0.9-1.1-0.6-2C98.5,63.4,99.7,64.4,99.4,65.4"/>
		<path class="st2" d="M117.6,64.5c-0.5,0.2-1.1,0.7-1.6,0.3l-0.1-0.3C116.5,64.5,117.1,65,117.6,64.5"/>
		<path class="st2" d="M109.7,65.6l-0.4,1.3c-1-0.4-1.7,0.6-2.6,0.4c-0.2,0.3,0,0.8-0.5,0.9c-0.5-0.2-0.1-1.2-0.8-1.4    c0.3-1.3,2.2-0.5,2.6-1.8C108.7,64.4,109.3,65.1,109.7,65.6"/>
		<path class="st2" d="M87.9,65c0,0.4,0,0.7-0.4,0.8c-0.4-0.3-1-0.9-0.7-1.5C87.4,64.1,87.4,64.9,87.9,65"/>
		<path class="st2" d="M102.2,65.8c1.1-0.4,1,1.3,2,0.4c0.2,0.4,0.5,0.9,0.1,1.3c-0.4,0.4-1,0.8-1.6,0.3c-0.8-0.7-0.4-2.6-2.1-1.6    c-0.6,0.1-0.2-0.5-0.5-0.8C100.4,64.6,102.5,64.7,102.2,65.8"/>
		<path class="st2" d="M143.2,66.8c-0.2,0.1-0.5,0-0.7,0.1l0.4-0.7C143.2,66.3,143.3,66.6,143.2,66.8"/>
		<path class="st2" d="M71.9,65c-0.4,0.7-1.4,0.6-2.2,0.5c-0.2-0.3-0.3-0.6-0.3-1C70.3,64.9,71.7,63.6,71.9,65"/>
		<path class="st2" d="M90,65.5c-0.2,0.5-0.3,0.9-0.9,1c-1,0-0.1-0.9-0.4-1.4C89.2,64.7,90.2,64.7,90,65.5"/>
		<path class="st2" d="M121.5,67.5c-0.3,0.6-1.1,0.4-1.5,0.7c-0.3-0.3-0.8-1-0.5-1.7C120.2,65.9,122,66.4,121.5,67.5"/>
		<path class="st2" d="M81.5,65.9c-0.1,0.1-0.3,0.4-0.5,0.4c-0.4-0.1-1-0.9-0.3-1.2C81.1,65.1,81.4,65.5,81.5,65.9"/>
		<path class="st2" d="M142,67.1c-0.3,0.1-1.2,0.2-0.7-0.1L142,67.1"/>
		<path class="st2" d="M94.6,66c-0.1,0.6,0.5,2.1-0.7,2c-0.5-0.1-0.7-0.9-0.7-1.5C93.1,65.7,94.1,66,94.6,66"/>
		<path class="st2" d="M92.1,66.1c-0.3,0.7,0.6,1.9-0.6,1.9c-0.8,0-0.5-0.9-0.5-1.4C90.8,65.9,91.7,66.1,92.1,66.1"/>
		<path class="st2" d="M119.4,68c0.2,1.1-0.9,0.6-1.4,0.8c-0.5-0.1-0.9-0.5-0.9-1.1C117.1,66.4,119.2,67.1,119.4,68"/>
		<path class="st2" d="M79.6,66.9c-0.4,0.3-0.3,1.3-1.1,1.2c-0.5-0.3-0.2-1.2-0.3-1.6C78.9,66.3,79.2,66.8,79.6,66.9"/>
		<polyline class="st2" points="140.2,68.8 139.5,68.7 139.5,68.3 140.2,68.5 140.2,68.8   "/>
		<path class="st2" d="M96.7,68.1c-0.1,0.3-0.3,0.6-0.6,0.7c-0.5,0-1,0-1.2-0.5c0-0.3-0.1-1,0.4-1C95.8,67.3,96.6,67.4,96.7,68.1"/>
		<path class="st2" d="M115.4,68.5c0,0.5-0.6,1.1-1.1,0.8c-0.5,0-1.2,0-1-0.7C113.5,67.4,114.7,68.6,115.4,68.5"/>
		<path class="st2" d="M105.2,69.3c-0.5,0.6-1.2,1.2-2.2,0.9c-0.2-0.3-0.4-0.8-0.2-1.2C103.5,68.2,104.7,68.7,105.2,69.3"/>
		<path class="st2" d="M119.4,70c0.2,0.7-0.4,0.8-0.9,0.8c-0.2-0.1-0.6-0.2-0.6-0.5c0-0.5,0-1,0.4-1.3C118.9,69,119.2,69.5,119.4,70    "/>
		<path class="st2" d="M112.7,69.9c-0.4,0.5-1.2,0.6-1.7,0.2c-0.2-0.3-0.6-0.8-0.2-1C111.6,69.4,113.2,68.2,112.7,69.9"/>
		<path class="st2" d="M117.3,69.8c0.2,0.7-0.6,0.4-0.9,0.7c0.4,0.5,0.5,1.2,0.1,1.6c-1.1,0.4-1-0.9-1.4-1.4    c-0.6,0.2-0.8,0.8-1.5,0.6c0.1-0.6-0.2-1.5,0.6-1.6c0.8,0,0.8,0.8,1.5,0.8c0.3-0.3-0.2-1.4,0.7-1.4C117.1,69,117,69.5,117.3,69.8"/>
		<path class="st2" d="M101.5,70.3c-0.3,0.1-0.4,0.5-0.8,0.4c-0.7-0.6,0.2-1.2,0-1.9C102,68.2,101.4,69.6,101.5,70.3"/>
		<path class="st2" d="M107.8,70c0.1,0.8-0.8,0.6-1.2,0.9c-0.5-0.2-0.5-0.8-0.6-1.3C106.2,68,107.6,69.4,107.8,70"/>
		<path class="st2" d="M144.3,71.2l-0.4,0.5c0.1,0.8,1.6,0.8,0.7,1.8c-0.3,0-0.7,0.3-1,0c-0.1-0.7-0.3-1.4-1.1-1.5    c0.5-0.9-1.3-1.2-0.1-1.8C143.5,70,143.3,71.3,144.3,71.2"/>
		<path class="st2" d="M150.1,73.3c-1.1,0.2-1.9,0.6-3,0.7c-0.2-0.9-1.3-1-1.5-2c0.8-0.2,1.2-0.6,1.6-1.3    C148,71.7,150.6,71.6,150.1,73.3"/>
		<path class="st2" d="M139.5,71.6c-0.7,1.6-1.3-0.5-2.1-0.6l0.1-0.5C138.5,70.5,139.4,70.6,139.5,71.6"/>
		<path class="st2" d="M110.5,70.1c0.1,0.7-0.1,1.2-0.6,1.6c-1,0.2-1-0.8-0.9-1.4l0.1-0.4L110.5,70.1"/>
		<path class="st2" d="M80.3,70.4l0,0.3l0.8,0c0.2,0.6,0.1,1.4-0.5,1.5c-0.8,0.1-0.4-0.8-0.4-1.2c0.1-0.1,0.2-0.1,0.2-0.3    c-0.6,0.3-1.4,0.2-1.7-0.4c-0.3-0.2-0.2-0.8,0.2-0.8C79.7,69.3,79.9,70,80.3,70.4"/>
		<path class="st2" d="M74.3,70c-0.5,0.9-2,0.8-2.8,1.4c-0.4-0.2-0.6-0.9-0.4-1.4c1.1-0.1,2-0.7,3.1-0.5L74.3,70"/>
		<path class="st2" d="M112.4,70.9c0.2,0.8-0.4,1.1-1,1.2l-0.9-0.2C110.7,71.3,111.5,70.2,112.4,70.9"/>
		<path class="st2" d="M137.8,72.1c0.8,0,1.4,0.9,1.7,1.7c-0.6,0.5-1.1-0.1-1.7-0.3c0.2-0.5-0.5-0.7-0.6-1l-1.4,0.3    c-0.1-0.5-0.6-1.3,0.1-1.4C136.8,71.5,136.7,73.1,137.8,72.1"/>
		<path class="st2" d="M119.1,71.9c-0.5,0.6-0.1,1.7-1,2c-0.5-0.3-0.5-1-0.7-1.5c-0.3-0.9,0.9-0.6,1.1-1.1    C119,71.1,119,71.6,119.1,71.9"/>
		<path class="st2" d="M152.4,73.3c0.1,0.6-0.5,0.3-0.7,0.6c-0.3-0.1-1-0.1-0.7-0.7C150.9,72.3,152.5,72.5,152.4,73.3"/>
		<path class="st2" d="M141,73.8c-0.8,0.4-1-0.3-1.2-0.9C140.1,72,141.8,72.7,141,73.8"/>
		<path class="st2" d="M115.4,72.2c0,0.7-0.3,1.2-0.9,1.4l-0.5,0c-0.2-0.5-0.1-1.3,0.3-1.7L115.4,72.2"/>
		<path class="st2" d="M94,72c-0.2,0.4-0.9,0.7-1.4,0.4c-0.4-0.2-0.4-0.9,0-0.9C93.2,71.4,94,71.4,94,72"/>
		<path class="st2" d="M75.6,71.8c-1.1,0.7-2.6,1.3-4,1.1L71.4,72c1.3-0.1,2.3-1.3,3.9-1L75.6,71.8"/>
		<path class="st2" d="M143.1,74c0,0.4,0.1,1.1-0.5,1.1l-1.2-0.6c0-0.5,0.4-1,0.8-1.4C142.8,72.9,143.1,73.6,143.1,74"/>
		<path class="st2" d="M153.3,74.4c-1,0.5-0.2,2.4-1.5,2.3c-0.1-0.8-0.4-1.8,0.5-2.2C152.5,74.2,153.2,73.9,153.3,74.4"/>
		<path class="st2" d="M83.4,74.5c-1,0.4-1-1-1.5-1.5c0.1-0.3,0.2-0.5,0.6-0.7C84.1,72,83,73.7,83.4,74.5"/>
		<path class="st2" d="M76.4,72.2c-0.1,1.9-2.4,2.1-3.8,2.8c-0.6,0-0.4-0.7-0.6-1.1l0-0.4c1.4-0.3,2.8-0.4,3.8-1.3    C76,71.9,76.2,71.9,76.4,72.2"/>
		<path class="st2" d="M96.1,74.5c0,0.7-0.7,0.6-1.2,0.7c-0.4,0.1-0.7-0.1-0.7-0.5C94,73.5,96.5,72.4,96.1,74.5"/>
		<path class="st2" d="M149.4,75.8c-0.1,0.4-0.6,0.3-0.9,0.5c-0.8,0-0.4-0.8-0.7-1.3C148.4,74.5,149.6,74.8,149.4,75.8"/>
		<path class="st2" d="M86.9,74.2c-0.1,0.5-0.5,1-1.1,0.5c-0.4-0.3-0.5-0.8-0.3-1.3C86,73.1,87.1,73.2,86.9,74.2"/>
		<path class="st2" d="M100.1,73.7c-0.1,0.5-0.3,1.2-1,1.5c-0.6,0.1-0.8-0.1-0.9-0.6C98.4,73.9,99.4,73.3,100.1,73.7"/>
		<path class="st2" d="M151.4,75.5c-0.3,0.6,0.3,1.4-0.5,1.7c-0.4,0-0.7-0.3-0.9-0.6C150,75.8,150.6,74.8,151.4,75.5"/>
		<path class="st2" d="M158.8,76.9c-0.5-0.1-1.7,0.2-1.7-0.7l0.4-0.7C158,75.9,159.3,75.9,158.8,76.9"/>
		<path class="st2" d="M77.8,74.1c0,0.6-0.6,0.8-1.3,1.3c-0.4,0.3-1,0.5-1.3,0.7c-0.2,0.1-0.4,0.2-0.6,0.2c-0.7,0-1.7,0.6-1.8-0.2    c1.2-1.2,3.1-1.3,4.3-2.7C77.5,73.5,77.6,73.8,77.8,74.1"/>
		<path class="st2" d="M79.3,75.8c0,0.3-3.6,2.6-5.8,3L73,78l2.1-1.2C76,76.5,78.8,74.2,79.3,75.8"/>
		<path class="st2" d="M104,75.1c-0.2,0.4,0,1.2-0.7,1.2c-0.7-0.2-1.5-0.5-1.7-1.3C102.2,73.7,103.2,75.1,104,75.1"/>
		<path class="st2" d="M154.9,76.9c0,0.4-0.4,0.9-0.8,0.8c-0.5,0-0.7-0.6-0.7-1c0.1-0.4,0.2-0.6,0.6-0.7    C154.6,75.8,154.4,76.6,154.9,76.9"/>
		<path class="st2" d="M156.6,83l0,0.3c-2.3,1-3.6-1-5.1-2.3c-1.9-2.3-4.7-3.6-7.6-4.6C150,74.6,152.2,81,156.6,83"/>
		<path class="st2" d="M107.6,76c-0.2,0.9-1.7,0.6-2.5,0.6c-0.1-0.4-0.1-0.9,0.3-1C106,75,107.3,75,107.6,76"/>
		<path class="st2" d="M160.2,77.4c-0.2,0.4-0.5,0.9-1,0.9c-0.4-0.3-0.3-1.1,0-1.2C159.5,76.9,160.1,77,160.2,77.4"/>
		<path class="st2" d="M87.8,76.7c0.1,0.5-0.3,0.6-0.6,0.7c-0.4-0.4-0.7-1.3-0.7-2C87.4,74.7,87.7,76,87.8,76.7"/>
		<path class="st2" d="M167.2,79.5c-0.5,1.6-2.1,0.1-3.2,0.3c-1-0.6,1-1,0-1.8C165,76.6,166.7,78.5,167.2,79.5"/>
		<path class="st2" d="M181,78.4c0.2,0.5-0.5,0.5-0.8,0.7l-0.3,0C179.8,78.6,180.5,78.3,181,78.4"/>
		<path class="st2" d="M158.3,78.3c-0.2,0.6-0.7,1.2-1.4,1.2c-0.5,0.2-0.8-0.4-0.8-0.7c-0.8,0.5-0.5,1.7-1.7,1.5    c-1,0.1-0.7-1.6-1.8-1c0-0.3-0.9-0.7-0.3-1.2c0.8-0.5,1.3,0.5,1.4,1.1c0.4-0.3,1.7,0,1.3-1.1c0.3-0.1,0.7-0.2,1.1-0.2l0.4,0.8    C156.8,78.2,157.8,77.4,158.3,78.3"/>
		<path class="st2" d="M112.8,77.5c-0.4,0.4-1.4,1.1-2.1,0.5c-0.3,0-0.5-0.3-0.7-0.5C110.4,75.6,111.9,77.4,112.8,77.5"/>
		<path class="st2" d="M109.8,76.8c0.2,0.6-0.5,1-0.5,1.4c-0.6,0.3-1-0.1-1.1-0.7C108.1,76.7,109.1,76.8,109.8,76.8"/>
		<path class="st2" d="M82,78.3c0.1,1.8-2,2.3-3.2,3.5c-0.9,0.4-1.6,1.4-2.5,1.3c-0.3-0.3-0.5-0.5-0.5-0.9c1.1-0.4,1.9-1,2.9-1.8    C79.8,79.6,81.4,78.2,82,78.3"/>
		<path class="st2" d="M80.1,77.2c0.1,0.4-1.2,0.9-1.6,1.2c-0.7,0.4-1.9,1.2-2.2,1.4c-0.1,0-0.1,0.1-0.2,0.1    c-0.4,0.1-1.6,0.3-2.1,0.2c-0.3-0.2,0.2-0.6,0.3-0.6c0.1,0,5.1-2.8,5.1-2.8C79.8,76.5,79.9,76.9,80.1,77.2"/>
		<path class="st2" d="M78.8,78.4c-0.6,0.4-1.8,1.2-2.3,1.6c-0.7,0.6-2.6,0.6-1.2,1.8c1.3-0.2,3.4-1.7,3.4-1.7s2.5-1.8,2.6-2.5    C80.5,76.9,79.7,78.2,78.8,78.4"/>
		<path class="st2" d="M177.1,80.4c0.5,0.5,0.9,1.1,0.8,1.8c-2.1,0.7-2-2.2-4.1-1.7c-0.9,0.2-1.8,0.8-2,1.7    c-0.3,0.9,0.2,1.8,0.7,2.4c0.8,0.7,2,0.9,2.9,0.4c1.4-0.3,0.5-2.9,2.5-1.8c0.1,1.3-0.9,2.5-2,3.1c-0.8,0.6-2.1,0.3-3,0.4    c0.2,0.4,1.1,0.3,0.9,1c-0.6,0.1-1.5,0.2-1.8-0.5c-0.2-0.7,0.6-0.5,0.9-0.6c-0.8-0.4-1.5-1-1.9-1.8l-0.1,0.7    c-0.5,0.3-1.1-0.1-1.5-0.5c0-0.3-0.4-0.9,0-1l0.2-0.2l1.3,1.2c-0.3-1.2-0.4-2.9,0.3-4c0.8-0.8,1.6-1.6,2.8-1.7    C175.3,78.9,176.3,79.7,177.1,80.4"/>
		<path class="st2" d="M91.9,78.1c-0.2,0.3-0.5,0.5-0.8,0.7c-0.7,0-0.8-0.7-1-1.3l0.3-0.6C90.9,77.3,91.7,77.5,91.9,78.1"/>
		<path class="st2" d="M96.4,78.8c-0.1,0.2,0.2,0.4-0.1,0.5c-0.6,0.3-0.9-0.2-1.4-0.3c0-0.4-0.3-1.4,0.3-1.5    C95.9,77.6,96.6,78,96.4,78.8"/>
		<path class="st2" d="M181.7,80.7c-0.2,0.3-0.7,0.1-1,0.2C180.8,80.3,181.5,80.3,181.7,80.7"/>
		<path class="st2" d="M98.6,79.8c-0.2,0.3-0.7,0.2-1,0.1c0-0.6-0.3-1.3,0.2-1.6C98.9,78.1,99,79.1,98.6,79.8"/>
		<path class="st2" d="M157.6,80.9c-0.4,0.3,0.2,1.2-0.5,1c-0.4-0.4-1.8-0.6-1.2-1.5C156.3,79.8,157.3,80.1,157.6,80.9"/>
		<path class="st2" d="M100.8,79.9c-0.1,0.6-0.7,0.4-1.2,0.4c-0.1-0.4-0.3-0.9-0.1-1.3C100.1,78.3,100.9,79,100.8,79.9"/>
		<path class="st2" d="M175.9,82.4c0.4,0.9-0.3,1.8-0.9,2.2c-0.6,0.5-1.4,0.1-1.9-0.3c-0.7-0.6-0.6-1.8-0.3-2.5    C173.5,80.7,175.6,81.2,175.9,82.4"/>
		<path class="st2" d="M166.6,81.9c-0.4,0.3-1.2,0.4-0.9,1.2c-0.5,0.1-1.1-0.4-1.2,0.5c-0.1,0.2-0.3,0-0.5,0.1    c-0.3-1.2,1-1.9,1.9-2.4C166.4,81.2,166.6,81.6,166.6,81.9"/>
		<path class="st2" d="M168,82.3c-0.2,0.4-0.4,1.4-1,1.1c-0.1-0.6,0.2-1.3,0.6-1.8C167.8,81.5,168.1,81.9,168,82.3"/>
		<path class="st2" d="M96.6,81.1c-0.1,0.4-0.4,0.8-0.9,0.6c-0.6-0.5-0.7-1.5-0.4-2C96.2,79.5,96.6,80.3,96.6,81.1"/>
		<path class="st2" d="M186.4,85c-0.2-0.1-0.7,0-0.6-0.3l0.2-0.8C186.2,84.2,186.4,84.6,186.4,85"/>
		<path class="st2" d="M89.4,82.2c-0.3-0.1-0.6-0.6-0.3-1.1C89.4,81.4,89.9,81.7,89.4,82.2"/>
		<path class="st2" d="M163.5,84.6c-0.3,0.3-1,0.3-1.2,0c-0.4-0.6,0.3-0.7,0.5-1C163.5,83.4,163.7,84.1,163.5,84.6"/>
		<path class="st2" d="M153.6,85.1l-0.5,1.8c-2.5,0-3.7-3.4-6.7-2.5l-6.3,2.6c2.1,2.3,5.2,4.5,8.5,5.2c1.7,0,3.1-0.9,4.7-1.1    c0.3,0.3,0.1,0.7,0,0.9c-2.2,0.6-3.7,3-6.2,1.5c-3.7-1.8-6.8-3.9-9.6-6.9c4.4-0.6,8.5-5,13.1-2.3    C151.5,84.5,152.3,85.3,153.6,85.1"/>
		<path class="st2" d="M183.9,85.3l-0.8,0.4l-0.2-1.5C183.7,84.3,183.5,84.9,183.9,85.3"/>
		<path class="st2" d="M189.9,85.2c-0.1,0.3-0.6,0.2-0.9,0.3l0.2-0.7C189.5,84.9,189.8,85,189.9,85.2"/>
		<path class="st2" d="M165,85.6c-0.4,0.4-0.9,0.7-1.3,0.5c-0.3-0.8,0.5-1.3,0.5-2C164.8,84.3,165.4,84.8,165,85.6"/>
		<path class="st2" d="M168.9,86.1c-1.3,0-0.1,1.1-0.7,1.5l-0.9,0c-0.2-0.7,0.5-1,0.2-1.6c0.3-0.2,0.7,0,0.7,0.3    c0.2-0.5-0.4-1.4,0.2-1.8C169,84.7,168.7,85.6,168.9,86.1"/>
		<path class="st2" d="M180.3,86.3c0.3,0.3,0.2,0.9,0.1,1.3c-0.1,0.3-0.7,0.2-0.9,0.1c-0.5-0.7,0.2-1.9-1.3-1.7    c-0.3-0.4,0.2-0.5,0.4-0.7C180.1,84.6,179,86.4,180.3,86.3"/>
		<path class="st2" d="M162.7,86.4c-0.3,0.1-0.6,0.5-0.9,0.1c-0.1-0.6,0.1-1.1,0.6-1.2C162.9,85.3,162.8,86,162.7,86.4"/>
		<path class="st2" d="M188.6,86.5l0,0.3c-0.3,0.2-0.8,0-1.2,0.1c-0.1-0.4,0.3-0.4,0.5-0.6C188.2,86.2,188.5,86.3,188.6,86.5"/>
		<path class="st2" d="M150.1,87.2c-1.2,0.5-2.5-0.9-3.8-1.2c-0.2-0.3-0.5-0.4-0.3-0.8c0.7-0.2,1.5,0,2.1,0.3    C148.9,86,149.9,86.1,150.1,87.2"/>
		<path class="st2" d="M178.3,87c-0.2,0.5-0.7,0.7-0.9,1c0.5,0.1,1.6-0.2,1.4,0.7c0,0.5-0.5,0.7-0.8,0.6c-1.5,0.2,0.3-1.8-1.4-1.6    c0-0.4,0.2-0.9,0.7-1C177.7,86.8,178.2,86.6,178.3,87"/>
		<path class="st2" d="M171.1,87.3c-0.3,0.8-1.4,0.3-2.1,0.4c-0.3-0.2,0-0.4-0.1-0.6C169.6,86.8,170.7,86.6,171.1,87.3"/>
		<path class="st2" d="M165,86.7c0.4,1.3-1.9,1.7-1.2,3.3c-0.3,0.3-0.7,0.1-0.9,0.3C162,88.4,163.9,87.7,165,86.7"/>
		<path class="st2" d="M129.5,86.4c-0.4,0.5-0.2,1.4-0.8,1.7c-0.5-0.1-0.5-0.8-1-0.9C127.8,86.5,129.2,84.9,129.5,86.4"/>
		<path class="st2" d="M152.4,90.1c-0.8,1.2-2.7,1.2-4.2,1.5c-0.5-0.4-1.4-0.2-1.8-1l0.1-0.3c1.5,0.2,3.2,0.1,4.7-0.2    C151.3,90.1,152.4,90,152.4,90.1"/>
		<path class="st2" d="M143.4,88.1c3,0.4,5.9,1.6,9,0.7c0.2,0.7-0.4,0.9-0.9,0.9c0.1,0.2-0.9,0.1-0.9,0.1c-1.8,0.3-3.7-0.9-5.5,0    c-1-0.3-2.2-0.7-2.5-1.8C142.5,88,143.4,88.1,143.4,88.1"/>
		<path class="st2" d="M152.1,87.6l0.2,0.2c-2.6,1.7-5.7-0.9-8.7-0.1c0,0-0.6,0.3-0.7,0.1c-0.2-0.1-0.7-0.2-0.9-0.6    c0.3-0.7,1.3-0.9,2.1-1C147,86.1,149.3,88.3,152.1,87.6"/>
		<path class="st2" d="M131,86.1c-0.3,0.6,0,2.4-1,2.4c-0.6-0.7-0.1-1.6,0.2-2.2C130.3,86,130.7,86.1,131,86.1"/>
		<path class="st2" d="M183.8,89.7c0,0.8-0.7,0.9-1.3,0.6c-0.3-0.5,0.3-1.2-0.5-1.6C182.3,86.5,183.6,88.9,183.8,89.7"/>
		<path class="st2" d="M134,88.5c-0.3,0.4-0.7,0.7-1.2,0.4c0.1-0.6,0.2-1.2,0-1.8c0.5-0.3,1.1-0.6,1.6-0.6L134,88.5"/>
		<path class="st2" d="M162.5,87.9c0.1,1.1-1.3,1.3-1.1,2.4c0,0.2-0.2,0.3-0.4,0.4c-0.4,0.1-0.4-0.3-0.5-0.5c0.5-1-0.3-1.7,0.9-2.2    C161.4,87.3,162.8,86.9,162.5,87.9"/>
		<path class="st2" d="M132,86.5c0.3,0.7,0.1,1.6,0.1,2.3c-0.2,0.2-0.5,0.1-0.8,0.1C131.5,88.2,130.4,86.4,132,86.5"/>
		<path class="st2" d="M167.6,88.6c-0.2,0.7-0.1,1.8-1,1.9c-0.3,0-0.5,0-0.5-0.3c1.4-0.9-1.1-2.4,0.7-2.7L167.6,88.6"/>
		<path class="st2" d="M171.9,88.9c-0.2,0.2-0.7,0.4-1.1,0.2c-0.4-0.4-0.1-1.1,0.1-1.3C171.8,87.6,171.9,88.3,171.9,88.9"/>
		<path class="st2" d="M176.8,89.3c-0.3,0.6-1.1,0.7-1.6,0.6c-0.2-0.5-0.4-1.3,0.2-1.6C176.3,88.1,176.3,88.9,176.8,89.3"/>
		<path class="st2" d="M136.8,89.7c0.3-0.4,1.1-0.5,1.3,0.2c-0.2,0.6,0,1.5-0.5,1.8c-0.4-0.1-0.7-0.1-0.7-0.6l0-0.4    c-0.5-0.2,0,1.1-0.9,0.7c-0.3-1.3-1.4-3.1-0.1-4.2C137.4,87.3,136.5,88.8,136.8,89.7"/>
		<path class="st2" d="M174.5,89.2l0,0.3c-0.6,0.1-1.2-0.2-1.7-0.6c0.1-0.3,0.5-0.5,0.8-0.5C174,88.6,174.6,88.5,174.5,89.2"/>
		<path class="st2" d="M125.6,88.9c0,0.4-0.3,1.3-1,0.9c-0.5-0.6-0.5-1.5-0.3-2.2C125.3,86.4,126.2,88.2,125.6,88.9"/>
		<path class="st2" d="M127.4,90.3l-0.4,0.2c-0.4-0.7-1.1-1.7-0.6-2.6C127.8,87.4,127.3,89.5,127.4,90.3"/>
		<path class="st2" d="M189.8,90.7c-0.6,0.8-1.6-0.5-2.4,0.3c-0.1-0.2-0.1-0.8,0-1C188.4,89.2,189.1,90.2,189.8,90.7"/>
		<path class="st2" d="M195.6,92.7c-0.3,0.1-0.6,0.2-1,0.2c0.2-1.2-1.9-1.8-0.7-2.7C195,90.7,195.3,91.7,195.6,92.7"/>
		<path class="st2" d="M191.8,91.2c0.1,0.8-0.6,1.5-1.4,1c0.1-0.6-0.2-1.4,0.3-1.7C191.3,90.4,191.5,90.9,191.8,91.2"/>
		<path class="st2" d="M135.3,91.9c-0.8,0.4-1.4-0.4-1.5-1c0.2-0.7-0.4-1.8,0.5-1.9l0.6,0.1L135.3,91.9"/>
		<path class="st2" d="M123.2,90.2c0,0.4-0.3,0.9-0.8,0.6c-0.5-0.4-0.9-0.8-1.2-1.3C121.8,88,123.6,88.9,123.2,90.2"/>
		<path class="st2" d="M129.3,89.9c-0.1,0.3-0.2,0.5-0.2,0.9l-0.9-0.2l0.2-1.6C129.2,88.7,129.1,89.5,129.3,89.9"/>
		<path class="st2" d="M193.7,92.7c-0.4,0.2-1.3,0.1-1.1-0.6l0.3-1.2C193.4,91.1,193.8,91.9,193.7,92.7"/>
		<path class="st2" d="M132.9,91.1c-0.7,0.7-0.7-0.5-1.2-0.8c-0.1-0.5,0.3-0.7,0.6-0.8C132.9,89.7,133,90.6,132.9,91.1"/>
		<path class="st2" d="M166.1,91.6c-0.3,0.9-1.5,0.5-1.6,1.7c-0.1,0.1-0.4,0-0.6,0.1c0-0.7-0.7-1.4,0-2.1    C164.9,91.3,166.1,89.5,166.1,91.6"/>
		<path class="st2" d="M162.9,90.5c0.5,0.6-0.2,1.1-0.2,1.8c-0.8,0.4-0.7-0.7-0.9-1.1C161.8,90.6,162.4,90.4,162.9,90.5"/>
		<path class="st2" d="M131.1,91c-0.2,0-0.1,0.2-0.1,0.3c-0.6,0.2-0.6-0.4-0.7-0.7C130.1,89.4,131.5,90.2,131.1,91"/>
		<path class="st2" d="M126.4,91.5c-0.2,0.6,0.4,1.4-0.2,1.7c-1.1-0.2-0.9-1.6-1.1-2.4C125.7,90,126.3,91,126.4,91.5"/>
		<path class="st2" d="M124.8,92.8c-0.3,0.1-0.9,0.1-1-0.2c0.2-0.7-1.1-1.6,0.1-2C124.7,90.9,124.8,92,124.8,92.8"/>
		<path class="st2" d="M142.5,91.8c0.1,0.5,0.1,0.8,0,1.3c-0.9,0.2-1.9,0-2.6-0.5c-0.2-0.6,0.3-1,0.8-1.3    C141.4,91.1,142,91.4,142.5,91.8"/>
		<path class="st2" d="M132.9,94.3c-0.3,0-0.6,0.3-1,0.1c-0.2-0.7-0.4-2.1,0.3-2.6C132.4,92.5,132.8,93.3,132.9,94.3"/>
		<path class="st2" d="M163.6,93.6l0,0.3c-0.3,0.1-0.8,0.1-1.1,0c-0.4-0.3-0.5-1.1,0.1-1.1C163.3,92.6,163.4,93.3,163.6,93.6"/>
		<path class="st2" d="M129.7,93.1c0.2,0.5-0.4,0.5-0.5,0.7c-0.7,0.2-0.4-0.6-0.8-0.8c0.1-0.4-0.1-1,0.3-1.2    C129.4,91.9,129.7,92.5,129.7,93.1"/>
		<path class="st2" d="M134.1,94c-0.1,0.2-0.1,0.5-0.5,0.4c-0.5-0.6-0.3-1.7,0-2.4C134.7,91.8,134.4,93.4,134.1,94"/>
		<path class="st2" d="M155.2,93.2l0,1.4c-0.7,0.4-0.9-0.3-1.3-0.6c0-0.4,0.1-0.8,0.4-1.1C154.6,92.8,155.1,92.7,155.2,93.2"/>
		<path class="st2" d="M153.6,94.3l0,0.9c-0.7,0.2-1.1-0.4-1.3-1c0-0.5,0-0.9,0.4-1.2C153.5,92.8,153.4,93.8,153.6,94.3"/>
		<path class="st2" d="M144.1,92.8c-0.1,0.6,0,1.4,0.6,1.6c0.4-0.1,0.1-0.7,0.6-0.7c0.6,0.1,0.7,1.1,1.3,1.4c-0.3-0.5,0-1.2,0.8-1    c0.8,0,0.4,1,0.9,1.4c-0.7,1.5-1.4-1.1-2.1,0.3c-0.9,0.3-0.9-1.6-1.7-0.4c-0.8-0.6-1.6-1.3-1.1-2.4    C143.7,92.9,143.8,92.7,144.1,92.8"/>
		<path class="st2" d="M135.9,94.3c-0.3,0.1-0.6,0.8-0.9,0.3c0-0.7-0.7-1.3-0.2-1.9C136,92.3,135.5,93.8,135.9,94.3"/>
		<path class="st2" d="M139.8,92.9c-0.2,0.6,0.4,1.5-0.5,1.3C139,93.9,138.9,92.7,139.8,92.9"/>
		<path class="st2" d="M173.6,94.1c-0.4,0.7-0.4,1.9-1.3,2.1c-0.2-0.1-0.7-0.2-0.6-0.6C172.2,94.9,173,94.5,173.6,94.1"/>
		<path class="st2" d="M139,94.4c-0.1,0.4-0.7,0.5-1,0.3l-0.4-1.4c0.4-0.2,0.5-0.1,0.8,0C138.5,93.7,138.8,94,139,94.4"/>
		<path class="st2" d="M137.3,94.6c-0.1,0.5-0.6,0.1-0.9,0.1c-0.9-0.5,0-1,0.3-1.4C137.1,93.4,137.3,94.1,137.3,94.6"/>
		<path class="st2" d="M141.5,94.9c-0.3,0.2-0.6,0.1-0.9,0.2c-0.4-0.4-0.4-1-0.3-1.6c0.3-0.2,0.6,0,0.8,0.2    C141.3,94,141.7,94.4,141.5,94.9"/>
		<path class="st2" d="M175.2,94.5c-1.2,1.2,1.2,3.3-1.4,2.8c-0.2-0.4-0.5-0.9-0.1-1.3C174.4,95.9,173.8,94.2,175.2,94.5"/>
		<path class="st2" d="M143,94.7c-0.4,0.4-0.9,0.1-1.2-0.1c-0.1-0.3-0.1-0.8,0.3-0.8C142.6,93.9,142.8,94.3,143,94.7"/>
		<path class="st2" d="M150.9,94.4c-0.1,0.8-0.7,1.5-1.5,1.1c-0.5-0.3-0.2-1,0.1-1.1C149.7,93.8,150.7,93.8,150.9,94.4"/>
		<path class="st2" d="M171.5,96.2c-0.2,0.5-0.8,0.1-1.2,0.2c-0.4-0.5,0-1.3,0.5-1.7C171.5,94.7,171.4,95.6,171.5,96.2"/>
		<path class="st2" d="M169.6,96.4c-0.6,0.1-1.1,0.7-1.7,0.2c0.1-0.7,1-0.5,1.1-1.2C169.5,95.6,169.7,95.9,169.6,96.4"/>
		<polyline class="st2" points="112.9,94.8 113.6,94.5 113.2,95.2 112.9,94.8   "/>
		<path class="st2" d="M134.7,19.7L134.7,19.7C134.7,19.7,134.7,19.7,134.7,19.7"/>
		<path class="st2" d="M162.6,17.7c-0.5,1.5-1,4.2-1,4.2l2.3,0.7l-0.8,3.3l-7.1-1.6l0.6-3.5l2.4,0.5l1-4.5c0,0-7.5-1.3-11.2-1.5    c0.1,0.1-0.3,4.4-0.3,4.4l2.9,0.3l-0.6,3.5l-7.4-0.5v-3.3l2.8-0.1c0-0.2-0.1-4.5,0-4.5c-1.9-0.1-3.3-0.1-5.2-0.1h-0.5    c-1.9,0-3.7,0-5.7,0.1c0.1,0,0,4.4,0,4.5l2.8,0.1v3.3l-7.4,0.5l-0.6-3.5l2.9-0.3c0,0-0.4-4.4-0.3-4.4c-3.7,0.2-11.2,1.5-11.2,1.5    l1,4.5l2.4-0.5l0.6,3.5l-7.1,1.6l-0.8-3.3l2.3-0.7c0,0-0.9-3.7-1-4.2c-4.7,0.8-11.3,3.1-11.3,3.1l1.6,4.3l1.6-0.5l5.5,13.7    c10.8-2.4,17.8-3.7,24.8-3.6c7.1,0,14,1.2,24.9,3.6l5.5-13.7l1.6,0.5l1.6-4.3C173.9,20.9,167.3,18.5,162.6,17.7z"/>
		<path class="st2" d="M146,19.7L146,19.7C146,19.7,146,19.7,146,19.7"/>
		<path class="st2" d="M211.3,23.9L177.6,39l-3.1,1.7c-3.6,3.3-2,9.1-5.1,12.5l-7.5,3.6c0.6,2.8,0.7,5.6,0.4,8.3c0,0,5.5,3,5.9,3    l7.3-2.4c5.5-0.3,10.6,3.8,16.5,2.6l34-16c-7.6-2.2-16.1-3.7-23.6-6L211.3,23.9z"/>
		<path class="st9" d="M97.9,49.1c-2.3,0-4.4,0.2-6.5-0.2c-2.9-1.2-6-0.5-8.7,0.5c0.4,0.5,0.2,1.2,0.8,1.6c6,3.4,12.7,4.9,20.2,4.9    c-0.1-2.1-0.5-4.2-1.1-6.1C101.3,47.9,99.5,50.3,97.9,49.1z"/>
		<path class="st9" d="M129.6,48.1c-1.6-1.1-2.8,1-4.5,0.3c-1.4,1.5-4,0-5.3,1.7c-2.3-0.2-4.4,1.3-6.8,0.4c-1.1,0.9-2.6,1.1-4,1.5    c-0.2,1.6-0.3,3.3,0.3,4.8c7.6,0.3,16,0.2,23.8,1.3c-0.3-2.6-0.8-5.2-1.8-7.6L129.6,48.1z"/>
		<path class="st9" d="M155.9,51.2c-1.5,1.3-4.3-0.4-5.7,1.2c-2.4,0.5-5,0.2-7.2,1c-2.1-0.6-3.8,0.8-5.7,1.3c-0.3,1.5,0.3,2.7,0.4,4    c7.4,1.3,14.9,2.7,21.4,5.5c0.5-3.6,0-7.1-0.7-10.2C157.8,52.9,157.8,50.7,155.9,51.2z"/>
		<path class="st9" d="M69.5,57c0-0.4,0-1.1,0.4-1.3c0.1,0.1,0.5,0.1,0.4,0.4c0.4-1.4-1.3-0.4-1.4,0.4c-0.9,3.4-0.5,7.3,0.3,10.6    c1.3,1.3,0.6,3.5,1.1,5.1c0.2,2.1,1.7,3.6,1.4,5.8c1.3,1.5,1.9,3.5,3.4,4.7c0.5,0.4-0.4,1.1,0.3,1.5c3.2-0.8,5.4-3.5,7.8-5.4    c-6.7-6-11.4-12.6-12.8-21.7C70.4,56.8,69.8,57.5,69.5,57z"/>
		<path class="st2" d="M92.8,80.8l3.9,2c1.7-0.2-0.1-2.5,1.9-1.8c0.2,1,0.6,2.2,0.3,3.2c-2.7,1.8-0.8,0.7-3.8,2.1    c-1-3.5-10-3.8-11.1-7.2c0.2-0.3,0.1-2.2,0.6-1.9L92.8,80.8"/>
		<path class="st2" d="M87,79.2c-4.9,9.9-13.1,19.6-20.2,27.7c11-0.4,24.1,0,34.9,2.6c-1.8-3.5-3-5.6-4.7-8.7l-5.7-12.2L87,79.2z"/>
		<path class="st2" d="M150.9,78.3c-4-5.3-22.6-1.3-28.8-3.5c-11.4,5.5-22.3,10.1-33.9,15.3l5.5,11.7l53.8-24.1L150.9,78.3z"/>
		<path class="st9" d="M97.9,49.1c-2.3,0-4.4,0.2-6.5-0.2c-2.9-1.2-6-0.5-8.7,0.5c0.4,0.5,0.2,1.2,0.8,1.6c6,3.4,12.7,4.9,20.2,4.9    c-0.1-2.1-0.5-4.2-1.1-6.1C101.3,47.9,99.5,50.3,97.9,49.1z"/>
		<path class="st9" d="M155.9,51.2c-1.5,1.3-4.3-0.4-5.7,1.2c-2.4,0.5-5,0.2-7.2,1c-2.1-0.6-3.8,0.8-5.7,1.3c-0.3,1.5,0.3,2.7,0.4,4    c7.4,1.3,14.9,2.7,21.4,5.5c0.5-3.6,0-7.1-0.7-10.2C157.8,52.9,157.8,50.7,155.9,51.2z"/>
		<path class="st9" d="M129.6,48.1c-1.6-1.1-2.8,1-4.5,0.3c-1.4,1.5-4,0-5.3,1.7c-2.3-0.2-4.4,1.3-6.8,0.4c-1.1,0.9-2.6,1.1-4,1.5    c-0.2,1.6-0.3,3.3,0.3,4.8c7.6,0.3,16,0.2,23.8,1.3c-0.3-2.6-0.9-5.2-1.8-7.6L129.6,48.1z"/>
		<path class="st9" d="M69.5,57c0-0.4,0-1.1,0.4-1.3c0.1,0.1,0.5,0.1,0.4,0.4c0.4-1.4-1.3-0.4-1.4,0.4c-0.9,3.4-0.5,7.3,0.3,10.6    c1.3,1.3,0.6,3.5,1.1,5.1c0.2,2.1,1.7,3.6,1.4,5.8c1.3,1.5,1.9,3.5,3.4,4.7c0.5,0.4-0.4,1.1,0.3,1.5c3.2-0.8,5.4-3.5,7.8-5.4    c-6.7-6-11.4-12.6-12.8-21.7C70.4,56.8,69.8,57.5,69.5,57z"/>
		<path class="st9" d="M82.1,42.9c2-1.3,4.3-2,6.7-2.5l0.3-0.2c3.3-0.3,7.4,0.3,10.9,0.8c-2.1-3.3-4.8-6.4-8.6-7.8    c1.9-3.9,3.6-8.4,2.8-13.4c-3.2,1.9-6.3,4.4-9.5,6.8c-4.2,2.4-5.5,7.5-7.4,11.7c1.5,0.1,3.6-0.1,4.8,1.1    C82.8,40.4,82.2,41.8,82.1,42.9z"/>
		<path class="st2" d="M188.5,94.2c2.8,1.6,7.1,1.6,9.8,0c0.4-2.3-1.2-3.4-1.9-5.1c-9.4-11.1-22.1-17.5-34.7-23.7    c0.7-4.9-0.4-9.5-1.9-13.8c-0.1-0.3-0.2-0.6-0.4-0.8c-0.5-0.8-1-2-2-2.1c-0.3,0-0.6,0.2-0.9,0.4c-1.1,1.1-2.8,0.9-4.4,0.7    c-0.4,0-0.9,0-1.3,0.2l-2.7,1.4c-2.3-0.8-4.1,0.7-6.1,0.3c-0.2,0-0.5,0-0.7,0.1c-1.6,0.7-3.5,0.9-5.2,1.2c-1,1.5-0.3,3.5-0.2,5.2    c0,0.6-0.6,0-0.9,0.1l-1.1-5.3c-1-2.6-1.8-5.9-4.6-7c-0.8-0.3-2-0.4-2.7,0.3c-0.2,0.2-0.5,0.3-0.7,0.3c-1.4,0.1-2.5,1-3.9,1    c-0.4,0-0.7,0.2-1,0.4c-0.8,0.7-2,0.5-3.1,0.4c-0.4,0-0.8,0.1-1.1,0.2c-1,0.5-2.1,0.5-3.2,0.3c-0.3-0.1-0.7,0-1,0.2    c-1.3,0.8-3,0.5-4.4,1.1c-1.1,1.1-0.9,3-1.1,4.5c0,0.5-0.2,1.2-0.9,1.2c-1.4-2.8-1-6.3-3.1-8.7c-1.1-0.3-2.4,0-3.5,0.4    c-0.3,0.1-0.6,0.1-0.9,0c-3.5-0.9-7-0.4-10.6-0.9c-0.2,0-0.5,0-0.7,0.1c-1.2,0.5-2.5-0.2-3.7-0.3c-1-0.3-2.3,1.7-2.7,0    c4.3-6.7,14.3-4.7,21.3-3.4c-0.2-5-4.8-8.5-8.4-10.9c2.1-3.5,2-7.9,2.1-12.1c-0.4-0.9-0.1-3-1.7-2.5l-5.8,3.9    c-8.8,4.4-11.9,13.7-16.4,21.6c-2.6,3.6-0.3,9.6-4.2,12.3c-0.4,0.3-0.6,0.6-0.7,1c-0.1,0.7,0,1.6-0.3,2.2c0.8,1-0.4,3.8,0.2,4.8    c-0.6,1.7,0.9,2.3,0.6,3.6c0,0.2,0,0.3,0.1,0.5c0.8,1,0.7,2.1,0.6,3.3c0,0.3,0,0.7,0.2,0.9c0.6,0.9,0.5,2,0.6,3.1    c0.1,0.5,0.3,0.9,0.6,1.2c1,1.1,0.1,3.3,1.6,4.1c0.2,1.7,1.9,2.8,1.9,4.6c0,0.3,0.1,0.6,0.3,0.8c0.4,0.4,0.9,0.4,1.5,0.3    c3.6-1.9,8.7-4.2,9.4-8.9c-5.8-3.5-7.9-9.2-11.7-14.6l-1.1-5.1c-0.3-1.7-1-4.2,0.4-5.4c0.3,0.6,0.3,1.5-0.1,2    c0.9,0.6-0.2,2.2,0.8,2.6c0.2,0.6,0.4,1.4,0.2,1.9l0.1,0.2c2.1-1.4,1.4,1.9,3,2c0.5,0.9,1,1.6,0.6,2.5c0.7-0.1,1.3-0.4,2-0.4    c2.3,2.6,5.5,4.4,8.8,5.5c3.9,2.5,8.4,3.6,12.9,4.7c3,1.7,6.7,0.9,9.7,2.5c-0.4,0-0.9,0.3-0.9,0.8c-0.2,0.6,0.6,0.5,0.9,0.5    c0.7-0.1,0.3-0.9,0.2-1.2c0.5-0.1,0.8,0.2,1.3,0.1l-0.2,1.1c0.1,0.4,0.6,0.1,0.8,0.3c0.7,0,0.8-1,0.4-1.2l3.2,0.7    c1-0.5,2.5-0.7,2.9-1.8c-2.8,0-5.6-0.1-8.1-1c-7.3-1-14.1-3.3-21-5.4c-4.5-3.3-11.2-5-13-10.5c0.5,0.1,0.9,1.1,1.8,0.8    c0.7-1.4-1.1-1.4-1.6-2.1c0.6-0.5,1.3,0.4,1.9-0.3l-0.7-0.9l0.1,0c0.6-0.3,0.2-1.1-0.1-1.5c-0.7,0.4-1.2,1.3-2.1,1.3    c-0.2-0.4-0.3-0.8-0.3-1.3l-1,0l0.8-1.2c-0.6-0.5-1.5,0.3-2.2-0.1c0-0.7-0.7-1.6,0.2-2.1c2.2-1.3,4.7,0.5,6.4,1.1    C80,51.8,79.4,52,79,52.3c-0.5,0.9,1,0.7,0.7,1.7c0.6-0.1,1.5-0.6,1.7,0.2c-0.3,0.4-0.8-0.1-1.2,0c-0.4,0.7,0.2,1.8,0.8,2.4    c-2.7,0.8,0.6,1.8,0.3,3.3c0.4,0.1,0.6-0.2,0.8-0.4c0.3-0.5,0.3-1.4,0.1-1.8c0.2,0,0.5,0.1,0.7-0.1c-0.1-1.1-1.2-2-0.8-3.1    c0.7,0.2,1.9,0.1,2.5,0.7l-1.6,0.4c0.2,2,3.5-0.2,3.5,2.1c-0.2,0.3-0.6,0.2-0.9,0.5c0,0.3-0.6,0.6-0.1,0.9    c0.4,0.3,0.9-0.1,1.3-0.2c0.4,0.2,0.2,0.7,0.5,1c1.3,0.5,0.9-1.3,1.4-1.9c1.4,0.2,0.3,2,1.2,2.7c0.9,0.2,1.8,0.8,2.6,1.3    c-1,0.4,0.1,1.5-0.3,2.1c0.3,0.2,0.7-0.1,1-0.3l0.8,1.4c1.3-1,0.9,1,2.2,0.6c0.4-0.6,0.8-1.2,0.8-2c-0.5-0.4-1.2-0.2-1.8-0.2    c0.1-0.6,1.1-1,1.7-1.2c0.3,0.5,0.5,1.4,1.2,1.2c0.9-0.3,0.7-1.2,1.1-1.9c1.2,0,0.6-1.6,0.9-2.2c1.4,0.8,0,2.5,0.4,3.7    c0.9,0.3,1.1-0.8,1.9-0.9c0.9,0.6,0.6,1.7,1.3,2.3c0.3,0.6,0.7-0.2,1-0.3l0.3,0.5c0.6,0.2,1.3,0.1,1.8-0.4    c1.6,1.7,1.7-2.1,3.4-0.8c1.2-0.4,1.2-2,2.2-2.3c0.4,1,0.6,2,1.4,2.7c1.6,0.5,1.1-2,2.2-2.5c1.4,2.1-2.1,3.2-1.9,5.4    c0.8,0.5,1.8-0.1,2.6-0.1c1.4-0.9,3.7-0.3,4.6-1.9c-0.1-0.3-0.2-0.6-0.6-0.5c-0.9,0.8-1.7-0.6-2.6-0.1c0.7-0.2,0.2-1.2,0.6-1.5    c0.6,0.1,1.2,0.9,1.9,0.7c0.5-0.5-0.2-1.9,0.8-2.1l-0.2,2.2c0.9,0.7,1.3-1.5,2.3-1.3c-0.1,0.5,0,0.9,0.3,1.4    c-0.7,0.5-2.2,0.3-1.9,1.5l1.5,0.2c0.6,0.3,0.3,1,0.5,1.5c-0.1,1.2-1.1,1.1-2.1,1.2c0,0.5-0.1,1.2,0.5,1.5    c0.9,0.3,0.9-0.9,1.2-1.1l0,0.1c0.5,0.2,1.5,0.5,2-0.1c0-0.5,0-1.1-0.5-1.4c1-0.4,0.9-2.8,2.5-2.4c-0.2,0.6-0.6,1.1-0.5,1.8    c0.2,0.8,1.2,0.7,1.7,1.2c-1,0.7-2.4,0.5-3.3,1.2c0.5,1.2-1,0.5-1.2,1.1c-0.4,0.6,0.6,1,0.3,1.6c-0.1-0.5-1.2-0.1-0.8-1    c0-0.4-0.3-0.7-0.8-0.6c-1.2-0.4-1,1.4-1.8,1.1c-1.1,0.3-0.8,1.6-0.8,2.4c0.3,0,0.6,0.2,0.8-0.2c0.4-0.5,1.2-1.3,0.8-2.1l0.2,0    c0.3,0.4,0.9,0.5,1.2,0.3c-0.1,0.3-0.4,0.6-0.7,0.8c0,0.4,0,0.8,0.4,1.1c0.7-0.2,1.9-0.1,2-1.1c1.5,0,0.2-1.6,1.2-2.3    c0.8,0.9,2.1,0.1,3.1-0.1c1.2-0.6,1.5-1.7,1.6-3c0.1-0.8-1-0.4-1-1.1l0.2-0.2c0.5,0,1,0,1.3,0.4c0.1,0.4,0.8,0.9,0.5,1.6    c0.4,2-2.7,1.7-2.3,3.5c0.7,0.2,1.8,0,2.3,0.7c1.3-0.5,0.2-1.9,0.2-2.8c0-0.7,0.4-1.4,1.1-1.2l-0.5,0.7c0,0.8,0.2,1.8,1.2,1.7    c0.1,0.7-0.8,1.3-0.1,1.9c0.9,0.8,0.8-0.5,1.4-0.6c-0.4-0.6-0.5-1.5-1.5-1.5c0.4-0.4,0.9-0.8,1.1-1.3c-0.1-0.7-0.8-0.6-1.1-0.9    c0.2-0.3,0.5-0.2,0.7-0.3c0.9-1,1.6-2.5,2.7-2.8c-0.1,0.9-1,1.6-0.8,2.5c1.2,0,2.1-1,3.1-1.5c-0.2,0.6-0.8,0.8-1.1,1.2    c-0.3,0.7-0.1,1.9-1,2.1c0.5-1-0.7-1.3-1.4-1.3c-0.6,0.4-0.6,1.4-0.5,2.1c0.4,0.3,0.1,1.2,0.9,1c0.7-0.1,0.4-0.8,0.6-1.2    c0.5-0.2,0.4,0.6,0.9,0.4c1.3-1,2.6,0.9,3.7,0c-0.4-1.4,1.2-0.4,1.7-0.9c0.4-0.8,1.7-0.7,2-1.5c0.5,0,0.8,0.1,1.1,0.3    c-0.2,0.9-1.2,1.4-1,2.3c0.4,0.2,0.9,0.8,1.4,0.5c0-0.8,0.3-1.3,0.9-1.7c0.5,1.1,2,1.2,2.8,0.8c-0.3,0.9,0.6,1.5,0.9,2.1    c1.4-0.1,1.1-1.4,2-2c0.6,0.9,0.2,1.6,0.1,2.5c0.3,0.5,0.9,0.8,1.4,0.5c0.7-0.7,0.5-1.6,0.5-2.6c1.3,0.1,0.7-1.4,0.9-2.1l0.5,0    c1.9,1.3-0.8,2.2-0.2,3.8c-1.7,0-0.5,2.5-2.3,1.7c0.2,1.4,1.6,1.8,1.8,3.3c0.4,0.3,1.1-0.1,1.4-0.5c0-0.6,0.1-1.4-0.4-1.8    c-0.6,0.4-1.3,0.2-1.9,0.2c0.2-0.5,0.4-1,1-1c0.4-0.1,1.3-0.4,1.2,0.2c0.4,0.8,1.2,0.3,1.7-0.2c0.6,0.3,0.4,1.3,1.2,1.4l1.3-1.4    l0.4,0.3c0.3,0.3,0.7,0,0.9-0.2c0.9-1.4,0.3-3.6,1.7-4.6c0.3,1.6-1.2,3.1-0.3,4.8c-0.8,0.9-1.9,1.4-1.9,2.6l0.5,0    c0.8-0.7,1.6-1,2.6-0.7c0.5-2.2,2.1,0.3,3-1.3c1.7,0.3,0.2,1.9,0.8,3.1c0.3,0.3,0.8,0.2,0.9-0.2c-0.2-1.3,1.7-1.9,0.8-3.2    c0-0.3,0.3-0.7,0.7-0.6c1.1,0.6,0.7,2.2,0.6,3.2c-2-0.5-0.2,1.4-1.2,2.1c-0.8,0.7-1.1-0.9-2-0.6c-0.4-0.2-0.6,0.2-0.8,0.4    c0.1,0.7,1,0.5,1.3,1.1c0.2,1-0.1,2.1-0.3,2.9c1.2,0.3,1.5-1.7,2.1-2.6c0.5-1.4,2.5-1.6,2.3-3.2c1.3,0.7,2.5,0.2,3.7-0.3    c0.1,0.6-0.2,0.9-0.2,1.4c0.4,0.5,1.2,0.1,1.6-0.4c0.2-0.2,0.8-0.4,0.8,0.1c-1.3,1.5,0.5,2.5,0.4,4c0.5,0.5,0.9-0.4,1.5-0.3    c1.4,0.5,3-0.5,4.2,0.2c-0.7,0.5-1.5,0.4-2.2,0.7c-1.1,0.5-3.2-0.5-3.1,1.2l1.7,0.1c1.4,0.6-0.4,1.7-0.5,2.7    c0.5,0.2,1.1,0.4,1.6,0.2c0.5-0.3,0.2-1.3,0.7-1.3l0,1.2c1.2,2.1,0.8-1.7,2.3-0.9c0.7,1.3,2.2,1.6,3.2,2.6    c1.6,1.3,3.7,0.1,5.2-0.2c0.8,1.3,2.9,2.2,2.6,4.3c-0.2,0.9-1.4,0.8-2.1,1.2c-3.2-0.6-6-2.2-9.5-2.4c-1.4,0.8-2.7,1.6-4.4,1.5    c-2,0.3-0.3-1.3-0.8-2c-1-0.3-2,0.5-2.9,0.8c0.2,1.7-1,3.7,0.2,5.2c-1.6,1.6-4.3,0.9-6.4,0.7c-4.1-0.5-7.2-3.1-10.5-5.2    c0.1-4.4,0.4-9.8,4.9-11.7l-0.4-0.4c-1.6,0.6-3,1.9-4,3c-0.6,2.7-2.4,4.9-1.9,8.1c0,1.8,2.1,3,3,4.1c4.2,4.3,11.3,2.6,16.9,3.5    c-2.9,1-6.1,0.6-9.3,0.2c-4.6,0.2-7.9-3-11.1-5.1c-2-0.9-0.9-3.4-1.1-5.1c-1-4.1,4.2-5,4.9-8.6c0-0.9,0.3-1.2,1.3-1.3    c0.2-0.5-0.2-0.8-0.4-1.2c-0.7-0.5-1.8,0.4-2.6,0.6c-0.6,0.4,0.1,0.8,0.4,1c-0.6,0.1-1.4-0.3-1.9,0.3c0,0.5-0.9,0.9-0.3,1.4    c0.7,0.8,1.2-0.3,1.5-0.8c0.2-0.2,0.7-0.3,0.9,0c-1.1,2.2-2.8,3.5-4.5,5.2c-0.4,3-0.7,6.7,0.9,9.3c2.5,1.6,5.3,3.4,7.9,4.9    c2.9,0.3,6,0.5,8.8,1c-2.4,0.7-5.3,0.6-7.9,0.5c-2.1-1.1-4.1-2.1-6.6-2.3c-0.1-0.7,1.1-1,0.4-1.7c-2.7,0.8-5,2.8-7.6,3.5    c0.7-0.6,1.2-1,1.7-1.7c1-1.2,3-0.9,3-2.7c-2.2-0.3-3,2.7-5.4,2.9c-0.3,0.8-1.3,1.3-0.8,2.2c-0.5,0.1-1.1,0.2-1.4-0.1l0.8-1.2    c-0.4-2,2.1-1.1,3-2.1c0.8-1,1.2-2.4,2.8-2.6c0.1-0.1,0.2-0.5-0.1-0.7c-4.9,0.4-10,2.4-14.9,0.3c-5.6,0-12-1.1-17.5-2.7l-0.2-1.1    c-1.4,0.1-1.4-1.6-2.5-2c-2-1-1.4,0.8-2.8,0.6c-0.5,1.2-1.7,0.4-2.6,0.6c-3.9,1-7.7,3.3-9.8,6.9c-0.1,0.5,0.4,0.7,0.9,0.4    c1.9-1.2,2.9-3.2,4.9-4.1c-0.7,1.4-2.6,2.5-3.8,3.7c-0.3,0.3-0.6,0.8-0.2,1.1c0.9,0.7,3.1-2.3,4.6-3.4c0.4-0.5,1.2-0.6,1.7-0.4    c-1.3,1.6-2.9,2.6-4.6,3.9c-0.2,0.2-0.3,0.5,0,0.5c3.1-0.6,4.9-4.3,7.6-5.4c-0.7,2.2-3,3.4-4.7,5.2c-3,2.8-5.7-1.3-9-0.6    c-0.9-0.3-1.5-1.3-2.6-1.2c-0.5,0.2-1.2,0.5-1.4,0.9c0.7,1,2,1.8,3.5,1.5c0.9,1.1,2.7,1.2,4,0.9c0.5,0.6,0.7,1.6,1.6,1.7    c5-0.2,7.4-5,10.8-7.8c9.5,2.1,20.5,1.5,29.8,4.3c-0.8,1.1-2.1,1.8-3.1,2.7c-0.3,0.3-0.3,0.5,0,0.6l2.8,1.3c3.1,1.2,5.9-0.3,8-2.4    l7.2,0.8c1,0.6,1.3,1.7,2.7,1.6l13.5-1c1.9,0.4,4.2,0.5,6.2,0.1c1.4,0.3,3.9-1,4.6,0.8c-0.3,1.2-1.7,2-2.3,3l0.2,0.2    c2.6-0.3,4.3-2.7,5.1-4.9c1.1-0.4,2.4-0.7,3.2-1.6c0.1-0.5,1-0.9,0.4-1.4c-2.2-0.9-4.7-1.2-6.6-2.3c0.3-0.2,0.5-0.6,0.4-1.1    c-1.5-0.4-3.9,0.4-5-1C186.4,94,187.6,94.1,188.5,94.2z M83.2,78.6c-2.4,1.9-4.6,4.6-7.8,5.4c-0.7-0.4,0.2-1-0.3-1.5    c-1.4-1.1-2-2.9-3.1-4.3c-0.2-0.2-0.2-0.5-0.2-0.8c0.1-2-1.3-3.4-1.4-5.4c-0.5-1.6,0.1-3.7-0.9-5c-0.1-0.1-0.2-0.2-0.2-0.4    c-0.8-3.2-1.2-7-0.3-10.4c0.1-0.8,1.8-1.8,1.4-0.4c0.1-0.3-0.3-0.4-0.4-0.4c-0.4,0.2-0.4,0.9-0.4,1.3c0.3,0.6,0.9-0.2,0.9-0.1    C71.8,66,76.5,72.6,83.2,78.6z M77.3,38.3c2-4.1,3.2-9.3,7.4-11.7c3.1-2.4,6.2-4.9,9.5-6.8c0.8,5-0.9,9.5-2.8,13.4    c3.9,1.4,6.5,4.4,8.6,7.8c-3.5-0.5-6.7-0.9-10.7-0.7l-0.5,0.1c-2.4,0.5-4.7,1.1-6.7,2.5c0.1-1.1,0.7-2.5,0-3.5    C80.9,38.2,78.8,38.4,77.3,38.3z M83.4,51c-0.6-0.4-0.4-1.1-0.8-1.6c2.7-1.1,5.9-1.8,8.7-0.5c2.1,0.4,4.2,0.2,6.5,0.2    c1.6,1.1,3.4-1.3,4.6,0.7c0.6,1.9,0.9,4,1.1,6.1C96.1,56,89.4,54.4,83.4,51z M109.3,56.8c-0.6-1.4-0.5-3.2-0.3-4.8    c1.2-0.3,2.6-0.5,3.6-1.2c0.2-0.2,0.5-0.2,0.8-0.1c2,0.5,3.8-0.5,5.7-0.6c0.4,0,0.7-0.2,1-0.4c1.4-1.1,3.6,0,4.9-1.3    c1.5,0.7,2.6-1,4-0.5c0.3,0.1,0.5,0.3,0.7,0.5l1.3,1.7c0.2,0.3,0.4,0.6,0.5,0.9c0.8,2.2,1.3,4.6,1.6,7.1    C125.3,57,117,57.1,109.3,56.8z M159.1,64.2c-6.6-2.8-14-4.3-21.4-5.5c-0.1-1.2-0.7-2.3-0.5-3.7c0-0.2,0.1-0.3,0.3-0.3    c1.8-0.5,3.5-1.8,5.5-1.2c2.1-0.8,4.6-0.5,6.9-1c0.2,0,0.4-0.2,0.6-0.3c1.4-1.2,4,0.2,5.4-1c1.8-0.5,1.9,1.5,2.5,2.6    c0,0.1,0.1,0.2,0.1,0.3C159.1,57.3,159.6,60.7,159.1,64.2z M193.6,99.2l1.1,0c0.3,0.8-0.8,1-1.3,1.3c-5.2-0.8-9.8-3.1-14.7-4.7    c-0.2-0.4-0.7-0.6-0.4-1.1c1.2-0.3,2.4,0.2,3.4,0.8C185.5,97.3,189.8,97.6,193.6,99.2z"/>
		<path class="st2" d="M72.8,66.9c-0.3-0.4-0.2-1.4-1-1.2c-0.7,0.5-2.2,0-2.1,1.1c0.2,0.4,0.5,1,1,0.9l0.1-0.1    C71.5,67.3,72.4,67.4,72.8,66.9z"/>
		<path class="st2" d="M70.8,68.1c-0.9,0.2-0.2,0.9-0.1,1.3c0,0.6,3-0.4,3-0.4l0-0.6C73.5,67.5,72.6,67.3,70.8,68.1z"/>
	</g>
</g>
<g id="Layer_2" class="st0">
</g>
<g id="logo_text">
	<g>
		<path class="st2" d="M47.2,135.6c0,2.6,0,5.5,2.1,5.5c1.2,0,2-1.1,2-3.1v-16.7h7.9v15.6c0,6.7-3,10.4-9.4,10.4    c-7,0-10.2-4.1-9.6-11.7H47.2"/>
		<path class="st2" d="M72.4,128.9l-2.4,9.1h5L72.4,128.9 M59.8,146.6l8.6-25.3h8l8.6,25.3h-7.9l-0.9-3.3h-7.9l-0.9,3.3H59.8z"/>
		<polyline class="st2" points="103.4,135.1 103.1,129.3 103.1,121.2 110.7,121.2 110.7,146.6 103.3,146.6 94.7,132.8 95,138.6    95,146.6 87.4,146.6 87.4,121.2 94.8,121.2 103.4,135.1   "/>
		<path class="st2" d="M138.1,146.7h-5.4v-2.5c-1.3,1.6-3.5,3.1-7.3,3.1c-6.2,0-11.7-4.2-11.7-13c0-8.1,4.8-13.7,12.6-13.7    c5.8,0,10.4,3.2,11.4,9.4h-7.5c-0.6-2.1-2-3.2-4-3.2c-3.1,0-4.6,3-4.6,7.4c0,3.6,1.1,6.9,5,6.9c1.6,0,3.6-1.2,4-2.9h-3.5v-5.5    h10.8V146.7"/>
		<path class="st2" d="M153.3,128.9l-2.4,9.1h5L153.3,128.9 M140.7,146.6l8.6-25.3h8l8.6,25.3h-7.9l-0.9-3.3h-7.9l-0.9,3.3H140.7z"/>
		<path class="st2" d="M178.3,128.9l-2.4,9.1h5L178.3,128.9 M165.7,146.6l8.6-25.3h8l8.6,25.3h-7.9l-0.9-3.3h-7.9l-0.9,3.3H165.7z"/>
		<path class="st2" d="M201.3,132.2h3.1c2.4,0,3.7-0.6,3.7-2.4c0-1.8-1.3-2.6-3.2-2.6h-3.7V132.2 M215.5,146.6H208    c0-0.7,0-2.2,0-4.4c0-3.3-0.5-4.4-4.2-4.4h-2.4v8.8h-7.9v-25.3h11.4c8,0,10.7,2.3,10.7,7.2c0,2.9-1.2,5.4-4,6.2    c2.5,1,4.1,1.6,4.1,6.7"/>
		<path class="st2" d="M227.4,140.7h1.7c3.7,0,5.7-2,5.7-6.8c0-5.3-1.6-6.7-5.9-6.7h-1.5V140.7 M219.5,146.6v-25.3h10.6    c7.8,0,12.6,3.8,12.6,12.1c0,9.5-5,13.2-12.8,13.2H219.5z"/>
	</g>
</g>
<g id="changes" class="st0">
</g>
</svg>