<svg width="166.536227" viewBox="0 0 166.536227 39.9999748" version="1.1" xmlns="http://www.w3.org/2000/svg" xmlns:xlink="http://www.w3.org/1999/xlink" height="39.9999748" >
    <g id="Page-1" stroke="none" stroke-width="1" fill="none" fill-rule="evenodd">
        <g id="Group-12" fill="none">
            <path d="M161.934281,0.432146204 L161.934281,12.1435372 L148.800599,12.1435372 L148.800599,0.432146204 L144.199659,0.432146204 L144.199659,28.5182535 L148.800599,28.5182535 L148.800599,15.9083082 L161.934281,15.9083082 L161.934281,28.5182535 L166.536227,28.5182535 L166.536227,0.432146204 L161.934281,0.432146204 Z M17.7343706,0.432146204 L17.7343706,12.1435372 L4.600688,12.1435372 L4.600688,0.432146204 L0,0.432146204 L0,28.5182535 L4.600688,28.5182535 L4.600688,15.9083082 L17.7343706,15.9083082 L17.7343706,28.5182535 L22.3360648,28.5182535 L22.3360648,0.432146204 L17.7343706,0.432146204 Z M39.9995975,29.216092 C32.6114294,29.216092 26.8239053,23.1058229 26.8239053,15.3053562 C26.8239053,6.57992214 32.8124218,2.84217094e-14 40.7540107,2.84217094e-14 C48.2463226,2.84217094e-14 53.8962462,5.98071832 53.8962462,13.9114904 C53.8962462,22.6364214 47.9220683,29.216092 39.9995975,29.216092 M40.4926452,3.87218494 C35.1521341,3.87218494 31.2759243,8.25527794 31.2759243,14.2946085 C31.2759243,20.9806869 34.8052399,25.3006396 40.2675035,25.3006396 C45.6097754,25.3006396 49.4869915,20.9349039 49.4869915,14.9202256 C49.4869915,8.20874028 45.9566697,3.87218494 40.4926452,3.87218494 M62.9032708,28.5183038 L58.3015766,28.5183038 L58.3015766,0.432196515 L73.7628969,0.432196515 L73.7628969,4.45632063 L62.9032708,4.45632063 L62.9060379,12.3398004 L71.7660539,12.3398004 L71.7660539,16.1420531 L62.9060379,16.1420531 L62.9032708,28.5183038 Z M84.0130305,29.216092 C81.4099402,29.216092 78.1213627,28.0242247 76.4462584,26.8721032 L76.3124312,26.7802856 L76.5831043,21.8918188 L77.0341423,22.3129217 C78.4939155,23.6755948 81.5165995,25.1461849 83.8532932,25.1461849 C87.0236399,25.1461849 88.769431,23.7188622 88.769431,21.1273434 C88.769431,18.7627271 86.3542522,17.385967 83.7969449,15.9282062 C80.7843231,14.2113439 77.3702197,12.2650634 77.3702197,8.28420675 C77.3702197,4.30007987 80.5554081,2.84217094e-14 85.7022219,2.84217094e-14 C88.1767676,2.84217094e-14 90.7089195,0.814283289 92.3100666,2.12488444 L92.4687978,2.25468678 L91.0095276,6.26396916 L90.6913107,5.97367478 C89.4619618,4.85324915 87.4563143,4.07066178 85.8136607,4.07066178 C83.2410085,4.07066178 81.7052657,5.44213922 81.7052657,7.73959034 C81.7052657,9.69995786 83.7846187,10.8812598 86.1917477,12.2489639 C89.4068712,14.0757558 93.0508958,16.1460528 93.0508958,20.7786883 C93.0508958,25.7466465 89.3344234,29.216092 84.0130305,29.216092 M113.920521,28.5183038 L97.6690669,28.5183038 L97.6690669,0.432196515 L113.146487,0.432196515 L113.146487,4.45632063 L102.263969,4.45632063 L102.263969,11.96926 L111.39818,11.96926 L111.39818,15.7488727 L102.263969,15.7488727 L102.263969,24.4446233 L113.920521,24.4446233 L113.920521,28.5183038 Z M130.747307,28.5183038 L126.145361,28.5183038 L126.145361,4.45632063 L117.128375,4.45632063 L117.128375,0.432196515 L139.764041,0.432196515 L139.764041,4.45632063 L130.747307,4.45632063 L130.747307,28.5183038 Z" id="Combined-Shape" fill="#FFFFFF"></path>
            <polygon id="Fill-13" fill="#36B8CB" points="31.0824283 39.9999748 135.432693 39.9999748 135.432693 38.1040054 31.0824283 38.1040054"></polygon>
        </g>
    </g>
</svg>