<svg xmlns:xlink="http://www.w3.org/1999/xlink" id="Layer_1" data-name="Layer 1" xmlns="http://www.w3.org/2000/svg" viewBox="0 0 167.16 46.01" width="250"  height="80" ><defs><style>.cls-1,.cls-2,.cls-3{fill:none;stroke:#fff;stroke-linecap:round;}.cls-1,.cls-3{stroke-miterlimit:10;}.cls-1,.cls-2{stroke-width:1.5px;}.cls-2{stroke-linejoin:round;}.cls-3{stroke-width:1.54px;}.cls-4{fill:#fff;}</style></defs><g id="CLR"><path class="cls-1" d="M39.75,35.41h4.84a4.07,4.07,0,0,0,2.83-1.19l7-7" transform="translate(-18.74 -12.99)"/><path class="cls-2" d="M36.78,33.53V27.76A4,4,0,0,1,38,24.93L48.54,14.3" transform="translate(-18.74 -12.99)"/><path class="cls-3" d="M36.78,33.53V43.4a1.26,1.26,0,0,1-1.26,1.24,1.23,1.23,0,0,1-.87-.36l-1.36-3.21a4.16,4.16,0,0,0-2.24-2.22l-3.14-1.31a1.25,1.25,0,0,1,.88-2.13h5" transform="translate(-18.74 -12.99)"/><line class="cls-1" x1="18.04" y1="13.41" x2="13.88" y2="13.41"/><path class="cls-1" d="M19.49,52.8c3.46-.39,7.14-3,7.65-3.39a.09.09,0,0,1,.13,0c.57.42,4.84,3.47,8.45,3.31,3.3-.14,7-3,7.46-3.36a.1.1,0,0,1,.13,0c.54.41,4.41,3.29,7.79,3.33s7.44-2.89,8-3.3a.07.07,0,0,1,.12,0c.53.39,4.42,3.24,7.93,3.58" transform="translate(-18.74 -12.99)"/><path class="cls-1" d="M19.49,58.11c3.46-.4,7.14-3,7.65-3.39a.09.09,0,0,1,.13,0c.57.42,4.84,3.46,8.45,3.31,3.3-.15,7-3,7.46-3.37a.08.08,0,0,1,.12,0h0c.54.41,4.41,3.28,7.79,3.33s7.44-2.89,8-3.31a.07.07,0,0,1,.12,0c.53.4,4.42,3.24,7.93,3.58" transform="translate(-18.74 -12.99)"/><path class="cls-1" d="M56,19.29h2.44a.1.1,0,0,1,.1.1v2.68a2.61,2.61,0,0,1-2.61,2.61H50.66a3.16,3.16,0,0,1-3.15-3.15h0v-5a2.76,2.76,0,0,1,2.75-2.78H58a.47.47,0,0,1,.49.47v2.13" transform="translate(-18.74 -12.99)"/></g><g id="NEG"><path class="cls-4" d="M83.38,33.53a2.8,2.8,0,0,1-2.19-.88l1.1-1.09a1.4,1.4,0,0,0,1.09.48c.82,0,1.34-.48,1.34-1.46V24.91h1.67v5.74a2.83,2.83,0,0,1-2.76,2.88Z" transform="translate(-18.74 -12.99)"/><path class="cls-4" d="M93.42,32.63a3,3,0,0,1-2.28.9,3.13,3.13,0,0,1-2.29-.9C88,31.77,88,30.81,88,29.18s0-2.59.86-3.44a3.05,3.05,0,0,1,2.29-.9,3,3,0,0,1,2.28.9c.85.85.88,1.81.88,3.44S94.27,31.77,93.42,32.63Zm-1.21-5.84a1.36,1.36,0,0,0-1.08-.46,1.41,1.41,0,0,0-1.08.46c-.31.35-.4.76-.4,2.39s.09,2,.4,2.39a1.46,1.46,0,0,0,2.15,0c.31-.36.42-.76.42-2.39S92.52,27.14,92.21,26.79Z" transform="translate(-18.74 -12.99)"/><path class="cls-4" d="M100.56,33.45V29.88H97.67v3.57H96V24.91h1.66V28.4h2.89V24.91h1.67v8.54Z" transform="translate(-18.74 -12.99)"/><path class="cls-4" d="M109.13,33.45l-.5-1.51h-3l-.51,1.51h-1.83l3.11-8.54h1.3l3.12,8.54Zm-2-6-1.08,3.11h2.08Z" transform="translate(-18.74 -12.99)"/><path class="cls-4" d="M116.93,33.45l-3.38-5.23v5.24h-1.67V24.91h1.49l3.38,5.23V24.91h1.67v8.54Z" transform="translate(-18.74 -12.99)"/><path class="cls-4" d="M87.41,46.55a3.1,3.1,0,0,1-2.41,1,3.15,3.15,0,0,1-2.28-.9c-.85-.86-.86-1.82-.86-3.45s0-2.59.86-3.44a3.29,3.29,0,0,1,5.5,1.84H86.54A1.45,1.45,0,0,0,85,40.35a1.36,1.36,0,0,0-1.07.46c-.31.35-.4.76-.4,2.39s.09,2,.4,2.41a1.42,1.42,0,0,0,1.07.45,1.58,1.58,0,0,0,1.19-.48,1.74,1.74,0,0,0,.38-1.14v-.31H85V42.7h3.23V44A3.34,3.34,0,0,1,87.41,46.55Z" transform="translate(-18.74 -12.99)"/><path class="cls-4" d="M89.93,47.45V38.91H91.6v8.54Z" transform="translate(-18.74 -12.99)"/><path class="cls-4" d="M95.94,47.53a4,4,0,0,1-3.11-1.13l1.08-1.08a2.81,2.81,0,0,0,2,.72c1,0,1.52-.39,1.52-1.07a1.05,1.05,0,0,0-.26-.71A1.22,1.22,0,0,0,96.4,44l-1-.16a3,3,0,0,1-1.66-.71,2.24,2.24,0,0,1-.61-1.68c0-1.52,1.13-2.59,3-2.59a3.65,3.65,0,0,1,2.76,1l-1.06,1a2.36,2.36,0,0,0-1.7-.55c-.89,0-1.31.5-1.31,1.08a.76.76,0,0,0,.24.61,1.44,1.44,0,0,0,.78.33l1,.15a2.65,2.65,0,0,1,1.63.68,2.3,2.3,0,0,1,.66,1.8C99.13,46.59,97.74,47.53,95.94,47.53Z" transform="translate(-18.74 -12.99)"/><path class="cls-4" d="M105.65,47.45l-2.19-3.88-1.11,1.32v2.56h-1.66V38.91h1.66v3.72l3-3.72h2l-2.83,3.4,3,5.14Z" transform="translate(-18.74 -12.99)"/><path class="cls-4" d="M108.67,47.45V38.91h5.62V40.4h-4v2h3.37v1.49h-3.33V46h4v1.48Z" transform="translate(-18.74 -12.99)"/><path class="cls-4" d="M121.07,46.63a3.1,3.1,0,0,1-2.28.9,3.6,3.6,0,0,1-1.35-.26l-.35.71H115.9l.64-1.32h0c-.85-.86-.86-1.82-.86-3.45s0-2.59.86-3.44a3.05,3.05,0,0,1,2.29-.9,3.21,3.21,0,0,1,1.36.27l.34-.72h1.18l-.64,1.32h0c.85.85.88,1.81.88,3.44S121.92,45.77,121.07,46.63ZM117.41,45l2.14-4.45a1.4,1.4,0,0,0-.76-.2,1.38,1.38,0,0,0-1.08.46c-.31.35-.41.76-.41,2.39A8.38,8.38,0,0,0,117.41,45Zm2.72-3.59L118,45.83a1.5,1.5,0,0,0,1.84-.26c.31-.36.42-.76.42-2.39A8.93,8.93,0,0,0,120.13,41.39Z" transform="translate(-18.74 -12.99)"/><path class="cls-4" d="M129.31,46.22a2.93,2.93,0,0,1-2.57,1.24h-3.09V38.91h3.09a2.89,2.89,0,0,1,2.57,1.25c.53.73.54,1.61.54,3S129.84,45.48,129.31,46.22Zm-1.47-5.28a1.48,1.48,0,0,0-1.25-.53h-1.27V46h1.27a1.54,1.54,0,0,0,1.25-.53c.31-.37.35-.91.35-2.26s-.06-1.89-.35-2.26Z" transform="translate(-18.74 -12.99)"/><path class="cls-4" d="M131.56,47.45V38.91h5.63V40.4h-4v2h3.37v1.49h-3.33V46h4v1.48Z" transform="translate(-18.74 -12.99)"/><path class="cls-4" d="M144.13,46.55a3.41,3.41,0,0,1-4.69.08c-.85-.86-.87-1.82-.87-3.45s0-2.59.87-3.44a3.27,3.27,0,0,1,4.63.12,3.31,3.31,0,0,1,.86,1.72h-1.68a1.43,1.43,0,0,0-1.53-1.25,1.33,1.33,0,0,0-1.07.46c-.31.35-.41.76-.41,2.39s.1,2,.41,2.41a1.38,1.38,0,0,0,1.07.45,1.55,1.55,0,0,0,1.18-.48,1.65,1.65,0,0,0,.39-1.14v-.31h-1.57V42.7h3.22V44A3.39,3.39,0,0,1,144.13,46.55Z" transform="translate(-18.74 -12.99)"/><path class="cls-4" d="M151.35,47.45l-.51-1.51h-3l-.52,1.51h-1.74l3.11-8.54H150l3.13,8.54Zm-2-9a1.57,1.57,0,1,1,1.57-1.57,1.57,1.57,0,0,1-1.57,1.57Zm.06,3-1.08,3.11h2.12Zm-.06-5.27a.67.67,0,0,0-.7.67v0a.68.68,0,0,0,.61.77A.7.7,0,0,0,150,37v-.16a.69.69,0,0,0-.67-.71h0Z" transform="translate(-18.74 -12.99)"/><path class="cls-4" d="M158.68,47.45,157,44.05h-1.2v3.4h-1.68V38.91h3.35a2.58,2.58,0,0,1,2.76,2.38c0,.08,0,.16,0,.24a2.31,2.31,0,0,1-1.56,2.24l1.91,3.68Zm-1.3-7h-1.57v2.26h1.57a1.13,1.13,0,0,0,0-2.26Z" transform="translate(-18.74 -12.99)"/><path class="cls-4" d="M167.65,46.22a2.93,2.93,0,0,1-2.52,1.23H162V38.91h3.09a2.89,2.89,0,0,1,2.57,1.25c.53.73.54,1.61.54,3A5.07,5.07,0,0,1,167.65,46.22Zm-1.47-5.28a1.48,1.48,0,0,0-1.25-.53h-1.27V46h1.27a1.54,1.54,0,0,0,1.25-.53c.31-.37.35-.91.35-2.26s0-1.89-.35-2.26Z" transform="translate(-18.74 -12.99)"/><path class="cls-4" d="M177.54,47.45l-.5-1.51h-3l-.51,1.51h-1.74l3.11-8.54h1.23l3.12,8.54Zm-2-6-1.08,3.11h2.13Z" transform="translate(-18.74 -12.99)"/><path class="cls-4" d="M182.69,47.53a4,4,0,0,1-3.12-1.13l1.08-1.08a2.81,2.81,0,0,0,2,.72c1,0,1.53-.39,1.53-1.07a1.06,1.06,0,0,0-.27-.71,1.21,1.21,0,0,0-.76-.28l-1-.16a3,3,0,0,1-1.66-.71,2.19,2.19,0,0,1-.61-1.68c0-1.52,1.13-2.59,3-2.59a3.64,3.64,0,0,1,2.76,1l-1,1a2.37,2.37,0,0,0-1.75-.59c-.89,0-1.31.5-1.31,1.08a.76.76,0,0,0,.24.61,1.44,1.44,0,0,0,.78.33l1,.15a2.65,2.65,0,0,1,1.63.68,2.38,2.38,0,0,1,.66,1.8C185.86,46.59,184.49,47.53,182.69,47.53Z" transform="translate(-18.74 -12.99)"/></g></svg>