<svg xmlns:xlink="http://www.w3.org/1999/xlink" xmlns="http://www.w3.org/2000/svg" width="7.75" height="2.125" fill="none" viewBox="0 0 124 34"><g fill="#fff" clip-path="url(#logo_svg__a)"><path d="M30.698 22.021a5.3 5.3 0 0 0 1.63-1.124 5.4 5.4 0 0 0 1.6-3.853 5.64 5.64 0 0 0-1.573-3.881c-1.095-1.069-2.5-1.603-3.875-1.574-1.405-.029-2.782.533-4.27 1.996l-6.741 6.722 2.133 2.165 6.741-6.75c.9-.9 1.517-1.124 2.134-1.124.616 0 1.236.224 1.714.732.505.477.73 1.04.73 1.716 0 .338-.084.674-.224 1.012v3.965zM16.938 0c-1.433 0-2.81.562-3.85 1.602-1.067 1.068-1.627 2.474-1.6 3.853-.028 1.406.505 2.841 1.994 4.303l6.853 6.806 2.134-2.109-6.853-6.862c-.9-.9-1.096-1.49-1.096-2.137s.196-1.208.702-1.716a2.35 2.35 0 0 1 1.714-.702c.646-.028 1.237.224 1.714.732.506.506.76 1.097.76 1.717-.029.617-.254 1.208-1.151 2.108l-.843.844 2.133 2.137.871-.844c1.49-1.434 1.995-2.869 1.967-4.247.056-1.405-.534-2.812-1.573-3.853C19.748.536 18.343.03 16.939.002zM13.65 17.436l-2.161 2.137 6.825 6.833c.899.9 1.151 1.462 1.123 2.109 0 .645-.224 1.238-.73 1.744-.478.479-1.068.732-1.715.702-.646.028-1.236-.224-1.714-.702-.506-.534-.73-1.096-.759-1.744.028-.674.253-1.209 1.151-2.11l.844-.843-2.134-2.137-.871.844c-1.489 1.435-1.994 2.869-1.966 4.247-.056 1.407.533 2.813 1.573 3.853 1.067 1.096 2.47 1.602 3.875 1.63 1.433 0 2.81-.563 3.849-1.602a5.3 5.3 0 0 0 1.6-3.853c.029-1.406-.505-2.813-1.994-4.303l-6.797-6.806h.005zm12.274 4.387v-3.91l-.422-.394-2.133 2.137.843.844c.59.59 1.151 1.012 1.714 1.322h-.002M3.229 11.84a5.3 5.3 0 0 0-1.63 1.124A5.41 5.41 0 0 0 0 16.817c0 1.406.562 2.841 1.573 3.881 1.095 1.069 2.5 1.602 3.875 1.574 1.405.028 2.782-.533 4.27-1.996l6.742-6.722-2.134-2.165-6.74 6.749c-.9.9-1.518 1.124-2.134 1.124a2.32 2.32 0 0 1-1.714-.732c-.506-.477-.731-1.04-.731-1.716 0-.339.084-.674.224-1.012v-3.966.003zm.675 13.356v-2.446c.505.14 1.039.196 1.544.196.618 0 1.265-.084 1.883-.338v2.586c0 .928.112 1.518.365 1.773.224.224.702.366 1.742.366v.844h-7.64v-.844c1.04 0 1.517-.14 1.742-.366.254-.255.366-.845.366-1.773zm4.1-13.16v3.91l.42.394 2.134-2.137-.843-.844c-.59-.59-1.15-1.012-1.714-1.323zM7.33 8.661v8.774c-.76.956-1.32 1.152-1.883 1.152-.561 0-1.095-.168-1.544-.76V8.66c0-.928-.113-1.518-.366-1.772-.224-.224-.702-.367-1.742-.367v-.844h7.64v.844c-1.04 0-1.517.14-1.742.367-.253.254-.366.844-.366 1.772zm22.695 0v2.447a5.8 5.8 0 0 0-1.545-.197c-.618 0-1.265.085-1.882.339V8.664c0-.929-.113-1.518-.366-1.773-.224-.224-.702-.366-1.742-.366V5.68h7.64v.845c-1.04 0-1.517.14-1.742.366-.253.255-.366.844-.366 1.773zm-3.427 16.536v-8.773c.759-.957 1.32-1.153 1.882-1.153s1.095.168 1.545.76V25.2c0 .928.112 1.518.365 1.772.225.224.702.365 1.742.365v.845h-7.64v-.845c1.04 0 1.517-.14 1.742-.365.254-.255.366-.844.366-1.772zM57.654 25.324l-5.775-8.22c.23-.038.48-.171.748-.346s.537-.423.863-.748l4.144-4.263c.153-.154.25-.288.307-.404.076-.153.115-.25.115-.308 0-.192-.153-.309-.441-.385s-.652-.115-1.477-.115v-.576h6.023v.576c-1.114 0-1.65.096-2.11.268-.404.171-.843.5-1.323.96l-3.837 4.014 5.063 7.029q.834 1.182 1.267 1.556c.288.25.672.364 1.093.364v.597h-4.661v.002zm-3.837-.596v.596h-7.634v-.596c1.035 0 1.496-.077 1.726-.23s.364-.538.364-1.19V11.996c0-.635-.134-1.036-.364-1.21-.23-.154-.691-.25-1.726-.25v-.576h7.634v.576c-1.034 0-1.496.096-1.764.25q-.345.259-.345 1.21v11.31c0 .653.115 1.036.345 1.19.268.154.73.23 1.764.23m14.398-5.185-1.323.518c-.46.191-.863.46-1.17.767-.288.309-.442.768-.442 1.383 0 .538.134.96.422 1.286.288.364.651.538 1.113.538.23 0 .46-.058.71-.173.25-.116.48-.308.691-.538v-3.783zm-.575-3.111c-.363-.5-.958-.768-1.783-.768-.555 0-1.093.212-1.555.556-.48.364-.902.884-1.209 1.594l-.5-.192a5.32 5.32 0 0 1 1.747-2.555c.845-.691 1.822-1.018 2.993-1.018 1.305 0 2.302.365 3.05 1.115.73.747 1.093 1.728 1.093 2.976v5.147c0 .326.076.576.23.73a.63.63 0 0 0 .536.25.7.7 0 0 0 .404-.116c.115-.076.23-.191.403-.364l.327.346c-.212.365-.555.692-.997.998-.46.288-.997.442-1.592.442a2.85 2.85 0 0 1-1.535-.422c-.5-.308-.825-.747-1.016-1.364-.308.46-.747.885-1.285 1.249a3.3 3.3 0 0 1-1.842.538c-.747 0-1.418-.23-1.956-.692-.537-.441-.825-1.056-.825-1.844 0-.864.345-1.516.996-1.997.672-.46 1.535-.884 2.552-1.323l2.34-.885v-.596c0-.692-.192-1.306-.576-1.805m7.18-5.723c-.19-.154-.612-.212-1.591-.212v-.538h5.198v13.404c0 .635.076 1.018.212 1.19.154.154.48.23 1.381.23v.539H73.48v-.538c.921 0 1.267-.077 1.418-.23.154-.172.23-.556.23-1.19V11.86c0-.635-.116-1.018-.307-1.152h.002zm12.36 13.289a2.4 2.4 0 0 1-.922.191c-.825 0-1.514-.404-2.013-1.247-.5-.826-.748-1.9-.748-3.265 0-1.69.326-2.881.921-3.629.614-.768 1.285-1.132 2.034-1.132.288 0 .555.038.805.096.25.077.48.212.692.385v7.95c-.23.287-.5.517-.767.652zM93.108 9.96h-7.076v.538c.996 0 1.4.058 1.592.212.211.134.326.518.326 1.152v2.977a5 5 0 0 0-1.055-.577 4 4 0 0 0-1.305-.211c-1.323 0-2.552.556-3.702 1.67-1.151 1.114-1.706 2.612-1.706 4.533 0 1.573.442 2.86 1.362 3.86.883.98 1.956 1.461 3.223 1.461.767 0 1.4-.171 1.938-.518.537-.346.94-.73 1.247-1.132v1.402h4.891v-.538c-.921 0-1.267-.076-1.418-.23-.153-.171-.23-.555-.23-1.21V11.866c0-.635.116-1.018.327-1.153.191-.154.595-.212 1.591-.212v-.538zm15.496 13.384v-9.043h-8.497v.538c.517 0 .92.02 1.17.076.25.058.384.23.384.5 0 .117-.021.25-.077.403a4 4 0 0 1-.171.518l-2.072 5.09-2.243-5.243a4 4 0 0 1-.192-.5 1 1 0 0 1-.096-.385c0-.212.115-.346.307-.384.212-.058.499-.076.921-.076V14.3h-6.041v.539c.46 0 .825.076.996.23.172.153.384.537.634 1.094l4.488 9.41h.115l4.048-9.219c.307-.672.537-1.114.73-1.268.212-.171.556-.25 1.055-.25.537 0 .883.076 1.055.23.154.154.25.556.25 1.19v7.086c0 .652-.096 1.036-.25 1.21-.172.154-.518.23-1.438.23v.539h6.597v-.539c-.921 0-1.267-.076-1.418-.23-.172-.17-.25-.555-.25-1.21zm.134-13.943a9 9 0 0 1-1.075-.767h-.096l-2.839 4.437.212.153 5.103-3.052v-.097a14 14 0 0 1-1.305-.671zm9.131 8.412 3.453 5.397c.421.634.767 1.036 1.035 1.229.288.211.633.326 1.4.346v.538h-4.775l-3.28-5.165c-.133-.212-.25-.404-.363-.556l-.172-.23 3.72-3.399c.154-.171.288-.308.383-.441a.5.5 0 0 0 .154-.347c0-.115-.076-.212-.25-.268-.172-.058-.48-.076-.863-.076v-.538h4.391v.538c-.633 0-1.188.134-1.688.384-.46.289-.902.615-1.343 1.018l-1.802 1.574v-.004m-.958-7.853h-5.179l-.02 13.405c0 .634-.076 1.017-.23 1.19-.153.154-.48.23-1.418.23v.538h6.943v-.538c-1.285 0-1.63-.076-1.765-.23-.153-.173-.229-.556-.229-1.19V11.863c0-.634.096-1.018.307-1.152.191-.154.613-.212 1.592-.212V9.96h-.003zm-41.783 1.9c0-.635-.115-1.018-.307-1.152-.192-.154-.613-.212-1.592-.212v-.538h5.198"/></g><defs><clipPath id="logo_svg__a"><path fill="#fff" d="M0 0h123.757v34H0z"/></clipPath></defs></svg>